<svg xmlns="http://www.w3.org/2000/svg" viewBox="0 0 133 161"><path d="M3.6 70.4c1.1-10.1 3.8-19.8 8-28 .2 0 .3-.1.5-.3.3-.4.5-.9.4-1.4a57.6 57.6 0 0 1 5.7-8.5l.7-.6 1.2-.8 2-1.2c.4-.4 1-.7 1.5-1v1.3c0 .4.1.7.3 1a49.5 49.5 0 0 0-4.1 4.5A75 75 0 0 0 5.5 80.7a53.7 53.7 0 0 0-.3 6.2c-.4 1.6-.4 3.2-.3 4.5 0 2 .4 4 .9 6l.1.4.3 3 .4 5.3v2.4a103.7 103.7 0 0 1-3-38Z"/><path d="M5.2 73.8A31.4 31.4 0 0 1 14 57c2.3-2.4 4.4-5 7.1-6.6h.4l-.1.3v.2l-.5.6-.3.4-.8.9-.7.7a9.2 9.2 0 0 1-.7.9l-1 .8-.3.4-.1.1-.2.2-.2.2v.3L15.2 58a36.7 36.7 0 0 0-5 6.1C9 66.3 8 68.7 7 71.1c-.5 1.2-1 2.5-1 4 0 .2 0 .5-.2.6h-.1c-.5-.2-.5-1-.4-2ZM5.5 61.3v-1.8l.4-5.4.6-9.3v-1.4l.1-.1V43l.1-.7v-.5h.1v.5c.1.3.3.5.5.6l.2.2c0 .4.3.8.7 1l-.3 2.9c-.1 2.3-.5 4.5-.9 6.7-.4 2.4-.9 4.8-.9 7.3 0 .3 0 .5-.2.6h-.1l-.3-.4ZM8.7 30.8l.3-1.1v-.1l.1-.1v-.1l.1-.1V29h.1v-.2l.1-.1v-.2h.1v-.2l.1-.1V28h.1v-.2h.1v-.2h.1v-.2l.1-.1v-.2h.1V27l.1-.1v-.2l.1-.1v-.1l.1-.1.6-1.1h.1c0 .3 0 .5.2.8l.2.3v.1l.7.6c-1.3 2.4-2.1 5-2.7 7.9l-.3-.2c-.6-.2-1.2 0-1.7.4l1.2-4.5ZM17.2 35.3c-.2-.3-.3-.7-.3-1 0-.5.3-.8.7-.6.5-.5 1-1.3 1.3-2l1.2-.9.3-.2c-.8 2-1.7 4.3-2.5 4.7h-.7Z"/><path d="m18.3 33.4.1-.3h.6c1 .3 2 .4 3 .4-.6.3-1.3.6-1.7 1.1l-1.6-.5h-.1c-.2 0-.4-.4-.4-.7ZM10 27.6V27.2l.1-.1V27h.1V26.6h.1V26.3h.1V26h.1V25.7l.1-.1.2-.6.3.3c0 .3 0 .5.2.7l.2.3c-.3.9-.9 1.5-1.6 1.2ZM5.9 50.6l-.2-2.7c-.1-3.4-2.1-6.4-3.4-9.4-1.2-3-2.4-6-2.3-9.3v-1c0-.6.3-1 .8-1 .2 0 .3.3.5.5 1.1 2.7 2 5.4 2.8 8.2a38.7 38.7 0 0 1 .8 3.5 1 1 0 0 0-.3.5v-.1l-.1-.3v-.1l-.1-.4-.2-.6-.2-.6v-.1c-.8-3.4-1.9-6.7-3.2-9.8l-.2.4c0 3.3.9 6.5 2.2 9.5.8 1.8 1.6 3.5 2.2 5.3l.1.6v.3l.2.1v.2l.1.2v-.2c.2 0 .2-.2.2-.3v-.7l-.1-.1-.1-.5-.2-.7v-.2l-.2-.5.3.2.3.2 1.2 7.7v1.3l-.1.4-.2.3h-.2c-.2 0-.4-.4-.4-.7ZM12 59.3l.1-.2c1.8-4.4 3.4-11 7.8-11 .6.3 1.4.4 2 .9l-.2.1V50a30.7 30.7 0 0 1-.5 1.1c-.2.2-.4 0-.5-.2-.3-.7.4-1 .7-1.2-.8-.3-1.6-1-2.4-.5-3.4 1.5-4.9 6.3-6.5 10.2l-.1.3h-.1c-.1 0-.3-.2-.2-.4ZM12.4 37.5v-.4l-.6-.8-.2-.1-.1-.6c-1.3.2-1.7-1.7-.9-2.7-.3-.6-.4-1.3-.4-1.9 0-.4.2-.8.4-1.1.5-1 1.8-1.5 2.3-.1.6-.4 1.4-.7 2 0 .8.8 1 2.6.4 3.5.9 1.8 0 3.2-1.4 2.8 0 .6-.3 1.2-.7 1.4l-.5.1h-.2Zm-.7-2.7c.5.5.3 1.9 1 2l.2-.1c.3-.1.4-.5.4-.8 0-.8.3-.7.7-.6.4 0 .9 0 1-.5.2-.3 0-.8-.1-1.2-.4-.3-.3-.9 0-1.1.3-.4 0-1.2-.2-1.6-.2-.3-.6-.2-.8-.1-.3 0-.5.4-.8.6-.5.2-.6-.7-1-1.1-.6 0-1.2 1-.7 2 .2 0 .3.2.4.4l-.3.1-.3.3v.2H11c-.1.3-.6 1-.1 1.3h.6l.1.2ZM19.3 20.8c-.9.3-1.7-.7-1.8-1.9v-.2c0-.8.5-1.4 1-1.6-.3-.4-.3-1-.2-1.4v-.2c.1-1.9 2-2.4 3-1l.9-.2c-.4.3-.6.7-.6 1.2v.1l-.1.4h-.1c-.3 0-.4-.4-.5-.6a1 1 0 0 0-.8-.3c-.4 0-.7.2-.9.8v.3l-.1.8.1.4v.2H19l-.4.2c-.3.3-.8 1.1-.3 1.7s0 .1 0 .1H18.7c.3 0 .6-.2.9 0h.2c.5.5.4 1.4.7 2l.5-.2.1-.6v-.3c.3-1 1-.4 1.5 0 0 0 .2 0 .3-.2.2-.2.2-.7.2-1-.2-.4-.5-.6-.5-1h.6l.4-.1c.5.8.5 2 .2 2.7l-.4.8c-.3.3-.8.4-1.4-.1 0 .6-.3 1-.7 1.3h-.1c-.3.2-.5.2-.7.1-.6-.2-1-1.3-1.1-2.2ZM14.2 27l.2-.8V26l.3.2c.4 0 1-.5.7-1-.2-.2-.3-.6-.3-.8 0-.2.2-.3.3-.5 0-.6.1-1.4-.1-2.1a1 1 0 0 0-1-.1c0 .4-.3.7-.6.6-.3-.2-.5-.8-.6-1.2-.4-.6-1-.8-1.4-.3 0 .4.2.7.3 1v.6h-.2a1 1 0 0 0-.5-.2 1 1 0 0 0-.4.1s0-.1 0-.1V21.9l-.1-.1V21.5l.1-.2V21l.1-.4.2-.5.5-.2.4-.3.2-.2h.4c.4.2.8.7 1 1.3.7-.5 1.9-.2 2.2 1 .3 1 .4 2.3 0 3.2.4 1 0 1.9-.6 2.2a1 1 0 0 1-.8 0c-.1 0-.3 0-.4-.2Z"/><path d="M15.8 47.4c-1.4.3-1.8-3-.7-3.7-.3-.5-.4-1.1-.4-1.7 0-.5.3-1 .7-1.3.5-.4 1.4-.6 1.8.3 1.1-.6 1.9.8 1.7 2.2 1 .5 1.2 2.7.6 3.6-.2.4-.8.3-1.2.2 0 .7-.3 1.4-.7 1.7H16.8c-.4-.1-.8-.7-1-1.3Zm1-.3h.4l.2-.8v-.7c.2-.3.5-.2.7 0h.5c.4 0 .5-.8.3-1.2-.4 0-1-.5-.7-1.1.2-.8.2-1.7-.6-1.2l-.3.3v-.2L17 42l-.2-.2h-.2c-.3-.2-1.2.2-1 .8v.4l.1.3a3.5 3.5 0 0 0 .3.4l-.1.4h-.4l-.2.1-.1.1-.2.4c0 .4 0 .9.2 1.3.3-.2.6-.2.8-.1.3 0 .5.5.7 1.2ZM20 34.7c-.1 0-.3-.3-.2-.5 0-.2.1-.4.4-.4.3-.3.9-.2 1.3-.3h.6c-.8.3-1.5.7-2 1.3ZM4 40.3V40l.1.5.4.9.1.4v.2h.1c-.4-.4-.7-1-.8-1.7ZM4.6 39.8l-.1-.3v-.1l-.2-.4v-.6l.4-.4c.2-.2.1-.6 0-1l.1-.9c.2-1.3 1.4-2 2.6-1.3.3-1 1.6-.9 2.5-.5v.1h.1v.1h.1v.1l.1.1v.1h.1v.1h.1v.1l.1.1.1.1v1l-.4.4c0-.5-.1-.9-.3-1.2v-.2h-.3c-.1-.2-.3-.3-.5-.3-.6-.3-1.3 0-1.8.6v-.2a1 1 0 0 0-.8 0c-.3 0-.5.2-.7.4a2 2 0 0 0-.3 1.2c.1.5.3 1 .3 1.6l-.5.2c-.2.2-.4.4-.4.7a1 1 0 0 0-.3.5ZM5.4 42.5l-.2-.6v-.2l-.2-.4c.2 0 .2.2.3.2l.4.2v.3l.1.3v.2l.1.2-.4-.1h-.1ZM6.7 42.4v-.5h.1a1.1 1.1 0 0 0 .1.6h-.2v-.1ZM10.8 26.2c-.2-.4 0-1 .1-1.5-.6 0-1.2-.6-1.1-1.4v-.2c.2-.6.7-1 1.2-1.2l-.1-.9c-.1-.5.3-1 .7-1.2.3-.4.9-.3 1.3-.1.2 0 .1.4-.1.3L12 20l-.3.2a1 1 0 0 0-.4.5v.6l.2.6c0 .2.3.2.3.4.2.3-.3.3-.5.3-.3 0-.7.8-.6 1.2l1 .4c.5.2.2.6-.2.6-.2.2-.2.5-.2.8v.3c.1.4.4.8.8.8.3-.1.5-.3.6-.5 0-.3.1-.5.3-.4 0-.3.3-.4.5-.3l.5.6h.4c.2 0 .4.1.5.4l-.1.3-.3.2a5 5 0 0 1-1.3-.5c-.3.8-1 1-1.5.8-.4-.1-.8-.5-1-1Z"/><path d="M11.7 27c.1-.3.4 0 .5-.2.4-.3.7-.5.8-1.1v-.1c-.2-.2.2-.4.3-.2.3-.2.5.2.6.4.3.4.6.5 1 .6 0 0 .2.2.1.3 0 .3-.3.2-.5.2-.4 0-.7-.2-1-.4-.1.6-.8 1-1.3.9h-.3c-.1 0-.3-.2-.2-.3ZM11 22.4c-.2-.1-.4-.5-.3-1v-.2c0-.4.4-.5.6-.1.2 0 .5.5.1.5 0 .8-.1 1-.3 1l-.1-.2ZM7.8 36.3l-.2-.3-.2-.1v-.4c-.3-.2-.7-.4-1-.2l-.1.2c-.2.4-.7.2-.7-.2.4-1 1.3-.8 2-.5.8-2 3.6-.2 2.9 1.6 0 .3-.4.8-.7.4 0-.2 0-.4.2-.4.3-1-1.2-2.3-1.5-1v.2h-.2v.4l-.2.3v.2H8v-.2ZM11.6 43.7c-.2 0-.3-.2-.3-.4V43c.2-.4 2.1-4.7 2.5-3.4.2-.3.7.1.3.3.1.2 0 .4-.1.6l-1.8 2.7c0 .3 0 .6-.3.6-.2 0-.2-.1-.3-.2Z"/><path d="m4.9 36.6.1-.4c.5-1.5 1.8-1.5 2.8-.8.1.2.4.3.4.5v.7H8l-.2-.3-.2-.3-.2-.1-.2-.2H6.6c-.1.2-.3.2-.4.1-.3.3-.4.8-.3 1.2v.5a2.2 2.2 0 0 0 .3.8h-.5c-.5-.2-1-1-.8-1.7ZM4 40.4l.1.1.4.9v.2L4 40.4Z"/><path d="M5.3 42.3V42l-.2-.3-.1-.4c0-.4-.2-.7-.3-1l-.1-.5-.1-.3v-.1l-.1-.4c.2-.5.6-.8 1-1-.5-.5-.4-1.4 0-2 .4-.2.7-.7 1.1-.8.3-.1.6 0 .8 0l.2.3c0 .1-.2.2-.3.1-.3-.1-.7-.1-1 .2-.3.3-.5.7-.5 1.2 0 .3 0 .5.2.6l.2.6h.1v.1l-.2.2-.1.1c-.4.1-.6.5-.8 1 0 .3-.2.8 0 1.2.1.3.3.5.5.6l.1.6.1.3v.1h-.2a3 3 0 0 1-.3-.1ZM6.7 42.4v-.6l.1.1v.5Z"/><path d="M7.6 41.3c-.2.2-.5.2-.7.2v-.3h-.5l-.2-.1s0-.1 0 0V41c-.2 0-.2-.2-.3-.2l-.2-.3h-.3a3 3 0 0 1-.4-1.8v-.5c.3-.6 1.1-.3 1.2.2l-.2.3v1.1l.1.4h.1l.1.2.2.1c.2 0 .3.1.4 0h.3l.3-.1H8l.1.1.1.2.2.2c0 .5.5.4.8.2.3-.2.2-.7.2-1l-.2-.6v-.2L9 39c0-.2.2-.3.3-.3l1 .2c.6-.3.6-1.3.3-1.8-.2-.3-.4-.4-.7-.3-.2 0-.2-.4 0-.4 1.8-.5 2 3.5.1 3.2.2.6.1 1.2 0 1.7-.4.6-1.1 1-1.7.7a1 1 0 0 1-.7-.6Z"/><path d="m7 45.2-.2-.5V43.8l-.2-.4V43l.1-.7v-.6l.2-.4.1-.1c0-.7.9-.6 1 0l.3.2c.5.2.1 1 0 1.4L8 45.5c0 .4-.4.5-.7.4-.3 0-.5-.3-.3-.7ZM5.5 43.3v-.6L5 41.5l-.7-3.4c0-.2.2-.3.3-.3.2 0 .3.4 0 .4.5 1.1.4 2.5.9 3.6.1.3.5 2 0 2v-.5Z"/><path d="M7 41.6v-.1c-.6 0-1-.5-1.3-1 0 0-.2 0-.2-.2.3-.3.5 0 .6.2l.2-.2v.1l.2.1h.2l.4.4c.1 0 .2 0 .3.2.3 0 .3.4 0 .4l-.1 1.8H7c-.3 0-.1-1.2 0-1.7Z"/><path d="M5.1 40v-.2h.1c0-.2.3-.2.3-.2l.1.2c.2.6.7 1 1.2 1.2l.4-.4.3-.2c0-.2.1-.2.2-.3l.1.1.2.2.1.3.4.2c.2.3.5.4.6.7-.1.5-.7 0-.9-.3-.3.1-.4-.3-.5-.6l-.2.5c-.3.4-.7.5-1.1.3-.7-.2-1.4-1-1.3-1.6ZM5.7 45c-.3-.3-.4-.7-.6-1-.4-.2-.4-1-.6-1.4-.3-1-1-1.7-1.2-2.6l-.2-.3c0-.1.1-.2.3-.1l.2.2c.5.1.5 1 .8 1.4.2 0 .2.4.3.5L6 45l-.3.2Z"/><path d="M3.4 40c-.2 0-.3-.4-.2-.6l-.2-.2.1-.1c.1-.1.3 0 .4 0a8 8 0 0 1 1.3 3l-.3.1c-.3-.1-.8-2-1-2.2ZM5.8 35.4c0-.2.2-.3.3-.3.2 0 .4.2.3.4 0 .2-.2.3-.3.3H6c-.1 0-.3-.2-.3-.4Z"/><path d="M5.4 40.1c-.1-.6 0-1.4.4-1.8a2 2 0 0 1-.3-1.9v-.1l.1-.4c-.2-.5 1-1.2 1.1-.5-.6.5-1 1.8-.4 2.5.4-.2.9.4.3.5v.2h-.2A3 3 0 0 0 6 40l.5.8v.4h-.3c-.4-.1-.7-.8-.8-1.1ZM8.2 41.2c-.2-.1-.5-.2-.5-.5.2-.2.3 0 .4 0l.4.3H9c.2-.1.6.2.4.4 0 .1-.2 0-.2 0h-.7a.5.5 0 0 1-.3-.2Z"/><path d="M6.3 47.7 6 44.4l-.5-2.5c-.3-.5-.2-1.4-.6-2l-.1-.2.1-.2c0-.1 0-.3.2-.3h.2c.3.6.3 1.2.5 1.8.5 2.1.7 4.5 1 6.7 0 .1 0 .3-.2.2l-.2-.2ZM6 52v-2l.1-.2c.1 0 .2 0 .2.2v.2c.2.1.1.5.1.7 0 .7.2 1.5 0 2.2h-.2c-.2 0-.2-.8-.2-1ZM19 44.8l-.5-.5-.3-.1c-.2 0-.3-.1-.3-.4v-.3c.2-.2.5-.5.5-.9l-.3-.2a1 1 0 0 0-.4-.3l-.4-.2c-.2 0-.5-.2-.4-.5v-.2c.3-.2.6 0 .9 0 .5 0 1.4.4 1.3 1.2.2.5-.1 1-.4 1.3.2.1 1.3 1.2.6 1.4-.2 0-.2-.1-.3-.3Z"/><path d="M18 41.6s-.3 0-.3-.2c0 0-.1-.1 0-.2V41c.2-.3.5 0 .8.3.3 0 .8 1 .2.9-.3-.2-.3-.6-.6-.6ZM15.9 46.8c-1.2.4-2-.6-1.8-1.9v-.1c.1-.4.3-.9.7-1 .3-.4.7-.6 1-.4.3.2 0 .5-.1.4-.7-.2-1 1.1-.7 1.7l.1.2c.3.2.6.1.9 0 .4-.4 1 .2.4.6l.6.7h.2c.2 0 .5.1.3.4 0 .2 0 .3-.2.4h-.6c-.3-.2-.6-.6-.8-1Z"/><path d="M14.3 46.2c.2-.4.5.1.6.3l.4.3c.2 0 .5 0 .5.2l-.3.2-.4-.1c-.4-.2-.8-.5-.8-1ZM11.7 37.3c-.2-.2-.3-.6-.3-1-.1-.2 0-.5.1-.8l-.1-.2V35s-.2-.1-.1-.2v-.1c.3-.2.8-.2.7.3v.9c.1.3.3.7.6.9h.2c.2 0 .4 0 .4.4s-.5.5-1 .3a1 1 0 0 1-.5-.3ZM12.7 30.8c-.3-.2-.6-.5-1-.5 0 0-.2 0-.2-.2-.2 0-.4 0-.4-.2l.1-.1c.5-.2 1 0 1.4.3 0 .2.2.3.3.4 0 .2 0 .3-.2.3ZM13.4 26.4v-.2c-.1 0-.1-.1 0-.2h-.1c0 .1 0 .4-.2.5-.2.1-.3 0-.3-.3.1-.4 0-1 .4-1 .2 0 .3.2.4.3 0 .1.1.3 0 .4l.1.2H14v.1h1c.2-.3.7-.2.6.2 0 .2-.2.3-.3.4-.3.2-.8.3-1.1.2l-.8-.6ZM18.8 52.5c.4-1 1.3-1.5 2-2.3.1-.2.2-.5.1-.9-.2-.2 0-.5.3-.2h.1V49a3 3 0 0 0-2-.4l-.2-.2c.1-.3.5-.3.7-.3.7 0 1.7 0 2 .8.3.3.2.7 0 1l-.1.2c0 .3-.2.6-.4.4l-.6.6-1.2 1.6c-.1.2-.3.3-.5.2-.1 0-.3-.2-.2-.4Z"/><path d="M17.8 54v-.2c.8-.7 1.8-1.3 2.5-2v-.5c.4-.6 1-1 1.1-1.6-.1-.5.3-.6.4-.2.2.2.1.6 0 .8-.9 1.7-2.3 2.8-3.6 4H18a.3.3 0 0 1-.3-.3Z"/><path d="M15.7 57.1V57c1-1.2 1.7-2.6 2.8-3.6h.2s.1.2 0 .2l-1.6 2.1c-.3.6-.7 1-1.1 1.5h-.2Z"/><path d="M16.1 56c.4-.3 2-2.7 2-1.8l-1.6 2h-.2c-.1 0-.2 0-.2-.2Z"/><path d="m16 56.4 1.5-1.7c.1-.2.4 0 .3.3l-1.4 1.6h-.2c-.1 0-.2 0-.2-.2ZM5.8 102l-.3-3.6c0 .4.3 3.2-.4 2.3-.2-5.8-1.6-12-.7-17.7.2-1.2.5-2.4.3-3.7 0-.3-.2-1.1.3-1.2.2 0 .2.2.2.3v2.1l.1.4.2.2-.1 6.8a221.1 221.1 0 0 0 1 12.3v1.6c0 .2-.3.4-.4.4l-.2-.2Z"/><path d="M6.8 108.3c-.3-.7-.2-1.4-.3-2.1-.2 0-.3-.3-.3-.5-.4-2.3-.3-4.6-.7-6.8 0-.8-2.1-7.4-.5-6.8 0-.3-.2-.7.2-.8 0 0 .2 0 .2.2l.1.7.2.1c-.1 1 .5 2.3.3 3v.4c.2 0 .3 0 .3.2l.5 6.2c0 .5 1 6.7.2 6.4l-.2-.2Zm-2-14.6.1-.2.1-.2v-.2l-.1-.1v-.1.8ZM18.3 35.8c-.2-.5.2-.9.6-1 1-.7 2-1.5 3.1-2 2.7-1.2 5.6-1.8 8.3-2.8 1-.6 2.5-.7 3-1.8-1.2-.6-2.7 0-3.9.2a15 15 0 0 0-5.4 2.4L21.5 33c-.2.2-.6.3-.8 0-.5-.7.6-1.3 1.1-1.7 1.2-1 2.4-2 3.9-2.6 1.3-.7 8.7-3.1 8.6-.5 0 1.4-1.3 1.9-2.4 2.3-2 1-4.2 1.5-6.3 2.2-2 .5-3.7 1.5-5.4 2.5-.4.3-1.1 1.2-1.6 1l-.3-.3ZM22.6 18.1c0-.3.3-.5.5-.6.7-.2.9-1 1.2-1.6-.1-.4-.5-.6-.9-.7h-.3c-.2.2-.5 0-.8.1-.3.1-.4.5-.8.5 0 0-.1.2-.3.1l-.1-.3c-.4-.8.6-1.8 1.4-2 1 .2 2.4.6 2.7 1.7l-.2.4v.1a.3.3 0 0 0 .2.3l-.2.5c-.1.6-.3 1.4-1 1.7-.3.1-.8.4-1.1.3-.2 0-.3-.2-.3-.5Z"/><path d="M19.2 22.4a2 2 0 0 1-.3-2c-1.6.4-2.1-2.1-1.2-3 .5-.3 1.1-.7 1.6-.5.5.3.3 1-.1 1.1-.3.1-.6.2-.7.5v.6c.1.1.2.3.4.3.3 0 .6-.3 1-.2.2.2.3.5.2.8.1.3-.2.7-.1 1 .2.5.5.4 1 .3.2-.5-.1-1.7.8-1.6.3 0 .3.5.5.7.2.2.6.2.8.2.4-.8 0-1.5-.5-2.1-.3-.2-.4-.5-.2-.8 0-.3.4-.5.8-.3 1.2-.1.5-1.7 1-2.3-.2-.2-.2-.6-.5-.7-.6 0-1.2-.1-1.7.2-.3 0-.3.5-.6.6-.2 0-.3-.2-.3-.3.2-.7 1.1-1 1.8-1.1.5 0 1 0 1.4.3l.6.9.2.4-.1.3v.1l.1.3h.1c0 .9-.5 1.8-1.3 2.2 1 1.5.1 4.4-2 3.3l-.3.4c-.2.8-1.2 1.2-1.8.7a1 1 0 0 1-.3 0 .6.6 0 0 1-.3-.3Z"/><path d="m22.4 29-.2-.5v-.2c-1 .6-2-.5-2-1.6 0-.7.4-1.4 1-1.8-1.2-1.3.6-3.4 2-2.4 1.3-2 4.2-.6 3.4 1.5 2.4.6 1.4 3.6-.7 3.8-.1 1.3-1.5 2.3-2.6 1.9-.3-.1-.6-.3-.9-.7Zm.8-2.4c.3.2 0 .7 0 1-.1.3 0 .7.4.8.6.2 1.2-.2 1.3-.8-.4-.4.2-1.3.7-.8h.3c.9 0 1.7-1 .7-1.7-.4-.2-.7.1-1 0-.9-.5.5-1.3 0-2-.2-.3-.6-.4-.9-.4-.7.2-.8 2-1.7 1.3-.3-.4-.6-.7-1-.5l-.1.1c0 .3.3.4.5.5.7.5 0 1.6-.8 1.1-1.2.4-.5 2.3.6 1.8.3-.1.6-.6.9-.5ZM13.2 39.6c.1-1.2 1.4-2.2 1.7-3.4 1-3.8 2.8-7.2 3.8-11 .3-.9.3-1.8.3-2.8 0-.2.3-.5.6-.5 0-.4-.3-1 .2-1.3 1.8-.6-.1 4.8-.2 5.7-1 3.9-1.7 8.2-4.2 11.4-.2.5-1 2.6-1.8 2.4l-.4-.4ZM24.5 16.7c-.3-4 6.7-9.2 10.4-9.4.6 0 .8.6.7 1-.1.7-.7 1.1-1.2 1.4A34 34 0 0 1 31 12a20.3 20.3 0 0 0-5 4.2c-.2.3-.7 1-1.1.9l-.3-.3Zm.4-1 .2.4.3-.1.2-.2.6-.8.8-.8.5-.5.5-.5a28.6 28.6 0 0 1 4-2.7l.3-.2.2-.1.1-.1.4-.2.8-.4.3-.2.3-.2.1-.2.2-.3v-.3c-.2-.1-.4-.2-.5-.1h-.4l-.5.3-.6.3-.6.2-1.1.6-1 .7h-.2l-.3.2a10.1 10.1 0 0 0-1.1 1l-.2.1-.3.3-.7.5a7.2 7.2 0 0 0-1 1.1l-.4.5-.4.7v.3l-.2.4-.2.3v.1ZM16.4 12.7c-1.1-.5-1-1.8-.5-2.7C13 8.5 14.8 6 17 5.2c.2-1.1.8-2.8 2-3 .9.1 1.6.8 1.7 1.6 2.6-.6 4.2 2 1.9 3.7 1.9 1.4-.7 4.8-2.7 4-.6 1-2 1.9-3.2 1.5l-.5-.3Zm1-1h.1c.7 0 1.4-.4 1.6-1-.2-.6.9-1.3 1.2-.5.5.4 1 .2 1.4-.3.4-.3.8-1 .3-1.3-2-1.4.2-1.5.8-2.7.2-.6-.7-.9-1-1-.8-.1-1 .2-1.5.6-.6.2-.7-.6-.6-1 .1-.2 0-.4-.1-.6l-.6-.4c-.4.3-.6.9-.7 1.3.7.8-.6 2-1.1.9-.7.3-1.6 1-1.8 2 .1.5.7.9 1.2 1.1.9 0 .8.9.4 1.4-.1.4-.4.7-.3 1 .2.3.5.5.7.5Z"/><path d="M17.5 27.8c.2-.8.4-1.6.4-2.4.2-4.8-2.8-8.9-5.7-12.4-1.3-2.8-1.4-5.9 2.5-3.6 1.7 2 3.1 4.4 3.7 7 .1.4-.6 1-.8.3a13 13 0 0 0-2.1-4.7c-.7-1.2-1.6-2.3-3-2.3-.2 2.3 1.7 3.7 2.8 5.5a46 46 0 0 1 2.6 5.2c.8 2.4.8 5 0 7.5 0 .2-.2.3-.3.2-.1 0-.2-.1-.1-.3ZM16.1 6c-.3-.9 2-1 2.3-.5.2.3-.3.8-.5.3h-.1c-.5 0-1 0-1.3.2h-.4ZM26.5 8.8c-1-.4-1-1.8-.6-2.6-2-.6-1.2-4 .8-3.7-.1-2.5 4.5-3.8 4.1-.6 2.6.1 2.9 2 1.3 3.7.8 1-.1 2.5-1 3-.8.4-1.6.1-2.2-.3-.5.5-1.4.8-2.2.6l-.2-.1Zm.5-2.5c-.3.6-.6 1.2.3 1.4.3 0 .7 0 1-.3.2-.2.3-.6.6-.6.4 0 .4.5.7.6.2.1.4.3.7.3l.6-.3c.4-.3.9-1.2 0-1.2-.6-.2-.3-1 .4-1.2l.5-.6c.7-1-.5-1.3-1.3-1.3-1.3.5-1.2-.5-.8-1.4 0-.2 0-.4-.2-.4-.4-.2-.9 0-1.2.2-.2.2-.5.5-.4.9.2.3.5.6.2 1 0 .2-.3.4-.5.4-.5 0-1.4.1-1.7-.4l-.2.5c0 .6.5 1.2 1.2 1 .7.3.4.8.1 1.4Z"/><path d="M25.5 4.3c-.2-.9.8-2.2 1.7-1.7.5-.3.7.6.2.8a4 4 0 0 0-.4.2c-.5 0-.6.8-1 .7l-.4.1v-.1ZM13.5 26.2c-.4-.3 0-1 .5-1 .3.2.6.4.9.4.4-.1.7-.5.4-.9-.3 0-.6 0-.6-.3-.5-.4 0-1.1.5-1.1.3-.2.4-.6.4-1 0 0-.2 0-.2-.2l-.7-.4c-1.5.3-1-1 0-1.3 2.2-.6 2.4 2.6 1.4 3.9.8 1.3-.8 2.7-2 2.3-.3-.1-.5-.2-.6-.4ZM11.8 26.8c-.6-.3-1.2-.9-1-1.6-1.1-.2-1.7-1.5-.8-2.4.3-.3 1.4-2 1.6-.9 0 .3-.2.4-.4.4-.3.5-.4 1.2-.5 1.7.3.2.6.2 1 0 .6-.2.7.9.1 1.1-.2.3.3.5.6.7.5.3 0 1.2-.5 1Z"/><path d="M12.4 27c-.2-.2-.2-.5 0-.6.1-.4 1-.7 1.2-.4.3.5-.5 1.2-1 1h-.1ZM11.5 37.3c-.4-.3-.4-1-.4-1.4-2.7-.4-1.6-2.8.2-3.6.4 0 .7.3.6.7-.2.5-.8.6-1.2 1-.3.4.2.6.6.7h.2c.2-.2.7-.2.8.1.1.5-.2 1 0 1.5 1.4.4.8-.3 1-1.2.3-.4.7-.5 1-.4.4 0 .5-.3.5-.5 0-.3-.3-.3-.5-.4-.1 0-.3 0-.4-.2-.4-.6.3-1.2.8-1.4 0-.6-.3-1.1-.4-1.7h-.6v.2c-.1.3-.7.3-.6 0 0-.7.7-1 1.3-.8.3-.3.8-.2 1 0 .9 1 .7 2.2.1 3.2.9 1 .2 2.9-1.2 2.9-.1 1.3-1.4 1.9-2.5 1.5l-.3-.2Z"/><path d="M14.8 32.5c-.2-.1 0-.4.2-.5.2-.3.3-.9-.2-1-.3.3-.7 0-1 0-.2.2-.6.3-.5-.2-.2-.2 0-.5.3-.4h.3c.5 0 1.1 0 1.5.3.6.5.2 1.3-.2 1.8 0 .1-.2.2-.3.1h-.1ZM18.5 43.9c-.1-.4.1-.7.4-.9l.1-.8c-.1-.5-.7-.8-1.2-.8-.3.7-.8-.1-.3-.4 1-.4 2.3.4 2.3 1.5.1.6-.4 1.8-1 1.6l-.3-.2ZM14.4 45c-.6-.7.2-2.3 1.2-1.8s0 0-.1 0c.3 0 .3.2.3.4-.1.2-.4.4-.6 0-.2.3-.3.6-.2.8 0 .3-.2.7-.5.6Z"/><path d="M17.5 47.5c-.2-.2 0-.5.1-.7l.1-.7c-.5-.6.5-1.1.7-.3.2.3.7.3 1 0 .2-.3.2-.7 0-1.1-.2-.3-.5-.5-.6-.8-.2-.3.4-.6.5-.2 1.2.9.8 3.2-.9 3 0 .3-.3 1-.8.9v-.1ZM9.8 39.4c-.4-.2-.1-.7.2-.6.1 0 .3.2.5.1.7-.1 1-1 .6-1.6-.1-.4-1-.3-.7-.8.2-.5.8 0 1 .2 1.1 1-.1 3.2-1.5 2.7h-.1ZM24.5 15.7c.1-.4.2-1.1.7-1.2.7-1 1.3-2.1 2.2-2.9l.4.1c0 .1 0 .3-.2.4-.6.5-1 1.2-1.5 1.9-.3.3-1 2-1.4 2l-.2-.3Z"/><path d="M24.4 16.7c0-.6.4-1.2.5-1.8l.3-.2c.4.3-.3 1.2-.3 1.7.1.3-.2.7-.4.6l-.1-.3Z"/><path d="M24.3 16.2V16c0-.3 0-.4-.2-.5l-.3-.1h-.2l-.3-.2H23c-.4 0-.7 0-.6-.5l.3-.2c.5 0 1 0 1.3.3.6 0 1 .6 1 1.1 0 .2-.3.4-.5.3v-.1Z"/><path d="M24.2 16.3c-.1-.5-.6-.8-.9-1.2-.1 0-.2-.3 0-.4.1-.3.4 0 .6.2.2.3.6.5.7.9.2.2 0 .7-.2.6l-.2-.1Z"/><path d="m24.2 17.5.3-.6v-.1c0-.4.3-.6.5-.9 1.6-1.6 3.2-3.2 5.3-4.3 1.3-1.2 3.4-1.7 4.2-3.2V8c.2-.6.9-.3.9.2.1 1-.9 1.7-1.5 2.2-1.9 1-3.5 2.4-5.4 3.6-.8.5-1.7 1-2.3 1.7-.7.6-1 1.4-1.6 2h-.3c-.1 0-.2 0-.2-.2ZM25.7 5c-.3-.4-.2-1.3.4-1.6h.3c.3-.2.7-.5 1-.2.2.2-.1.6-.4.4-.3.1-.7.4-.8.8.2.2.1.5 0 .6-.1.1-.3.2-.4.1ZM17.6 5.5l-.2-.2c-.8-.9.1-2.5 1.1-2.7l.4.1h.2l.8.1c.8.8-1.2.8-1.5 1.2-.2.3-.7.3-.5-.2l.7-.6c-.4 0-.6.3-.8.5l-.2.8c0 .3.4.3.5.6 0 .2-.3.6-.5.5Z"/><path d="M35.4 161c6.7-2.5 12-7.1 17.2-11.4 6.8-5.6 13.2-11.7 18.8-18.2a194.3 194.3 0 0 0 36.9-53.8c2-4.8 4.7-9.7 5-15 0 5-2.3 9.9-4 14.6A156 156 0 0 1 82.5 122c-8.3 10-16.5 20.4-27.3 28.5-6 4.3-12.3 9-19.9 10.5Z"/><path d="M108 71.3c0-1.1-1.1-2.2-2-3-2.2-2.4-5.7-3.3-7.7-5.9-3.8-3.8-4.6-9.3-4.4-14 .5-5.7 5.3-9.6 10.7-11.5a23 23 0 0 1 17 2.2c3.4 2.1 5.9 5.5 7.2 9 1.7 4.4 1.3 9.8-1.5 13.4-3 2.6-6.9 4.1-10.3 6-1.6.7-3 1.9-4.7 2.2-1.3 0-1.3-1.5-1.3-2.4l-.1-4.2-.5-3.6v-.4c.7-.3 1 .7 1.3 1 1 2.3.9 5 .3 7.2.4-2.4.4-5.1-1-7.4 1 2.9.5 6 1.1 8.8 2-.6 3.8-2.3 5.8-3.2 3-2 7-3.2 8.9-6.3 3.7-7.5-.8-18.4-10.2-20.7-7.7-2.2-14.7-.3-19.3 5.4-2.9 4.7-2.2 10.9 0 15.9 1.1 1.6 2.3 3.3 3.9 4.5 2.6 1.7 5.4 3.4 6.7 6.2 0 .3.3.7.1.8ZM102.9 93.4c0-1.7 2.7-3.8 4.5-3.9 1.5-.2 2.8 1 3.7 1.9 1.1 1.1 2.5 2.1 4 2.7 6.2 2.4 14.9-.7 16-7 .1-2.6-1.6-5.3-3.4-7.3-1.2-1.2-2.6-2-4-2.7-1.7-.8-3.5-1.6-5.3-2-1.6-.2-3.2.2-4.7.4 3.6-1.5 7.6-.8 11 1 4.5 1.7 7.7 5.8 8.3 10.1-.3 8.3-12.7 12.5-20 7.6-1.5-1-2.6-2.6-4-3.8l-.6-.4c-2.2-.5-4.2 1-5.3 2.5-.1.3-.3.7-.2 1 .1 0 0 0 0 0Z"/><path d="M101.5 94c1.6-4.8 7-9.4 12.7-9.2-3.4-.1-6.5 2-8.7 4 2.7-2 6.3-2.5 9.7-2.8-.4.2-1.2.2-1.7.4-2.7.5-5.5 1.3-7.5 3-1.6 1.4-2.6 3.2-3.7 5-.2.4-1 0-.8-.4Z"/><path d="M104.7 88.8c3.2-3.9 5-10.9 11.2-11.3 1.2 0 3-.1 4 1 .2.4-.4.7-.7 1l-.2.1.8-.7-.1-.5-.6-.4c-8-2.4-10.3 6.9-14.4 10.8ZM85.8 115.8c3.9-6.3 6-11 3.4-18.5 3 7.3.8 12.6-3.4 18.5Z"/><path d="m85.5 115.3 1.1-2.3c2.6-5 2.4-10.8 1-16.3-.3-1.4-1.2-2.7-1.5-4.1h.3c.7.8 1.6 1.4 2.2 2.3-.6-.8-1.6-1.6-2.4-2.3v.1c3.6 7.3 3.8 16-.7 22.6Z"/><path d="M86 116.2a27 27 0 0 0 1.7-18.8c-.1-.3-.2-1-.7-1v.1h.1c.2 0 .3 0 .4.3a23.8 23.8 0 0 1-1.5 19.4Z"/><path d="M87.3 105.3v-.3c-1.3-2-4.3-2.8-6.7-3-2.3 0-5 0-6.6-2-4.3-3.8-4.7-8.4-3-13 1.8-5.2 8.5-7.2 14-5.6 5.4 1.1 8.9 6 10 10.7.3 4.2-1.3 8.9-5.2 11 3.6-2.4 4.9-6.8 4.6-10.8-1.6-6.1-6.9-11.2-13.9-10.5-5.8.4-8.9 4-9.3 9.2-.7 3.5 1.4 6.7 4 9.1 2 2 5 1.1 7.6 2 1.8.5 4 1.4 4.7 3.2l-.1.3c-.2 0-.1-.3-.1-.3Zm0 .3c.2-.2.1-.4 0-.5v.5ZM74.7 130.1c.2-2.2 2.4-3.7 4-5.1-1 .7-2 1.7-3 2.5-.1.2-.5.3-.8.1-.7-.9 2-2.4 2.7-3 1.5-1 2.8-2.3 4.5-3 4.5-1.9 8.7-4.2 13.5-5.3.5 0 .7.6.3.8-1 .5-2.3.8-3.4 1.2.7-.1 1.5-.2 2.2 0 .2 0 .4 0 .4.3 0 .2-.1.4-.3.4-2.6.1-5.3.7-7.5 1.8 2-.5 4.4-.8 6.4-.9-2.4.3-5 .6-7.3 1.4-4 2.4-7.4 5.8-10.7 9-.3.2-1 .3-1-.2Zm1-.8c2.1-2 4.2-4.2 6.5-6a17.7 17.7 0 0 0-6.5 6Z"/><path d="M91.8 132.2c-2.6-.8-3-3.3-4.5-5.1-1.1-1.6-3.5-2.4-5.3-1.6s0 .1 0 .1v.1c-.3-.1.2-.3.3-.4 3.4-1.1 6 2 7.2 4.7 1.3 2 4 2.6 6.2 2.7 1 .1 2.3-.1 3.3-.2-2.3.5-4.9.7-7.3-.3Z"/><path d="M93.4 132c-1.8-.6-3.4-1.7-5-2.8-1.3-.9-3-1.8-3.8-3 1.6 1.6 4 2.5 5.9 3.8 9.6 5 17.8 2.6 20.4-7.2.4-1.9 1-4-.2-5.9-2.6-3.5-7.7-5-12-5-6.3.7-9 6.6-14 9.4l.3.1c-.1 0-.6 0-.2-.2 4-2.4 6-6.7 10.3-8.8 4.7-2.9 13.9-.2 16.9 4.5 1.8 3.2 0 7-1.4 10-3 6.4-10.2 8-17.2 5.2ZM60.9 141.4c-.3-.2-.2-.5-.1-.6l3.2-5.6c2.2-4.2 3.3-9.7 1.4-14.3-.1 0 0 0 0 0 .3.2.3.6.4 1 1.5 5.4.3 11-2.5 15.6 2-3.3 3.6-6.9 3.8-10.8.2-2.6.3-5.3-.8-7.8 0-.5.5-.6.8-.2 2.5 6 1 12.3-2 17.5-1.2 1.8-2.2 3.8-3.8 5.2h-.5Z"/><path d="M65 132.9c.3-3.1-3.1-5-5.7-6.3a18.8 18.8 0 0 1-5.7-5.4c-2.5-4.6-3.2-11.1 1.6-14.1 4.2-2.5 10-2 14.2.6 6.8 4 6 12.9 2.6 18.2-1 1.6-4.2 4-5.1 4.4a14 14 0 0 0 6.9-11.9c.6-6.8-4.9-12-12.2-12-9.9.3-10.7 8.8-6.5 15.7 1.4 1.8 3.2 3.3 5 4.6 2.4 1.3 5.3 3.4 4.8 6.2l.1-.1v.1ZM56.2 146.6c.5-1 1.6-1.6 2.3-2.4 1.1-1.1 1.6-2.6 2.1-4 .2-.5.3-1.6-.5-1 1.7-1.1-.2 3.4-.5 3.8 2-2 3-4.8 4.2-7.3.8-.3.1 1 0 1.3-.7 1.9-1.6 3.8-2.7 5.5l.7-1.6c-1 1.6-2.4 2.8-3.5 4.2-.3.3-1.8 2.4-2 1.5ZM57.8 147.2c-.2-.1 0-.3.1-.4 1.3-1 2.7-1.8 4.1-2.5 4.2-2.6 9.3-3.7 14.4-3-2.8.1-6 0-8.6 1a51 51 0 0 0-10 5Z"/><path d="M78.3 150.8c-3.3-1.3-5-4.3-6.8-7-.8-1-2-1.6-3.2-2H68c2.6.3 4.3 2.3 5.7 4.4 2 2.6 5.2 4.4 8.6 4.5 4.1-.2 6.7-4 8.2-7 .4-1-.2-2.2-.7-3a13.3 13.3 0 0 0-8.6-5.1c-4 0-9 1.4-10.8 4.9v.4-.3c.8-3.2 4.5-4.8 7.7-5.7 5.2-1.7 14.4 3.2 14.1 8.8-1.8 5.2-7.5 10.4-13.9 7.1Z"/><path d="m90 148.2 1.5-2.4c.3-.9.8-2 .5-2.8-.2 0-.3.1-.3.2-.1 0 .3-.6.4-.1.2 1.9-1 3.8-2.1 5ZM74.3 141c.7-.5 2-.5 2.9-.6a33 33 0 0 1-.8.2c-.7 0-1.6 0-2.1.5 0 .1 0 .1 0 0ZM81.6 143.8c-.2 0-.3-.2-.5-.3-1-.5-1.9-.9-2.9-1.2-.2-.1-.7-.2-.6-.3 1.4.4 3 1 4 1.8ZM110.6 63.8c.3-1.1-.2-2.3-.3-3.4-.5-3.6-.3-7.3-2.2-10.5 1.4 2 2 5.2 2.2 7.8 0 2 .8 4.2.3 6Z"/><path d="M111.5 63.5c1.3-2.9 2.3-5.8 3-8.9-1 2.6-2.3 5.2-3.7 7.6 1.5-3 2.7-6.2 3.8-9.4l.8-2.4c0-.2.3-.2.4-.2.2 0 .3.2.3.4a44 44 0 0 1-4.6 12.9ZM104.4 90.6c1-1.8 3.2-2.6 5.1-3.3 2.8-1.8 6.4-2.5 10-2.3.3 0 .7 0 1 .2.4.3.1.7-.3.7a13 13 0 0 0-5.2.4c1 0 2.2-.1 3.2 0-1.4 0-2.9 0-4.3.3-2.7 1-5.3 2.3-7.8 3.7-.4.1-1.5 1.2-1.7.3ZM111.8 87.5Z"/><path d="M110.6 62c-.3-.1-.6-.4-.6-.7l.1.3c.3.4 1 .6 1.2 0 .2-1.9-1.4-3.8-2.4-5.6l-1.3-1.8 1.9 2.4c.6.8 3.4 5.7 1 5.4ZM87.8 100.1c0-2.8-6-3.8-8.3-4.2-.5 0-1 0-1.5-.2 2.7 0 10 1.2 9.8 4.4Z"/><path d="M89 102.5c-.6-2.7-1.4-5.4-2.5-8-.6-1-1-2.4-2-2.8l.4.3-.5-.3c0-.2.3 0 .4 0 2.8 3 3.6 7.3 4.3 10.8ZM101.9 126.1c-3.5-2.9-9.1-4.6-12.6-6 4.4 1.5 9.2 2.9 12.6 6ZM92.5 119c2.5-.6 5.5-.6 8.1-.3-2.5 0-5.4 0-8 .3h.1-.2ZM68.2 128.5c1.1-5.5-1.2-10.2-5.3-14.2-.5-.3-.8.2-1 .2.8-1 1.4 0 2 .7 3.7 3.9 5.8 8.4 4.3 13.3Z"/><path d="M68.7 129c1-3.5 1.8-7.2 2.1-11 0-.5-.1-1-.7-1.1-1.3 1.7-1.7 3.7-2.4 5.7 0 .2-.3.2-.4.1-.2 0-.3-.1-.2-.3.8-2.2 1.6-4.5 1.6-7-.5 1.5-1.2 2.9-1.8 4.3-.3.4-2.5 7-3 5.3.8-3.9 2.1-7.7 2-11.7-4.3 9.7-5.1 14.2-2.8 0-1 2.6-1.9 5.2-3 7.7 0 .3-.6 0-.6-.2.6-3.1.9-6.3 1.3-9.4-.5 2.3-1.3 4.7-1.6 7.1-.1.4-.1 2.5-.8 1.6-.2-.6 0-1.3.2-2 .4-2.3.5-4.8.5-7.2-.5 2-1.2 10.9-2.2 3.5-.2 2-.3 4-1.2 5.7-.1.3-.7.8-1 .6-.3-.3-.5-.6-.6-1l-.6-7.3c0-1.2-.2-3 .7-3.9a3 3 0 0 0-.6 1.8c-.1 1.2 0 2.5.2 3.8.6-1.1.5.8.5 1.1v1H54c.2 1.3 0 3 .8 4.2.7-.4.8-1.2 1-2 .5-2.2.7-4.5.5-6.8-.8 1.6-.4 3.6-1 5.3-.8.7-.2-1.9-.2-2.3 0-1.1.4-2.3.5-3.4.1-.5.2-1.6.9-.8.7 1.6.6 4 1.1 5.8.2-2 .7-3.8 1-5.7 0-.3.2-.8.6-.9l.2.3a28 28 0 0 1 0 4.3c.5-1.5.7-3 1.3-4.4l.2-.2c.5.2.3.8.4 1.2l-1 8.5c3.5-10.2 4-10.1 2.2.5l2.9-6.7c2.7-2.7-.5 9.2-.6 10l3.5-8c.1-.3.4-.3.7-.2l.2.2c0 1 0 1.9-.3 2.8l.9-1.4h.3c.8.4 1.1 1 1 1.8-.4 3.6-1.2 7-2.1 10.4 0 .2 0 .5-.3.5v-.1Zm-14.6-13v-2c-.2.7-.1 1.3 0 2Z"/><path d="M63.9 126.2c-3.3-3.5-7.3-7.4-7-12.3 0-.1 0-.4.2-.5-.9 4.9 3.8 9.2 6.8 12.7Z"/><path d="M64 126.4c-3.4-2.4-8.1-5.6-7.7-9.9l.1-.2v.2c-.3 4.3 4.4 7.4 7.6 9.9Z"/><path d="M66.9 130c.6-3.5 2.3-6.8 2.7-10.4-4.3 13.4-2.9 7.4-3.7-1.9-.2 2.3-.5 4.5-.6 6.8.2 1.3-.5 2.3-1 .6-1.1-2.2-1.8-4.9-3.5-6.8-.5 2.7 1.7 5 3.2 7.2.2.5 2.3 2.5 1.1 2.5-1-.5-2-1.6-3-2.2 0 .2-.4.2-.5 0-1-1.5-2.9-2.6-4.1-4.1-1.5-1.3-4.3-7.6-.6-2.9-.3-.7-.6-1.6-.4-2.4 0 0 .1 0 0 0-.3 2 1.5 3.8 2.8 5.3-.2-.5-.4-1.2.1-1.5.4-.5.7.1 1 .3 0-1-.5-1.9 0-2.7.3-.5.8.3 1 .5 1.5 2 2.3 4.4 3.4 6.7.7-14.2 2-8.2 2 1.3.5-1.6 4.4-14 3.1-5.5.3-.3.4-1.2 1-1 .8.4.6 1.3.4 2 5.4-12.3-.2 5-2.4 7.3 0 .1-.3.4-.5.4l.5-.4c-1-.4 1-4.1 1.3-5l.7-3c0-.2.1-.6-.1-.8-1 1.9-1.7 3.9-2.2 5.9-.3.4-1 5.2-1.8 3.8Zm-3.7-4 1.3 1a115 115 0 0 1-3.2-4.6c.2.8 0 1.7.8 2.2.2.2-.1.2-.3 0l.1.4v.2l1.3.9Zm-2-1.7v.2-.4l-.3-.1.2.3Zm-1.7-1.2.7.6.1.2c-.5-1.3-2-2.1-2.6-3.4-.5-1-1.4-1.8-2.1-2.7.6 2 2.2 3.8 3.9 5.3Zm11.2 1.3-.8 2.8c1.3-2.7 2.3-5.6 3.2-8.5-.8 2-1.8 3.7-2.4 5.7Zm-9.7-1c-.3-1-.2-2.2-1.2-2.8-.2 0-.2.3-.2.4.3.9.6 1.8 1.4 2.5Zm-1.3-.8-2-2.3a10 10 0 0 0 2 2.3Z"/><path d="M66.4 129.2c-4.2-1.8-9.1-4.2-10.8-8.4v-.6l.4-.1c-1.1.3.3 2 .7 2.6 2.8 3.2 6.8 5.4 10.9 6.8l-1.2-.3Z"/><path d="M64 129.4c-2.6-2.4-4.7-5.9-7.8-7.6 1.2.4 2.1 1.4 3 2.2l4.8 5.4Z"/><path d="M64.7 128.5c-3.8-2-7.6-4.4-10.2-7.7v-.3c.1 0 .2 0 0 0v.2c2.9 3.6 7.3 6.1 11.4 8.4-.3 0-.8-.4-1.2-.6Z"/><path d="M63.8 126.9c-2.8-1.7-5.9-3.2-8-5.7v-.3c0 .2 0 .4.2.6 3 2.7 7 4.7 10.5 6.8l-2.7-1.4ZM54.1 116.4c-.3-3.3 1.8-6.5 4.3-8.6.7-.4 1.7-.8 2.3 0 .2.3.3.7.2.9 0-.3 0-.6-.2-.8-1-1.2-2.6.2-3.3 1-1.8 2.1-3.5 4.7-3.3 7.5Z"/><path d="M72.2 122.8c-1.8-1.3-2.4-3.4-3.3-5.3l-.4-.1-.2-.2c-.3.7-.7.2-.6-.4a8 8 0 0 1-1-1.1c-.1.2-.5.2-.7 0-.1-.3 0-.6.1-.8l-.3-.6-.3-.6-.8 2-.4.2-.2-.4c.4-1 .5-2.1.8-3.2l-.3-.2-.2-.3c-3.2 7.5-2 1.9-1.5-1.9l-.4-.5c-.3.3-1.1 2.6-1.7 1.8 0-.7.3-1.4.1-2.1-.3.4-.5 1-.7 1.5l-.2.1c-.3-.1-.1-.4-.1-.7 0-.8.5-2 0-2.9-.6.5-.7 1.3-1 2 0 .1-.3.4-.4 0-.1-.7-.6-2.3-1.7-2-1 .4-1.2 1.6-1.6 2.5l.2.3-.2-.3c-.2.3-.8 2.6-1.3 1.9-.1-.4.5-3 1.2-2 .3-1 .6-2 1.3-2.5 1.2-.8 2 .8 2.3 1.7.3-.5.8-2.7 1.6-1.5.3.6 0 1.3 0 2 .3-.5.7-1 1-.2.1.5 0 1 0 1.6l1-1.8c-.1-.2 0-.5.3-.6.2-.3.3-1 .7-.9.4.2.4.6.4.9 1 .3 2 1 2.9 1.6.5-.2 1 0 1.4.3 1.5.7 2 2.5 3.5 3.2.8.3 2.1 1 1.4 1.8.1.6.5 1.2.1 1.7.7 1.4 2.6 7.1-.8 6Zm.4-.3h.1c.4 0 .6-.1.7-.3.7-1.6-.3-3.6-.8-5.2-.4 0-.8-.2-1.2-.4-.3.7-1 1.2-1.8 1 .8 1.7 1.3 3.8 3 4.9Zm-3.2-5.3h.7c.5-.2.7-.5.9-.8l-.8-.6c0 .3-.1.9-.6.6-.3-.2 0-.6 0-.9l-.7-.2v.4c0 .5.3 1 .5 1.5Zm-.7-.3-.1-.3v.2l.1.1ZM54 111.6c.6-.5.7-1.5 1-2.1v-.2h-.1c-.2 0-.3 0-.4.2-.3.6-.6 1.3-.5 2Zm13.8 4.7.2-.6.1-.4-.2-.5-.9-.6-.2.9 1 1.2Zm-4.5-5.3-.3 1.8-.2 1.1 1.2-2.6a17 17 0 0 1-.7-.8v.5Zm9 5.5-.4-.8h-.2v.5l.5.2h.1Zm-6-2.2.1-.5-.3-.3-.3-.3v.2l.5 1Zm3 .7-.3-.2v.1l.3.1Zm1 .3H71.3a4 4 0 0 0-.3-1c-.3.3-.4.6-.5 1Zm-2.1-1.2.2.5v-.3l-.2-.3v-.1.2Zm-.5.2-.3-.9-.2.4v.1l.5.4Zm2 .4-.1-1.1-.3.2-.1.3v.1l.5.5ZM66 113l.4.4.1-1.1c0-.2-.2-.3-.3-.4l-.4 1 .2.1Zm6 2h.1c-.1-.4-.3-.8-.8-1l.8 1.1Zm-4.3-2.2.4.5.5.5.1-1.2-.7-.3H68l-.3.4v.1Zm-2.4-.4.4-.8h-.3V112.4Zm4.5.7c.2.3.4.6.4 1v-.1l.3-.3c-.2-.5-.7-.7-1.3-.9v.3c.2-.1.4-.2.6 0Zm-5.1-1.3v-.3l.2-.2c0-.3.1-.5 0-.8l-.5 1 .3.3Zm-.7-.8c.2-.4.4-.8.7-1-.1-.8 1.2-.2 1.5 0h.1v-.1c-.8-.6-1.7-1.2-2.8-1.5l-.2 1.7.3.5.4.4Zm4.5 1 .2.1v-.2l-.4-.3-.1.2h-.1l.4.2Zm-1.3-.5.3.1.2-.2h.1a3.8 3.8 0 0 0-.2-.2l-.7-.4.1.4.1.3Zm-1-.3.2-.1v-.2l-.2-.4-.8-.3.8 1Zm-3.3-1.6c0-.4 0-.8.2-1.2H63l-.4.7.4.5Zm5.3 1.4a4 4 0 0 0-1-.7l1 .7Zm-1-.6H67l-.2-.2.4.2Z"/><path d="m69.9 114.8-1-.7c1 .6 2.3 1.5 3.6 1.1.5-.2.8-.8.8-1.3 0-2.5-2.2-4.7-4.7-5.4l-2.4-.3c.2.2 0 .1 0 0 2.4-.3 4.9.9 6.3 2.8 1.9 2.4 1.2 6-2.6 3.8Z"/><path d="M70.6 114.4c-.4-1-1.6-1.8-2.4-2.7-1.7 0-5.9-2-6-3.7-1 0-2.2-.2-2.7.6-.1.7 1.4.6 1.8 1-.6-.3-1.3-.3-1.8-.7-.4-1.1 2-1.2 2.7-1 .4-.7 1.2 0 1.8.2a19 19 0 0 1 5 2.1c.8.8.4 1.5-.6 1.5.7.9 2 1.7 2.2 2.7Zm-3.5-3.2.7.2c-1.6-1.3-3.2-3.2-5.4-3.4 0 .3.1.5.3.7 1.2 1.1 2.8 2 4.4 2.5Zm-1.9-2.2c1 .7 2 1.5 2.8 2.4.5 0 1.3 0 1-.6 0-.2-.2-.4-.3-.5-1.3-.7-2.7-1.4-4.1-1.8l.6.5Zm-2.6-1.1h.5-.5Z"/><path d="M71.7 117.6c1.9-2.7-1.3-5.7-3.2-8 2 2 5.3 5.4 3.2 8Z"/><path d="M72.2 117.4c-.6-1.6-1.3-3.4-1.7-5 .6 1.7 1.3 3.4 1.7 5ZM68.3 141v-.2l2-1.1c2.5-1.5 5.3-2.6 7.7-4.2-1.1.2-2.2.7-3.3.8 0 0-.1-.1 0-.2 1-.8 2.5-1.3 3.9-1.6.3 0 0 .7 0 .9l.3.2-.2.4c.7-.2 1.5-.6 2.2-.3.5.4.1 1-.3 1.2.2 0 .6-.3.8 0v.2c-1 1-2.3 1.5-3.4 2.2 1.5-.7 3.1-1.3 4.8-1.8.4 0 .4.7.1.9-1.4 1-3 1.7-4.6 2.5l5.2-1.8h.7v.2l-1 .9c-1 .7-2.4 1.2-3.2 2.1v.1c0-.3.3-.5.5-.6 1.2-.9 2.6-1.5 3.5-2.5-1.2 0-2.1.7-3.2 1-1.3.3-2.5 1.1-3.8 1.4-.1 0-.3-.2-.2-.3 2-1.2 4.2-2 5.9-3.4-2.5.7-4.8 1.8-7.2 2.8-.5.1-1.2.7-1.7.4l.1-.3 4.9-2.7c-1.9.8-3.6 1.7-5.4 2.6l-.4-.1.1-.3c1.6-1 3.4-1.7 5-2.6-.2-.4 0-.7.1-1-3 1.2-6 2.3-8.8 4-.4 0-.9.6-1.2.2Zm9.8-3.2 2.2-1.3c.2-.1.4-.2.3-.4-.8 0-1.5.4-2.3.6-.1.4-.3.7-.2 1.1Zm-1.7-.8 2.2-.9.2-.4c0-.2-.2-.2-.3-.2-.6.6-1.5.9-2.2 1.4Zm-1.4-1c1 0 2-.5 3.2-.6l.3-.6c-1.3.2-2.5.7-3.5 1.3Z"/><path d="M68.3 143.3c.3-.6 1.2-.8 1.9-1-1.4-1 3.4-1.5 4-1.6 1.7-.2 3.4 0 4.7-1a7.9 7.9 0 0 0-5.2.5c-2.2.8-1.6-.2-.2-1l-1.6-.1c-1.3.5-2.4 1.1-3.4 1.9l-.5.2c-.2 0-.3-.4-.2-.6.4-1 2-1.4 3-1.9-1.6-2.7 10.7-2.8 12.3-2.2 1.6.7-.4 1.6-1.3 1.7 1 .1 2.2-.2 3 .4h.6c.2 0 0 .3 0 .5 0 .5-.5.8-1 1 .2.4-.2.6-.5.7 1.2.7 2.9.2 3.9 1.3.1.8-1 .2-1.4 0 0 .2-.3.3-.4.3-1.6-.3-3.1-.5-4.7-.6-.8.3-1.8.8-2.7 1l2.6-1a32 32 0 0 0-10.7.5c-.8.3-1.8.4-2.2 1Zm6-4-.6.4 1-.3h.1-.4Zm-3-.8h.2c1.7-.4 3.2-1.3 5-1.6.2 0 .4 0 .6.2.3.3-.2.7-.4.9 1.2 0 2.3.3 3.5-.1.3-.1.6-.2.9 0 .7-.2 1.6-.3 2-.8-3.4-.8-7.4-.5-10.8.4-.2.2-1.6.7-1 1Zm1.5.2 1.5.1.6-.3h-.3l-1.8.2Zm6 1.7h-.3.9l1-.4H80c-.4 0-.8.3-1.3.4Zm-3.6-1.5c.9.2 1.6-.1 2.5-.4h-1.8l-.7.4Zm2.4 0-.3.2c.8 0 1.5.1 2.3.3l.4-.3c-.5-.3-1-.3-1.6-.2h-.8Zm-3.1-.9h1.3l.8-.6c-.8 0-1.4.4-2.1.6Zm7.4 2.6h.4-.4Zm-1.6-1.3-.2.2h.8l-.4-.2h-.2Zm3 1.2.5-.2H83l.2.2Zm-2.3-.8.5.1-.3-.2H81Zm1.4.1c.8 0 1.6-.4 2.1-.8l-.2-.2-2.4.6.5.4Zm-1.4-.9.6.3 2-.5h-2.5l-.2.2Zm3.5 1.1c.4-.3.9-.6.8-1.2H85c.3.5-.5.8-1 1 .2 0 .4 0 .5.2Z"/><path d="M81.4 149.4c1.4-1.9 4-2.9 5.2-4.8-1.7.4-3 1.7-4.5 2.2-.2 0-.3-.1-.2-.2 1.2-.8 2.3-1.5 3.4-2.4-6.8 3.9-4.7 1.5-.4-1.6-.6.2-6 3.7-5.6 2.3l4.1-3.4c-1.3.5-9.7 5-4.5 1.3.9-.7 2-1.2 2.5-2.2-1.2.1-2 .9-3.1 1.2-1.7.7-3.6 1.8-5.3 2.1 2.7-.8 5-2.4 7.7-3.4 3-.7-1.2 2.3-1.8 2.7 1.6-.7 3-1.6 4.7-2.3l.2.1c.2.1.3.3.2.5-1 1-2.3 2-3.4 2.9l4.8-2.6c.1 0 .3 0 .3.2 0 .3 0 .5-.2.7-1.1 1-2.4 1.8-3.6 2.8l4-2h.4v.3c-.6.6-1.3 1-2 1.5.5-.2 3.3-1.9 2.3-.3-1.6 1.6-3.7 2.8-5.2 4.4Z"/><path d="M73.2 145.4c-.8-.3 2.6-2 3-2.3.3 0 .7-.2 1 0H77c-.3-.1-.5 0-.8 0-1 .5-2.1 1.3-3 2.1 2.3-.7 4.4-2.2 6.8-2.9l.1.2c.2.4-.2.7-.4 1 1.9-.6 3.5-1.8 5.4-2.5.2 0 1.2-.1 1.1.3-.4 1.9-2 3.2-3.4 4.5 1-.5 2-1.4 3.1-1.6.2 0 .6 0 .6.2-.3 1.3-1.5 2-2 3 1.7-.4 3.3-1.4 4.9-2-.5.1-5.6 3.1-5 1.9.5-1 1.5-1.7 1.8-2.8h-.5l-3 1.8-1.7 1h-.3v-.2c2-1.7 4.2-3.4 5-5.7H85l-4.5 2.3c-1.9.7-1.1 0-.6-1-2 .6-3.8 1.7-5.8 2.5-.2 0-.6.3-.9.2Z"/><path d="M87.2 144.8c-.6-2.3-3.4-4.3-4.3-6.4 0 0 .1 0 0 0v.1c1.2 2.1 3.8 4 4.3 6.3ZM89.3 143.4c-.5-2-1.5-6.4-4.5-5.8 0-.2.4-.2.7-.2 2.8.6 3.5 4 3.8 6Z"/><path d="M86.4 143c-1-1.2-2-2.2-2.8-3.5l.1-.7c-.6-.6-2.3-1.8-2.7-.7.3-1.2 2.2 0 2.8.6.3-.2.6-.2 1-.1 1.3-.8 4.2 1.4 4.4 2.8.2 1.2-1.2.9-1.9.3H87a1 1 0 0 1-.5 0c.2.3 1.1 1 .6 1.4l-.3-.1h-.4Zm.2-1.6h.5l-.3-.2H86l.6.3Zm1.7.3c.6.3.6-.3.4-.7-.6-1.2-2-2.2-3.4-2.3.8.4 1.5 1 2.1 1.5.2.1.3.3.3.5v.6l.6.4Zm-2.3-1.2-.2-.2-.6-.5.3.5.4.2Zm.3-.5.5.6h.2l-.8-.7v.1Zm-2.1-.4.2-.1-.4-.4c-.1.1 0 .4.1.5Zm.6.1c0-.3-.2-.5-.3-.8h-.4l.8.8ZM84.3 148.4c1-.5 1.8-1.2 2.7-1.8-1 .2-1.9 1-2.8 1.6-.1 0-.3-.1-.2-.2 1-1 2.6-2 2.9-3.4-.7.1-1.3.5-1.9.7.3 0 1-.2 1 .2-.4-.5-1.5.1-2 .3l-1.2.5c-.1 0-.2 0 0-.1 1.2-.5 3-1.6 4.2-1.8.2 0 0 .4 0 .6-.3.9-1 1.5-1.7 2.1.4-.1 2.3-1.6 2-.6-.8.8-1.9 1.4-2.9 2 0 .1-.2 0 0 0Zm2.5-1.8h.2l.1-.1v-.1l-.3.2ZM78.1 143.7l3-.6-3 .6ZM93.6 118.7l4.5-1.8-3.6 1.5c2.5-.7 5.2-1 7.7-1.2-2.3.4-5.7.7-8.2 1.6-.1 0-.6.1-.4-.1Z"/><path d="M77.7 148.8v-.3c.9-1 2-2 2.7-3.1-1 .4-1.9 1-2.9 1.3-.3 0-.8-.2-.5-.5 1.1-1 2.6-1.7 3.3-3-1.8.6-3.5 1.5-5 2.4-.6.2-1.2.8-1.9.4-.6-.5-.1-1.2 0-1.8.2-.3.3-.8.7-1h.5-.5c-.5.6-.7 1.5-.9 2.2.5 1.2 2 0 2.6-.4a106 106 0 0 1 1.3-1.2c.5-.2 1.3-1 1.9-1v.2l-1 .7c.9-.3 1.6-1 2.6-.8l.2.2c-.2 1.1-1.4 1.7-2.1 2.5.7-.3 1.3-1 2.2-.7 1 .4-1.4 2.4-1.8 2.9.6-.2 3-2.1 3.4-1.4 2.4-1.4 2.8-.8 1 1.1 1.6-.4 2.9-1.4 4.4-2 0 0 .2 0 .1.1-.8 1-2 2-2.9 3l2.5-2.8c-.6.2-4.5 2.8-4.6 1.8.2-.6.8-1 1-1.5-.8.4-1.5 1-2.4 1.3-.2 0-.3 0-.3-.2-1.1.6-2 1.4-3.3 1.8 0 0-.2 0-.3-.2ZM87.1 121.7c0-.6.6-1 1-1.3l-.2-.2v-.2c-3.3-.2 4.2-4.7 5-5 .5-.2 5.5-3 4.5-1.2.4.2.3.5 0 .7 1.7-.6 3.7-1.3 5.5-.6 1 .6-.5 1-1 1.1a1 1 0 0 1-.3.3c1-.2 2-.8 3-.7 1.4.8-1.7 1.6-2.3 1.9 1 0 1.4.7.3.9l.3.1.2.2c.5 0 1.2-.1 1.6 0h-1.6c.2.2 0 .5-.2.4l-.4-.3c-.4 0-2.9.4-1.7-.2-3.2.1-6.3 1.2-8.8 2.8-.4.3-1 .6-.8 1.1-.9-.5 3.2-2.7 4.8-3.2-.7-.3.2-.8.6-.9-2.8.5-5.1 2.2-7.7 3.2-.4.4-.7 1.5-1.5 1.5-.2 0-.3-.2-.3-.4Zm.7-2.4c1.1 0 1.6-.8 2.3-1.5.9-1 2-1.7 3.1-2.3-2 1-4 2.2-5.4 3.8Zm10.7-3.2-1.7.8a20 20 0 0 1 1.7-.3c-.1-.1 0-.3.1-.3l1.3-.7-1.4.5Zm2.2 1.7 1.6-.1-.4-.2c-.4 0-.9 0-1.2.3Zm-1.2-1.2c1.5.1 3-.8 4.3-1.3-1.4.4-3 .8-4.3 1.3Zm-2.4-1.2 4-1.1c-1.4.1-2.7.6-4 1.1Zm4.8-1h.2l-.3-.1h-.1.2Z"/><path d="M99.3 128.9c1.6-.8 3.2-1.5 4.7-2.4-1 .1-1.7.7-2.7 1-.8.2-1.6.9-2.6.7-.1 0-.2-.2 0-.3 2.2-1.7 4.7-3.3 6.5-5.4-.2-.2-.5 0-.7 0-1.4.8-2.9 1.4-4.3 2.1-3.7 1.8-5.2 1.6-.9-.8l-4.4 2h-.6c-.1-.1-.2-.3 0-.4 2.3-1.9 5-3.3 7.4-5.2l-8.2 3.7c-.5.2-.4-.5 0-.6 2.6-1.5 5.1-3.2 7.7-5L96 121c-1.4.6-2.7 1.4-4.2 1.9l-.3-.1c-.2-.4.4-.6.6-.8l6.1-4-6 3c-.4.2-.8.5-1.2.3-.2 0-.2-.2 0-.3l4.9-2.6c-2.6 1.3-5.3 2.3-7.8 3.6-.3.2-.6.3-1 .2 0 0-.2-.1-.1-.2l2.8-1.7c.4-.2 1-.6 1.4-.5-1.6.3-2.8 1.5-4 2.3.3.3 14.6-7.4 10.5-4.3l1.7-.8c.2-.1.5 0 .6.2.1.2-.2.3-.3.4-1.6 1.3-3.5 2.4-5.2 3.5 8.4-4.3 14-6.7 2 1 2.1-.9 4-2.2 6.1-2.7 1.7.3-6.5 5-7.1 5.6 2.3-1.1 4.7-2.2 7-3.5a59.9 59.9 0 0 1 2.1-.8v.3c-2 1.4-4 2.6-6.1 3.8 2.2-.8 4.2-2 6.4-2.8 3.2 0-5.3 5.3-5.9 6 1.6-.3 3-1.1 4.5-1.7 2.8-.4-3.9 2.4-4.3 2.5Z"/><path d="M96.2 130.8c-.1 0-.2-.2-.1-.3 1-1.6 2-3.3 2.6-5.2l-3 2.5c-.2 0-.5.2-.6 0v-.3c.6-.9 1.5-1.7 2.2-2.6-.5.3-4.6 4.4-4.4 2.8.9-1.3 2-2.6 2.7-4l-3.6 2.5h-.3c-.1-.1-.1-.3 0-.4l1.4-1.4c-.5.2-3.5 2.9-2.9 1 .4-.7 1.1-1.5 1.1-2.5-1 .6-1.8 1.6-2.6 2.4-.2.1-.3.3-.5.2.3-1.1 1.3-2.3 1.8-3.6.3-.6.7-1.3.4-2-.6 0-1 .3-1.4.5-1.1.7-2.4 1.3-3.3 2 .7-.2 1.6-.7 2.2-1l-2.2 1.1v-.3l3-1.8c4-2.6 1 2.8.3 4 .8-.6 1.4-1.6 2.4-1.9.1 0 .3 0 .3.2.1 1-.5 2-1 2.8l2.9-2c1.3-.5.3.8-.1 1.1 5-3.8 2.3 0 .6 2.3l4.8-4h.3c.1 0 .2.2.1.3-.6 1.1-1.7 2-2.5 3 .7-.3 1.2-1.2 2-1.3 1.4-.1-.7 3.1-1 3.7.6-.6 3.5-4.6 3.2-2.3l.7-.8c0-2 1-4 1.5-5.9-.4.3-.9.7-1.5.5l-.2-.3c.2-.6.6-1 1.2-1.4-.2-.2-.6-.4-.3-.6.3-.4 1-.3 1.5-.2 0-.5.5-.7 1-.7 0-.3 0-1 .5-.8.4.1.6.5.5 1 1 .2 2 .8 2.2 1.7.3 1.2-1 1.5-2 .9.2 2.9-2.3 5.2-3.6 7.6-.4.7-1 1.4-1.3 2.2h-.3l-.2-.2c.5-1.1 1.1-2.2 1.4-3.4-1.1 1-2 2.4-3.2 3.4h-.3v-.3l1.2-1.9-3.2 3.8h-.4Zm6.3-4.7v.1c1.1-2.2 3.5-4.2 3-6.9-.7 2.2-1.5 4.5-3 6.4v.4Zm-.3-1h.2c1.1-1.9 2-4 2.6-6.1l-.2-.2-.7-.1c-.7 2.1-1.6 4.2-1.9 6.5Zm-.2-5.4c.6-.1 1.1-.7 1.5-1.1h-.3c-.5.3-1 .6-1.2 1.1Zm.8-1.4.2-.2.7-.4c-.4 0-1-.1-1.3.3l.4.3Zm4 1.3c1.1.3 1-.8.5-1.4h-.2c-.2.4-.8.6-1.2.6v.5c.3.1.6.3 1 .3h-.1Zm-3.4-1.2h.2c0-.2.5-.1.5.1h.4c-.2 0-.4-.3-.6-.5a5 5 0 0 0-.6.4Zm1.6.2c.2-.3 0-.5 0-.8H104.1c.2.4.6.6.8.8Zm.8 0c.4 0 .9-.1 1-.5l-1-.2c-.2.2-.1.5 0 .7Zm-1.6-1.2.3-.1h.3v-.1c-.2 0-.5 0-.6.2Zm1.5.4c.4 0 .8.2 1.1.3v-.3a2 2 0 0 0-1-.3v.3Zm-.4-.9v-.2.2Z"/><path d="M106.6 125.3c.4-2 .9-4.1 1-6.3-1.4-.5-2.3-1.6-.1-1 .2 0 .4.2.4.4l-.1.5c.7.2.9-.5.6-1a8.6 8.6 0 0 0-6.5-2.7l-.7.1c.3-.2 1-.1 1.5-.1 2 .1 5.3 1.1 6 3.1.1.6-.4 1-1 .8 0 2-.5 4.3-1 6.2Zm.6-6.7.3.2.1-.4c0-.3-.9-.4-1.2-.4.2.3.5.4.8.6Z"/><path d="M105.3 128.9c2.2-2.4 4.1-5.7 3.5-9-.2-.6-.6-1.4-1.4-1.4 1 0 1.5 1.2 1.6 2 .4 3.2-1.4 6.3-3.7 8.4Z"/><path d="M100.2 133.9c3.3-1.5 5.7-4.5 6.8-7.7-.4.6-6.3 6.4-5.3 2.9 1.1-1.7 2.6-3.2 3.9-4.8l-3 2.5h-.3c-.2-.3 0-.5 0-.7 1.6-1.5 2.6-3.5 3.8-5.2.2-.2.7-.5 1-.3.6.7.8 1.5.7 2.4l.2-.3.4-.5h-.3.3l2-3c0-.2.2-.3.4-.3s.4.1.3.3c-.6 2.4-2 4.6-3.6 6.5-1.1 3.4-3.8 6.8-7.3 8.2Zm2.3-4.7c1-.3 1.7-1.2 2.5-1.8 1-1 2.4-1.8 2.5-3.1-1.4 1.8-3.6 3-5 4.9Zm4.9-6c-1 1-1.9 2.2-2.8 3.3l2.2-2.1.7-1v-.5l-.1.2Zm-1.4-1.5a43 43 0 0 1-2.3 3.6c1.3-1 2.3-2.4 3.8-3 0-.6-.3-1-.7-1.4-.5 0-.6.5-.8.9Zm1.8 2.2v.6c.4-.5.7-1 .8-1.7a12.5 12.5 0 0 1-.8 1v.1Zm.8-1v.5c.6-.9 1-1.8 1.5-2.8 0 0 0-.2 0 0-.4.8-1.2 1.4-1.5 2.3Z"/><path d="M89.3 130c-.6-.1-2.2-2.4-.7-2 1.7 1.1 3.6 2 5.6 2.6 1.5-1 3-1.7 4.4-2.8a69.6 69.6 0 0 1-5 1.4v-.3c2.4-1.2 5-2.2 6.8-4-2.9 1-5.5 2.3-8.3 3.4-.4 0-.8.4-1 .1v-.3c2-1.3 4.2-2.3 5.8-4l-5.6 2.3c-.3 0-2.4 1.3-2 .3 2.4-1.6 5-2.9 7.1-4.8-2.6.8-5 2-7.6 2.8-.2 0-.3-.2-.1-.3 1.7-1.3 4-2.3 5.4-4-1 .2-2 .7-3 1h.9c-.9-.3-2 .6-2.4.4l.2-.2c1.4-.3 2.6-1 4-1.4 2.3-.4-4 3.7-4.4 4 5.9-2.5 12.5-5.1 2.8 1.3 1.6-.7 3.1-1.3 4.7-1.8 2.5.2-2.7 3-3.2 3.4 2.4-.8 4.7-2.4 7.2-2.6.2.3 0 .8-.3 1-1.2 1-2.6 1.7-4 2.4 4.8-1.7 2.3.6 0 1.8 1.7-.5 3.2-1.4 5-1.6 0 0 .2 0 .2.2.3.4-.3.7-.6 1 .6-.3 2.7-1 1.9.3l3.2-1c.8-.7 1.5-1.6 2.2-2.5-.7.6-1.3 1.3-2 1.7-.2.1-.3 0-.4 0-.2-.5.8-.8 1-1.2 1.3-1 2-2.5 2.7-4 1.7-3.5-1.4-5.6-4.9-6.4-.4-.1-1.4-.1-1.4-.7 0 0 .2-.2.3-.1 1.5.2 3 1 4.5 1.2-1.3-.7-2.5-1.7-4-2.1-3-.8-6 .2-9 1-1 .6-2 2-3.3 2.4-.5-.2-.3-.7-.2-1-.3-.3-.1-.7.2-.9-.2 0-.3-.2-.2-.3a10 10 0 0 1 6.6-3.4c.6.1 6.6-.7 5.6.4-1 .4-2.3 0-3.5 0-1.8.4-3.7.8-5.3 1.6 2.4-.9 5-1.7 7.6-1.2.6.1 1.7 0 2 .5 2.4.5 4.8 1.8 6.3 3.6 0 .3-.6.2-.8.2l-.6-.2c.4.1 1 .3 1.3 0a11 11 0 0 0-6.3-3.4c-.4.2-.9 0-1.3 0 2 .2 3.6 1.6 5.3 2.5.8.2.8 1.1-.2.8 2.9 1.5 2.6 4.4 1.3 6.6.7-.8 1-1.8 1.4-2.7.2-.4.6-.5.7 0-1 3-2.9 5.6-5 8-2.2 1.9-5.5 2.8-8.6 2.8-3-.3-6.1-.7-9-1.8Zm2.4.3c-1-.5-2-1-3-1.7.5 1.1 1.9 1.4 3 1.7Zm6.4-.6-3 1.2c1.4.3 2.8.3 4.2.3 1.2-.5 2.5-1 3.4-1.8-1.7.4-3.3 1-5 1.7l-.3-.1.1-.3c1.3-.6 2.6-1.2 3.7-2-1 .2-2 .6-3 1Zm-5.9-12.3.5-.4a1 1 0 0 1-.4 0v.4Zm.8-2.2c1.4-1 2.7-1.8 4.4-2.2a8.7 8.7 0 0 0-4.4 2.2Zm3.5-.5c1.6-.4 3.2-.8 4.8-1-1.6.1-3.4 0-4.8 1ZM89.1 103c.4-6.3-1.2-11-5.9-16 0-.1 0 0 0 0 4.9 4.7 6.6 10 6 16Z"/><path d="m89.5 99.7-.3-.3c.1 0 .2.4.5.2.1-1.4-.6-3-1.2-4.3a24.8 24.8 0 0 0-5-7.6c3.3 3 5.8 7.5 6.3 11.7 0 .2 0 .4-.3.3Z"/><path d="M90 102.7c-.2-.9.3-1.7.5-2.5-.6.3-.6-.7-.4-1 .5-1.7 1.4-3.3 1.4-5.2-1.2 1.8-1 4-2 6-.4.3-.7-.4-.6-.7-.6-2.5-.7-5.1-1.4-7.7-.2-.7-.3-1.4-.7-2L85 87.8c-.4-.4-.2-1 .4-.8 1.6.4 1.5 2.1 2.5 3 0-.3-.2-.8 0-1v-.6c.3 0 .4.1.4.3.5 1.2.8 2.4 1 3.6.1-.5.2-1 .7-1.2.6-.2.4.7.4 1 1.1-.3.6 1 .7 1.5.5-1.2 1 .3 1 .9.8-.4.7.2.6.8 1-.1.7.6.7 1.1 2.9-4.5.2 4.1-.8 4.9-.1 0-.3 0-.4-.2v-.3l.1.4h.2c.8-.6 1-1.8 1.4-2.8.2-1 .8-2 .6-3-1 .9-1.3 2.3-1.8 3.5 0 .2 0 .5-.4.4 0 0-.2 0-.1-.1.1-1.2 1-2.2.8-3.5-.6-.2-2 8.4-3 7Zm1.4-5.4-.3 1.2v.2c.3-1.2 1.1-2.3 1-3.5l-.7 2.1Zm-2.5-.7v-1.3l-.1.1.1 1.2Zm1-.4c.5-1 .6-2.1.7-3.2-.4 1-.5 2.1-.7 3.2Zm-.6-1c.2-.5.3-1 .1-1.5-.2.5 0 1 0 1.5Zm.4-1v-.4l.2-.6V92c-.1.7-.5 1.4-.2 2.1Zm-2-3.5c.3.7.4 1.5.6 2.2 0-.8 0-1.7-.6-2.4v.2Zm1.2.5a15 15 0 0 0-.2-1.1v.9l.2.2Zm-2.6-2.8.2.2c-.2-.5-.6-1-1.1-1.1l1 1Zm1.7.2v.3h.4c-.1-.2-.2-.4-.4-.4ZM76.8 100.5c-1.1-.5-2.4-1.1-3.2-1.8 4 3 9.2 2.4 14 3.6-3.5-.8-7.4-.6-10.8-1.8ZM80.3 98.6c-2.7-1.4-5.3-3-8-4.8 2.9 1.7 5.8 3.6 8.8 5l-.8-.2ZM78.1 99.4c-1.7-.7-3.3-1.7-4.7-2.9l1.3 1c1.9 1.2 4.2 2 6.1 3l-2.7-1.1Z"/><path d="M77.6 99.7c-2.3-.9-4.3-2.4-5.5-4.5 1.5 2.5 4.5 4.3 7.6 4.9-2.3-1-5.6-2.4-6.7-4.7.4-.2 1 .3 1.2.5 2.8 1.7 5.3 3.8 8.4 4.8-2-1-3.5-2.7-5.4-3.9-.9-.4-2.1-1-2.3-1.8.2-.2.6 0 .8.1 1.2.8 2.1 2 3.5 2.4l-1.3-1c1.5 1.3 3.7 1.6 5.1 3 .1.1-.2.2-.3.2h-.3c-1.2-.7-2.2-1.8-3.5-2.1l4.1 2.9c.3.1 1 .9.3.9l-3.1-1.1c-.8.2-1.8-.4-2.6-.6Zm1-.5c.3 0 .5.2.8.3a92 92 0 0 1-5.6-3.5 16 16 0 0 0 4.8 3.2Zm3.8.3h.4c-.7-.6-1.6-1-2.5-1.4l2.1 1.4Zm-5.8-3.3-1.1-.8 1 .8Z"/><path d="m82.1 99.3 1.3.3.1-.1c-1.9-2-4.4-3.6-6.6-5.3-1.4-1-3-2-4-3.3 2.8 3 7 4.8 10 7.8 1.5 1.2.3 1.1-.8.6Z"/><path d="M86.3 103c-4.5-4-8.6-8.7-13.6-12 4.8 2.8 9.6 8 13.6 12Z"/><path d="M83.1 101.3c-2.3-1.5-3.6-4-5.1-6-1.4-2.4-3.1-4.4-4.7-6.5l2.8 3.4c-.4-.7-1.3-2.2.3-1.2 1.3 1.3 2.1 2.9 3.3 4.2-1.1-2-2.7-4-3.4-6.1 1-.6 2.2 2.2 2.8 2.8-5.5-10.3 5.9 6 5.8 8.1.3.3.7 1.4 0 1-1-1-1.7-2.2-2.4-3.4-1.5-2.6-3.6-5-5.2-7.5 2 3.7 4.3 7.4 7 10.9.2.2-.2.4-.4.2l-7.7-9.7c1.2 2.6 3.4 4.8 5.3 7 .3.4 3 3 1.6 2.8Zm.1-.3c-1.4-1.9-3-3.6-4.5-5.4 1.4 1.9 2.5 4 4.5 5.4Zm-.7-4.5 2.1 3c-1.6-3.5-4-6.7-6.3-10 1.1 2 2.2 4.1 3.5 6l-1-2c.6 1 1 2 1.7 3Z"/><path d="M86.5 101.3c-1.3-3-2-6.3-4-9 .7 2.7 2.7 5.2 3 8 0 .5-.7.4-.7 0-2-4.2-4-8.5-6.2-12.7l2.7 5c-.4-1-1.1-2-1.3-3 .4-1.5 1.7 2 2 2.4-.4-1.4.6-.6 1 0-.2-.8-.8-1.7-.8-2.6.5-1 1.2.6 1.6 1-.1-.6-.8-2.6.6-1.7.8 1 1.2 2.4 1.8 3.6 0-.3-1.6-5.6-.6-4.3 1.8 3.6 2.6 7.6 3.7 11.5-1.2-3.6-2-7.6-3.7-11.1.7 2.8 1.2 5.7 2.1 8.4 0 .5 1.2 3.6.4 3.2-.3-.1-.4-.3-.5-.6A30 30 0 0 0 84 89.1c.6 3.8 3 7.3 3.3 11.2 0 .1-.2.3-.3.2.2.4 0 1.3-.5.7Zm-1.3-5c.3.4.5 1 .7 1.5-.8-2.8-1.4-5.7-3.2-8 .9 2 1.5 4.3 2.5 6.4Z"/><path d="M75.3 97.8c-2.2-1.6-3.8-3.9-5.3-6 1.5 2 3.2 4.2 5.2 5.8.3-.4-4.6-7.1-2.4-5.1-.1-.4-.5-1-.2-1.3.6-.3 1 .3 1.3.7-.1-.5-2-4.3-.8-3.8.7.4 1 1 1.4 1.7a374 374 0 0 1-1.7-4.2c0-.2.1-.4.3-.3.5.1.8.6 1 1 1.2 2.3 2.6 4.4 3.8 6.6 0-.7-3.9-10.4-1.8-8.6.4-1.3 2.5 3 2.8 3.4-.3-1.2-.8-2.3-1-3.5 0-.2.3-.3.5-.2 1 .6 1.2 1.8 1.8 2.7l-1.8-4.9c.3-1.5 2.3 4 2.6 4.3l-1-3.2c-.1-.2 0-.4.3-.3.4.1.6.6.7 1l1.9 4c-.2-.8-.5-1.6-.5-2.4 0-.1 0-.2.2-.2l.3.1c.4.7.5 1.5.9 2.3-.2-.8-.9-2.3.4-2.4a35.8 35.8 0 0 1 2.9 5.5L85.5 85c0-.1.1-.3.3-.3.6 0 .6.8.7 1.2 0-.5-.3-1.4.6-1 .3.2.4.5.5.8l1.5 3.9-.6-3c0-.2.1-.3.3-.3 1 0 1 1.2 1.2 1.8h.3c0-.5-.5-1.5.1-1.8.2 0 .3 0 .3.2.6.9.9 2 1.2 3 .3-3.1 1.8 2.8 1.8 3.5v-1.5c0-.1.2-.1.2 0 .4 1.1.5 2.3.6 3.4v-.2c-.2-1-.3-2-.6-2.8-.1 1 .3 2.2 0 3.2 0 .1-.2 0-.2 0-.1-2-.6-4-1.4-5.8.3 2.2 1 4.3 1 6.5 0 .1 0 .3-.2.3l-.3-.3-.2-1.8c-.4-2-1-4-1.7-5.8l1.2 6.6c0 .1-.1.3-.3.3-.1 0-.3 0-.3-.2-.3-.6-.3-1.3-.5-2-.2-2-1.3-3.8-1.9-5.8.4 2.4 1 4.7 1.5 7.1 0 .1 0 .3-.2.3a.3.3 0 0 1-.3-.3c-.7-2.9-2.1-5.7-3.1-8.5l1 6.2-.2.3.3 1.8-.2.2c-.2 0-.3-.1-.3-.2-1-3-2.1-5.8-3.7-8.5-.1 1.4.6 2.8.8 4.2 0 .4.6 1.3.1 1.5-.1 0-.2 0-.3-.2l-1.1-3c.2 1 .5 1.8.6 2.8 0 0 0 .2-.2.2-.1 0-.3 0-.3-.2-.6-1.9-1.6-3.7-2.4-5.5l2.2 6.4.5 1.6-.1.2-.3-.1c-1-2.4-1.8-4.7-3-7a112 112 0 0 1 1.8 5.2c0 .2 0 .3-.2.3-.4 0-.4-.5-.5-.8-.9-2.1-1.9-4.3-3-6.3l1.6 5.7c0 .2-.4.4-.5 0-.9-1.9-1.8-3.9-3.1-5.7.1.5 3.8 7.4 1.5 5.4-.9-1.7-1.3-3.6-2.1-5.3.9 3.5 2.2 7 3.3 10.6.1.2-.3.4-.5.1-1.5-3-3.5-6-5.1-9 1 2.6 1.9 5.2 3.2 7.7.1.2.3.5 0 .6-.4 0-.4-.5-.6-.7l-3-5.3a28 28 0 0 0 3 6.6c0 .2 0 .5-.3.5-.6-.3-.8-1.3-1.2-2a43 43 0 0 0-1.6-2.4c-.1 0-.2-.2-.3-.1.2 1.4 1 2.6 1.8 3.9 0 .1-.1.2-.3.2.4.7 1 1.4 1 2.1h-.2ZM116.5 93.5c0-.1 0-.2.2-.3l2-.8c3.4-1.2 6.7-2.4 9.8-4-2.8.6-5.6 1.2-8.3 2-1.7.5-3.1 1.4-4.9 1.6-.8-.4.9-.8 1.2-1 4-1.2 8-2.5 11.5-4.4-3.4.7-6.6 1.8-9.8 3l-3.2 1-.3-.1c-.1-.5.7-.6 1-.7 3.1-1.4 6.7-1.9 9.7-3.5-2.5.4-5 1-7.3 1.8l-2.1.7-.4-.1.1-.3 1.8-.7c3.1-.9 6.1-2 9.1-3.2-4.8 1-9.6 2.4-14.4 3.7-.3 0-1.4.5-1.4-.1-1-.4 1.4-1.1 1.7-1.3 3.7-1 7.2-2.3 10.9-3.4-2.8.5-5.5 1.1-8.2 1.8-.6.2-5.2 2.2-3.7.6-.4-.3.2-.5.5-.7 2.6-1.2 5.3-2.3 7.9-3.7a110 110 0 0 0-8.1 3c-.4.2-3.2 2-2.5.7-2.9.1 5.6-3.5 6-4-1.5.6-2.9 1.6-4.5 2-1.2-.2 2.7-2.3 3-2.6-2.4 0 2.9-2 3.4-2 .4-.2 3-1.5 2.6-.5h.6c0 .1-.1 0-.2 0h-.4c-2.4 1.5-5.3 2.2-7.5 4 2-.9 4.1-2.3 6.3-2.8.5.5-.5.7-.8 1a153.4 153.4 0 0 1 6.3-2.3c.1.5-.7.6-1 .9l-6.3 3.2 4.9-1.7c1.5.3-2.4 1.9-2.8 2.1l4.4-1.3 1.1.1c1.1.6-4.4 2.2-4.9 2.5 1.7-.3 3.7-1 5.3-.9.1.2-.1.4-.2.6-1 .6-2.1.6-3 1 .4 0 9.7-2.3 7.9-1 1.4.6-5 2.3-5.6 2.6.7-.1 3.6-.6 1.9.6 1.1-.3 5-1.2 2.1.7l-3.8 1.6c10.7-2.7 3.3.9-1 2.4l2.7-.7c2 .4-2.6 2-3 2.3.8-.2 1.7-.6 2.6-.7.1 0 .5.2.4.3-1.3 1-2.7 2-4.1 2.8 1.2-1 2.8-1.8 4-2.8-.3-.2-.6-.1-.8 0L120 94c-.1 0-.3-.2-.1-.2 2-.9 4.1-1.6 6-2.8-3 .8-6.1 1.6-9 2.6l-.4-.1Zm-.8-7-1.1.4-.5.2 10.8-2.8c-3 .6-6.2 1.2-9.2 2.2Zm-2.2-3.8-2 1.2-1.3.6c3.5-1.4 6.8-3.2 10.2-4.8-2.3 1-4.7 1.9-7 3Zm0 2.3-.8.4c3.7-.9 7.3-2.4 10.7-3.8-3.3 1-6.7 2-9.9 3.4Zm0-4.7c1.2 0 2-1.2 3.2-1.6-1.1.5-2.4.9-3.3 1.6Zm2.3-.6h-.2c1.2-.4 2.3-1 3.4-1.6-1.2.3-2.2 1-3.2 1.6Zm3-1.6h.3l.2-.1h-.1l-.4.1ZM104.4 65.1l-.4-1.8-.2-.1c0 .2 0 .8-.3.8-.5-.2-.4-1-.6-1.4-1-.6-1.8-1.3-2.8-1.8-1.2-1.3-2.6-2.5-3.3-4.1-.5-1.3-1-2.7-.4-4 .3-.4.8.2 1.1.3-.1-1.6-.4-3.2 0-4.8-.2-.6.3-.9.6-.2v-.3s.1 0 0 0v.3c.4.6.6 1.2.8 1.8 0-.4-.7-2.9.3-2.1.7 1.3 1 2.7 1.5 4-.3-2-1-4.2-.7-6.1.3-.2.4.1.6.3.7.9.7 2 1 3.1l-.1-3.2c0-.6 1 .1 1.1.4.8 1.5.9 3.2 1.3 4.7l-.3-4.2c-.1-.8-.3-1.8.2-2.5 1.3-.8 2.1 6.3 2.4 7.3l-.4-6.7c.3-.7 1 .6 1.1 1l.2-4.2c.2-.7 1.2.7 1.3 1 .9 2.8.9 5.7 1.4 8.6.2-1 0-12 1.1-10.8 1.1 1 1 2.7 1.3 4 .2-.6-.1-2.5 1-1.7.6.7.5 1.6.6 2.4.2 2.5.2 5 .1 7.5.4-2.7.8-5.3 1.6-7.9 0-.1.3-.2.4 0 .7.2 1 .8 1 1.4 0 1.4-.3 2.8-.4 4.2 2-6 3.4-3.5 2.2 1.2.4-.6 2.6-5.5 3.4-4.6.6 1.1.2 2.2-.2 3.3.2-.4 2.2-2 2.3-1 .6 1.5-.5 2.8-1 4 1-.5 2-1.3 1.7.5l1.7-1.5c.5-.2.6.3.4.7-.6 1.4-1.8 2.4-2.7 3.6 1.1-.9 4-2.6 2.5.3-1.8 2.4-4 4.4-5.9 6.7a75.3 75.3 0 0 1 4.3-2.6c-.9.8-1.9 1.4-2.9 2l1.9-1.3c-1.9 1.3-4 2.4-5.3 4.1-.3.3-.5.6-1 .7-.3 0-.2-.3 0-.4 2.4-2.2 4.4-4.8 6.6-7.2.7-1 1.8-1.8 2-3-4.6 2-6.7 6.9-10.1 10.2-.3.3-.7 0-.5-.4h-.6c-.3.5-1 1.8-1.2.4 0-.7.3-1.4.5-2v-.2c-2.5 3.9.4-4.7.8-5.3 1.4-3.5 3.7-7.1 3-11-2.8 4.5-2.7 10.2-4.8 15 0 .3-.4.2-.5 0 .3-4.5 3-8.6 3-13.2 0-1.3.8-3-.1-4.1-1.5 5.4-2.1 11-3 16.6-.1.4 0 2.1-.7 1.7l-.1 1.6-.4.2c-.7-.3-.6-1.2-.5-1.8.4-4.5.3-9.2.6-13.7.2-3 .1-6-1-8.8a132.7 132.7 0 0 0-.2 23.9c-.1.6.2 1.8-.3 2.1-.3 0-.4-.4-.4-.6 0-6.4 0-12.9-1.3-19.3-.3-1.6 0-3.5-1.1-5-.5 4 .1 8 1 12 .8 3.7.9 7.4 1 11 0 .4-.5 1-.8.5-1.3-6.4-1-13-2.3-19.3l-.1-.6a304.1 304.1 0 0 0 1.4 19.4c0 .1-.1.2-.3.2a148.7 148.7 0 0 0-.7-6.6c-.7-4.6-1.1-9.4-2.7-13.9 0 4.3.6 8.8 1.3 13 .3 2.4.7 4.7.8 7 0 .2 0 .5-.3.5a197.1 197.1 0 0 1-1.5-10.2l-1.6-7.2c-.2-.6-.3-1.3-.8-1.7.1 6.3 2.3 12.6 3 18.9 0 .3-.6.3-.6 0Zm3.5-11.9c.3 3.7.6 7.5 1.1 11.2 0-4-.3-7.9-1.2-11.8v.6Zm-4 9.3c-1-5.3-1.8-10.7-3.5-15.9.5 5.3 2 10.6 3.4 15.8Zm-1.5-.8A19.4 19.4 0 0 1 101 60v.7l1.3.9Zm-1.9-1.3c.3-1.3-1-2.4-1.6-3.6.5 1.2.6 2.7 1.6 3.6Zm14.2 5c1.8-3.2 4.3-6 6-9.3-2.6 2.7-4.6 6-6 9.4Zm-15.4-6.1c-.8-1.8-1.4-3.6-1.6-5.5l-.9-.6c-.7 2 1 4.5 2.5 6Zm16.4 5.8c.2 0 .4-.3.5-.4 1.6-2.5 3.7-4.7 5.4-7a33 33 0 0 0-6 7.4Zm-14-5-.1-.2a13 13 0 0 1-.5-.6l.5.7Zm.6 0h.1l-.2-.2.1.2Zm0-.8c-.4-1.4-1-2.6-1.5-3.9.4 1.3.7 2.7 1.4 3.9Zm10-8.3-.4 11.4c.5-4 .7-8 .5-12.2v.8Zm2.8 12c1.7-3.2 3.6-6.2 5-9.4-2 3-4.1 6-5 9.4Zm-14.5-5.4c-1-2.5-1.8-5-2.6-7.7 0 2.7 1 5.4 2.6 7.7Zm12-10.7c.5 4.5.4 9 0 13.4 1-5.6 1.2-11.4.5-17l-.1-.2c-.2 1.2-.4 2.5-.4 3.8ZM100.7 54l.7 1.6v.2l-2.1-6.6c.3 1.6.6 3.3 1.4 4.8Zm-2.3 0 .4.7c-.8-1.8-.7-3.7-1-5.5 0 1.5-.1 3.3.6 4.7Zm22.9 2.3-1.2 2 3.6-3.5c.3-.5.6-1 .6-1.5-1.5.5-2.3 1.8-3 3Zm-3.3-1.8L117 57c1.6-3.1 5.1-6 4.7-9.6-1.6 2-3 4.5-3.8 7Zm5.5 1.6-1 1.4-.7 1c1.3-1.4 2.4-3 3.6-4.4-.7.6-1.3 1.2-1.9 2Zm-2.5-3.4-2 4.5c1.2-1.6 3-2.8 3.9-4.7.4-1 1.2-2 .9-3-1.5.5-2.2 1.9-2.8 3.1Z"/><path d="M97 54.1c-1-4 .5-8 2.3-11.5a20 20 0 0 0-2.4 11.5Z"/><path d="M97.2 55.7C95.4 51 96.6 46 98.3 42a21.5 21.5 0 0 0-1.1 13.7ZM114.6 68.3c2-1.6 4.1-3.1 6.3-4.5 1.4-1 6.4-3.8 5.6-5.7-.3.6-4.2 5.7-4.4 3.6.4-1 1.3-1.7 2-2.4.6-.6 1.2-1.3 2-1.6.3-.5 1.6-2.5.5-2.6-1.4 1-1.8 2.7-2.8 4a91 91 0 0 1-2.8 3.7c-.1.1-.4 0-.5-.1a.9.9 0 0 1 0-.7c.7-1.4 1.7-2.7 2.7-4 2-2.1 3.5-4.9 3.6-7.9-2 3.1-4 6.2-5.7 9.4-.2.3-.4 1-.9.9a.2.2 0 0 1 0-.3l1-2c1.8-3.6 3.5-7.3 3.9-11.3-1.8 3.1-3.4 6.4-5 9.6-.4 1-.9 1.9-1.5 2.7 0 .1-.2.2-.3.1-.1 0-.2-.2-.1-.3.7-1.6 1.6-3.1 2.4-4.7 1.2-3.3 2-6.8 2.6-10.2-1.6 3-2 6.5-3.4 9.5-.2.5-4.3 9.5-4.3 6.2 1.1-2.3 2.3-4.6 3.3-7 .9-2.9 3.3-5.8 3-8.9a54 54 0 0 0-5.1 11.2c-.6 1.5-1.2 3-2 4.4-.1.2-.3.5-.6.4-.3-.4 0-1 .1-1.4.8-2.2 1.8-4.2 2.8-6.3 1.1-2.8 2-6 2-9-1.4 2.7-2.2 5.7-3 8.6 0 .6-2.6 8-2.7 4.6 1.2-4.6 4-8.7 4-13.6-2.1 5-3.5 10.2-5.4 15.2-.2.3-.2 1-.6 1-.2 0-.3-.2-.2-.4 1.9-5 3.1-10.2 4-15.4-1 2.9-2.1 5.8-2.8 8.8-.5 1.7-.9 3.4-1.5 5l-.3.1c-.3-.1-.1-.5-.1-.7 1.2-4.8 2.8-9.6 3-14.6-1.5 3.8-2.4 7.8-3.8 11.6 0 .3-.5.2-.5-.1.9-4.2 1.2-8.5 1.7-12.8-1 3.2-1.8 6.5-2.7 9.7-.2.4-.6.1-.6-.2.4-3.2.6-6.5.8-9.7a985.4 985.4 0 0 0-4 9.4l-.2-.3c.5-2 .9-4 1.1-6-.5 2-1.2 3.9-1.5 5.9 0 .3-.5.4-.5 0 .3-2 .7-4.2.6-6.3-.9 2-1.5 4.2-2.1 6.3 0 0-.2.2-.4.1 0 0-.2-.2-.1-.3l.7-3.6-1.3 4s-.2.2-.3.1c-.2 0-.2-.1-.2-.2l1.2-6.5c-.7 1.4-1 3.2-2 4.4-.2 0-.1-.3-.1-.5l.6-3c-.5 1.3-.7 2.7-1.4 3.9-.1 0-.3.2-.3 0-.1-1.7.3-3.7.6-5.4-.2 1.8-.6 3.5-.5 5.3.8-1.3 1-3 1.6-4.5.2-.3.2-1 .6-1.3l.1.2-.7 3.5c2-6 2.5-4.9 1.4.6l1.3-3.7.3-.1.2.3-.3 2c1-3.5 2-3 1.6.4.2-.4 1.1-5.1 1.6-3 0 1.4-.4 2.9-.6 4.3 3.8-10 3.8-8.8 3 1 .8-2.7 1.5-5.4 2.4-8 1.6-1.7-.4 9.7-.4 10.4.4-.8 2.7-10 3.5-8.6.7 1.8-.3 3.6-.4 5.5.3-.5 1.3-5.4 2-4.4.4.8.2 1.7 0 2.5l-1 4.4c.6-.8 2.2-7.7 3.2-6.9.6.9.2 1.9 0 2.8.5-.9.6-1.9 1.5-2.5.1-.1.4 0 .4.2.2 2.1-.4 4.1-.8 6.1.9-1.8 1.6-3.7 2.8-5.4.5-.5 1 .8.9 1.2.3-.5.6-2.2 1.2-.8 0 2.6-1 5.1-1.5 7.6 1-1.6 1.5-3.5 2.8-4.9 2.2-1.2-1.1 7.4-1.4 8.1 1-1.6 1.9-3.3 3-4.7 2-1.6 0 4.5-.4 5.1.4-.4 1-.3 1.3.2.5.9-.3 2-.7 2.8 1.6 2-5 5.5-6.6 6.6-1.9 1.1-3.7 2.6-5.5 3.8Zm8-6.5c1.3-1 2.3-2.3 3.2-3.5-1.2 1-2.5 2.1-3.3 3.5Zm-2-12Z"/><path d="M110.6 71.2v-.6c-.2-.1-.3-.4-.2-.6.5-1.2-.7-3 .2-4.1.7-5.7 0-11.5 0-17.2 0-.2.1-.5.4-.5.7.2.3 1.3.4 1.8.1-.7-.2-1.8.6-2.2.1-.1.4 0 .5.1 1.2-1.7.5 5.1.6 5.7h.1c.7 2.5.6 5.1.8 7.6l.4-.1h.4c.7-1.3 1.4-2.8 2.2-4l-2 4.1.4.3c1.5-2 2.5-4.3 3.5-6.6 1.8-1.2-2 6.1-2.2 6.6 1-.8 4.7-6 5.8-4.7.6-.4 1.2-1.9 2-1.5.2 0 .3.4.2.6l-2 2.6c-.8.9-1.2 2-1.9 2.9l.4.1h.1c.7-.2 1 .8.5 1.1-1.7 1.4-4 4.6-6.1 6.5-.4.8-1.7.8-1.6-.2.2-.7.7-1.3 1.2-1.9l-3 2.6c.2.5.6 1.6-.5 1.4.3.9-1 1-1.2.2Zm1.7-2.8.2-.1-.2-.5.3-.6-.3.2v1Zm2.8-3 .4-.5-.3.3v.2Zm-1-1.5v.3l.7-.6v-.8c-.1 0-.3 0-.4-.2v-.3c-.4.4-.3 1-.3 1.6Zm2.8-.2-.4.2h.3l.4-.5-.3.3Zm-2.2-1.2.1-.1V62c-.1.2-.2.3-.1.5ZM106.2 89.2c-.2-.2 0-.6.2-.7 1.2-.9 2.6-1.5 3.7-2.4-.9.3-1.9.7-2.5 1.3.1 0 0 .1 0 0 .6-.7 1.7-1 2.7-1.5.7-1 1.6-1.7 2.5-2.5 2.3-1.6 4.4-4 7.5-3.8.3 0 .6.1.5.4-.1.4-.8.3-1.2.5-2.7.8-5.3 2-6.7 4.5 2.4-.8 4.8-1.8 7.4-1.6.3 0 .5 0 .7.2.2.2-.1.3-.3.3-2.8.5-5.7.6-8.2 1.8-.3.4-.7 1-.6 1.4.4.3.8-.2 1.1-.2-1.5 1-1.4 0-.8-1.1-1.8.6-2.5 2.5-4.3 3-.5.3-1.2.8-1.7.4Zm5.7-3.9h.4l.3-.2.6-1-1 .8c0 .2-.2.3-.3.4Zm4-.9 4.3-.7c-1.5-.1-2.9.3-4.3.7Z"/><path d="M108.4 87c-.7-2.6.3-5 2-7 1.3-3.2 4.5-5.2 8.2-5.5.4 0 .8.3.4.6.4 0 .7.1 1 .3-1.3-.6-3.3.2-4.6.9-3 1.3-4 3.8-4.8 6.6-.3.4-.2 1.3-.8 1.4a.5.5 0 0 1-.4-.4c-.2-.8.1-1.6.3-2.4a7.4 7.4 0 0 0-1.3 5.5Z"/><path d="M107.2 89.5c-.4-.4-.2-1 0-1.3-.2 0-.2.3-.3.3l1-2.6-2 2.5c-.2.1-.5 0-.4-.3 1.4-1.6 3-3.2 3.9-5.1.4-1 .6-3 1.6-3.5-.9.6-1 2-1.3 2.8.2-.2.6-.5.7 0 0 .5-.5 1-.8 1.5-.7.8-1.3 6.2-2.4 5.6ZM118 91.2c-1-.8-1.6-1.8-2.6-2.6-1.5-.8-3.3-.9-5-1l.4.6-.2-.2s-.3-.3-.2-.4h2c1 .1 2.2.3 3.2 1 .9.7 1.6 1.8 2.3 2.6ZM87.5 112.5c.3-2.6 1.2-5 1.3-7.7-.8-1-.7-2.5-1-3.7-1-3.1-1.6-6.5-3.5-9.4-.8-1-2.3-2-2.4-3.3.2-.2.4.2.5.3.5-1.9 2.8.6 3.6 1.3 1.6 1.4 2.4 3.4 2.9 5.4.6 2.7.3 5.4 1.2 8 .6.9.2 2.1-1 1.6-.2 2.5-1.2 5-1.7 7.5ZM84 91.3c-.4-.9-1.3-1.5-1.6-2.4l-.4-.5H82c.1 1.2 1.4 2 2.1 2.9Z"/><path d="M87.2 113.6c1.5-4 1.7-8.4 2.4-12.7 0-.1.3-.2.5-.1.2 0 .3.2.3.4v2c.2-1.9 1.2-3.5 1.4-5.3.1 0 0 .1 0 0l-.1 1.3c2.2-1.2-2.4 11-2.5 12-.3 1-.6 2-1 2.8 0 .3-.3.4-.6.3-.3 0-.5-.4-.4-.7ZM101.5 96.9a58 58 0 0 0 4.8-11.2 67.8 67.8 0 0 1-4.6 7.5c-.4.6-1.5 0-1-.7 3-4.6 5.9-9.5 8.2-14.6l-.2-.4c.3-1.5 1.1-2.8 2-4.1a9.8 9.8 0 0 0 1.9-5c0-.1 0 0 0 0v1.4c.7-1.6 1.1-3.4 2.5-4.5 1.6-.4.5 1.6-.1 2.5.7-.7 1.2-1.5 2-2.1h.5c.2.1.2.3.1.5-.8 1.3-2 2.4-2.8 3.7-2.8 4.3-5.2 9-7.1 13.7a56.2 56.2 0 0 1-6.2 13.3Zm10.7-26.4c.2-.4.4-.7.3-1l-.1.3-.2.7ZM111.5 87.5c3.2 0 7 1 9.4 3.3a17.7 17.7 0 0 0-8.9-3.2h-.6Z"/><path d="M121.9 93.8c.2-1.4-1.7-2.2-2.6-3.1-2.2-1.6-4.8-3.3-7.6-3.2 2.7-.5 6.3 1.6 8.5 3.5.8.7 2.2 1.7 1.7 2.8Z"/><path d="M114.5 91v-.3c2-1.3 3.9-2.5 5.6-4a69.8 69.8 0 0 1-6.7 3.5c-.2 0-.5.3-.7.1v-.2c1.4-1 2.9-1.7 4.1-2.8-1.9.8-3.6 1.9-5.6 2.4-.1 0-.2 0-.1-.1.7-.8 1.7-1.3 2.4-2.1-.8.2-1.7.7-2.4 1.2h.2-.2c.5-.5 1.4-.8 2-1.2.1 0 .6-.2.5 0-.6.8-1.5 1.3-2.2 2 2-.7 3.7-1.8 5.7-2.6.9.2-1.8 1.9-2.1 2.1 1.9-1 3.6-2.1 5.5-3 1.2-.2.4.5 0 .9l2.1-1.6h.4v.4l-2.4 2c1.8-1.2 3.5-2.5 5.2-3.9h.4v.4l-3.4 3 4.3-3c.3-.3 1.3-1 1.3-.3-.5 1-1.3 2-2 2.8 4-3.5.5 1.7-.6 2.8 1-.5 1.9-1.5 3-2l.1.2v.7c-1.2 2-3 3.8-4.6 5.5 1.5-1.5 3-3.3 4.2-5.2.2-.3.3-.6.2-.9-1 .5-1.9 1.5-3 2 0 .1-.1 0-.1 0-.1-.1-.1-.3 0-.4.8-1.1 1.7-2.2 2.3-3.5-.3.2-2.3 2.3-2.4 1.3.6-1 1.7-1.9 2.2-3-1 1-11.7 8.6-6 3.3a111.5 111.5 0 0 1-5.4 3.5c-.1-.1-.1-.3 0-.4.7-.5 1.4-1 2-1.7-1 .8-2.3 1.6-3.5 2.2l-.3-.1Z"/><path d="M127 90.2c-.4-.8.6-1.5.9-2.1.1-.3.6-.7.2-1-.5.1-2.4 1.6-2.6.8.5-1 1.8-1.7 1.9-2.9-1.3.4-2.6 1.2-3.8 1.8h-.5c-.2 0-.2-.3 0-.4 1.1-.8 2.4-1.5 3.4-2.5-.6.1-5.4 3-5 1.5 1.4-1.3 3-2.3 4.3-3.6-.4 0-5.6 3.4-4.9 2.1 1.3-1 2.7-1.7 3.8-2.9-.4 0-4.3 2.7-3.4 1.4l1.7-1.8-1.4.7-.1-.1.1-.2 1.3-1c.5 0 .5 0 .4.4.3-.2 1.4-.6 1.2 0 0-.6-.9-.1-1.2 0-.4.8-1 1.4-1.6 2 .5-.2 3.4-2.3 3.4-1.6-.2.8-1.1 1.3-1.8 1.8 1.1-.5 2.1-1.2 3.2-1.6 1.5.3-3.4 3.6-4 4l4-1.6c2.1-.2-1.2 2-1.7 2.3.6-.1 3.2-1.9 3-.5-.4 1.1-1.5 1.8-2 2.7.8-.2 1.5-.7 2.3-1 .3.1.4.5.3.7-.4.8-1.6 1.6-1.3 2.6Zm-5.4-9 .8-.4.6-.3.1-.1v-.2c-.6.1-1 .6-1.5 1ZM69.6 127.2c-.1-1.2.5-2.2 1-3.2l-.4-1.6c-.6 0-.2-1-.2-1.3 0-.3-.2-.6-.1-.8l.1.7c.8-2.9 2.2-6 .3-9-.6 1.7-.2 4-.8 5.8-.2.5 0 1.8-.9 1.2-.4-.5 0-1.1 0-1.7.3-2.3 1.4-4.7.1-7-.2-.7-.8-1.2-1-.4a7.2 7.2 0 0 0-.4 4.2c.3 1.4.9 3.3.2 4.5-1.3.4-1-4-1-4.7.3-1.7-.7-3.4-1.5-5-.2 0-.6 0-.7.3-.6 2.5 0 5.5-1.3 7.8-.6.5-.9-.4-.8-.9-.5 1.4-1 2.8-1.3 4.1 0 .4-.7.6-.6 0 1-4 2.4-8 2.3-12.3-.4.3-2.7 6.3-3 4.7.1-1.3.6-2.8 0-4.1v.1c-.3 2 .1 4-.4 6-.2 1-.8.8-1 0-.2-1.8.3-3.6.7-5.3.2-.5.2-1-.1-1.6-.2 0-.3 0-.4.2a117.2 117.2 0 0 0-1.7 3.6l.2-1.7c-.2 0-.2-.1-.2-.3 0-1.4.4-.6.3.3l.3-.1a4 4 0 0 0-.3.1v.5l-.1.8c.5-1.2.9-2.4 1.5-3.5.1 0 .5-.2.6 0l.3.7c1.4-1 1 2.3 1 3l1.9-3.7c1.8-1.5.5 4 .5 4.8.4-1 .4-2.4 1-3.2.2-.7.9-.7 1.4-.8.2 0 .3 0 .4.2.4 1 .9 1.9 1.2 2.9.3-3.8 2.6-3 3 .3 1.5-1.5 2 2.7 2 3.4.5-.7.4-2.2 1.7-2 .2 0 .3 0 .3.2.8 2 .4 4 0 6 1 .8.5 2 .2 3.1-.4.8-1.4 3.7-2.7 2.8-.2.3-1.2 2.7-1.6 1.8Zm.4-.6c.4-.5.6-1 .9-1.6l-.1-.2-.1-.2c-.3.6-.6 1.3-.7 2Zm1.6-1.2c1.1-.2 1.4-1.8 1.9-2.6.3-1 1-2.2 0-3.2-.5 2-1.3 3.9-2.2 5.6l.3.2Zm-.6-.5c.7-1.6 1.4-3.1 1.9-4.7-1 1.2-1.5 2.8-2.1 4.2l.2.5Zm-.4-1.1c.7-1.4 1.2-3 2.4-4.1.5-2 1-4 .2-6-.6 0-.5.7-.7 1-1.2 2.5-.6 5.6-2.2 7.7 0 .5.2 1 .3 1.4Zm-7.9-7.2c.7-1.5.6-3.2.8-4.7-.4 1.5-.9 3-.8 4.7Zm-4-1.7c.5-1.6.6-3.4.5-5.1-.3 1.6-1 3.4-.5 5.1Zm8.5 3c.1-1 0-2-.2-3 0 1 0 2 .2 3Zm-10.4-8c0-.4.2-.8 0-1a2 2 0 0 0 0 .8v.1Z"/><path d="m68.3 128.7-.4-.5v-.2l-.3-.1H67c-1.5 0-.9-1.7-1-2.6-.2-2.3-.1-4.7-.9-7-.4-1.2-1-2.5-.6-3.7-.1-.5-.4-1.3.3-1.5v-.9c-.4-.2-.7-.5-.8-1 .3 0 .5.1.6.3-.1-.8-.4-1.6-.4-2.4 0-.2.1-.4.3-.4.3 0 .5.1.5.4.4 3.4 1.9 6.6 3.2 9.8.5-1.7.4-3.9 1.6-5.3 1.2.3 1 1.8 1 2.6.1-.5 1-2.2 1.5-1.1.3 1.2-.3 2.4-.5 3.6.4-.6 1.1-1.4 1.5-.2.4-1.9.1-3.9-.3-5.9 0-.1-.2-.3-.4-.2-.3.1-.3.6-.5.7.2-.2.2-.8.6-.8.5 0 .5.6.6 1 1.2 4.9-.5 9.9-3.3 13.8-.5.4-1 2.2-1.8 1.6Zm.7-1.5c.4-.8 1-1.5 1.3-2.3-.6.7-1 1.5-1.3 2.3Zm2.6-5.9-.6 1-.7 1.4c.3-.2.5-.4.9-.5l1.1-3.3-.7 1.4Zm-1.1-1.7-.7 3c.8-1.7 1.2-3.6 1.6-5.5l-1 2.5Zm-2.6 1.4c.8-2.2-.9-4.4-1.6-6.5.7 2.1.8 4.4 1.6 6.5Zm1.1-.2c1-1.9 1.3-4 1.1-6-.6 1.9-1 4-1.1 6Zm-4.4-8.9.2.3c0-.4 0-.7-.4-.9h-.2c0 .2.2.4.4.6ZM71.2 140.2v-.4c1.8-1.7 4.7-1.8 7-1.9-.2-.8.7-1.1 1.4-1.1 0-.7 1-.3 1.4 0l1.5.1c.5.3 0 .6-.5.7l.4.2v.1c1.9.1 3.6 0 5.4.2.4 0 .6.3.8.4v.3a2 2 0 0 1-1 .8c.6.2 1.2.5 1.5 1 0 .2.2.5 0 .6-.2.3-.6 0-.9 0H89c0-.9-1-1.3-1.7-1.5-.9.2-1.8.3-2.8.3.3.4 2.3 1.7 1.4 2-.8-.1-1.9-1-2-1.8l-.1-.2c-2-.4-4-.8-5.5-1.9-2.5 0-5.4.1-7.1 1.7l-.1.3Zm11.5-1 .6.2a30.6 30.6 0 0 0-1.3-1.2h-2.7c1.1.4 2.2.8 3.4 1Zm-3.8-1.3h2.7l-.3-.2-.1-.1c-.4 0-.8-.1-1.1-.3-.4 0-1.7 0-1.2.6Zm4.4.9.7.6.2.2h.1c.7-.7 1.9-.5 2.8-.2.5-.1.9-.3 1.2-.7a1 1 0 0 0-.6-.3l-4.9-.2.5.5Zm1.5.8 1.8-.1c-.6-.1-1.3-.2-1.8.1ZM83.3 124.8v-.2c-.9.1-1.5-.7-.7-1.2 1.6-.8 3.5-1 5-2.1-.6 0-1.5-.4-1.2-1 1-1.4 3.6-1.4 5.3-1.6 1.4 0 13.7-1.2 12.3 1.1.6 0 .7.7 0 .6.9.6 0 1.2-.8 1h-5.8c.8 1 2.6 1.9 3 2.6h-.2l-3.2-2.5c-2.5 0-5-.3-7.1 1l3.6-.2-3.4.3c-2.1.6-4 1.8-6 2.6-.2.1-.6 0-.7-.4Zm6-4.5.6-.2-.7.2Zm2 0h.5-.5Z"/><path d="M76.5 127.9c-.9-1.7 7.1-5.2 8.8-5h2.9c.3.1.4.6.1.7.6 1.3-2.1.6-2.8.5 2.7 1.2 4 3.7 5.7 5.7-1.2-1-2-2.4-3.2-3.5-1-.9-2.2-1.5-3.4-2-1.3.3-2.5.7-3.5 1.5.2-.1.5-.2.7-.1h.2c-.8-.2-1.4.6-2 1-.2 0-.3.4-.6.3-.7.4-2 2.1-2.9 1ZM84.6 102.2c-.3-.2-.3-.7 0-.7H86v-.2c-3.6-1.3-1.4-1.1.5-2.2l.3-.2c-.1.3-.7.4-1 .6l-1.6.8c.5.4 1.3.6 2 .8 0-.2.3-.3.5-.4 0 .1-.4.2-.5.5.6.2 1.1.3 1.7.3l.1.1c.4.2 2.4.2 1.7.8.5.3 2.2.5 2 1.3l-.4.2c-2.2-.7-4.5-1.1-6.7-1.7Zm1.6-.7h.4l-.5-.2v.2Z"/></svg>