<svg id="_イヤー_2" xmlns="http://www.w3.org/2000/svg" viewBox="0 0 38 111"><path class="cls-1" d="M1.5 71.4C3.2 61 6.5 51.2 11.3 43c.2 0 .4-.1.5-.3.4-.3.6-.9.5-1.4a59.5 59.5 0 0 1 6.4-8.5l.8-.6 1.3-.7 2-1.2 1.7-1c-.2.4-.2 1-.1 1.4 0 .4.1.7.3 1a49.9 49.9 0 0 0-4.6 4.5A77.6 77.6 0 0 0 3 82.2c-.4 1.3-.5 2.6-.6 3.8l-.1 2.7c-.4 1.5-.5 3.1-.5 4.6 0 2 .2 4.1.6 6.2v.4l.2 3v8.2a107.4 107.4 0 0 1-1-39.6Z"/><path class="cls-1" d="M3 75a32.6 32.6 0 0 1 10-16.8c2.5-2.3 4.8-5 7.7-6.4h.4l-.2.3v.2l-.5.6-.3.4-.9.8-.7.8-.5.5-.4.3-1 .9-.3.4H16l-.2.2s-.2.1-.2.3v.2l-1.6 1.6c-2 1.8-3.7 3.7-5.4 6-1.5 2.1-2.6 4.6-3.9 7-.6 1.2-1.2 2.6-1.3 4.1 0 .2 0 .5-.2.6-.5-.2-.5-1-.4-2ZM4 62.1c-.2-.6 0-1.3 0-1.9.3-1.8.4-3.7.8-5.5l1-9.6.2-1.4.1-.2v-.2l.2-.7V42l.1.6c0 .2.2.4.4.6l.2.2c0 .5.3.9.7 1l-.5 3c-.2 2.4-.7 4.7-1.3 7a46.4 46.4 0 0 0-1.5 8h-.2L4 62ZM9 30.7c0-.4.2-.7.3-1v-.1l.1-.1v-.1l.1-.1v-.1h.1V28.8h.1v-.2h.1v-.2h.1V28.1h.1V28h.1v-.2h.1v-.2h.1v-.2l.1-.1v-.1h.1V27l.1-.1v-.1l.1-.1v-.1l.1-.1v-.1l.1-.1.7-1.2h.1c0 .4 0 .6.2.9 0 0 0 .2.2.3v.2l.7.6a31.4 31.4 0 0 0-3.3 8l-.3-.2c-.6-.2-1.2 0-1.7.4.4-1.6.8-3.2 1.4-4.6ZM17.5 35.8c-.2-.3-.3-.7-.2-1 0-.5.3-.8.7-.5.6-.6 1-1.4 1.5-2.2l1.3-.7.3-.2c-1 2-2 4.3-3 4.7 0 .1-.2.1-.4 0h-.2Z"/><path class="cls-1" d="M18.7 34c0-.2 0-.3.2-.3h.6c1 .3 2 .5 3.1.6-.7.2-1.4.5-2 1-.4-.2-1-.5-1.5-.5H19c-.2-.1-.4-.6-.3-.8ZM10.4 27.5v-.2h.1V27l.1-.1v-.1l.1-.1v-.1l.1-.1v-.1l.1-.1v-.1l.1-.1V26h.1V25.6l.1-.1v-.1l.2-.5.3.2a1.4 1.4 0 0 0 .4 1.1c-.4 1-1 1.5-1.7 1.2ZM5 51v-2.8c0-3.5-2-6.7-3-9.8-1.2-3.1-2.2-6.5-2-9.8l.1-1.1c.1-.6.3-1 .9-1 .2 0 .3.4.4.7 1 2.7 1.8 5.7 2.5 8.6a38.6 38.6 0 0 1 .7 3.7 1 1 0 0 0-.4.4v-.4l-.1-.1v-.5l-.2-.6-.1-.6v-.1C3 34 2.1 30.6 1 27.3c-.1 0-.3.1-.2.4-.3 3.4.5 6.8 1.7 10 .7 1.8 1.4 3.6 2 5.6v.6l.1.3v.1l.2.2v.2-.2H5l.2-.3-.1-.7v-.1a10 10 0 0 0-.2-1.3l-.1-.2-.1-.5.3.2.3.2.8 8v1.4l-.2.4-.2.3h-.2c-.3-.1-.4-.5-.4-.8ZM10.8 60.4l.1-.2c2-4.4 4.2-11.2 8.7-11 .5.4 1.4.6 2 1l-.2.2V51.3l-.4.8-.1.2-.2.1c-.2.2-.4 0-.4-.3-.3-.7.4-.9.7-1.1-.8-.4-1.6-1.1-2.4-.7-3.6 1.4-5.4 6.3-7.3 10.3 0 .1 0 .2-.2.3-.2-.1-.3-.3-.3-.5ZM12.4 37.9v-.5l-.5-.8-.2-.2-.1-.5c-1.3.1-1.7-2-.8-2.9-.3-.6-.4-1.3-.3-2L11 30c.6-1 1.9-1.5 2.4 0 .6-.4 1.5-.6 2 .1.8 1 1 2.8.3 3.6.7 2-.2 3.4-1.7 2.8 0 .7-.3 1.3-.8 1.5h-.8Zm-.6-2.9c.5.5.2 2 1 2h.2c.3 0 .4-.4.5-.8 0-.8.3-.7.7-.5.4 0 1 0 1.1-.5.2-.3 0-.9 0-1.2-.5-.3-.4-1 0-1.2.3-.4.1-1.2-.1-1.7-.3-.3-.7-.2-.9 0-.3 0-.5.3-.8.4-.5.2-.6-.7-.9-1.1-.7 0-1.4 1-.9 2 .2 0 .3.3.3.5h-.2l-.3.3-.2.2c-.2.4-.7 1-.2 1.4l.6.1.1.1ZM20.4 21c-.8.2-1.7-.8-1.7-2.1v-.2c.1-.8.6-1.4 1.2-1.6-.4-.4-.3-1-.2-1.5v-.1c.2-2 2.3-2.5 3.2-.9l.9-.2c-.4.3-.6.7-.6 1.2l-.1.2-.2.3c-.3-.1-.4-.4-.5-.6a1 1 0 0 0-.8-.4c-.4 0-.8.2-1 .7v.4c0 .3 0 .6-.2.8.1.1.2.3.1.4v.2h-.2l-.4.2c-.4.3-1 1.1-.5 1.8s.1 0 .1 0v.1h.3c.3 0 .6-.2.9 0h.2c.5.5.3 1.5.6 2.1l.5-.1c.2-.2.2-.4.2-.6v-.4c.4-1 1-.4 1.5 0h.3c.3-.3.3-.8.3-1.2-.1-.3-.4-.5-.4-1h1c.5.8.4 2 .1 2.8l-.5.7c-.3.4-.8.4-1.4-.1 0 .6-.4 1-.8 1.3h-.1c-.3.2-.6.2-.8.1-.6-.2-1-1.4-1-2.3ZM14.8 27l.3-.7v-.2l.3.2c.4.1 1-.5.8-1-.2-.2-.3-.6-.2-.9l.2-.4c.2-.7.2-1.5 0-2.2-.3-.3-.6-.3-1-.2 0 .4-.3.7-.6.6-.4-.2-.5-.8-.6-1.2-.3-.7-1-1-1.4-.5 0 .4.1.7.3 1v.7h-.3a1 1 0 0 0-.5-.2h-.4v-.6l-.1-.1.2-.2v-.4l.1-.4.2-.5.5-.2c.2 0 .4-.2.5-.3l.2-.1h.5c.4.2.8.7 1 1.4.7-.5 1.9-.1 2.2 1 .2 1.2.2 2.5-.3 3.4.4 1 0 2-.7 2.3h-.8l-.4-.3Z"/><path class="cls-1" d="M15.4 48.3c-1.5.2-1.7-3.3-.6-4-.3-.4-.3-1-.2-1.6 0-.6.3-1.1.7-1.3.6-.4 1.5-.6 2 .4 1-.6 1.7.9 1.5 2.3 1.1.6 1.1 2.9.5 3.8-.4.4-.9.3-1.3.2-.1.7-.4 1.4-.9 1.6h-.7c-.5-.1-.9-.7-1-1.4Zm1-.2h.4-.1l.1-.1c.2-.2.2-.5.3-.8l.1-.7c.2-.3.5-.2.7 0h.5c.4.1.5-.7.4-1-.5-.2-1-.7-.7-1.4.2-.8.3-1.7-.6-1.2l-.3.3V43l-.2-.3-.2-.2h-.1c-.4-.2-1.4.2-1.1.8v.5a1.8 1.8 0 0 0 .3.7c0 .2 0 .3-.2.4h-.5l-.2.2-.2.3.1 1.4c.4-.1.7-.2.9 0 .3 0 .4.5.6 1.3ZM20.5 35.4c-.2 0-.3-.3-.3-.5s.2-.4.4-.4c.4-.4 1-.2 1.4-.2h.6c-.8.2-1.5.6-2 1.2ZM3.5 40.3V40a11.6 11.6 0 0 1 .5 1.4l.1.5.1.2c-.4-.4-.6-1-.7-1.8ZM4.2 39.8v-.3l-.1-.1v-.5l-.2-.5.6-.4v-1c0-.3 0-.7.2-1 .2-1.3 1.5-2 2.7-1.2.4-1 1.7-.8 2.6-.4v.1h.1v.1h.1v.2h.1v.1h.1v.1l.1.1v.1h.1v.1l.1.1c0 .4 0 .7-.2 1l-.3.4v-.1c0-.4 0-.8-.3-1.1v-.3h-.2l-.5-.4c-.7-.3-1.4 0-2 .6l.1-.3a1 1 0 0 0-.9 0l-.7.4-.4 1.2c.1.6.3 1.2.2 1.7-.1 0-.3 0-.5.2-.2.1-.4.4-.5.7l-.3.5v-.1ZM4.9 42.7l-.2-.6v-.3l-.2-.4h.1l.3.2.3.2v.3l.1.4v.2l.1.2-.4-.1h-.1ZM6.3 42.6V42h.1v.6h-.1v-.1ZM11.4 26.1c-.2-.5 0-1 .2-1.6-.6 0-1.2-.7-1.1-1.4v-.2c.2-.7.8-1.1 1.3-1.3v-.9c-.2-.5.3-1 .7-1.2.4-.4 1-.3 1.4 0 .2 0 .1.4-.1.3l-.7-.2-.3.3a1 1 0 0 0-.5.4V21.6l.5.4c0 .4-.4.4-.6.3-.3 0-.8.8-.7 1.2.3.2.7.4 1 .4.5.3.2.7-.2.7-.2.2-.2.5-.3.8v.3c.1.5.4.9.8 1 .3-.2.5-.3.6-.6 0-.2.2-.5.4-.4 0-.3.3-.4.5-.2l.5.5.4.2c.2 0 .4 0 .5.3 0 .1 0 .3-.2.4 0 0-.1.1-.2 0-.5 0-1-.2-1.3-.4-.4.8-1 1-1.7.7-.4-.1-.8-.5-1-1.1Z"/><path class="cls-1" d="M12.2 27c.2-.3.4-.1.6-.2.5-.4.7-.5 1-1.1l-.1-.1c-.2-.3.2-.5.3-.3.3-.1.5.3.6.6.3.4.6.5 1 .6 0 0 .2.2.1.3 0 .3-.4.2-.5.2-.4 0-.7-.3-1-.5-.2.7-.9 1-1.4.9h-.3c-.2-.1-.3-.2-.3-.4ZM11.8 22.2c-.2-.2-.4-.6-.3-1v-.3c.1-.4.5-.4.6 0 .3-.1.6.4.2.5 0 .7-.2 1-.4.9l-.1-.1ZM7.7 36.4c0-.1 0-.2-.2-.3l-.1-.2-.1-.1v-.3c-.3-.2-.6-.4-1-.2l-.1.2c-.2.3-.7 0-.7-.3.4-1 1.4-.7 2-.4 1-2 3.8 0 3 1.8 0 .3-.5.8-.7.4 0-.2 0-.4.2-.4.4-1-1-2.5-1.5-1l-.2.1-.1.3a16.1 16.1 0 0 0-.1.6h-.3v-.2ZM11.3 44.2c-.2 0-.4-.2-.3-.4v-.2c.2-.4 2.4-4.8 2.7-3.4.3-.3.8.2.3.4.2.2 0 .4-.1.6a61 61 0 0 0-2 2.7c0 .2 0 .5-.3.5h-.1l-.2-.2Z"/><path class="cls-1" d="m4.7 36.6.1-.5c.6-1.5 2-1.4 3-.6l.4.5a16.1 16.1 0 0 0-.2.8l-.1-.1-.2-.3-.2-.3-.1-.2-.3-.2h-.6c-.2.2-.3.2-.5.1-.2.3-.4.8-.3 1.3v.5a2.2 2.2 0 0 0 .2.8h-.4c-.6-.3-1-1.1-.8-1.8ZM3.6 40.4v.2l.4.8v.3c-.2-.4-.4-.9-.4-1.3Z"/><path class="cls-1" d="M4.8 42.4v-.3l-.1-.3-.1-.4-.3-1.1v-.5l-.2-.3v-.1l-.1-.5 1-.9c-.3-.6-.2-1.5.3-2l1.1-.9.9.2s.2.1.1.3c0 0-.1.1-.2 0-.4-.1-.8-.1-1 .2-.5.3-.7.7-.7 1.2 0 .3 0 .5.2.6l.2.6v.2l-.1.1-.2.2c-.4 0-.7.5-.9.9 0 .4-.2.9 0 1.3 0 .3.2.5.4.7l.2.5v.5h-.2l-.3-.2ZM6.3 42.6V42v.1l.1.5h-.2Z"/><path class="cls-1" d="m7.2 41.6-.7.1v-.3H6l-.2-.1v-.1l-.3-.3-.2-.3H5a3 3 0 0 1-.3-2v-.4c.4-.6 1.2-.3 1.3.3-.2 0-.2.2-.2.2l-.1.3v1.3l.1.1.2.2.2.1a1 1 0 0 0 .7 0l.3-.1h.4l.1.1.2.3.1.2c0 .5.5.4.8.2.3-.2.3-.7.3-1 0-.3 0-.5-.2-.6v-.2l-.2-.4c0-.2.3-.3.4-.2l1 .2c.6-.3.7-1.3.4-1.9-.1-.3-.4-.3-.7-.3-.2 0-.2-.4 0-.4 1.9-.4 1.9 3.7 0 3.3.1.6 0 1.2-.2 1.8-.4.6-1.1.9-1.7.6-.3-.1-.6-.3-.7-.7Z"/><path class="cls-1" d="M6.3 45.5c0-.1-.1-.3 0-.4v-1l-.2-.5v-.3l.2-.7v-.7l.2-.3.1-.1c.1-.7 1-.6 1 0 .1 0 .3.1.3.3.6.2.1 1 0 1.5l-.6 2.6c0 .4-.5.5-.7.4-.3-.1-.5-.4-.3-.8ZM5 43.5v-.1l-.1-.6-.3-1.2c-.3-1.1-.3-2.4-.5-3.6l.4-.2c.1 0 .2.4 0 .4.3 1.2.2 2.5.6 3.7.1.3.4 2.2 0 2.1l-.1-.5Z"/><path class="cls-1" d="M6.5 41.8v-.1c-.5 0-1-.5-1.2-1l-.2-.3c.3-.3.5 0 .6.3 0-.2.1-.2.2-.2l.3.2h.1l.4.4c.2 0 .3 0 .3.2.3 0 .3.4 0 .4 0 .6 0 1.3-.2 1.9h-.3c-.3 0 0-1.2 0-1.8Z"/><path class="cls-1" d="M4.8 40v-.2c.1-.2.3-.2.4-.1v.2a2 2 0 0 0 1.2 1.3l.5-.4.2-.2.3-.3.1.2.2.2.1.2c.1.2.2.3.4.3.1.3.5.5.6.7-.2.5-.8 0-1-.3-.3 0-.3-.3-.4-.6 0 .2-.2.3-.3.4-.3.5-.7.5-1.2.3-.6-.2-1.3-1-1.2-1.7ZM5 45.3 4.6 44c-.5-.2-.5-1-.7-1.4-.2-1-.9-1.8-1.1-2.7l-.1-.4.2-.1H3l.2.2c.5.2.5 1 .7 1.6.2 0 .2.3.3.5l1.1 3.3c0 .2-.1.2-.2.2Z"/><path class="cls-1" d="M3 40c-.2 0-.3-.4-.2-.6l-.2-.3.1-.1.4.1c.6.9 1 2 1.2 3-.1.2-.2.2-.3.2-.4-.1-.7-2-1-2.3ZM5.7 35.3c0-.2.2-.3.4-.2.1 0 .3.2.3.4s-.3.3-.4.2h-.1c-.1 0-.3-.2-.2-.4Z"/><path class="cls-1" d="M5 40.2c0-.7.2-1.4.6-1.9a2 2 0 0 1-.3-2v-.1l.2-.3c-.2-.6 1.1-1.2 1.1-.6-.6.6-1 1.9-.5 2.7.4-.3.9.4.3.5l-.1.1H6v.1a3 3 0 0 0-.4 1.5l.4.8v.3h-.3c-.4 0-.7-.8-.8-1.1ZM7.8 41.4c-.1 0-.5-.2-.5-.4l.1-.2c.1 0 .3 0 .4.2l.4.3h.5c.2-.1.6.2.4.5h-.3l-.7-.1a.5.5 0 0 1-.3-.3Z"/><path class="cls-1" d="M5.5 48c0-1 0-2.2-.2-3.4L5 42.1c-.4-.6-.3-1.5-.6-2.2l-.1-.2.1-.2c0-.1 0-.3.2-.3H5l.4 1.9c.4 2.2.5 4.6.6 7 .1.1 0 .3-.2.2-.1 0-.2-.1-.1-.3ZM5 52.5v-2.1l.3-.2s.2 0 .2.2v.2c.1.2 0 .6 0 .8v2.2h-.3c-.3 0-.2-.8-.2-1ZM18.9 45.8l-.6-.6-.3-.1c-.1 0-.3-.1-.3-.4v-.3c.3-.3.6-.6.7-1l-.4-.2a1 1 0 0 0-.4-.3c-.2 0-.3-.1-.4-.3-.2 0-.4-.2-.4-.4l.1-.2c.3-.3.6-.1.9 0 .5.1 1.4.4 1.3 1.3.2.5-.2 1-.6 1.3.3.2 1.3 1.3.7 1.5H19l-.2-.3Z"/><path class="cls-1" d="M18 42.4c-.1 0-.4 0-.3-.2l-.1-.2v-.2c.3-.3.6 0 .9.3.3 0 .8 1 .1 1-.2-.2-.3-.6-.6-.7ZM15.5 47.7c-1.3.3-2-.7-1.7-2v-.2c.1-.4.3-.9.7-1 .3-.3.8-.5 1.1-.3.3.1 0 .4-.1.3-.8-.2-1.2 1.2-.9 1.8l.2.2c.3.2.6.2.9 0 .4-.3 1 .4.4.7.1.3.3.5.6.7h.2c.2.1.4.2.3.5 0 .2-.2.3-.3.4h-.6c-.4-.2-.7-.7-.8-1.1Z"/><path class="cls-1" d="M14 47c.2-.4.4.1.5.3.1.2.3.1.4.3.2 0 .5 0 .5.3 0 .1-.2.2-.3.1h-.4c-.4-.2-.8-.6-.8-1ZM11.7 37.6c-.2-.3-.3-.7-.3-1l.2-.8s-.2-.2-.1-.3v-.2s-.2-.1-.1-.2V35c.3-.2.8-.1.7.3v1c0 .3.2.7.5 1h.3c.2 0 .3 0 .4.4-.1.4-.7.4-1 .3l-.6-.4ZM13 31c-.2-.3-.5-.6-.9-.6 0 0-.2 0-.2-.2-.2 0-.4-.1-.4-.3l.1-.1c.5-.1 1 .1 1.4.4 0 .2.3.3.3.5s0 .3-.2.2ZM14 26.4V26c-.1.2-.1.4-.3.5-.2.1-.3 0-.3-.3v-.1c.2-.3.1-.9.5-1 .2 0 .3.3.4.4 0 .1.1.3 0 .4l.1.2.1.1h1.2c.3-.2.7 0 .6.4 0 .2-.2.3-.3.3-.4.3-.8.3-1.2.1-.3 0-.6-.3-.7-.6ZM18.2 53.7c.5-1 1.5-1.4 2.1-2.2.2-.3.4-.6.3-1-.3-.2 0-.5.3-.2v-.1c-.5-.4-1.3-.5-2-.5l-.1-.2c.1-.3.4-.2.7-.3.7 0 1.7.2 2 1 .3.3.2.8 0 1l-.2.3c0 .2-.2.5-.4.3-.2.2-.4.5-.7.6L19 54c-.1.2-.3.2-.5.2-.1 0-.2-.2-.2-.5Z"/><path class="cls-1" d="m17 55.2.2-.2c.8-.7 1.8-1.2 2.6-2v-.4c.5-.6 1.1-1 1.3-1.7-.1-.4.4-.5.4 0 .2 0 0 .5 0 .7-1 1.7-2.5 2.8-4 3.9h-.2c-.2 0-.3-.2-.2-.3Z"/><path class="cls-1" d="m14.8 58.3-.1-.2c1.2-1.1 2-2.6 3.1-3.6h.3v.3l-1.8 2a8 8 0 0 1-1.3 1.5s-.1.1-.2 0Z"/><path class="cls-1" d="M15.3 57.2c.3-.3 2.2-2.7 2.2-1.7l-2 2h-.1c-.1 0-.2-.2-.1-.3Z"/><path class="cls-1" d="m15.1 57.6 1.6-1.7c.1-.1.5.1.3.3l-1.5 1.6h-.2c-.1 0-.2 0-.2-.2ZM2.1 104.2c0-1.2 0-2.5-.2-3.7 0 .4.2 3.3-.5 2.3.1-6-1-12.6.3-18.3.2-1.3.6-2.5.5-3.8 0-.4-.1-1.2.4-1.2.1 0 .2.2.1.3v2.6c.1 0 .2 0 .2.2l-.5 7v12.5c.2 0 .3.1.3.3v1.6c0 .2-.3.5-.5.4l-.1-.2Z"/><path class="cls-1" d="M2.8 110.8c-.3-.7-.2-1.5-.2-2.2-.3 0-.3-.4-.4-.5-.2-2.4 0-4.8-.3-7 0-1-1.8-7.8-.2-7.1 0-.3 0-.7.3-.9l.2.2v.7c.2 0 .3.1.3.2-.2 1 .3 2.4.1 3v.5c.2 0 .3.1.3.2l.1 6.5c0 .5.8 7 0 6.6-.1 0-.2 0-.3-.2ZM1.6 95.6v-.2l.1-.2V95l-.1-.2v.8ZM18.6 36.4c-.2-.5.3-.8.7-1 1-.7 2-1.5 3.3-1.8 2.8-1.2 5.9-1.6 8.8-2.5 1-.6 2.5-.6 3.1-1.7-1.2-.7-2.7-.1-4 0a15.7 15.7 0 0 0-8.4 4.2c-.3.2-.7.2-.8 0-.6-.8.6-1.4 1.2-1.7 1.2-1 2.6-2 4.1-2.5 1.4-.6 9.2-2.8 9 0-.2 1.3-1.5 1.8-2.6 2.2-2.2.9-4.5 1.3-6.7 1.9-2 .5-4 1.3-5.7 2.4-.5.2-1.2 1-1.7.9-.2 0-.3-.2-.3-.4ZM24 18.4c.1-.3.3-.5.6-.6.7-.2 1-1 1.3-1.7 0-.4-.5-.5-.8-.7a5 5 0 0 1-.4-.1c-.2.3-.5 0-.8.1-.3.2-.5.5-.8.5-.1 0-.2.2-.4.1v-.3c-.5-1 .6-1.9 1.5-2 1 .2 2.4.7 2.7 1.8v.1l-.3.3v.2l.1.3h.1l-.2.5c-.2.6-.4 1.5-1.1 1.7-.4.1-1 .4-1.2.3-.2 0-.3-.2-.3-.6Z"/><path class="cls-1" d="M20.2 22.6c-.4-.6-.4-1.4-.2-2-1.6.2-2-2.4-1-3.3.5-.3 1.2-.6 1.7-.4.4.3.2 1-.2 1.2-.3 0-.6.2-.8.4.2.2.1.4 0 .6.1.2.3.4.5.4H20c.3 0 .7-.3 1-.1.2.2.3.5.2.8.1.3-.2.7-.2 1 .2.5.6.4 1 .4.3-.5 0-1.7 1-1.7.3.1.3.5.5.8.2.2.5.3.8.3.4-.8 0-1.6-.4-2.3-.4-.1-.4-.5-.2-.8.1-.3.5-.5.8-.3 1.3 0 .7-1.6 1.3-2.3-.2-.2-.2-.6-.6-.7-.6-.1-1.2-.2-1.7 0-.4.1-.4.6-.7.6-.2 0-.3-.1-.2-.2.1-.8 1.1-1.1 1.8-1 .5 0 1 0 1.4.3l.7 1 .2.4-.2.3v.1l.1.3h.1c0 1-.6 2-1.5 2.2 1 1.7-.1 4.6-2.3 3.3 0 .2-.2.3-.3.5-.2.8-1.2 1-1.8.5h-.4a.7.7 0 0 1-.3-.3Z"/><path class="cls-1" d="M23.3 29.6a1.4 1.4 0 0 1-.3-.7c-1.1.5-2-.6-2-1.7 0-.8.6-1.5 1.2-1.9-1.2-1.4.8-3.5 2.3-2.4 1.3-2 4.3-.4 3.3 1.8 2.4.8 1.2 3.7-.9 3.9-.2 1.3-1.7 2.3-2.8 1.8-.3-.1-.6-.4-.8-.8Zm.9-2.4c.3.2 0 .7-.1 1-.1.3 0 .7.4.8.6.3 1.2-.1 1.4-.7-.4-.5.3-1.3.8-.8h.2c1 0 1.9-1 1-1.7h-.2c-.3-.2-.7 0-1 0-.9-.6.6-1.4 0-2.2 0-.2-.5-.4-.7-.4-.8.2-1 2-1.9 1.2-.2-.3-.6-.7-1-.5l-.1.2c0 .3.3.3.5.5.7.5-.2 1.6-.9 1-1.3.4-.7 2.4.5 1.9.3 0 .6-.5 1-.4ZM13.1 40.1c.2-1.3 1.6-2.2 2-3.4 1.2-3.9 3.2-7.3 4.5-11.2.4-.9.4-1.9.5-2.8 0-.3.3-.6.6-.6.1-.4-.2-1 .3-1.4 1.9-.4-.4 5-.6 6-1.2 3.9-2.2 8.3-4.9 11.5-.3.6-1.3 2.7-2 2.4-.1 0-.3-.2-.4-.5ZM26 17c0-4.2 7.5-9.1 11.4-9.1.5 0 .7.6.5 1.1 0 .7-.6 1-1.2 1.3-1.2.8-2.5 1.5-3.8 2-2 1.2-3.8 2.5-5.3 4.1-.3.4-.8 1-1.3.9a.7.7 0 0 1-.3-.3Zm.5-1 .2.4.3-.1.2-.2.7-.8.8-.7.6-.5.6-.5 1-.8a28.5 28.5 0 0 1 3.2-1.8l.4-.2.3-.1v-.1l.4-.2.9-.4.3-.2a4.4 4.4 0 0 0 .5-.3L37 9V9c-.2-.2-.4-.2-.5-.2h-.4l-.6.2-.6.3-.7.2a15 15 0 0 0-4 2.4l-.4.3-.7.5-.8.7-.4.5-.4.5-.5.7v.2c0 .2-.2.3-.3.4l-.2.4ZM17.9 12.4c-1.1-.6-1-1.9-.4-2.8-2.7-1.7-.9-4.2 1.5-5 .3-1 1-2.8 2.4-3 .8.3 1.5 1 1.6 1.9 2.7-.5 4.2 2.2 1.7 3.9 1.9 1.6-1 5-3 4-.7 1-2.2 1.8-3.4 1.3a2 2 0 0 1-.5-.2Zm1-1h.2c.7.2 1.4-.3 1.7-.9-.2-.7 1-1.3 1.3-.5.5.4 1 .3 1.5-.2.3-.3.8-1 .3-1.3-2-1.6.3-1.5 1-2.8.2-.6-.7-.9-1-1-.8-.2-1 .1-1.6.4-.6.2-.7-.6-.5-1 0-.2 0-.4-.2-.6l-.5-.5c-.4.3-.6 1-.8 1.4.7.8-.7 2-1.2.8-.8.3-1.7 1-2 1.9.1.6.7 1 1.2 1.3.9 0 .8 1 .3 1.5-.1.4-.4.7-.3 1l.7.6Z"/><path class="cls-1" d="m18.2 28.1.6-2.4c.4-5-2.4-9.4-5.3-13.2-1.1-3-1-6.1 2.8-3.6 1.7 2.1 3 4.7 3.4 7.4.2.5-.6 1-.8.3-.3-1.7-1-3.5-2-5-.6-1.2-1.4-2.4-3-2.6-.2 2.4 1.6 4 2.7 6 1 1.7 1.7 3.6 2.4 5.4.7 2.6.6 5.3-.3 7.8-.1.2-.3.3-.4.2-.1 0-.2-.1-.1-.3ZM18 5.4c-.4-.9 2-.8 2.3-.3.2.3-.3.8-.5.3-.6 0-1-.1-1.4.1H18l-.1-.1ZM28.6 9c-1-.6-1-2-.5-2.8-2-.7-1-4.2 1-3.8 0-2.5 4.9-3.6 4.3-.4 2.7.3 2.9 2.2 1.2 4 .7 1-.3 2.5-1.4 3-.7.4-1.6 0-2.2-.5-.5.6-1.5.9-2.2.6l-.2-.2Zm.6-2.6c-.4.6-.7 1.2.3 1.5.3 0 .7 0 1-.3.2-.2.3-.6.7-.6.4 0 .4.5.6.7l.7.3.7-.2c.4-.3 1-1.2.1-1.3-.7-.3-.3-1 .4-1.2.3-.2.5-.4.6-.7.8-1-.4-1.3-1.3-1.4-1.4.5-1.2-.6-.7-1.5l-.2-.3c-.4-.3-1 0-1.2.1-.3.2-.6.5-.5.9.2.3.4.7.2 1-.1.2-.4.4-.6.4-.6 0-1.5 0-1.8-.5l-.2.5c0 .6.5 1.3 1.2 1.2.7.3.3.8 0 1.4Z"/><path class="cls-1" d="M27.8 4.2c-.2-.9.9-2.2 1.8-1.6.5-.3.7.6.2.8l-.4.2c-.5 0-.6.8-1.2.7h-.4ZM14.1 26.3c-.4-.4 0-1.2.6-1 .3.1.6.4 1 .3.4 0 .6-.4.4-.8-.3 0-.6-.1-.6-.4-.5-.4 0-1.1.5-1.1.4-.2.5-.6.5-.9l-.2-.3c-.2-.2-.5-.2-.6-.4-1.6.2-1-1.1 0-1.4 2.3-.5 2.4 2.9 1.3 4 .7 1.5-1 2.9-2.3 2.3l-.6-.3ZM12.4 26.8c-.6-.3-1.2-1-1-1.7-1.2-.3-1.6-1.7-.7-2.6.3-.2 1.6-1.9 1.7-.8 0 .3-.2.4-.4.4-.4.5-.5 1.2-.6 1.7.3.2.6.2 1 .1.6-.2.6 1 0 1.1-.1.3.4.6.6.7.5.4 0 1.3-.6 1.1Z"/><path class="cls-1" d="M13 27c-.2-.2-.2-.5 0-.6.2-.4 1-.7 1.3-.4.3.6-.6 1.2-1.2 1ZM11.5 37.6c-.4-.4-.4-1-.4-1.5-2.7-.5-1.5-3 .5-3.7.4 0 .7.4.5.8-.2.5-.8.6-1.2 1-.4.4.1.6.5.7h.2c.2-.2.7-.2.8.2.2.5-.2 1-.1 1.5 1.4.5.9-.3 1.3-1.2.2-.4.6-.4 1-.3.3 0 .5-.3.4-.6 0-.2-.2-.3-.4-.4-.2 0-.3 0-.4-.2-.4-.7.3-1.2 1-1.4 0-.6-.4-1.2-.5-1.8h-.6v.1c-.1.4-.7.3-.5 0 0-.7.7-1 1.3-.7.3-.3.8-.2 1.1.1.8 1 .5 2.3-.1 3.2.8 1 0 3-1.4 3-.2 1.4-1.5 1.8-2.7 1.4a2 2 0 0 1-.3-.2Z"/><path class="cls-1" d="M15.2 32.9c-.2-.2 0-.5.2-.6.3-.3.3-.9-.2-1-.2.3-.6 0-1 0-.2 0-.6.1-.5-.3-.2-.2 0-.6.3-.5l.3.1c.6 0 1.2 0 1.6.4.5.6.1 1.4-.3 1.8-.1.1-.3.2-.4.1ZM18.4 44.8c-.1-.4.1-.7.4-.9l.2-.8c-.1-.6-.7-.9-1.2-.9-.4.7-.8-.2-.3-.4 1-.4 2.4.6 2.3 1.6.1.6-.5 1.9-1.1 1.6a.7.7 0 0 1-.3-.2ZM14 45.7c-.5-.7.4-2.3 1.4-1.8.2 0 .2.3.1.4 0 .3-.3.4-.5.1-.3.2-.4.5-.3.8 0 .3-.3.7-.6.5Z"/><path class="cls-1" d="M17.1 48.5c-.2-.2 0-.5.2-.7l.1-.8c-.5-.6.6-1 .7-.2.2.3.7.3 1 0 .2-.3.3-.7.1-1.1l-.6-.8c-.1-.4.5-.7.5-.3 1.3 1 .8 3.4-1 3 0 .4-.4 1.2-.9 1v-.1ZM9.6 39.7c-.3-.2 0-.7.2-.6.2 0 .4.2.5.1.7 0 1-1 .8-1.6-.2-.4-1-.3-.8-.9.3-.5.9 0 1.1.3 1 1.2-.3 3.3-1.7 2.7h-.1ZM26.1 16c.2-.5.3-1.2.8-1.2.8-1 1.4-2.2 2.5-2.9l.3.1-.1.4c-.7.5-1.2 1.2-1.7 1.9-.4.3-1.2 2.1-1.6 2l-.2-.4Z"/><path class="cls-1" d="M26 17c0-.7.4-1.2.6-1.8l.3-.2c.4.4-.3 1.2-.4 1.7 0 .3-.2.7-.4.6-.1 0-.2-.1-.2-.3Z"/><path class="cls-1" d="M26 16.4v-.1l-.2-.4c-.2 0-.3 0-.4-.2h-.2l-.3-.2-.4-.1c-.4 0-.7 0-.6-.4 0-.2.2-.3.3-.2.5 0 1 0 1.4.3.6 0 .9.7.8 1.2 0 .2-.2.4-.4.3v-.1Z"/><path class="cls-1" d="M25.8 16.5c-.1-.5-.6-.8-.8-1.2-.2-.1-.3-.3-.1-.5.2-.3.5 0 .6.3.3.3.6.6.7 1 .3.3 0 .7-.2.6l-.2-.2Z"/><path class="cls-1" d="m25.7 17.8.3-.6c0-.5.4-.7.6-1 1.7-1.5 3.5-3.1 5.7-4.1 1.5-1.2 3.6-1.6 4.6-3.2v-.3c.2-.6.9-.3.8.3.2.9-1 1.6-1.5 2.2-2 .9-3.9 2.3-5.8 3.3-.9.6-1.8 1-2.6 1.7-.7.5-1 1.4-1.7 2h-.3c-.1 0-.2-.1-.1-.3ZM28 5c-.3-.5-.2-1.4.4-1.7h.3c.3-.1.8-.4 1 0 .3.1 0 .6-.3.4-.4 0-.8.3-.9.7.1.2 0 .5-.2.6 0 .1-.2.2-.3.1ZM19.5 5l-.1-.2c-.8-.9.2-2.5 1.3-2.7l.4.1.2.1.7.1c.8.8-1.2.8-1.6 1.1-.2.3-.7.3-.5-.2.2-.3.5-.4.8-.6-.3 0-.6.3-.8.5-.2.2-.2.5-.3.8 0 .3.4.4.5.6 0 .3-.3.6-.6.5Z"/></svg>