<svg id="_イヤー_2" xmlns="http://www.w3.org/2000/svg" viewBox="0 0 45 70"><path d="M41.5 58.2c-1.7 2.5-4 4.7-6.5 6.4A32.4 32.4 0 0 1 17.4 70C14 70 11 69.5 8 68.4a12.1 12.1 0 0 1-7.6-8.5c-.3-1-.5-1.7-.5-2.2 0-2.9.8-5 2.5-6.4C4 49.9 6.3 49.2 9 49.2a11.7 11.7 0 0 1 4 .7 8 8 0 0 1-1.4 2.3 28.8 28.8 0 0 0-3.2 4.3c-.4.8-.6 1.7-.6 2.8 0 3 1.2 5.1 3.6 6.6 2.4 1.5 4.9 2.3 7.4 2.3 5.4 0 9.2-1.7 11.1-4.9 2-3.3 3-7.4 3-12.3 0-3.1-.5-5.7-1.5-7.8a13 13 0 0 0-4.3-5c-1.8-1.2-3.9-2.1-6.3-2.7-2.4-.5-5-.8-7.8-.8V33c2.4 0 4.7-.3 6.9-.9 2.2-.6 4-1.5 5.7-2.7 1.6-1.2 2.9-2.8 3.8-4.7A18.7 18.7 0 0 0 28 8c-1-1.5-2.1-2.7-3.5-3.6-1.4-1-3-1.5-5-1.5C17 3 14.7 4 13 5.6c-1.7 1.8-2.6 4.1-2.6 6.9s1 4.8 3.2 6.1a8.2 8.2 0 0 0 7 1l.3 1c-.1.6-.5 1.2-1.3 1.7-.7.4-1.5.8-2.5 1.1a28.2 28.2 0 0 1-4.9 1c-2.5 0-4.4-.8-5.8-2.6a10 10 0 0 1-2-6.2 13.2 13.2 0 0 1 6.3-11.7 23.5 23.5 0 0 1 13-3.9C26 0 28 .3 30 .8c2 .4 4 1.2 5.5 2.2s3 2.4 4 4.1c1 1.7 1.6 3.8 1.6 6.4 0 2.6-.6 5-1.8 7-1.1 2.1-2.6 4-4.5 5.4-1.9 1.5-4 2.8-6.2 3.8-2.3 1-4.5 2-6.7 2.7 2.5.3 5.1.8 7.8 1.4 2.6.6 5 1.6 7.2 2.9 2.2 1.2 4 2.9 5.3 5 1.3 2 2 4.6 2 7.8s-1 6.2-2.7 8.7Z"/><path style="fill:none;" d="M0 0h45v70H0z"/></svg>