<svg id="_イヤー_2" xmlns="http://www.w3.org/2000/svg" viewBox="0 0 112 146"><path class="cls-2" d="M39.1 132.7h.1l-.2.1.1-.2ZM22.7 132.1c-2.7-1-5.3-2.3-7.7-4-1.8-1-6.2-3.6-5-6.1 0-.2.1-.5.3-.6.3 0 .3.4 0 .4-1 1.3.5 2.7 1.4 3.6 1 1 2.3 1.6 3.5 2.2 1.6 1.1 3.2 2 4.9 2.8a56 56 0 0 0 13.5 4l.1.3c0 .2-.1.3-.3.3-.5 0-1-.2-1.4-.3-2.7-.5-5.4-1.2-8-2-.4-.3-.8-.4-1.3-.6Z"/><path class="cls-2" d="M24.9 132c-.3-.2-1.6-.5-1.1-.9 1.3 0 2.6.7 3.9 1a29.4 29.4 0 0 0 8 .4c-.2 0-.2.2-.2.3-1.4.3-2.8 0-4.1 0-2.3 0-4.5-.5-6.6-1.2 2.4 1 5 1.4 7.5 2 1.7.3 3.6.7 5.3.3 0 .1 0 .2.2.3-2.2.6-4.7-.1-7-.6-1.8-.4-3.6-.8-5.4-1.4l-.5-.2ZM19.3 129.5c.3 0 .6.2.8.3l.7.2-1.4-.4v-.1Z"/><path class="cls-2" d="M22 130.3h.8l3.6 1c3 1 6.4 1 9.5.7h.2v.1l-.4.2c-4 .6-8.2 0-12-1.4l-1.8-.6ZM103.4 48.8l-.2-.1v-.3c.3 0 .6.2.8.4l.1.1-.2.2-.5-.3ZM99.7 48v-.1h.4-.4Z"/><path class="cls-2" d="M103.5 48.9c-1.9-2-4.6-2-7-2a42 42 0 0 0-10.3.5c0-.2.3-.2.4-.2l4-.6a39 39 0 0 1 7.2 0c1.7 0 3.5.2 5 1.3.3.2.7.4.8.7v.3h-.1ZM37.4 48v-.1.1ZM45 44.6ZM30 92.9l-.8-.7-.2-.2-.4-.6-.1-.1a.5.5 0 0 0-.3-.2l-1.6-2.5a21.7 21.7 0 0 1-3.3-8.6c-.2-1.7 0-3.4.4-5a16.8 16.8 0 0 1 1-2l.7-1.6.2.4-.6 1.7c-2.3 6.1.8 12.2 4.4 17v.1l.1.2.3.6.5.8.3.3.1.2c-.1.2-.3.3-.6.2ZM42 96.7V96h.5l1.2-.3 1.2-.4.5-.2.2-.1.2-.1h.2l.7-.2c1.7-.3 3.3-1 5-1.5l3.2-1.6-1.2 1.5-.4.3-1.1.7c-2.3 1-4.8 1.6-7.2 2l-2.6.5H42.1ZM23.3 118.2l1.3-2.8.5-.7.2-.5.7-1c0-.3.2-.5.3-.7l.2-.5.3-.7.2-.1.1-.3.2-.3.2-.5.5-1 .7-1.7.3-.9.3-.6.1-.3A60.6 60.6 0 0 0 31 100c.5-1.1.9-2.3 1.2-3.5.4-1.4-.7-2.3-1.4-3.3-.2-.1-.1-.4 0-.5l.1.1c.8.8 1.7 1.4 2 2.4.2 1.1-.2 2.3-.4 3.4l-1.4 4.2-.5 1.7-.7 1.6-.7 1.7-.8 1.7-.7 1.7-.8 1.7-.3.9-.4.8-.7 1.2-.3.5-.3.4-.5.7-.8 1.1h-.4l.1-.3Z"/><path class="cls-2" d="m29.4 118.3.1-1.3v-.1l.2-.5 1.5-3.6.7-1.6.4-1 .4-1 .9-1.6c1.3-2.5 2.6-5 4.1-7.5.9-1.4 2.4-4.3 4.2-3.6h.2l.3.1c.1.2-.2.3-.4.3-2.1-.1-3 2.6-4 4.1l-4.4 9c-1.4 2.9-3 5.6-4.2 8.4v-.1ZM23.6 116.8h.2c.2 0 .2-.2.3-.4l.1-.3.3-.6.2-.1.4-.7.2-.5.7-1c0-.3.2-.5.3-.7l.2-.5.3-.7.2-.1.1-.3.2-.3.2-.5.5-1 .7-1.7.3-.9.3-.6.1-.3a60.6 60.6 0 0 0 1.8-6.3l.1-.6.3-1V97l.1-.3v-1.1l-.1-.2V95c0-.2 0-.5-.2-.7-.2-.5-.4-1-.8-1.4l-1.4-.8H29l-.2-.4.3.2.7.2.6.2.2.2v.2l.3.1c0 .1.2.2.3.1 1.6 1.6 1.2 3.7.6 5.8l-2.4 7.3c-1 3.5-2.7 6.8-4.2 10.1l-.1.2-.3.4-.5.7-.8 1.1h-.4l-.1-.1.6-1.6Z"/><path class="cls-2" d="M29.3 119.5v-1.2l.2-1 2-4.6c1-2.7 2.4-5.3 3.7-8 .9-1.5 1.5-3.2 2.5-4.7.8-1.3 1.7-2.8 3.2-3.4l1-.4c.2-.1.3.2.1.3-3 1.2-4.2 4.8-5.6 7.6-2.6 5.2-4.8 10.6-7 16v-.6ZM23.5 118.3c0-.2.2-.2.3-.1l-.3.3H23l-.1-.1c0-.2.4-.2.5-.1ZM35.8 58.7c.6-2.2 6.7-.5 8.3-.3 2 .5 4 .9 5.9 1.6.2.2.9.4.7.7 0 .1-.1.2-.2.1-1.7-1-3.9-1.1-5.8-1.7-2.6-.5-5.4-1.5-8.1-.7l-.3.3c0 .2 0 .4.2.5a11 11 0 0 0 4.5 3.3l3 1c4 1.6 8 3 12.4 3.6 1.1 0 2.4.4 3.4-.2l.1-.3.1.1c0 .5-.5.7-.9.7-6.2.3-12-2.4-17.8-4.3-1.8-.8-5-2.2-5.5-4.4Z"/><path class="cls-2" d="m56 67 .2-.2 5.1.5c.3 0 .8 0 1-.3.2-.5 0-1-.3-1.4A6 6 0 0 0 59 64l-.3-.1c-1.2-.4-2.3-.8-3.6-.8-.1-.1 0-.3.2-.2 1.2 0 2.4.4 3.5.7 1.4.4 4.8 1.8 3.4 3.8-.8.4-1.8 0-2.7 0l-3.5-.3v-.2ZM28.7 78.9c-.3-4.3.9-8.4 2.7-12.3 1-2.2 2-4.4 3.9-6h.1c0 .3-.3.4-.5.6A31.8 31.8 0 0 0 29 74.6l-.1 3.5c0 .2.2 1-.2.9v-.1Z"/><path class="cls-2" d="M30.1 84.8c-3.5-6.2-3.3-11.2-.3-17.8.1-.2.1-.7.4-.7v.2c0 .3-.2.7-.4 1-2.4 5.4-3 10.3-.2 15.6.1.3 1.1 1.9.6 1.7Z"/><path class="cls-2" d="M33.2 88.3c-5-5-6.7-8.1-6.1-15.7 0-.1.2-.2.2 0-.6 7.4 1.2 10.5 6 15.5.2.1 0 .3 0 .3h-.1Z"/><path class="cls-2" d="M27.6 78.5c-1-5.2.6-12 4.8-15.5.2 0 .5-.5.7-.3l-.1.2c-3.5 2.5-5 7.2-5.5 11.3l.1 3.1c0 .4.3 1 .1 1.2h-.1ZM32.4 82.2c-3.6-7.1-.7-13.2 2.6-19.9a47.9 47.9 0 0 0 .7-.9c-3 6-6.7 13-3.6 19.5l.5 1.2v.2h-.2Z"/><path class="cls-2" d="M34.8 87.7c-5.7-6.8-5-11.4-1.5-19.3 0-.2.3-.2.2 0-3.1 7.2-4.3 11.8.8 18.3l.7.8v.2h-.2Z"/><path class="cls-2" d="M36.2 91.2C32 88 28.9 80.2 30.5 75c.1-.2.2-.8.4-.8.2.2-.2.7-.2.9-1.4 4.7 1 10.5 3.7 14.1.6.7 1.2 1.3 2 1.9 0 0-.1.3-.2.2Z"/><path class="cls-2" d="M33.1 86c-1.4-6.8 1.3-13.6 3.1-20 0-.2.1-.2.2-.2v.1c-1.2 4.6-2.8 9.3-3.3 14-.2 2-.1 4 .3 6l-.2.2Z"/><path class="cls-2" d="M31.8 88.5c1-8 4.5-15.6 7.6-23l.2-.2v.2c-2.3 5.5-4.7 11-6.3 16.7a37.6 37.6 0 0 0-1.5 6.5v-.2Z"/><path class="cls-2" d="M32.5 83a35 35 0 0 1 5.8-21.9l.6-.8.1-.1v.2c-3.7 6-6.6 12.7-6.4 19.8 0 .3.3 3.1 0 3l-.1-.1Z"/><path class="cls-2" d="M31 87.5c.2-6.3 2.9-12.2 5.2-18l2.3-5c.5-.8.8-2 1.6-2.6.3-.2.3.2 0 .2-1.4 1.9-2.1 4.3-3.2 6.4-2 4.8-4 9.7-5.1 14.8a22 22 0 0 0-.4 3.7c0 .2 0 .5-.2.6l-.1-.1ZM31.7 88.2c2.7-7.6 5.8-15.2 8.8-22.8 0-.2.4-.2.3.1-2.4 6-4.8 12-7 18.1L32 88.3l-.2.1s-.1 0 0-.2ZM33.4 88.6c.6-2.6 1.8-5 2.7-7.5 2.1-5.5 4-11.2 6.4-16.6h.2v.1c-2.4 5.3-4.2 10.7-6.2 16.1-1 2.6-2 5-2.8 7.6 0 .1 0 .4-.2.4l-.1-.1ZM34.5 88.3l1-1.9 3.4-6 7.4-16.1.2-.1v.2c-3.8 8-7.2 16.6-12 24v-.2ZM36.8 87c-.2-.1.1-.4.2-.6l3.1-4.8c1.7-3 3-6.2 4.5-9.3l1.8-3.9.6-1.1c0-.1 0-.2.2-.2v.3l-.5 1.2-5.7 12c-1 2-2.2 3.7-3.4 5.5l-.6.9h-.2ZM37 89.3V89c1.6-2.1 3.6-4 5-6.5 2.7-4.4 4.6-9.2 6.7-14 0-.2.4-.2.3 0-2.2 5.2-4.3 10.4-7.3 15-1 1.6-2.2 3.1-3.4 4.6L37 89.3H37ZM39.1 90c-.1-.3.4-.6.6-.9 1.5-1.6 3-3.1 4.3-5 3-4.2 4.7-9.1 6.6-13.9 0-.3.5-.2.4.2-2.4 6-4.7 12.1-9 17L39.4 90l-.2.1ZM38.7 92.5l.1-.1h3c3.2-.3 6.3-1 9-2.7-.3 0-12.4 2.9-9.6 1.3l-.2-.2v-.1c-1.3.3 1.6-3 2-3.3l.6-.2c.4 0-.1.6-.2.8 4-4 6.3-9.1 9-14 .1-.3.5-.1.3.2-2.7 5-5.1 10.2-9.1 14.2 3.2-2.2 6.4-4.6 9-7.6 1.2-2.3 2-4.8 3.2-7.2.1-.1.3-.6.4-.3 0 2.8-1.6 5.5-3.3 7.7-.5 1-1.1 2.2-1.8 3.1 1.2-.9 2.4-1.8 3.5-2.9.5-.5 2-2 1-.3-3 5.5-8.8 8.4-14.3 10.3 3.3-.4 6.7-1.2 10-2 .5-.1 1-.8 1.6-.7.2.1 0 .5-.2.5-1.5.5-2.6 1.5-4 2-1.6.8-3.3 1.2-5 1.5 2 0 3.9-.4 5.8-.8l.2.1-.2.3-1.2.2a22 22 0 0 1-6.4.4h-3.2v-.2Zm6.7-4.4c-1.4.8-3 1.3-4.3 2.4l.2.2c1.3-.2 2.5-1 3.6-1.6 1.7-1 3.4-2.2 4.8-3.7-1.4 1-2.8 2-4.3 2.7ZM43 88l-1.6 2a5 5 0 0 0 2-2.3l-.4.2Zm6.8-2.1a25.3 25.3 0 0 1-5.4 4c4.4-1.8 8.5-4.6 11-8.9-1.8 1.8-4 3-5.6 4.9Zm2-3.6a53.4 53.4 0 0 1-8.4 6.7c2.5-1.2 4.9-2.6 7-4.3.8-1 1.5-2 2-3l-.5.6Zm2-3.3-.3 1-.2.2c1.4-1.8 2.5-4 2.8-6.4L53.8 79Z"/><path class="cls-2" d="M40.8 92.8c-3.6-1.6-9.4-5-7.7-9.8 0-.2.1-.4.3-.3.1.1-.2.4-.2.5-1 3.6 2.3 6.4 5 8l2.7 1.3c.1.1 0 .3-.1.3Z"/><path class="cls-2" d="M39.8 92.2c-4.6-1.8-9.3-5.7-9.4-11.2 0-.2.2-.3.3-.1 0 1 .2 2 .4 3 1.9 4.7 6.5 7.5 11 8.8.2 0 0 .3 0 .3l-2-.7h-.3Z"/><path class="cls-2" d="M41.7 91.2a8.1 8.1 0 0 1-4.6-3.3c-.6-1-1-2.4 0-3.3 0 0 .1-.1.2 0 0 .2-.3.3-.3.5-.8 2.2 1.3 4.1 3 5l2.1 1c.2 0 0 .3 0 .2h-.3l-.1-.1Z"/><path class="cls-2" d="M34.4 85.6c0-.4.4-.3.2.1-.7 2 4 4 5.4 4.7l2.6 1.2c.2 0 0 .3 0 .2-2-.9-9.3-3.5-8.2-6.2Z"/><path class="cls-2" d="M40 92.8c-2.8-1.2-10.9-4.8-9.4-9 0 0 .3 0 .2.1l-.1.7c-.2 3 4.7 5.7 7 6.9a28.7 28.7 0 0 0 3.7 1.6l-.2.1c-.3 0-.5-.2-.8-.3h-.3Z"/><path class="cls-2" d="M37.2 90.7c-5.3-1.8-11-6.8-9.8-13.1.1-.2.1-.7.4-.8.2.1-.1.6-.1.8-1 4.3 2 8.3 5.1 10.6 1.4.9 3 1.7 4.5 2.2l1.3.5v.2c-.5 0-1-.2-1.4-.4Z"/><path class="cls-2" d="M38.5 93.3c-5-1.8-12.7-10.7-10.4-16.5 0-.2.3-.1.2 0-1.1 2.9.2 5.9 1.6 8.2 2.7 4.6 7 8.5 12.4 9 .6.7-2.6-.2-3.6-.6l-.2-.1Z"/><path class="cls-2" d="M38 93.9c-2.5-1-4.5-2.8-6-5-.2-.2-.7-.9-.2-1v.2l.1.2c1 1.6 2.3 3 3.7 4 1.5 1 3.2 1.8 5 1.9h2.1v.2c-1.5.1-3 0-4.3-.4l-.4-.1Z"/><path class="cls-2" d="M36.6 92.6c-.4-.2-1.2-.5-1-1 0-.1.2-.1.1 0l.3.3c2.5 1.7 5.8.8 8.7.6a79.3 79.3 0 0 0 2.3-.2l-.2.2-3.6.4c-2 .2-4.2.6-6.2-.1l-.4-.2Z"/><path class="cls-2" d="M38 91.6c-2.2-.7-4.3-1.7-5.9-3.5-.5-.6-1.2-1.4-1.2-2.3 0-.3.4-.2.2.1 1 2.9 4 4.4 6.7 5.3a41.7 41.7 0 0 0 3.8 1.4l-.2.1-3.4-1Z"/><path class="cls-2" d="M36.2 91c-1.5-.8-5.1-2.5-4.2-4.7l.2-.1.1.2c-.1.2-.2.5-.1.8 1.4 3 5.1 4 8 4.9l2.4.6c.2 0 0 .4-.1.3a39.1 39.1 0 0 1-6.3-2Z"/><path class="cls-2" d="m39 93.3.1.2h.3c2 .3 4.1-.3 6.2-.7.2 0 .1.3 0 .3-2.1.3-4.3 1-6.4.7-.3 0-.4-.5-.1-.5Z"/><path class="cls-2" d="M42 92.5c0-.2.3-.4.4-.2 3.3.7 10.6-2.8 13.3-5 .2 0 .3.2.1.4-1.8 1.6-10.7 6-13.4 5l-.3-.2Z"/><path class="cls-2" d="m46 91 .1-.2 1.5-.6c2.6-1 5.3-2 7.6-3.7a9.6 9.6 0 0 0 3.1-5c0-.2.3-.1.2 0-1 3.7-3.2 5.7-6.5 7.2a71 71 0 0 1-5.9 2.3H46ZM33 82.7c-1.9-2.1-4-4.6-3.9-7.8 0-4 2.1-9.6 5.3-12.1.1-.1.5-.3.5 0l-.2.1c-.2 0-.4.2-.5.3-3.3 3.2-5.7 9.5-4.5 14 .7 2 2.1 3.7 3.5 5.3l-.1.2Z"/><path class="cls-2" d="M30.9 82.5c-4.3-6.8-1.6-13.9 3.2-19.8l.6-.8h.2v.2l-.9 1c-3.8 4.7-6.7 11.2-4 17 0 .3 1.6 2.7 1 2.5h-.1Z"/><path class="cls-2" d="M28.2 74.2c.8-4.6 2.5-12.5 7.5-14l.2.2c0 .3-.5.2-.7.3-3.3 1.2-5 5.9-5.9 9.2-.4 1.4-.6 2.8-.8 4.3 0 0-.2.1-.2 0 0 0-.1 0 0 0ZM37.6 60.2v-.1c.6-.3 1.2-.4 1.8-.5.2 0 .2.3 0 .3-.6 0-1.2.3-1.8.4ZM36.8 62.5v-.1l3.1-1.9 1.8-1h.2l-.1.2L38 62l-1 .7h-.1ZM34 70a149 149 0 0 1 2.3-4 17 17 0 0 1 5.2-5.9v.2c-1.1.9-2.2 1.8-3 2.9-1.7 2-3 4.4-4.4 6.7 0 0 0 .1-.1 0ZM33.3 73.3V73l5.6-7.6s0-.1.2 0v.1l-5.6 7.6h-.1ZM31.3 80.7c2-4.4 7.7-16 12-17.4h.1c0 .3-.4.3-.6.5-2.2 1-3.5 3.3-4.8 5.2a84.7 84.7 0 0 0-3.5 5.8c-1 2-2.1 3.9-3 6h-.1s-.1 0 0-.1Z"/><path class="cls-2" d="M32.4 75.2c1.1-3.4 7.7-13.5 11.1-14.4.4 0 .3.3 0 .3-1 .3-1.9 1.1-2.7 1.9A48.6 48.6 0 0 0 33 74.4l-.3.7s-.1.1-.2 0ZM32 79.2V79c1.6-3 3.5-5.9 5.5-8.7 2-3 4.2-6.2 7.2-8.3.1-.2.2 0 .1.2-4 3-6.6 7.5-9.5 11.7l-2 3-1 2.2c-.1 0-.2.1-.2 0ZM31.6 81.4c0-.3 0-.5.2-.7l1.8-3a79.5 79.5 0 0 1 13.8-15.1 79.4 79.4 0 0 0-14 15.9c-.5 1-1.3 1.8-1.6 2.9 0 0 0 .1-.1 0h-.1ZM32.4 82.3a97.2 97.2 0 0 1-.2.6c-.2-.2.1-.4.1-.6ZM34.4 82.3c1-3.2 3.6-5.7 5.6-8.3L49 63.2h.2v.2l-7.6 8.9c-2.4 2.9-5 5.7-6.7 9l-.4 1-.1.1s-.1 0 0-.1ZM35 86.3c-.2-.7 0-1.4.4-2 .6-1.3 1.5-2.4 2.3-3.6 3.7-5.6 8-10.8 12.2-16h.2v.2c-5 6-9.8 12-14 18.5-.3.7-.9 1.5-1 2.3 0 .2.2.5 0 .6H35Z"/><path class="cls-2" d="M34.6 88a1 1 0 0 1 0-.8c.7-1.6 1.8-3 2.8-4.5 4.3-6 8.9-11.6 13.4-17.3 0 0 .1-.1.2 0v.2L47.4 70c-4 5.2-8.2 10.4-12 16-.2.5-.6 1-.7 1.6 0 .1.2.3 0 .5h-.1ZM37.3 85.5c-.1-.3.1-.7.4-1l2.1-2.4c3.9-4.4 7.4-9.1 11.2-13.6.1-.2.3 0 .2.2-4.6 5.5-9 11.1-13.6 16.4 1.4-.9 2.7-2 4-3.1.5-.2-.6.9-1.8 1.9-1.1.8-2.3 1.7-2.5 1.6Z"/><path class="cls-2" d="M36.1 88.5c.2-.9 1.1-1.7 1.6-2.3l4-4.7c3-3.7 6-7.6 8.9-11.5.1-.2.4 0 .3.2a303 303 0 0 1-14.3 17.9c1.4-.7 2.6-1.8 3.8-2.6h.2v.3l-2 1.3c-.7.5-1.4 1.3-2.3 1.4H36Z"/><path class="cls-2" d="M38.2 89.9v-.2l3-3a143 143 0 0 0 6.4-7.5 46 46 0 0 1-9.3 8h-.2v-.3l3.2-2.7a630.2 630.2 0 0 0 12-13c.1-.2.3 0 .1.3-4.4 5-8.6 10-13.6 14.4 2.8-2 5.2-4.4 7.5-6.9l2.5-2.7h.3v.2c-1 1.5-2.2 2.8-3.3 4.1-2.4 3-5 5.8-7.7 8.6a82 82 0 0 0 5.2-3.8l2-1.6s0-.1.1 0v.2a82.1 82.1 0 0 1-4.2 3.3c-1.3.9-2.5 1.9-3.9 2.7h-.1Z"/><path class="cls-2" d="M39 91.5v-.3l2-2 5.8-6 3.9-4.1c.1-.2.3 0 .2.2-3.7 4-7.5 7.8-11.3 11.7 3.7-2 7-4.9 10.3-7.5l3-2.5h.2v.3l-2 2c-1.8 1.9-3.8 3.7-5.7 5.5 0 .2-2.3 2.6-2 1.5l6.8-6.5c-2.3 1.9-4.6 3.6-7 5.3-1.3 1-2.6 2-4.1 2.4H39ZM40.5 82.5v-.2l4.6-4.1c1.5-1.4 3-2.9 4.6-4 .7-.4 1.4-.7 2.2-.6.1 0 .2.1 0 .2h-.5c-2 .4-3.6 2.3-5.2 3.7l-5.5 5h-.1ZM40.6 87.6c.3-.8 1.2-1.5 1.8-2.2l3.8-4 6.7-8h.2v.2l-7 8c-1.6 2-3.4 3.8-5 5.7l.8-.3h.1c.1.3-1 .8-1.3.7h-.1Z"/><path class="cls-2" d="M41.1 88.9v-.3c2-2 3.8-4.2 5.6-6.3l6.2-7.4c.1-.1.2-.2.3 0 .1 0 0 .2 0 .2l-4.1 5-6.2 7.1s.2-.3.4 0l-.1.2-1.9 1.5h-.1ZM42.6 89.3V89c1.1-1 2-2.2 3-3.3l3.2-4 1.4-1.9c.9-1 1.7-2.2 2.6-3.4h.2v.2l-1.5 1.9-1.9 2.4c-1.6 2-3.2 4.2-5 6.2l1.6-1.4h.1v.2l-2.1 2-1.4 1.3h-.2ZM42 91.3c-.2-.5.5-1.1.9-1.5l6.6-6.9 3.4-3.4c.2-.2.4.1.2.3L42.7 90.6l3-2c0-.1.2-.1.2 0v.3L44.1 90c-.6.5-1.3 1-2 1.3h-.1Z"/><path class="cls-2" d="M44.1 89.5v-.3c1.1-1.2 2.4-2.2 3.5-3.3l5.7-5c.2-.1.3-.2.4 0l-.1.3C51 83.4 48.5 85.6 46 88l.9-.6h.2v.3l-2.8 2h-.2v-.1Z"/><path class="cls-2" d="M45.8 87.5c0-.4.5-.8.7-1 1-1.6 2-3.2 3.2-4.7 0 0-.2-.2 0-.4l2-1.8c.2-.2.2.2 0 .2l-1.5 1.7c.2 0 4.7-2.5 3.9-1.4l-1.9.8c-.7.3-1.4.9-2.2 1-1.3 1.6-2.5 3.4-3.7 5.2l-.2.2-.2.2Zm4-6h.2l.1-.2-.2.2ZM46.3 90.4c.5-1.2 1.8-2 2.6-3l7.8-8.2c.3-.3.5 0 .3.3L47 90c.2.2-.3.6-.6.5Z"/><path class="cls-2" d="m45.3 91.5.5-.7h.2c.1.2-.3.4-.4.6 4.2-2.8 7.7-6.6 11.2-10.1.1-.2.3 0 .2.1-3.5 3.5-6.8 7.2-10.8 10-.3.1-.5.4-.8.3-.1 0-.1-.2 0-.2Z"/><path class="cls-2" d="M42.2 91.7c-.2-.2 0-.3.2-.3 2.2 0 4.4-.5 6.3-1.5-.3 0-1 0-1-.5.1-.1.1-.4.3-.4.2.1 0 .3 0 .5l.4.1c1.2 0 2.1-.7 3-1.3 1.3-.9 2.4-2 3.6-3l1.7-2.8c-.7.8-1.5 1.5-2.3 2.1v.2l-3.2 2a15.1 15.1 0 0 1-5.4 2.7c-.3 0-.6-.2-.3-.4l2.4-1.1a19.2 19.2 0 0 0 9.1-6.3c.8-.4-1.5 3.2-1.7 3.5.4 0 0 .4-.2.6-1.7 2.1-3.7 4-6.2 5.1-2 1-4.5 1.6-6.6.8h-.1Zm6-1.3c-1.6.8-3.3 1.2-5.1 1.3 3.8.5 7.7-1.5 10.4-4.3-1.6 1.3-3.5 2.1-5.3 3Zm1.6-3-2.5 1.2-1.4.6c1.5-.4 3-1 4.4-2l-.5.2Z"/><path class="cls-2" d="M44 93.2c0-.1 0-.2.2-.2 1.2-.6 2.3-1.1 3.4-2 2.8-1.8 5-4.5 7.3-6.9.1-.1.3 0 .1.2-3 3.2-6 6.9-10.2 8.7 6.3-.8 12.5-4.4 14.7-10.9l.2.1a15.4 15.4 0 0 1-8.5 9.2 21.6 21.6 0 0 1-7 1.8H44Z"/><path class="cls-2" d="m50.4 92.1 2.6-2c4-3.4 5.4-8.7 7-13.5.1-.2.4-.2.3 0C59 80.2 58.1 84 56 87.2c-1.3 1.8-3 3.3-4.8 4.7l-.4.1-.3.1Z"/><path class="cls-2" d="m50 88.8.2-.1 3-1.3c4-1.8 4.7-4.7 5.8-8.5 0-.2.3-.2.2 0-.8 2.7-1.4 5.9-4 7.5a19 19 0 0 1-5 2.5H50Z"/><path class="cls-2" d="M53 90v-.3l.7-.4c4.6-3.3 5.2-7.7 6-13 0-.2.4-.2.3 0-.7 4-1 8.4-4.1 11.4a21.6 21.6 0 0 1-2.8 2.4V90Z"/><path class="cls-2" d="m52.4 89.1.1-.1 3.3-2.5c2.8-2.2 3.9-5.7 5-8.9 0-.2.3-.1.2 0-1 2.7-1.7 5.7-3.7 7.8a28.7 28.7 0 0 1-4.9 3.8ZM30.6 69c.6-3 3.3-9.3 6.4-10 .2 0 .1.4 0 .4h-.2c-2.7 1-4.5 5-5.5 7.7l-.5 1.9h-.2Z"/><path class="cls-2" d="M28.8 73c.4-5 3.1-11.8 7.6-14.2h.1c0 .3-.4.4-.6.5-3.4 2.3-5.5 7-6.5 11-.1.3-.2 2.9-.5 2.8V73ZM31.8 82.9c-3-6.4-.1-11.1 3.1-16.7.1-.2.3 0 .2.1-2.7 4.6-6 10-3.5 15.3l.4 1.1v.2h-.1Z"/><path class="cls-2" d="M34.7 87.6a9.8 9.8 0 0 1-4-7.2c0-2.9 1-6.8 3.7-8.2h.5c.3 0 .1.4 0 .3l-.6.1c-3.2 2.3-4.2 7.5-2.5 11 .5 1 1.2 1.9 2 2.6l1.1 1.1c.2.1 0 .4-.1.3Z"/><path class="cls-2" d="M36.5 87c-6-3.6-5.5-12.4-1.7-17.8l.6-.8h.2v.2l-.6.8c-3 4.3-4.2 11-.8 15.2.7.9 1.6 1.5 2.5 2.1.1.1 0 .3-.1.3Z"/><path class="cls-2" d="M35.8 89.8c-3.8-3-6.6-7.6-6.4-12.6.1-1.7 1-3.2 1.7-4.7.1-.1.3 0 .2.1-.7 1.5-1.5 3-1.7 4.5-.2 3.7 1.4 7.1 3.6 9.9a22 22 0 0 0 2.7 2.6c.1 0 0 .3-.1.2Z"/><path class="cls-2" d="M35 90c-2.5-2.3-5.4-6.7-4.6-10.4 0-.2.3-.1.2 0-.7 3.4 1.6 7 3.7 9.3l.9 1s0 .2-.2.2Z"/><path class="cls-2" d="M38.7 91.6c-4-1.7-7.6-4.5-9.5-8.7-.7-1.6-2-3.8-.5-5.3.1-.1.3 0 .1.2l-.5.9c-.1 3.3 3 7.8 5.5 9.7 1.2.9 2.4 1.7 3.8 2.3l1.3.7c.1 0 0 .3-.2.2Z"/><path class="cls-2" d="M42 91.1a21 21 0 0 1-10.1-7.4c-1.5-2-3.1-4.6-2.3-7.4 0-.2 0-.6.3-.6.3.1 0 .6 0 .9-.6 2 .2 3.7 1.2 5.3a20.4 20.4 0 0 0 11 8.9s.1.1 0 .2c0 0 0 .2-.1.1Z"/><path class="cls-2" d="M32.6 76.2c.1-.2.2-.8.4-.8l.1.2-.4 1C31 82.2 35.5 87 39.8 89.4c1 .6 2.2 1 3.3 1.5.2.1 0 .4-.1.4-5.8-2.2-13-7.9-10.4-15.1Z"/><path class="cls-2" d="M42.7 89.4c-3.1-1.6-6-3.8-7.9-6.9-1-1.7-2.3-3.7-1.8-5.8 0-.2 0-.4.3-.4.1 0 0 .3 0 .4-.7 3 2.5 7 4.3 8.9 1.6 1.5 3.4 2.6 5.2 3.5.2 0 0 .3 0 .3Z"/><path class="cls-2" d="M42.9 89.5C39.5 88 31.2 81.4 34.6 77h.2l-.4.7c-1.8 3.2 3 7.5 5.1 9.4l3.5 2.2c.1 0 0 .3-.1.2Z"/><path class="cls-2" d="M43 89.1c-7.9-2.8-11.2-6.2-9.2-15.4.6-.8-.1 1.8 0 2-1.2 6.5 1.6 10 7.1 12.2l2.4 1c.2 0 0 .3 0 .3L43 89Z"/><path class="cls-2" d="M35.7 84c-2.3-2-8-4.7-7-8.4.2-1 1-1.7 1.6-2.5.2-.1.5-.7.8-.4.2.3-.4.5-.5.8-.8.8-1.6 1.7-1.6 2.8-.2 2.3 2.9 4.3 4.5 5.5l2.5 1.8c.1.1 0 .4-.3.4Z"/><path class="cls-2" d="M33.1 81.4a12 12 0 0 1-2-6.5c.3-4 2.4-8 5.5-10.5l.6-.5h.2v.2l-1 .8a14 14 0 0 0-5 11.5 14 14 0 0 0 2 4.8c0 .1-.1.3-.2.2ZM29.7 74.6c-1.3-3.4.6-7.5 3.6-9.3h.2c0 .3-.3.3-.4.4a8.2 8.2 0 0 0-3.6 6.9c0 .2.6 2.2.3 2h-.1Z"/><path class="cls-2" d="M30.7 75c-1-2-1.1-4.3.1-6.2 1.3-2.3 3-4.3 4.6-6.3.7-.3-.7 1.2-.8 1.4-1.9 2.6-5.2 5.8-4.3 9.3l.6 1.5c0 .1 0 .3-.1.2Z"/><path class="cls-2" d="M28.3 81.6c-1.4-3.8.7-8.1 2.2-11.7.9-1.7 1.6-3.7 3.2-4.9.2 0 .4-.3.5-.2v.2l-1 .9c-1.2 1.2-1.9 2.9-2.6 4.4a24.6 24.6 0 0 0-2.5 8c0 1 0 2 .4 3 .1.2 0 .4-.1.4Z"/><path class="cls-2" d="M31.6 82.7c-3-5.9-.5-12.6 2-18.3h.1l.1.1c-2.2 5.2-4.8 11.1-2.6 16.6l.6 1.4c0 .1 0 .3-.2.2Z"/><path class="cls-2" d="M36.5 85.6c-4.7-4-5-9.4-3-15.2.1-.4 1.5-3.6 2-2.8 0 .2-.3.2-.4.4-2.4 3.4-3.3 9.7-1.5 13.4a12 12 0 0 0 2.2 3l1 1v.1l-.2.1Z"/><path class="cls-2" d="M38.7 87.3c-4.6-4.3-6.1-11-4.3-17.2.2-.2.1-.6.4-.6.2.1-.2.7-.2.9A16.7 16.7 0 0 0 38.9 87c.1 0 0 .3-.1.2Z"/><path class="cls-2" d="M43.4 87.3C39.6 85 35 81.2 36 76c0-.1.2-.2.2 0-1 4.6 2.8 8.1 6.1 10.4l1.1.7c.1.1 0 .3-.1.3Z"/><path class="cls-2" d="M44 88.2a16.5 16.5 0 0 1-6.4-4.7c-1.4-2-2.3-4.6-1.4-7l.1-.2c.2.1 0 .4 0 .5-1 3.7 1.6 7.4 4.5 9.3 1 .7 2.2 1.3 3.3 1.9.1 0 0 .3-.1.2Z"/><path class="cls-2" d="M43.4 87.1c-1.5-.7-8.8-4-8-5.8.1-.2.4-.2.3 0-.3 1.3 2 2.3 2.8 2.9C42 86.5 46 88 50.1 88.4v.3a28.9 28.9 0 0 1-6.7-1.6ZM49 87.2a23 23 0 0 1-9.7-6.7c-1-1.5-2.6-3.4-1.8-5.4.1-.2.4-.1.3 0v.3c-.9 3.1 3.7 7.1 6 8.7a31 31 0 0 0 5.4 2.8c.1 0 .1.1 0 .2 0 0 0 .1-.1 0Z"/><path class="cls-2" d="M44.9 83.3a21 21 0 0 1-5-2.8c-.8-.5-1.7-1.1-2.1-2.1-.2-.6.1-1.1.3-1.6l.3-.2.1.3c-.2.4-.4.8-.3 1.3.3.8 1 1.3 1.7 1.7 1.4 1 2.9 2 4.5 2.7 1.8.8 3.7 1.2 5.7 1 .5 0 1 0 1.4-.2l.2.2c0 .3-.4.2-.6.3-2 .4-4 .2-6-.5H45Z"/><path class="cls-2" d="M45.9 83.3a10 10 0 0 1-6-5.3c-.4-1-1-2.5.2-3.2h.2c0 .3-.2.3-.3.4-.2.2-.3.3-.3.5 0 3.2 2.7 5.8 5.4 7 1.6.7 3.2 1 5 1.2l.8.1v.1l-.1.2c-1.6-.2-3.1-.4-4.6-1h-.3Z"/><path class="cls-2" d="M45.8 83.5c-3.5-2.5-7.8-6-7-11v-.1c.2 0 .1.2.1.4-.4 3.8 2.4 6.9 5 9l2 1.5c.2 0 0 .3 0 .2h-.1Z"/><path class="cls-2" d="M44.6 84.3c-4.7-2.9-9.8-8.7-6.8-14.7.1-.1.1-.4.3-.3.2.1 0 .4-.1.5-2.4 4.9 1 10 4.7 12.8.6.6 1.3 1 2 1.5v.3h-.1Z"/><path class="cls-2" d="M40.5 86c-3.8-1.2-6-4.2-4.4-8.4.3-1.2.8-2.5 1.3-3.7 0-.1.2-.3.3-.2.2 0 .2.2.2.3-.9 2.2-1.8 4.5-1.9 6.8.2 1.5 1.3 2.8 2.5 3.7 2.6 1.6 5.8 2 8.8 2.3.2 0 .6-.1.6.2-.1.4-.6.2-.9.3-2-.2-4.2-.4-6.2-1.1l-.3-.1ZM50.8 85.1C45 81.7 39 75.1 41 67.5l.3-.7.2-.2.1.2-.4 1C40 73.5 43.4 79 47.5 82.5l2.7 1.9c.2.2.8.4.7.7h-.1Z"/><path class="cls-2" d="M51 83.5c-7-2.8-9.5-5.7-12.1-13 0-.1.1-.3.2-.2 2.4 6.6 4.6 9.8 11 12.5l1 .5.1.2H51ZM48.8 75.5c-2.8-4-4.4-8.5-4.8-13.4 0-.1.2-.3.3 0A26.5 26.5 0 0 0 49 75.2c0 .1 0 .3-.2.3Z"/><path class="cls-2" d="M51 81c-5.8-3.2-11.1-9.8-9.5-17 0-.1 0-.3.2-.3l.1.2-.2 1.1c-.6 5.4 2.4 10.4 6.3 13.6 1 .8 2 1.5 3.2 2.2.1 0 0 .3-.2.3Z"/><path class="cls-2" d="M48.2 78.6c-2.1-2.8-3.4-6.2-4.7-9.4-.6-2-1.8-4-1-6.2h.1c.2 0 0 .1 0 .3-.3 1 0 2.1.2 3.1a76 76 0 0 0 2.4 6.2c.9 2 1.8 4 3.2 5.8 0 0 0 .2-.2.2ZM51.8 79.7a17 17 0 0 1-4.4-15.1c0-.2.3-.2.2 0-1 4.2 0 8.6 2.3 12 .6 1 1.4 2 2.1 2.9l-.1.2Z"/><path class="cls-2" d="M53.9 80c-4.1-3.3-5.4-8-4.5-13.4 0-.1.3-.2.2 0-.8 4.7.2 9.5 3.8 12.6l.6.6v.2H54Z"/><path class="cls-2" d="M54 78.2c-4-3.3-5.8-8.4-3.8-13.4.1-.2.1-.6.4-.7v.2A11 11 0 0 0 52 75.7c.6.8 1.4 1.5 2.1 2.2.1.1 0 .3-.1.3ZM55 77.1c-2.3-3.6-2.6-8-2.7-12.2 0-.1.3-.2.3 0 0 2.9.1 5.9 1 8.6a22 22 0 0 0 1.5 3.4c.1.2 0 .3-.1.3Z"/><path class="cls-2" d="M53.4 75a14 14 0 0 1-1-7.3l.2-2.1.2-.1c0 2.2-.4 4.3 0 6.4.1 1 .5 2 .8 3l-.1.2Z"/><path class="cls-2" d="M53.6 78.7c-2-3.6-2.7-7.9-2-12 0-.2.3-.2.2 0a18 18 0 0 0 1.1 9.8l1 2-.2.2ZM53.5 66.6c0-.1.2-.3.3-.2l.2.4c-.1.1-.3.3-.4.2l-.1-.4Z"/><path class="cls-2" d="M52.8 77.1c-2.1-3-1.4-7-1.4-10.7 0-.1.2-.2.2 0 .1 3.1-.5 6.5.8 9.4.1.4.3.8.6 1.1l-.2.3ZM55 76.4a74 74 0 0 1-.1-8.7v-2H55.3l-.2 6a74.5 74.5 0 0 0 0 4.7Z"/><path class="cls-2" d="M54.7 76.4a32.6 32.6 0 0 1 2-7.8l.1.2a40 40 0 0 0-1.6 5.6c0 .2-.2 2.3-.4 2.2l-.1-.2Z"/><path class="cls-2" d="M54.6 77c-.6-2.5-1.2-5-.9-7.6l.1-2.7.2-.2v.2c0 2.2-.3 4.4 0 6.6l.9 3.5-.2.2Z"/><path class="cls-2" d="M54 79.8c.4-2.7 1-5.4 1.6-8.1l.7-3.3.1-.2.1.2L55 76l-.6 3.7s-.1.2-.2.1v-.1ZM53.4 83.2c-.1-.1 0-.3.3-.2l.3-.3c.7-1.4 1.2-2.9 1.7-4.3a336.1 336.1 0 0 0 1.9-4.4l-1.7 4.5c-.3.7-1.5 5-2.4 4.8Z"/><path class="cls-2" d="M56.7 76.7a309.7 309.7 0 0 0-2.4 6.6c-.1.2-.2.5-.4.5.7-2.3 1.9-4.8 2.8-7.1ZM54.6 84V84c1-1.8 1.5-3.7 2.2-5.5l1.4-4h.1c.1 0 .1 0 0 .1l-2 5.8c-.5 1.3-.9 2.5-1.5 3.7l-.2.1Z"/><path class="cls-2" d="M52 86.3c-.1 0 0-.1 0-.1 1-.7 2-1.4 2.8-2.3 1.9-2.7 2.6-6 4-9 0-.1.3 0 .2.1-1.3 3-2.1 6.1-3.9 8.8a9.3 9.3 0 0 1-3.1 2.6Z"/><path class="cls-2" d="M50.5 89.4c-.1-.7.8-1.3 1.3-1.7a43 43 0 0 0 2.3-2.1 207 207 0 0 0 3-4v.3l-1.5 2.2c.5.2-.8 1.2-1 1.4-1 1.4-2 2.8-3.4 3.7l-.6.3Z"/><path class="cls-2" d="M53.7 87.2c-.1-.4.2-.7.4-.8a25 25 0 0 0 3.7-5.3c-.3-.2.1-.6.2-.9.2-.1.5-.7.8-.5v.3c-1 2.3-2.5 4.5-4.2 6.5 1.5-.8 2.7-2 3.6-3.6l1.3-2.4.2-.1v.1l-.5 1.1a11.2 11.2 0 0 1-5.2 5.7h-.2V87Z"/><path class="cls-2" d="M50 89.2A27.2 27.2 0 0 0 59.9 76a26 26 0 0 1-10 13.2Z"/><path class="cls-2" d="M48.1 90a31.9 31.9 0 0 0 11-11.6A29.8 29.8 0 0 1 48 90ZM53.8 89.9v-.2c1-.7 1.8-1.6 2.4-2.6 1.6-3 2.3-6.5 3.4-9.7 0-.1.3-.2.3 0l-2.3 7a10.2 10.2 0 0 1-3.8 5.5Z"/><path class="cls-2" d="m55 88.3.1-.2 1.5-1.2c3-2.9 3.2-7.3 4.5-11 0-.3.3-.3.3 0-1.3 3.8-1.6 8.3-4.6 11.2a13.5 13.5 0 0 1-1.6 1.3l-.1-.1Z"/><path class="cls-2" d="M51.9 90.2c6.3-4.1 7-5 9.4-12.4 0-.2.3-.2.2 0-1.2 3.7-2.3 7.6-5.6 10a32 32 0 0 1-3.9 2.5h-.1ZM30.6 83.2c-1.3-2-2.2-4.3-1.6-6.7.9-4.4 3.5-8.2 6-11.9.2-.2 1.6-2.5 1.4-1.6L35 65c-2.8 4.2-6.2 9-5.8 14.3a26 26 0 0 0 1.7 3.7v.1h-.2Z"/><path class="cls-2" d="M36.8 87.2c-3-3.5-8-7.8-5-13 .2-.1.4 0 .3.1-2.8 4.5 1.3 8.6 4 11.7l.9 1v.2h-.2Z"/><path class="cls-2" d="M35.7 87.5c-3.5-1.6-7.8-6-4.3-10h.2c.1.1-.2.3-.2.5-2.3 2.6-.3 6 2 7.7.8.7 1.7 1.3 2.7 1.7.2 0 0 .3 0 .3l-.3-.1Z"/><path class="cls-2" d="M35.6 89.2c-3-2.7-5.2-6.4-5.5-10.6 0-1.2-.2-2.8.7-3.7.2-.1.4-.3.4-.1v.2l-.4.1c-1.5 3.4.4 8 2.3 10.8.6.9 1.3 1.7 2.1 2.5l.6.5v.2h-.1Z"/><path class="cls-2" d="M36.3 87.3c-1.8-.9-3.6-1.7-4.8-3.3a6.9 6.9 0 0 1-1.4-6.4c.2-.3.4 0 .2.3-.9 3.3 1.4 6.6 4.2 8l2 1c0 .1 0 .4-.2.3Z"/><path class="cls-2" d="M34 88.4c-4.7-3.8-6.5-10.5-5.7-16.7 0-.1.3-.2.3 0-.8 5.7.6 11.9 4.7 15.7l.9.8s0 .3-.2.3Z"/><path class="cls-2" d="M33.3 88.8c-.7-1.2-1.6-2.5-1.1-3.9h.1c.2 0 0 .2 0 .4.2 3.8 3.8 6.2 6.8 7.7l2.7 1.1c.1.1 0 .4-.1.3-3.1-1.3-6.4-2.8-8.4-5.6Z"/><path class="cls-2" d="M39.7 91.9c-2-1-3.9-2.5-5.7-3.8v-.3h.2l1.9 1.4c2 1.6 4.3 3 6.8 3.3h.8v.2l-.1.2a13.8 13.8 0 0 1-3.9-1Z"/><path class="cls-2" d="M33.9 91.1s0-.1.1 0c1.8.5 3.6 1.2 5.5 1.4 1 0 2-.3 3-.8h.2c0 .3-.3.4-.4.4-1.6.9-3.4.7-5 .2l-3.4-1v-.2Z"/><path class="cls-2" d="M37.2 92.8c-2.9-1.4-6-2.8-7.8-5.6-1-1.4-1.9-3-1-4.8v-.1c.3 0 .1.3 0 .4-1 3 3 6.7 5.3 8 1.2.7 2.5 1.2 3.7 1.8.1.1 0 .4-.1.3Z"/><path class="cls-2" d="M36.2 91.8c-4.1-2.4-8-6.3-8.3-11.4v-.2c.3 0 .2.5.3.7.4 3.7 2.8 6.8 5.6 9l2.6 1.6c0 .1 0 .3-.2.3Z"/><path class="cls-2" d="M37.8 93.3c-5.5-3.8-7.4-7.5-9.8-13.7-.2-.2 0-.5.1-.3 1.9 4.5 3.8 9 7.6 12l2.3 1.8c.1 0 0 .3-.2.3ZM23.8 116.8l.2-.3h.4l.2.1h.2l-.5.8-.5.8c-.4-.4-.2-1 0-1.4ZM29.3 119.8v-1.5l.1-.4h.4l.2.1.3.1h.1l-.2.5-.2 1c-.1.2-.3.2-.6.2Z"/><path class="cls-2" d="M23.4 118.1v-.6l.2-.7h.2l.2-.3H24.3l.1.1h.4l-.5.8-.7 1-.2-.2ZM30 121.8c-1-.6-.4-1.8.1-2.8v2.4l.1.2v.1l.3.2H30Z"/><path class="cls-2" d="M29.5 121.8v-.6l.8.4v.1l.2.2.1.3c-.4 0-.7-.2-1-.4Z"/><path class="cls-2" d="m30.7 122.7-1.2-.6v-.5c.3.3.7.4 1 .6h.1l.2.5h-.1ZM29.3 119.5v-.4l1-.9-.1.4v.1c-.4.3-.7.6-.9 1v-.2ZM20.9 122.7c-.2-.2-.4-.5-.3-.7.1-.2.4-.2.3 0v.1c0 .2.2.3.3.4a12 12 0 0 0 8.3 3.2c.2 0 .3.2.3.4-.2 1-3.3-.2-4-.3l-.3-.1a13 13 0 0 1-4.6-3ZM19.7 120.3l.1-.4c1.5-1 3.4-1.8 4.3-3.3H24v-.1h.4l.2.1h.1l-1 1.6c-.7.8-1.6 1.6-2.7 1.9h-.4c-.3 0-.6.4-.8.3l-.1-.1Z"/><path class="cls-2" d="M31 125.2s-.1-.2 0-.4a9 9 0 0 1-.7-.8v-.1l-.3-.5-.2-.4-.4-.8.1-.3v-.4c.2.5.3 1.2.8 1.6.4.7 1.1 1.2 1.7 1.8.1.5-.4.5-.7.4l-.2-.1Z"/><path class="cls-2" d="M30.6 123.5c-.2-.9-1.8-3.2-.8-3.8.1 0 .2 0 .2.2v.5c0 .3 0 .5.2.8s0 .1 0 .1v.2l.1.2.1.2.2.4a2.8 2.8 0 0 0 .4.9c.1.2-.1.4-.3.4v-.1ZM26.8 133.3l-8.4-3.1c-2.4-1-5.1-2-7-4.1-.7-1.2-1.9-2.4-2-3.9.1-2.7 3.4-3.2 5.5-3.4 2-.4 4 .6 6-.2-.2-.2 0-.4.2-.4.4.2-.2.7-.5.8-2 .6-4.2-.4-6.4.3-2.9.5-5.6 1.9-3 4.9a8 8 0 0 0 2.6 2.7 31.9 31.9 0 0 0 4.6 2.3s.1 0 .2 0c3 1.3 6 2.2 8.9 3.4 1.7.8 3.5 1.1 5.4 1.3 1.5 0 3.3.5 4.7-.1 0 .1 0 .3.2.3h.4c-.8.5-1.8.8-2.7.7-2.7-.1-5.4-.3-8-1.2l-.8-.3ZM35.8 125.9c-.5-.8-3.4-1.8-3.8-2.7v-.1l.1-.4c.1 0 .3-.1.4 0 1.5 1 3.1 2 4.3 3.3l-.5.4a24 24 0 0 0-.5-.5ZM23.6 75.5c1.6-5.6 5.2-10.2 7.5-15.4 1.2-2.7 2.2-5.6 3.3-8.3l.7-1.8.2.1c-.5 1.4-.8 2.9-1.4 4.2-1.2 4-2.9 7.8-5 11.4-1.2 2.6-2.8 5-3.9 7.7a36 36 0 0 0-.7 2.2c-.1.2-.3.4-.5.3-.2 0-.3-.2-.2-.4ZM59.2 67.5c.1-.2.4 0 .7 0 .1 0 .4-.1.4.1-.2.3-.7 0-1 0 0 .2-.2 0-.1 0ZM52 94c.4-.6 1.3-.7 2-1.1.9-.7 1.7-1.6 2.4-2.4 2.4-2.4 3.4-5.6 4.6-8.6.5-1.3 1-2.7 1.3-4 .2-.1.2-.3.3-.5l.2-.5v-.3l.1-.5.1-.4.3-.9v-.2c.2 0 .2 0 .3-.2l.2-.5.1-.4.2-.5.2-.9.5-2 .1-.2.2-.3.1-.2-.5 2.2a78 78 0 0 1-5.2 16l-.2.4-.3.6a13.2 13.2 0 0 1-.9 1.3l-.7.7-.5.4-.3.3-.8.7-.4.4-.3.2H55l-.4.1-.2.1-.3.2-.7.5-1.3.8h-.2l.1-.3ZM65.5 68l.3-1 1-2.7V64l1.1-2.2v.2l-.2.4-.2.4v.5l-1 2c-.5 1-.8 2.1-1.1 3.2l.1-.6ZM68.4 60.7h.1v.3h-.1l-.2.2.2-.5ZM33 64.4c.7-2 2-3.8 2.8-5.8.2-.3.2-.8.5-.9v.3c0 .2 0 .4-.2.5l-2.8 5.7c.1 0 .2.1 0 .2 0 .1-.3.2-.3 0Z"/><path class="cls-2" d="M32.5 63.6v-.2l1.6-2.7c.4-.7.7-1.6 1.5-2 .2 0 .2.4 0 .4-1.1 1-1.7 2.4-2.5 3.6l-.4.8-.2.1Z"/><path class="cls-2" d="M32.2 64.3v-.2c.6-1.3 1.5-2.6 2.2-4l1-1.8c0-.3.5-.3.4 0 0 .2-.2.3-.3.1-.9 2-2.1 3.9-3.1 5.8l-.2.1Z"/><path class="cls-2" d="M31.8 64.6c.2-.4 3.6-7.9 3.7-6.4 0 .2 0 .6-.2.6s-.1-.2 0-.3a86.9 86.9 0 0 0-3.5 6Z"/><path class="cls-2" d="M30.7 66.3a74.9 74.9 0 0 1 1.2-2.7c1-1.7 1.7-3.6 2.8-5.1.1-.1.3-.3.4-.2.2 0 0 .3-.1.3-1.4 1.7-2.2 4-3.3 6l-.8 1.6h-.2Z"/><path class="cls-2" d="M32.5 63v-.2c1-1.7 1.8-3.5 2.9-5.1.1-.2.3 0 .2.1-1.1 1.6-2 3.4-3 5 0 .1 0 .2-.1.1ZM54 75.8a583.2 583.2 0 0 1 1-1.8c-.2.2-1 2.6-1 1.8ZM57.6 68s.1-.1.2 0v.2s-.2-.1-.1-.2Z"/><path class="cls-2" d="M54.4 78c1-3.5 2.5-6.7 3.3-10.1v-.3h.2c0 1.2-.6 2.3-1 3.4l-2.3 7h-.3ZM54.2 81c.6-3.3 1.9-6.4 3-9.4l1.1-3.2s.2-.1.2 0c-1 3.2-2.4 6.4-3.4 9.7a27 27 0 0 0-.7 2.8c0 .2-.2.2-.2 0ZM55.2 79.6C56.5 76 58 72.4 59 68.8c-.1-.1 0-.3 0-.4.3-.3.3.3.2.5-1 3.6-2.5 7.2-3.7 10.8h-.3ZM56 80.5c1.2-3.7 2.5-7.3 3.5-11l.3-1.2.1-.1c.2 0 0 .4 0 .5a78 78 0 0 1-2 6.9c-.2.3-1.9 6-2 4.8ZM57 79.8c1.1-3.6 2.5-7.2 3.1-10.9-.2 0 0-.3 0-.4.2 0 .4 0 .3.1-.3 3-1.5 5.8-2.3 8.6-.1.3-1 3.5-1.1 2.6ZM57.5 80.5c1.1-3.1 2.2-6.3 3.1-9.6l1-3.4.1-.2.1.2c0 .4-.2.8-.3 1.1l-2.3 7.8c-.2.3-1.6 5.2-1.7 4.1ZM58.6 80.2l3-9.3c.2-1 .7-2.3.6-3.2-.2 0-.1-.2 0-.3l.2.1.1.5c-.2 1.1-.4 2.2-.8 3.3-.8 3-1.8 6-2.9 9 0 .2-.3.1-.2 0Z"/><path class="cls-2" d="M59.3 78.1c1-3 2.2-6 3-9.2l.4-1.2.2-.2c.2.1-.1.7-.1.9l-2.3 7c-.1.3-1 3.7-1.2 2.7ZM59 81.3c1.5-4.4 3.4-8.8 4.3-13.4 0 .2-.4.1-.2-.1.5-1 .5.3.4.7-1.2 4.4-2.7 8.6-4.3 12.9 0 .1-.3.1-.2 0Z"/><path class="cls-2" d="m62.6 69.8.2-2.8c0-.4 0-.8-.3-1.1-.2.1-.3-.2 0-.3l.2.1c.5 1 .3 2 .3 3.1l-.1 1s0 .2-.2.2v-.2Z"/><path class="cls-2" d="M61.2 72V72l1-2.2c.2-.6.2-1.3.2-2l.2-.1c0 1 0 2-.4 2.8l-.8 1.6h-.2ZM59.7 52l-2.8-1.2c-1.6-.5-3.1-1.1-4.7-1.8l-3.8-1.5c-2.2-.8-4.5-1.8-6.6-3-.8-.4-1.8-.7-2.3-1.5-.2-1.4 1.4-2 2.6-2 2.6-.5 5.1.5 7.7 1l4.4 1c.8.1 1.7.5 2.5.9h-.1l-.6-.2h-.6l-2-.6c-3.4-.7-6.7-1.7-10-2-.9 0-1.7.1-2.5.3-.4.2-.9.4-1 .8-.2.3-.2.6 0 .9 2.8 2 6.3 3.3 9.6 4.5 4.1 1.7 8.4 3.2 12.4 5l1 .4-.3.1h-.1L62 53a26 26 0 0 1-2.3-1ZM70.5 52.3l-.1-.1.2-.3.4.8h.1-.1l-.2.1-.3-.5ZM67.5 50v-.1l.3.2-.3-.2Z"/><path class="cls-2" d="M70.5 52.5c-.8-2.5-3.4-3.7-5.6-4.9a46.7 46.7 0 0 0-9.7-4.2c0-.2.3 0 .5 0l3.9 1.3c2.3.8 4.5 2 6.6 3.2a10 10 0 0 1 4.2 3.5c.1.3.4.5.4.9 0 .1-.2.3-.3.2ZM62.4 53h.1c.7 0 1.3.2 1.9.3 1 .1 6.3 1.2 6.2-.5 0-.3.3-.2.2.1-.3 1.9-3.7.9-5 .9-1.2 0-2.2-.5-3.3-.6 0 0-.1 0 0-.1ZM34 52.7c.3-1.6 1.2-3 1.8-4.5.7-1.4 1.2-2 1.8-3.6.2-.4 1-3.2 1.6-2.6 0 .2-.1.4-.2.2-.9 1-1 2.5-1.6 3.7L35 51.3c-.2.3-.4 2-1 1.4Z"/><path class="cls-2" d="m66.2 66.1.1-.5a65.4 65.4 0 0 0 .4-1.6c1.1-3.7 3.6-10.6 4.3-9.9-2.3 3.5-3.2 7.7-4.3 11.7 0 .2-.2.5-.4.4Z"/><path class="cls-2" d="M64.3 73.2c1.1-3 1.7-6 2.7-9 .1-.2.1-.6.4-.5l-.1.5c-.7 2.2-1.4 4.4-1.9 6.7 0 .2-1 3.4-1 2.3Z"/><path class="cls-2" d="M63 77.6c1.1-3.8 2-7.8 3.2-11.6.1-.2.1-.7.4-.7.1 0 0 .3 0 .4-.8 2.4-1.5 5-2.1 7.4-.2.4-1.2 5.6-1.5 4.5Z"/><path class="cls-2" d="M62.8 78.4c1-2.8 1.8-5.8 2.6-8.7a31.8 31.8 0 0 1 1.1-3 26.6 26.6 0 0 0-.3 1.1L64 76c-.2.2-1 3.4-1 2.4ZM30.7 86.6c-1.3-1.6-2-3.5-2.4-5.5l.1-.2h.2a12.7 12.7 0 0 0 2.3 5.5c.1.1 0 .3-.2.2Z"/><path class="cls-2" d="M31.6 88.8c-1-1-1.5-2.4-2.2-3.6-.1-.4-.8-1.5-.3-1.7v.1c0 .4.2.7.3 1 .7 1.3 1.2 2.9 2.3 4 .2.1 0 .3-.1.2Z"/><path class="cls-2" d="M31.8 88.8c-1.3-.7-1.9-2-2.3-3.3-.2-.6-.6-1.4-.3-2 .1-.3.4-.1.3 0-.2.7.1 1.3.2 1.8.5 1.3 1 2.5 2.2 3.2.2 0 0 .3-.1.2Z"/><path class="cls-2" d="M32.6 89.5c-2.6-1.8-5.2-4.5-4.9-8 0 0 .3-.2.3 0-.3 3.4 2.2 6 4.8 7.8.1.1 0 .4-.2.3Z"/><path class="cls-2" d="M32.1 89.3c-1.8-1.3-2.8-3.4-3.5-5.5a55.1 55.1 0 0 1-.6-2.4l.2.1c0 .4.2.7.3 1 .6 2 1.3 4 2.6 5.6l1.2 1c.1.1 0 .3-.2.3Z"/><path class="cls-2" d="M32.4 88.7a7 7 0 0 1-3.3-5.4V83h.2a6.8 6.8 0 0 0 3.3 5.3c.1.1 0 .4-.2.3Z"/><path class="cls-2" d="M30.1 85a11.8 11.8 0 0 1-2.6-8.8c0-.1.3-.2.3 0-.5 3.2.7 6.1 2.5 8.6.1.2 0 .4-.2.2Z"/><path class="cls-2" d="M29.3 83.7c-1.8-2.4-3-5.7-1.4-8.5 0 0 .1-.1.2 0l-.2.5c-1.2 2.6 0 5.6 1.6 7.8.1.1 0 .3-.2.2Z"/><path class="cls-2" d="M29.4 83.5c-2.5-2-3.2-6.3-1.7-9.2 0-.2.3-.1.2.1-1.4 2.8-.8 6.8 1.7 8.8.1.1 0 .4-.2.3Z"/><path class="cls-2" d="M29 82.8a9.6 9.6 0 0 1-.6-10.5c0-.2.3 0 .2.1-1.8 3-1.7 7.4.6 10.1 0 .2 0 .4-.2.3Z"/><path class="cls-2" d="M28 83.1c-2-2.3-2.2-9.4-.1-11.6.3-.2.3.2 0 .2-1.8 2.6-1.7 8.8.3 11.2.1.1 0 .3-.2.2Z"/><path class="cls-2" d="M27.3 80.2c-1.1-3.9-.5-8.1 1.5-11.6 0-.1.3 0 .2.1-1.7 3-2.4 6.6-1.8 10 0 .3.6 2 0 1.5Z"/><path class="cls-2" d="M29 83.1c-2.1-3.2-2.4-7.5-.8-11 0-.2.3-.1.2 0-1.4 3.2-1.3 7 .3 10 0 .3.6.7.4 1h-.2Z"/><path class="cls-2" d="M29.6 85.4c-2-2.4-4-5.8-2.3-8.9.1-.1.4 0 .3.2-1.5 2.6.1 5.7 1.7 7.9.2.2.7.5.5.8h-.2Z"/><path class="cls-2" d="M29.5 87c-2.4-2.3-2.8-5.8-2.3-8.8 0-.2.3-.2.3 0-.6 3-.1 6.3 2.2 8.5 0 .1 0 .3-.2.2Z"/><path class="cls-2" d="M31 87.2c-2.6-1.8-4-5-4-8.1 0-.4.5-.3.2 0 0 2.8 1.2 5.7 3.5 7.5l.5.4s0 .3-.2.2ZM35.8 134H36.6l.8-.1c.2 0 .3-.2.4-.4.4-.1.8-.3 1.1-.6.3-.3.6-.7.5-1.2s0 0 0-.1v-.7c0-.4-.2-.7-.3-1l-.3-.5-.2-.3h-.1l-.2-.4-.1-.1c0-.2-.1-.4-.3-.5-.3-.4-.6-.8-1-1-.2-.4-1-.7-.8-1l.2-.2c.1-.2.3 0 .4 0 .3 0 .5.4.7.6.8.5 1.5 1.2 1.8 2.1 0 .3.3.4.4.6l.1.5.1.3.3.7.1.3.1.4v.5a4.7 4.7 0 0 1 0 .6c-.7 1.5-2.7 2.3-4.3 2a.3.3 0 0 1-.2-.5ZM34.4 90.7c-.2-.2-2.2-2.7-1.4-2.4l1.6 2.2s-.1.3-.2.2ZM87.2 101c-1-.8-2.2-1.4-3.3-2v-.2s0-.1.1 0l2 1c.3.3 2 1 1.2 1.1Z"/><path class="cls-2" d="M87 100.5a48 48 0 0 1-3.4-1.6h.2l2 .9 1.3.5c.2 0 0 .3-.1.3Z"/><path class="cls-2" d="M87.2 101a93.4 93.4 0 0 1-2.9-1.2s.2-.2.3-.1c1.8.7 3.5 1.5 5.4 1.7.7.8-2.5-.2-2.8-.3Z"/><path class="cls-2" d="M87.3 100.8c-.7-.8 4.4 0 4.1.5-.1.2-.6-.1-.8-.1-1-.3-2.2-.6-3.3-.4ZM85.2 99c-2.3-1.4-5-3-6.3-5.5h.2c1.2 1.5 2.5 2.9 4.2 4l2 1.3c.2.1 0 .3 0 .3Z"/><path class="cls-2" d="M82 96.8a10.7 10.7 0 0 1-3.4-4.3c0-.3-.3-.5 0-.7.2-.1.1.3.2.4a8.2 8.2 0 0 0 2.3 3.3c.2.3 1.8 1.4 1 1.3Z"/><path class="cls-2" d="M83.2 97.6c-1.6-1-3-2.1-4.1-3.7-.1-.2-.5-.7-.1-.7 1 1.7 2.6 3 4.3 4.2.1 0 0 .3-.1.2Z"/><path class="cls-2" d="M84 98.8a19.5 19.5 0 0 1-5-4.5v-.4h.4a18 18 0 0 0 4.9 4.6v.3H84Z"/><path class="cls-2" d="m83.2 98.3-3.3-3c-.5-.4-1.2-.8-1.5-1.5-.1-.3.2-.5.3-.2.5.7 1.2 1 1.7 1.6l2.5 2.2c.2.3.8.4.6.8h-.3Z"/><path class="cls-2" d="M83.9 98.4c-2.1-.9-4.4-1.8-5.2-4l-.4-.6c-.1-.1-.1-.3 0-.4 0 0 .2-.1.2 0 .7.7.9 1.8 1.7 2.5 1 1 2.5 1.4 3.9 2 .2.1 0 .6-.2.5Z"/><path class="cls-2" d="M82.8 98c-1.2-.4-2.5-1-3.2-2l-1-2.1c-.1-.1-.2-.3-.1-.4l.3.1c1.1 2.6 2.1 3.4 4.8 4.2l1.3.4v.3l-.2.2-2-.7Z"/><path class="cls-2" d="M84.3 98.2c-2.3-.8-4.8-1.8-5.5-4.3l.1-.4c.2 0 .5.1.3.3a5 5 0 0 0 3.1 3l2.2.8c.1.1.2.3.1.4l-.3.2Z"/><path class="cls-2" d="M84 98.8c-2-.7-5.3-3-5.7-5.2 0-.2.4-.1.2.1 1 2.4 3.6 4 6 4.8.3 0 .7 0 .6.4-.2.4-.7 0-1 0Z"/><path class="cls-2" d="M82.4 98.7a7.6 7.6 0 0 1-3.7-2.8c-.5-.4-1-1-1-1.6.1-.2.4-.3.5-.1l.1.4c.3.5.8.8 1.1 1.2.4.4.9 1 1.3 1.2l2 1c.2 0 .2.3.1.4 0 .2-.2.4-.4.3ZM106.1 75.6c0-.2.2-.3.4-.3s.2.3.1.4c0 .2-.2.3-.4.3s-.2-.3-.1-.4Z"/><path class="cls-2" d="M107.3 81c-1.2-6.2-3.3-12-4.5-18.2 0-.1.2-.3.2 0 1.1 5.3 2.9 10.5 4.1 16 0 .2.8 2.7.3 2.1Z"/><path class="cls-2" d="M108 85.4c-.4-4.2-2-8.4-2.6-12.4h.2l1.8 7.8c.1.3 1.3 5.3.5 4.6ZM105.9 86.1c0-4.2-1-8.3-1.5-12.3 0-.2.2-.2.2 0 .6 3.6 1.4 7.2 1.5 10.8V86l-.1.1-.1-.1Z"/><path class="cls-2" d="M105.1 88.9c1.2-5.8-.4-11.6-2.3-17 0-.2.2-.4.3-.2a32.7 32.7 0 0 1 2.3 17.2c0 .1-.3.2-.3 0ZM105.8 91.9c1.2-3.4 1.5-7 .5-10.4 0 0 .2-.2.2 0 1 3.4.8 7-.5 10.4 0 .2-.2.2-.2 0Z"/><path class="cls-2" d="M104.2 91.7v-.2l1.3-1.5a6.3 6.3 0 0 0 1.8-5.7l.1-.4c.1 0 .3.1.1.2.5 2.3-.3 4.7-2 6.3l-1.2 1.2c0 .1 0 .1-.1 0ZM59.9 74.9l2.8-8.9a100.4 100.4 0 0 1-1.5 5.5c-.2.3-1.1 4.4-1.3 3.4ZM59.6 76.7A229.4 229.4 0 0 0 65 62.4c-1.3 3.7-2.4 7.4-3.9 11-.1.3-1.4 4.3-1.5 3.3Z"/><path class="cls-2" d="M57.8 81.3v-.2l3.5-7.8c2-4.8 3.5-9.7 5-14.6l.2-.1v.1c-2.3 7.7-4.8 15.7-8.7 22.6ZM91.2 137.8c-.3-.1-1.9-.8-1.2-1h.1c.4.4.8.6 1.2.8.1 0 0 .3-.1.2Z"/><path class="cls-2" d="M90.5 137.5c-.2-.1 0-.4.1-.3l3.7.3.1.2s0 .1-.2 0c-1.2 0-2.5 0-3.8-.2ZM32.8 65.3C34.6 61.3 36 57 38 53c.2-.2.1.2.2.3 0 .1-.2.3-.2.1l-4.7 10.9c0 .3-.2.6-.4 1h-.2v-.1Z"/><path class="cls-2" d="M31.4 66.9v-.2c1-1.8 2.1-3.4 3-5.2 1.2-2 2.2-4.1 3.2-6.2 0-.1 0-.2.1-.1a234.5 234.5 0 0 1-2.4 5.2c-1 2.2-2.5 4.3-3.7 6.4 0 0 0 .1-.2 0ZM78.6 77.8c-1.1-3.9-1.9-8-1.7-12 0-.2.3-.2.2 0 0 3.4.5 7 1.3 10.3 0 .3.8 2.2.2 1.7ZM76.9 79.6c-.1-3.9-1.3-8.1-.3-12l.1.2-.1 1.2c-.2 2-.1 4 .2 6 0 .4.7 5.5.1 4.6Z"/><path class="cls-2" d="M77.3 76.4a42 42 0 0 1 .3-8.7c0-.1 0-.3.2-.3l.1.1a46 46 0 0 0-.4 6.4c0 .3.3 3.2-.1 2.5ZM73 59.8v-.1.2-.1ZM78 53.1h.1ZM86.4 105a5 5 0 0 1-1-.1l-.3-.2a7.5 7.5 0 0 0-.8-.4H84c-.9-.5-1.7-1-2.4-1.6-2.6-1.7-5-3.9-6.7-6.6-.9-1.5-1.5-3.1-1.8-4.8v-.9l-.1-1.5v-1.7l.3.3.2 1.8c.7 6.8 6 11 11.2 13.8l.1.1.2.2.5.4.8.5s.2 0 .3.2h.3c-.1.3-.3.5-.5.6ZM98.4 103.1a.6.6 0 0 1-.4-.4l.5-.4a13.7 13.7 0 0 0 1.7-1.7l.4-.4.1-.2.2-.2v-.1l.7-.4c1.3-1 2.4-2.4 3.5-3.7.9-.9 1.6-1.9 2.2-3l-.4 2-.2.4-.7 1.2c-1.6 2-3.4 3.6-5.3 5.1a27 27 0 0 0-2.2 1.8h-.1ZM91.7 131.8l-.1-3.2v-.9l.1-.6v-6l-.2-1.9v-1.6l-.1-.4a74.4 74.4 0 0 0-.8-5l-.3-.9-.5-3.8c-.2-1.5-1.6-1.9-2.7-2.4-.2-.1-.2-.3-.2-.5h.2c1 .4 2 .5 2.7 1.4.7.9.9 2.2 1.1 3.3l.7 4.6.3 1.8.1 1.8.2 2v1.9l.2 1.9v2l.1 1v2.3l-.1.6v.5l-.2.9-.2 1.4H91.6v-.2Z"/><path class="cls-2" d="m97 129-.5-1.2v-.6a277 277 0 0 1-.3-4l-.2-2v-1l-.1-1.1v-1.9c0-3 0-6 .2-8.9.2-1.6.2-5 2.1-5.2l.2-.1h.2c.3 0 0 .3-.2.3-1.8 1-1.4 3.9-1.5 5.7v10.5l.1 9.7v-.1ZM91.4 130.3c.2-.2.2-.4.2-.5v-1.3l.1-.7V121.2l-.1-2-.1-1v-.6l-.1-.3a74.4 74.4 0 0 0-.8-5l-.2-1-.2-.7-.2-.6-.2-1-.1-.5v-.2l-.1-.1-.1-.3-.2-.5-.3-.5-.2-.2-.2-.3-.4-.6-1.4-1H85l-.3-.2c.1-.1.3-.1.4 0l.7-.2h.8l.2.2h.5c2.1.8 2.7 2.9 3 5l1.2 8c.7 3.7.7 7.6.9 11.4v.2l-.1.5-.2.9-.1 1.4H91.8l-.2.1-.2-1.8Z"/><path class="cls-2" d="M97.5 130.3 97 129l-.3-.9-.3-5.3c-.3-3-.3-6-.3-9 0-2-.2-3.8 0-5.6.1-1.7.2-3.5 1.3-4.7l.7-.9c.1-.1.3.2.2.3-2.1 2.6-1.6 6.4-1.5 9.7 0 6 .5 12 1 18-.2 0-.2-.2-.3-.4ZM91.9 131.8c0-.2.1-.3.2-.3v.5h-.4l-.1.1h-.1l.4-.3ZM79 92.7c-2-3.9-2.9-8.3-3-12.7-.2-2.5-.2-5.2.7-7.5h.1c.2.2-.1.6-.2.8-.5 2-.5 4-.5 6 .2 3 .5 6.3 1.4 9.2.4 1.2.8 2.2 1.4 3.3 0 .2.5.8.2 1v-.1Z"/><path class="cls-2" d="M82.9 97.5c-5.8-4.2-7.8-9-8.1-16.4 0-.3-.2-.8 0-.9l.1.1.1 1.2c.3 6.2 2 11 6.7 14.7.2.2 1.8 1.2 1.2 1.3Z"/><path class="cls-2" d="M87 99.4C80.7 97 77.8 95 75 87.6c0-.2 0-.4.2-.2 2.7 7.2 5.6 9.2 12 11.7.2 0 .1.3 0 .3Z"/><path class="cls-2" d="M77.9 92.8c-3.2-4.4-4.7-11.6-2.6-16.7.1-.1.2-.6.4-.5v.2c-2 3.9-1.2 9 .3 13 .4 1 .8 2 1.4 2.9.2.3.7.7.6 1v.1h-.1ZM83.7 94c-6.3-5-6.5-12-6.5-19.7v-1.2l.1-.1.1.1c0 7-.1 15.1 5.5 19.8a77.9 77.9 0 0 1 .9 1.2Z"/><path class="cls-2" d="M88.2 98.1c-8-3.8-9.3-8.4-9.8-17.4 0-.2.2-.3.2 0 .5 8 1.5 13 8.7 16.6l1 .5V98.1h-.1Z"/><path class="cls-2" d="M90.9 100.7c-5-1.1-11.1-7-12-12.6 0-.2-.2-.8 0-1 .2.2 0 .7.2 1 .8 5 5.4 9.4 9.4 11.5.8.4 1.6.6 2.4.8.2 0 .1.3 0 .3Z"/><path class="cls-2" d="M86 97.3C81.8 91.6 81.1 84 79.8 77l.1-.2.2.1c.9 5 1.5 10 3.2 14.6.7 2 1.7 3.8 2.9 5.5l-.1.2H86Z"/><path class="cls-2" d="M86 100.2c-2.8-8-3-16.6-3.6-25V75l.2.1c.4 6.2.7 12.5 1.8 18.6a42.6 42.6 0 0 0 1.6 6.6Z"/><path class="cls-2" d="M84.1 94.8c-3.8-6.4-5.1-14-4.7-21.6l.2.1A38 38 0 0 0 83 92.1c0 .3 1.6 2.8 1.3 2.8H84Z"/><path class="cls-2" d="M84.9 99.6c-2.6-6-3-12.7-3.5-19l-.2-5.8v-.7h.2l.2 5c.4 5.5.7 11 2 16.3L85 99c0 .2.3.4.2.6H85ZM85.8 100c-1-8.3-1.8-16.6-2.5-25l.3.2a1158.7 1158.7 0 0 0 2.3 25l-.1-.2ZM87.3 99.5c-.5-2.6-.5-5.4-.9-8.2-.5-5.2-1.2-10.4-1.6-15.6h.2c.4 5 1 10 1.6 15.1.3 2.8.4 5.6.9 8.4 0 .1.1.3 0 .4h-.2ZM88.2 98.7a155.6 155.6 0 0 1 .2-9.4c0-4.1-.3-8.3-.4-12.4h.2c.3 7.4.8 14.8 0 22v-.2ZM88 76h.2-.3ZM89.5 95.8l.6-5.8c.1-3.6-.1-7.2-.2-10.8l-.1-2 .3.1.3 11.3c0 2.2-.2 4.5-.5 6.7l-.2 1.1v.1h-.1c-.2 0 0-.5-.1-.7ZM90.7 98.6v-.3C91 95.6 92 92.8 92 90c.3-4.1 0-8.2-.2-12.3h.3c.3 4.5.6 9 .1 13.3 0 2-.5 4-1 5.8 0 .6-.2 1.2-.4 1.7l-.1.1ZM93 98.3c-.3-.2 0-.7 0-1 .6-2.3 1.3-4.5 1.5-6.8.6-4.1.3-8.3-.1-12.5h.4c.5 5.5.7 11.1-.6 16.5l-1 3.7-.2.1ZM93.6 100.8l.1-.2 2.7-1.4c2.5-1.6 5-3.7 6.4-6.6-.3.2-9.4 8.4-7.6 5.6h-.3l-.1-.1c-1 .8.1-3.7.3-4 0-.2.3-.4.4-.5.4-.2.2.7.3.9 1.5-5.2 1.4-10.8 1.5-16.3h.3c0 5.6 0 11.3-1.5 16.6 1.8-3.6 3.5-7.3 4.5-11.3 0-1.7-.3-3.4-.4-5.1l.3-.1.2 2.9v1.4c.3-1.5.3-3 .2-4.5h.2c.2 1.8 0 3.7-.3 5.5 0 1.2 0 2.5-.2 3.7.7-1.4 1.3-2.8 1.8-4.3.2-.7.8-2.9.6-.7a25.5 25.5 0 0 1-7.7 16c2.7-1.9 5.2-4.1 7.7-6.3.4-.4.5-1.2 1.1-1.4.3 0 .2.4 0 .5-1 1.1-1.5 2.6-2.5 3.8-1 1.4-2.3 2.5-3.7 3.6 1.7-1 3.2-2.1 4.7-3.4h.2v.3l-1 .8a20.5 20.5 0 0 1-5.3 3.3l-2.7 1.4h-.2Zm4-7.2c-1 1.4-2.1 2.6-2.7 4.2l.2.1c1-.7 1.7-2 2.4-3.2 1-1.7 2-3.5 2.5-5.5a42 42 0 0 1-2.5 4.4Zm-2.3.9-.6 2.6c.6-.9.8-2 .8-3l-.2.4Zm5-9.3c-1 3.5-2.5 6.9-4.2 10 1.6-2.1 3-4.5 4.2-7.1.2-1.2.3-2.4.3-3.7l-.2.8Zm-.1 4.3c-.7 2.2-1.8 4.3-3 6.2 3-3.6 5.4-8.2 5.6-13.3-.6 2.5-2 4.6-2.6 7.1Z"/><path class="cls-2" d="M95.6 100.1c-3.8.1-10.3-.3-11-5.7l.1-.4c.2.1 0 .5.1.6.8 3.8 4.8 4.9 7.8 5.1l3 .1v.3Z"/><path class="cls-2" d="M94.5 100c-4.8.4-10.6-1-13-6.2-.1-.1 0-.4.1-.2.5 1 1.1 1.9 1.8 2.6 3.6 3.6 8.8 4 13.3 3.2.1 0 .2.3 0 .3l-2 .3h-.2Z"/><path class="cls-2" d="M95.6 98.2c-1.8.2-3.7.1-5.3-1-1-.6-2-1.8-1.5-3.1l.1-.1c.2.1 0 .5 0 .6.3 2.4 3 3.3 4.8 3.4.8 0 1.5 0 2.3-.2v.3h-.4Z"/><path class="cls-2" d="M86.9 96.3c0-.4.2-.4.2 0 .3 2.2 5.2 1.8 6.8 2l2.7-.2c.2 0 .2.3 0 .3-2 0-9.5 1-9.7-2Z"/><path class="cls-2" d="M95 100.5c-3 .1-11.6.5-12.1-4 0-.3.2-.3.2-.1l.1.6c1.2 3 6.7 3.2 9.2 3.3 1.2 0 2.5 0 3.7-.3l.1.1-.1.2-.8.1H95Z"/><path class="cls-2" d="M91.6 99.8c-5.3.7-12.5-1.3-14.2-7.8 0-.3-.2-.7 0-.9.2 0 .1.6.2.8 1 4.4 5.3 6.8 9 7.5 1.7.2 3.3.2 5 0l1.3-.1V99.6l-1.3.1Z"/><path class="cls-2" d="M93.8 101.6c-5 .6-15.6-4.2-16.2-10.7 0-.2.2-.2.3 0 .2 3.2 2.7 5.3 5 6.9 4.3 3 9.7 4.7 14.5 2.7.8.4-2.3 1-3.3 1l-.3.1Z"/><path class="cls-2" d="M93.6 102.4c-2.5.2-5-.5-7.3-1.9-.2-.1-1-.5-.6-.8v.1l.2.2c1.6 1 3.3 1.7 5 2 1.7.2 3.5.2 5.1-.6a24 24 0 0 0 1.7-1l.2.2v.2a9.5 9.5 0 0 1-3.9 1.5h-.4Z"/><path class="cls-2" d="M91.8 101.8c-.3 0-1.1 0-1.3-.4 0-.2.2-.3.2 0h.3c3 .5 5.4-1.9 7.8-3.4a68.7 68.7 0 0 0 1.9-1.2v.2l-3 2.1c-1.7 1.2-3.4 2.5-5.4 2.7h-.5Z"/><path class="cls-2" d="M92.6 100.3c-2.2.3-4.4.3-6.5-.6-.8-.4-1.7-.8-2.1-1.6 0-.3.3-.4.2 0 2.2 2.2 5.4 2.2 8 2a38 38 0 0 0 4-.5v.1c-1.2.3-2.3.5-3.5.6Z"/><path class="cls-2" d="M90.9 100.5c-1.7 0-5.6 0-5.7-2.5l.1-.2.2.2c0 .3 0 .6.2.8 2.6 2.1 6.2 1.3 9 1l2.4-.6c.2 0 .2.3 0 .3a35.5 35.5 0 0 1-6.2 1ZM94.3 101.4h.4c2-.7 3.4-2.2 5-3.5.2 0 .3.2.2.3-1.7 1.3-3.3 3-5.3 3.6-.2 0-.5-.3-.2-.4Z"/><path class="cls-2" d="M96.5 99.2c0-.1.1-.4.3-.3 3-.9 7.8-7.4 9.2-10.7.1-.1.4 0 .3.2-.8 2.4-6.7 10.5-9.3 10.8h-.4Z"/><path class="cls-2" d="M99.3 96v-.2l1-1.2c1.8-2.1 3.7-4.3 5-7 .8-1.8.7-4 .4-6 0-.2.2-.3.2 0a11 11 0 0 1-2.5 9.5 70.9 70.9 0 0 1-4.2 4.9ZM84.5 94.2c-2.6-1.1-5.5-2.5-6.8-5.5-1.8-3.7-2.5-10-.9-13.7.1-.1.4-.5.5-.2v.2c-.3 0-.4.3-.5.5-1.4 4.5-.6 11.5 2.4 15.1 1.5 1.6 3.4 2.5 5.3 3.3.2 0 .1.3 0 .3Z"/><path class="cls-2" d="M82.5 95c-6.7-4.4-7.5-12.2-6-20l.3-1s0-.1 0 0l.2.1-.3 1.5c-1.2 6-.8 13.4 4 17.6.1.2 2.5 1.8 1.9 1.8Z"/><path class="cls-2" d="M76.5 88.5c-1.3-4.7-3.3-12.8.4-16.4h.2c0 .3-.3.4-.4.6-2.4 2.7-1.7 7.7-1 11.2.2 1.5.6 3 1 4.4v.2h-.1ZM78.8 73.7v-.2l.3-.5.2.1-.3.5v.1h-.1ZM79.5 81.8a143.3 143.3 0 0 1 .8-8.2s.1 0 .2.1c-.5 2.6-.6 5.4-.7 8l-.1.2-.2-.1ZM80.5 85.3V85a3190.5 3190.5 0 0 1 0 .2ZM82 93c0-3.8-.2-12.6 1.1-18h.2l-.6 4.2-.5 7 .1 6.8-.1.2-.1-.1Z"/><path class="cls-2" d="m81.7 74.3.2.2a53 53 0 0 0-1.3 13c-.3-2.4 0-8.5 1-13.2ZM82 91.2c0-3.6.4-7 .8-10.6.2-1.8.4-3.6.8-5.4h.2c-.6 3.2-.9 6.5-1.3 9.7l-.3 3.8a212 212 0 0 0-.1 2.7l-.2-.2ZM82.6 93.6a2 2 0 0 1 0-.7c0-1.2 0-2.4.2-3.6a73.2 73.2 0 0 1 .1.8c0 1.1-.3 2.3 0 3.4l-.2.2ZM83.7 94.2c.2-3 .6-5.8 1-8.7l1.9-9.1h.2c-1.4 6-2.4 12.3-3 18.4-.2-.1 0-.5-.1-.7ZM85.5 93.2c-.5-3.5.5-7 1-10.3l1.4-6h.3l-.8 3.6c-.8 3.8-1.8 7.6-1.8 11.6l.1 1v.2h-.1l-.1-.1ZM88.1 76h.2v.1h-.2V76ZM87.7 96.6c-.4-.5-.5-1.2-.5-2a188 188 0 0 1 2.4-17.4h.2a171 171 0 0 0-2.4 16.2c0 .9-.1 1.8.2 2.6 0 .2.4.4.3.6h-.1Z"/><path class="cls-2" d="M88.1 98.5a1 1 0 0 1-.4-.8c0-1.9.3-3.7.5-5.5.7-5 1.6-9.8 2.5-14.7h.2c-1 6.2-2.2 12.4-3 18.6l.1 2c.1 0 .4.1.3.3h-.1ZM89.2 93.8l.9-3.3c1-4.2 1.7-8.5 2.6-12.7h.2c-1 5.5-2.1 11.1-3.5 16.6a27 27 0 0 0 2-4.8c.5-.4 0 1.1-.6 2.6L89.4 95c-.3-.2-.2-.8-.2-1Z"/><path class="cls-2" d="M89.7 98.2c-.2-.9.2-2 .4-2.9l1.3-6.1c.8-3.8 1.4-7.6 2-11.3h.4a331 331 0 0 1-3.9 19.7c.9-1.3 1.4-2.8 2.2-4.1 0-.1 0-.2.2-.1v.3l-1 2c-.5 1-.8 1.9-1.5 2.5h-.1Z"/><path class="cls-2" d="M92 98.6v-.2l1.2-4.2c.9-3.3 1.6-6.6 2.3-9.9-.9 3.5-2 7-3.5 10.1L91 96c0 .1-.1.1-.2 0 0 0-.1-.1 0-.2l1.4-4 2.6-9.3 1-4.4h.4c-1.3 5.4-2.6 10.9-4.5 16a49 49 0 0 0 3.5-9.8l1-3.7v-.2c.2 0 .2.2.2.3a160.4 160.4 0 0 1-3.9 16.9l2.9-6 .9-2.4c0-.1 0-.2.2-.1v.2l-2 5-2.3 4.2v.1H92Z"/><path class="cls-2" d="M93.4 99.7s-.1-.1 0-.2l.7-2.7a336.5 336.5 0 0 0 4-14A544.8 544.8 0 0 1 93.8 99c2.3-3.6 3.9-7.7 5.6-11.7l1.4-3.7s.1-.2.2-.1c.1 0 .2.2.1.3l-.8 2.7-2.5 7.8c.1.2-.9 3.5-1 2.3l3-9.1-3.7 8c-.8 1.5-1.4 3.1-2.5 4.2h-.2ZM90.8 90.6v-.2l2-6c.8-1.9 1.3-4 2.3-5.7l.4-.7h.3c-1.2 1.4-1.6 3.6-2.3 5.3L91 90.5h-.2ZM93.2 95.4c-.2-1 .3-2 .6-3L95 87l2-8.7h.3l-2 9-2 7.7.5-.7c0-.1.2-.1.2 0 .2.1-.6 1.1-.9 1.2Z"/><path class="cls-2" d="M94.1 96.3V96l2-8.4 2-9.3h.3l-1.3 6.1-2.2 9.6c0-.1.1-.4.3-.3v.3c-.2.7-.5 1.5-.9 2.2v.1h-.1ZM95.6 96v-.2l1-4.4 1-5.3.4-2.3.8-4.4h.1l.1.1-.4 2.4L98 85c-.5 2.7-.9 5.4-1.5 8a433.4 433.4 0 0 0 .9-1.8l-1 2.8-.6 2h-.1ZM96 98.2c-.4-.4 0-1.3 0-1.8l2.7-9.5 1.5-4.7c0-.3.4-.2.3.2-1.5 4.9-3 9.8-4.3 14.8.7-1 1.2-2.2 1.7-3.3h.3v.3l-.9 1.8-1.1 2c0 .1 0 .2-.2.2Z"/><path class="cls-2" d="m97 95.5-.1-.3c.4-1.6 1-3.1 1.5-4.7l2.7-7.3c0-.1.2-.2.3-.1.1 0 .1.3 0 .4-1.1 3.2-2.4 6.4-3.4 9.6l.5-1s.1-.1.2 0v.3l-1.5 3-.1.1H97Z"/><path class="cls-2" d="M97.6 92.8c-.2-.3 0-.9 0-1.2.3-2 .5-4 .9-5.9-.2 0-.4 0-.3-.2l1-2.8c.1-.2.3.1.2.3-.3.7-.5 1.5-.6 2.3.2 0 3-4.5 2.7-3.2-.5.6-1 1.1-1.3 1.7-.5.6-.8 1.4-1.5 1.9-.4 2.1-.6 4.3-.9 6.5v.4l-.1.2h-.1Zm.9-7.4V85.1v.3ZM99.3 95.4c-.1-1.4.6-2.7.9-4l3.1-11.3c.1-.3.5-.1.4.2l-4 14.4c.3 0 0 .7-.3.7Z"/><path class="cls-2" d="m98.9 96.8.1-.9h.2c.2.1 0 .5 0 .7 2.3-4.5 3.6-9.6 5.1-14.6 0-.1.3 0 .2.1-1.4 4.8-2.7 9.8-5 14.2 0 .3-.1.6-.5.7l-.1-.2Z"/><path class="cls-2" d="M96.3 98.4c-.2 0 0-.3.1-.3 1.9-1 3.5-2.5 4.7-4.3-.2.2-.8.5-1 0v-.5c.2 0 .1.3.2.4.2.1.3 0 .4 0 1-.6 1.6-1.7 2-2.7.8-1.4 1.3-2.8 1.8-4.3l.2-3.5c-.2 1-.6 2.1-1 3v.3l-1.8 3.3c-1 1.9-2 3.6-3.5 5-.2 0-.5 0-.4-.3l1.6-2.1c1.6-2.2 3.3-4.4 4.2-7l.9-3c.5-.9 0 3.7 0 4 .4-.1.2.4.1.6-.5 2.8-1.3 5.5-3 7.6-1.4 1.8-3.2 3.6-5.4 3.8Zm4.6-3.9c-1 1.4-2.3 2.7-3.8 3.5 3.5-1.2 6-5 7-8.7-.7 2-2 3.5-3.2 5.2Zm0-3.5-1.6 2.2-1 1.2c1.2-1 2.2-2.4 3-3.9l-.3.5Z"/><path class="cls-2" d="M98.6 99v-.3c.8-1 1.5-2 2.1-3.3 1.5-3 2.3-6.5 3.2-9.8 0-.2.3-.1.2 0-1.2 4.5-2.2 9.3-5 12.8 5-3.6 8.9-9.7 7.9-16.8 0-.1.2-.2.2 0 .6 4.6-.6 9-3.3 12.4a21.1 21.1 0 0 1-5.2 5h-.1Z"/><path class="cls-2" d="m103.6 95 1.3-3c1.9-4.6 1-9.7.3-14.5h.1l.2.2c.4 3.4 1 6.8.6 10.2-.3 2.4-1.1 4.5-2 6.6l-.3.4-.3.2Z"/><path class="cls-2" d="M101.9 92.2v-.3l2-2.5c2.7-3.5 2-6.5 1.2-10.6 0-.2.2-.3.2 0 .5 2.8 1.4 6 0 8.8a19.5 19.5 0 0 1-3.4 4.6Z"/><path class="cls-2" d="M104.9 91.9v-.3l.2-.7c2.4-4.7 1.4-8.7 0-13.4h.2c1.1 3.6 2.2 7.3 1 10.9a24 24 0 0 1-1.3 3.5h-.1Z"/><path class="cls-2" d="M104 91.4V91c.6-1.2 1.2-2.4 1.7-3.8 1.4-3.2 1-6.8.5-10.3v-.3h.1c.4 3 1 6 .2 9a30.1 30.1 0 0 1-2.4 5.7ZM76.3 82.5c-.7-2.6-1-8 .3-11l.2.2a18 18 0 0 0-.3 10.7l-.1.2-.1-.1Z"/><path class="cls-2" d="M76.5 87c-1.6-4.4-2.3-11.2-.2-15.6h.2a21.2 21.2 0 0 0-.6 12.9c0 .3 1 2.8.8 2.8h-.2ZM83.5 95c-5.4-4.6-5-10.4-4.7-17 0-.2.3-.3.3 0-.3 5.5-.8 12 3.7 15.9a61.1 61.1 0 0 1 .8 1h-.1Z"/><path class="cls-2" d="M88 98a9.6 9.6 0 0 1-6.6-4.9c-1.3-2.6-2-6.8-.4-9.3l.5-.3c.2 0 .2.3 0 .4a1 1 0 0 0-.4.3c-1.7 3.6-.2 9 2.7 11.4.9.7 1.9 1.3 2.9 1.6l1.4.5c.2 0 .2.3 0 .3Z"/><path class="cls-2" d="M89.4 96.6c-6.8-.5-10.2-9-9.4-15.8l.2-1 .1-.1.1.2-.1 1c-.7 5.4 1.2 12.2 6 14.5 1 .5 2 .8 3.1.9.2 0 .1.3 0 .3Z"/><path class="cls-2" d="M90 99.6c-4.6-1-9-4-11.1-8.9-.6-1.6-.6-3.4-.6-5.1 0-.2.3-.2.3 0 0 1.7 0 3.4.5 5A15.1 15.1 0 0 0 90 99.3v.3Z"/><path class="cls-2" d="M89.4 100.2c-3.2-1-7.7-3.8-8.6-7.7 0-.2.2-.2.2 0 1 3.4 4.5 5.7 7.3 7l1.1.4c.2 0 .2.3 0 .3Z"/><path class="cls-2" d="M93.3 100a17 17 0 0 1-12-3.8c-1.3-1.2-3.5-2.7-2.8-4.7 0-.2.3-.1.2 0l-.1 1.2c1.3 3 6 5.8 9 6.5 1.4.3 2.9.4 4.3.4h1.4c.2 0 .2.3 0 .4Z"/><path class="cls-2" d="M95.9 98c-4 .4-8.3-.2-12-2.3-2.2-1.3-4.7-2.9-5.2-5.9 0-.2-.3-.6 0-.7.3 0 .2.6.3.8a7 7 0 0 0 3.4 4.4 19.2 19.2 0 0 0 13.4 3.3c.1 0 .2 0 .2.2l-.1.2Z"/><path class="cls-2" d="M81.2 88.3c0-.2-.2-.7 0-.9l.2.2.1 1.1c1 6 7 8.4 11.7 8.6h3.5c.2 0 .3.4 0 .4-5.8.5-14.6-1.4-15.5-9.4Z"/><path class="cls-2" d="M95.7 96a17 17 0 0 1-9.7-2.8c-1.7-1.1-3.7-2.4-4.2-4.6V88c.2 0 .2.3.2.4.7 3 5.2 5.3 7.7 6.3 2 .7 4 .9 6 1 .2 0 .2.2 0 .2Z"/><path class="cls-2" d="M96 96c-3.6.1-13.7-2.2-12.7-7.8l.1-.1c.2.1 0 .5 0 .8 0 3.9 5.9 5.7 8.6 6.4 1.3.3 2.6.4 4 .5v.3Z"/><path class="cls-2" d="M96 95.6c-8.2 1-12.5-.6-14.8-10.2 0-1 .6 1.8.8 2 1.8 6.5 5.8 8.5 11.6 8.1l2.5-.2v.3h-.2Z"/><path class="cls-2" d="M87.3 94.2c-2.8-.7-9-.7-9.7-4.6-.3-1 0-2.1.3-3.1.1-.3.1-1 .5-.8.3.3 0 .7-.1 1-.4 1.1-.7 2.3-.2 3.4.9 2.2 4.5 2.7 6.3 3l3 .6c.2 0 .1.5 0 .5h-.1Z"/><path class="cls-2" d="M84 93a12.3 12.3 0 0 1-4.7-5.2 17 17 0 0 1 .2-12.3c0-.3.2-.5.3-.7 0 0 0-.1.1 0a16.3 16.3 0 0 0-.4 1.4C78 80 78 85.2 80.2 89c1 1.5 2.4 2.6 3.8 3.6.1 0 .1.2 0 .2ZM78 88.2c-2.6-2.6-2.7-7.3-1-10.4h.2c.1.2 0 .4-.1.5a9.1 9.1 0 0 0-.1 8c0 .3 1.5 1.8 1.1 1.9H78Z"/><path class="cls-2" d="M79 88a6.3 6.3 0 0 1-2.6-5.7c.1-2.7.7-5.4 1.2-8 .5-.6 0 1.4 0 1.6-.5 3.4-2 7.9.3 10.7l1.2 1.1v.3Z"/><path class="cls-2" d="M80 95.4c-3-3-3-8-3.3-12 0-2-.3-4.2.6-6 0-.1.1-.5.3-.4v.2l-.5 1.3c-.4 1.7-.2 3.5-.2 5.2.1 3 .3 5.9 1.4 8.6.4 1 .9 2 1.6 2.7.2.1.2.4.1.4Z"/><path class="cls-2" d="M83.2 94.8c-5.2-4-6-11.4-6.3-17.9l.1-.2.1.2c.4 5.8.8 12.5 5.1 16.6l1.1 1c.1.2 0 .3 0 .4h-.1Z"/><path class="cls-2" d="M88.8 95.3c-6-1.6-8.5-6.5-9.3-12.8-.2-.4-.3-4 .4-3.5.1.2-.1.4-.1.5-.6 4.3 1.4 10.6 4.6 13.2 1 .8 2 1.4 3.2 1.8l1.2.5.1.2v.1h-.1Z"/><path class="cls-2" d="M91.4 95.9a17.6 17.6 0 0 1-11.3-14c0-.3-.1-.7 0-.8.3 0 .2.7.3 1 1 5 4 10 8.3 12.3.9.5 1.8.9 2.8 1.2v.3h-.1Z"/><path class="cls-2" d="M95.4 93.8C91 93.3 85.5 92 84 86.6c0-.2.2-.3.3-.1 1.1 4.7 6 6.2 9.8 6.8l1.2.2c.2 0 .1.3 0 .3Z"/><path class="cls-2" d="M96.3 94.4c-2.5 0-5.2-.2-7.5-1.6-2-1.2-4-3.2-4.4-5.9l.1-.1c.2 0 .1.3.2.4.8 4 4.7 6.2 8 6.6l3.6.3c.2 0 .2.3 0 .3Z"/><path class="cls-2" d="M95.3 93.6c-1.5 0-9.3.3-9.4-1.8 0-.2.2-.3.3-.1.2 1.3 2.7 1.2 3.6 1.4 4 .5 8.1.2 11.9-1.3.1 0 .2.2 0 .3a26 26 0 0 1-6.4 1.5ZM100.3 91c-3.9.3-7.8.1-11.4-1.7-1.6-.9-3.7-2-3.9-4.3 0-.2.2-.2.3 0v.2c.7 3.3 6.4 5 9 5.4 1.6.2 3.2.2 4.7.2h1.3v.2Z"/><path class="cls-2" d="M95 89.4c-1.9.2-3.7 0-5.6-.3-1-.2-2-.3-2.8-1.1-.3-.4-.3-1-.3-1.6l.1-.3.2.2c0 .5 0 1 .3 1.4.7.5 1.5.7 2.3.8 1.6.3 3.3.6 5 .5 1.9-.1 3.8-.6 5.4-1.7l1-.8h.3c.1.3-.2.4-.4.6a10 10 0 0 1-5.3 2.3H95Z"/><path class="cls-2" d="M95.8 88.9c-2.6.3-5.4-.3-7.5-2.2-.8-.8-1.9-2-1.2-3l.1-.1c.2.2 0 .3 0 .5l-.1.5c1.4 3 5 4.2 7.7 4a14 14 0 0 0 4.9-1l.7-.3.1.1v.2c-1.5.6-3 1-4.4 1.3h-.4Z"/><path class="cls-2" d="M95.8 89.1c-4-.7-9.4-2-11-7l.1-.2c.2 0 .2.2.3.4 1.3 3.7 5 5.3 8.3 6l2.4.5v.3Z"/><path class="cls-2" d="M95.1 90.5c-5.3-.6-12.3-3.7-12.3-10.7l.1-.4c.2 0 .1.4.1.5.1 5.7 5.3 9 9.7 9.8l2.5.5v.3Z"/><path class="cls-2" d="M92.3 94c-3.8.5-7-1.3-7.4-6-.3-1.3-.4-2.7-.5-4l.1-.4c.2 0 .3.2.3.3.2 2.4.4 5 1.4 7.1.8 1.4 2.4 2.1 3.8 2.4 3 .3 5.9-.7 8.6-2 .1 0 .4-.3.5 0 .2.5-.4.5-.6.7-1.9.8-3.8 1.6-5.8 1.8h-.4ZM84.7 76.4v-.8h.1v.1l.1.8c1.4 6 6.9 9.6 12 10.9l3.1.5h.4c.2.1.5.1.5.3v.2h-.1A24 24 0 0 1 95 87c-4.8-1.7-9.2-5-10.3-10.7Z"/><path class="cls-2" d="M100.3 86.8c-7.2.5-10.8-1-16.2-6.6-.1-.1 0-.4.1-.3 5 5 8.4 7 15 6.6a39 39 0 0 0 1.3.1c0 .1 0 .2-.2.2ZM94.9 80.3c-1.4-.8-2.7-1.7-4-2.8h.4l.2.1 3.5 2.5v.2h-.1ZM84.5 75.5l.1.1h.2v.1c2.3 4.2 6.5 6.8 10.6 7.9 1.2.3 2.5.4 3.8.6v.3c-1.8 0-3.7-.5-5.5-1.1-3.8-1.4-7.4-4-9.2-7.9Z"/><path class="cls-2" d="M95.7 83.4c-3-1.6-5.6-4.1-8.1-6.6l-.1-.1.5.1a56.1 56.1 0 0 0 7.8 6.7ZM92.4 77.7H92.7c1 1.3 2.3 2.3 3.6 3.1 1 .7 2 1.2 3 1.7.2 0 .2.3 0 .3-2.6-1.1-5-2.8-7-5ZM94.6 78h.4a11 11 0 0 0 5.5 3.6l.8.3V82.2l-1.3-.4c-2.2-.8-4-2-5.4-3.8ZM95.8 78l.3.1h.1l1.5 1 2.9 1v.3h-.1l-1-.3c-1.4-.4-2.6-1.1-3.7-2ZM100.9 79l-.8-.6H100.4l.6.3v.3h-.1Z"/><path class="cls-2" d="M100.4 81c-1-.8-2-1.7-3-2.8h.4l1 1.2 1.7 1.4v.3Z"/><path class="cls-2" d="M99 80a8 8 0 0 1-2-1.8h.4l.6.7 1 .8c.2.1.1.3 0 .3ZM100.6 78.3V78h.2l-.1.3-.1-.1ZM100.3 78.5v-.1s.2 0 .2-.2v.4l-.1-.1Z"/><path class="cls-2" d="M100.5 79a12 12 0 0 1-.4-.6H100.4l.3.4v.2h-.1Z"/><path class="cls-2" d="M101.3 81.9a100.5 100.5 0 0 1-.8-3.6l1 3.5v.2h-.1v-.1ZM102.3 85.4c-.2 0-.2-.4.1-.3l.1-.4c0-1.7-.2-3.3-.4-5L102 78h.2l.2 2c0 .7 1 5.4 0 5.5Z"/><path class="cls-2" d="m102.2 77.9.2-.1.6 7.3v.6c-.5-2.5-.6-5.3-.8-7.8ZM103.6 85.5c0-2-.3-4.1-.6-6.2l-.2-1.7h.2l.5 3.8.3 4v.2h-.1l-.1-.1Z"/><path class="cls-2" d="M102.3 89v-.2c.6-1 1.2-2.2 1.4-3.4.3-2.6 0-5.2-.3-7.8h.2c.3 2.5.6 5 .4 7.5a9.7 9.7 0 0 1-1.6 4V89Z"/><path class="cls-2" d="M102.5 92.5c-.4-.6 0-1.5.3-2.1.4-1 .8-2 1-3.1.3-1.6.5-3.2.6-4.9l.3-.2a257 257 0 0 1-.2 3c.6 0-.2 1.5-.2 1.8-.2 1.7-.5 3.5-1.3 5-.1.1-.2.5-.4.5h-.1Z"/><path class="cls-2" d="M104.2 89c-.2-.3 0-.7 0-1 .6-2.1.9-4.3.9-6.5-.4 0-.2-.7-.2-1 0-.2.1-.9.4-.8l.2.2c0 2.7-.2 5.4-.8 8a10 10 0 0 0 1.5-5l.1-2.9.1-.1.1.1v1.2a12.4 12.4 0 0 1-2 7.7l-.1.1h-.2Z"/><path class="cls-2" d="M101.9 92.6a31.2 31.2 0 0 0 2.7-15h.2a27.1 27.1 0 0 1-3 15Z"/><path class="cls-2" d="M100.6 94a34.8 34.8 0 0 0 4.3-15.8l.3.1a32.2 32.2 0 0 1-4.6 15.8Z"/><path class="cls-2" d="M105.5 91.4v-.2c.4-1 .8-2.2.8-3.4.1-3.4-.7-6.9-1.2-10.3h.2l1.1 7.1a11.3 11.3 0 0 1-.9 6.8Z"/><path class="cls-2" d="M106 89.3c-.2 0-.2-.1-.1-.2l.7-1.8c1-3.2.2-6.5-.5-9.8l.1-.6c.7 3.5 1.8 7.1.6 10.6a14.2 14.2 0 0 1-.8 1.9ZM105.7 75.2v-.4l.1.1v.4l-.1-.1Z"/><path class="cls-2" d="M104 92.7c3.7-6.8 3.8-7.9 2.7-16 0-.2.2-.2.2 0 .5 4 1.3 8.1-.5 11.8a33.1 33.1 0 0 1-2.3 4.2h-.1ZM82.6 95.8c-2-1.2-3.8-3-4.4-5.5-1.1-4.6-.6-9.3 0-13.9 0-.3.2-3 .5-2.2l-.4 2.7c-.5 5.2-1.4 11.3 1.3 16 .7.8 1.4 1.5 2.2 2a43.4 43.4 0 0 0 1 .8l-.2.1Z"/><path class="cls-2" d="M89.7 96.7c-4-2-10.4-3.7-10-9.9 0-.2.3-.2.3 0-.5 5.5 4.9 7.5 8.6 9l1.2.6v.2h-.1Z"/><path class="cls-2" d="M88.9 97.5c-3.7.1-9.4-2.2-8.1-7.4 0 0 0-.2.1-.1.2 0 0 .4 0 .5-.8 3.6 2.5 5.8 5.2 6.4 1 .2 2 .4 3.1.3.1 0 .2.2 0 .3H89Z"/><path class="cls-2" d="M89.5 99a16.2 16.2 0 0 1-9.4-7.2c-.6-1.2-1.3-2.6-1-3.9 0-.1.2-.4.3-.2v.2l-.2.3c.2 3.8 3.8 7.2 6.7 9 1 .5 2 1 3 1.3l.7.2v.4Z"/><path class="cls-2" d="M89.3 97c-2 0-3.9 0-5.6-1-2-.8-3.7-2.8-4-5.2 0-.4.3-.2.3.1.7 3.6 4 5.7 7.1 5.7h2.2c.1 0 .1.4 0 .4Z"/><path class="cls-2" d="M87.8 99.1c-5.8-1.4-10.2-6.8-12.2-13 0-.1.1-.3.2-.1 1.8 5.6 5.8 10.7 11 12.5.4 0 .7.2 1 .3.2 0 .2.3 0 .3Z"/><path class="cls-2" d="M87.3 99.8c-1-.8-2.4-1.6-2.6-3.1v-.2c.2 0 .2.3.3.5 1.8 3.4 6 4 9.2 4H97c.2-.1.2.2 0 .2-3.2.2-6.7.4-9.7-1.4Z"/><path class="cls-2" d="M94.2 99.7c-2.2.1-4.4-.5-6.5-1l-.1-.1.1-.2 2.2.5c2.4.5 5 .8 7.3 0l.7-.3.2.1v.2c-1 .4-2 .6-3 .8h-.9Z"/><path class="cls-2" d="M88.9 101.7v-.2c1.9-.3 3.7-.4 5.5-1.1.9-.5 1.6-1.2 2.2-2 0-.1.1-.1.2 0l-.2.4a6 6 0 0 1-4.2 2.5l-3.4.6-.1-.2Z"/><path class="cls-2" d="M92.5 101.7c-3.1 0-6.4 0-9.2-1.7-1.5-.8-3-2-3-4 .2-.1.2.2.2.3.4 3.3 5.6 5 8 5l4 .1c.2 0 .2.3 0 .3Z"/><path class="cls-2" d="M91.2 101.2c-4.6-.3-9.7-2.1-12.2-6.8v-.2c.2-.1.3.4.5.6 2 3.2 5.4 5 8.8 5.7l2.9.4v.3Z"/><path class="cls-2" d="M93.3 102c-6.5-1.1-9.7-3.7-14.6-8.4-.2 0-.2-.5 0-.3 3.6 3.3 7.3 6.7 11.9 7.7l2.7.7v.3ZM91.5 130.2v-.3h.2l.1-.1h.5v.8l-.2 1c-.5-.2-.6-.8-.6-1.4ZM97.6 130.5l-.1-.2-.5-1.2-.2-.4h.4l.2-.1h.4v.4l.4 1c-.1.2-.3.4-.6.5Z"/><path class="cls-2" d="M91.8 131.7a1 1 0 0 1-.3-.6l-.1-.8.2-.4h.2l.2-.1H92.3v.8l-.2 1.3c-.1 0-.3 0-.4-.2ZM99.1 132c-1.1 0-1.2-1.4-1.2-2.6l.5 1.1.4.7.2.3c0 .2.1.2.2.2v.2h.3v.1h-.4Z"/><path class="cls-2" d="m98.6 132.3-.2-.3-.1-.2h1l.2.2.3.2h-1.2Z"/><path class="cls-2" d="M100 132.6h-1.3v-.2l-.2-.3h1.2v.1l.4.4h-.1ZM97.5 130.3l-.2-.4c0-.5.3-1 .5-1.3v.5l-.3 1.3v-.1ZM91.6 137c-.3 0-.5-.2-.6-.5 0-.2.3-.2.3 0l.5.3c2.8 1 6 .6 8.6-.9.1 0 .3 0 .4.3.2 1-3 1.4-3.7 1.5H97c-1.8.3-3.6 0-5.3-.6ZM89.5 135.4a.3.3 0 0 1 0-.4c.8-1.6 2-3.2 2.1-5.1l.2-.1h.5l-.3 1.8a5.8 5.8 0 0 1-1.4 3l-.4.2c-.2.1-.3.6-.5.6h-.2Z"/><path class="cls-2" d="M101.5 134.8c-.2 0-.3-.2-.3-.4l-.9-.4-.1-.1a6 6 0 0 1-.4-.3c-.2 0-.3-.2-.4-.3a12 12 0 0 1-.7-.6v-.3l-.3-.4c.5.3.9 1 1.4 1.2.7.4 1.6.5 2.3.8.3.4 0 .7-.4.7h-.2Z"/><path class="cls-2" d="M100.3 133.3c-.6-.6-3-2.1-2.4-3.1h.3c0 .3 0 .4.2.6a6.3 6.3 0 0 0 .5.7l.2.2.2.1.2.2.3.2c0 .2.2.3.3.4l.4.3c.2.2.1.5 0 .5h-.2Z"/><path class="cls-2" d="m101.3 144.3-8.5.9c-2.6.2-5.4.4-7.8-.7-1.2-.7-2.7-1.3-3.5-2.6-1.1-2.6 1.5-4.6 3.2-5.8 1.5-1.2 3.8-1.2 5-2.8-.2-.1 0-.4 0-.5.6 0 .3.7 0 1-1.5 1.4-3.8 1.6-5.3 3.2-2.3 1.7-4 4.2-.5 6 1 .6 2.2 1.2 3.5 1.2a29.3 29.3 0 0 0 5 .1h.1c3-.3 6.1-.8 9.2-1 1.8 0 3.5-.6 5.2-1.3 1.6-.8 4-1.2 4.5-3.2 0-.7.3-1.6-.1-2.2a17.3 17.3 0 0 0-5.5-3.3c-.7-.5-3.7-.2-4.4-.8v-.2l-.1-.3c0-.2.2-.3.3-.2 2.5.3 5 .5 7 2.2 1.1.8 2.6 1.3 3.2 2.6.7 2.1-.4 4.4-2.3 5.1a24.2 24.2 0 0 1-7.3 2.5h-.9Z"/><path class="cls-2" d="M97.3 145c-2.8.4-5.6.3-8.4-.3-2 0-7-.4-7-3.3v-.7c.2-.1.4.2.2.3-.2 1.7 1.6 2.4 2.8 2.8 1.2.6 2.6.4 4 .5 1.8.3 3.6.4 5.4.4a51.4 51.4 0 0 0 13.4-2.4c.1 0 .2 0 .3.2 0 .1 0 .3-.2.3l-1.3.5a47 47 0 0 1-7.8 1.6l-1.4.1Z"/><path class="cls-2" d="M99.1 144c-.3-.1-1.5.2-1.3-.4 1.1-.6 2.5-.5 3.8-.9 2.4-.8 4.9-1.9 7-3.3.2-.1.3-.3.4-.2.1.1 0 .3 0 .4-1 1.1-2.6 1.4-4 2.1-1.9 1-4 1.6-6 1.9 2.4-.2 4.8-1 7.2-1.6 1.8-.5 3.9-1 5.2-2.6.2-.1.4.1.2.3-1.7 1.9-4.3 2.3-6.6 3-1.7.5-3.5 1-5.3 1.2H99ZM93.3 144.2l.8-.2h.6l-1.4.2Z"/><path class="cls-2" d="m95.9 143.7.1-.1h.3c.2 0 .2-.2.2-.4l3.6-.6c3.1-.5 6-2 8.6-3.7l.8-1c-.1-.3.2-.2.4-.2.3.2 0 .6-.2.8a23.2 23.2 0 0 1-12.2 5l-1.7.2ZM73.1 91.8c-1-5.9 0-11.9-.2-17.8l-.9-9.3-.2-2h.3c.1 1.6.5 3.1.6 4.6.7 4.2 1 8.6.8 13 0 2.9-.3 5.9 0 8.9l.3 2.4c0 .2 0 .4-.3.5-.2 0-.3-.1-.4-.3ZM105.7 96.1c.2-.8.9-1.3 1.2-2 .6-1 .8-2.2 1.2-3.3 1-3.2.4-6.8 0-10.1 0-1.5-.3-3-.5-4.3v-1.2l-.2-.3v-.5l-.1-.4-.2-1v-1.5l-.1-.5-.2-.9-.4-2.1v-.8l.5 2.2a88.6 88.6 0 0 1 2.6 17.3V88l-.1 1.2-.2.4-.2 1-.3.6-.1.4-.3 1-.2.6-.2.3h-.2l-.3.4-.1.2-.2.3-.4.7-.8 1.4-.1.2v-.4ZM106 65.7a22 22 0 0 1-.2-1l-.4-3v-2.9.3a9.6 9.6 0 0 0 .1 1v.2l.2.1v2.4c0 1.2.2 2.4.5 3.5l-.2-.6ZM105.3 57.5l.1.3-.1.3v-.6ZM76.4 77.2c-.3-2 0-3.9-.1-5.8l.2.1v5.3c0-.1.2 0 .2.2l-.2.2h-.1ZM75.5 76.5c0-1.1 0-2.2.2-3.3 0-.7 0-1.5.2-2h.2c-.3 1.4-.2 2.9-.3 4.3a32.7 32.7 0 0 1-.2 1.1v-.1Z"/><path class="cls-2" d="m75.5 77.3.2-4.8V71l.2.2c0 2-.2 4.1-.1 6.2l-.1.1-.2-.1Z"/><path class="cls-2" d="M75.5 77.8c0-.3-.2-5.3 0-7l.2.1a93.1 93.1 0 0 0-.1 7h-.2Z"/><path class="cls-2" d="M75 79.8v-3c.1-2 0-4 .3-6v-.2l.2.2c-.4 2.3 0 4.7-.2 7a62.7 62.7 0 0 0 0 2.1h-.1l-.1-.1Z"/><path class="cls-2" d="M75.2 75.9c0-1.8 0-3.5.2-5.2l.2.1-.2 5v.2h-.1V76ZM100.7 80a47.4 47.4 0 0 1 0-1.9 60.7 60.7 0 0 0 .1 2ZM101.9 82.9l-1-4.8h.3a49.1 49.1 0 0 0 .8 4.9l-.1-.1ZM102.2 81.2l-.4-3.3h.3l.4 3.3-.1.1-.2-.1ZM103.2 81.7l-.5-4 .2-.1c.3 1.6.6 4.2.4 4.2l-.1-.1ZM103.8 80.6l-.4-3h.2c0 .3.6 3 .3 3h-.1ZM104.6 81l-.4-3.3h.2c.2 1.4.5 3.4.3 3.4h-.1ZM105.4 80.2l-.4-2.7h.3l.3 2.7-.1.1h-.1Z"/><path class="cls-2" d="M105 78v-.5h.3v.6h-.1l-.1-.1ZM106.2 81a175.9 175.9 0 0 1-.2-3.5l.5 3.5-.1.2-.2-.1ZM105.7 75v.2-.2ZM93.9 53.4c-1 0-2 0-3 .2l-4.7.4-4 .3c-2.3.3-4.7.4-7 .3-.8 0-1.9.2-2.6-.4-.9-1.2.3-2.5 1.2-3.1 2.1-1.6 4.8-1.8 7.2-2.5 1.3-.5 2.8-.7 4.1-1.2l2.7-.3h-.1a4.6 4.6 0 0 0-.9.3 1.4 1.4 0 0 0-.2.2c-.7 0-1.4.2-2 .3-3.2 1-6.5 1.4-9.5 2.8a8 8 0 0 0-2 1.4c-.3.3-.6.7-.6 1.2 0 .3.1.6.4.8 3.4.6 7 .2 10.3-.2 4.4-.3 8.6-.8 13-1h.9l-.1.2h-.1l-.5.1-2.5.2Z"/><path class="cls-2" d="M96.7 53.1V53l1.8-.6c1-.3 6-1.7 5.1-3.2 0-.3.3-.3.3 0 .5 1.9-2.8 2.5-4 3-1 .5-2 .6-3 1h-.2ZM72.1 65.8c-.4-1.6-.3-3.4-.4-5 0-1.6.1-2.4-.1-4.2 0-.5-.5-3.4.3-3.2 0 .1 0 .4-.2.3-.2 1.4.3 2.8.4 4.2 0 2 0 4 .2 6 0 .4.4 1.9 0 1.9H72ZM105.8 63.6l-.2-.6a520.8 520.8 0 0 0-.3-1.7c-.7-3.9-1.6-11.4-.7-11-.5 4.2.7 8.6 1.4 12.8.1.2 0 .5-.1.5h-.1Z"/><path class="cls-2" d="M107.3 71c-.4-3.2-1.3-6.4-1.7-9.7 0-.1-.2-.4 0-.5.3 0 .2.3.2.5l1.3 7.1c0 .3.6 2.8.3 2.8l-.1-.1Z"/><path class="cls-2" d="M108 75.8c-.7-4.1-1.7-8.2-2.3-12.3 0-.3-.2-.7 0-.9.2 0 .1.3.2.4l1.4 8c0 .3 1.2 4.8.9 4.9l-.1-.1Z"/><path class="cls-2" d="M108.2 76.6c-.4-3.1-1-6.2-1.6-9.2a38.3 38.3 0 0 1-.3-3.4l.1.1.1 1 1.6 8.8c0 .2.5 2.8.3 2.8h-.2ZM84.2 98.9a12 12 0 0 1-4.5-4v-.3h.1A13 13 0 0 0 83 98l1.3.7v.3h-.1Z"/><path class="cls-2" d="M85.9 100.6c-1.4-.5-2.4-1.6-3.5-2.4-.3-.3-1.3-1-1-1.5l.1.1c.1.4.4.6.7.8 1.2 1 2.3 2.2 3.8 2.7v.3h-.1Z"/><path class="cls-2" d="M86 100.4c-1.3 0-2.4-1-3.4-2-.4-.4-1-1-1.1-1.7 0-.3.3-.3.3 0 0 .6.6 1 1 1.5.9 1 2 1.8 3.3 1.9v.3Z"/><path class="cls-2" d="M87.1 100.8c-3-.5-6.4-1.9-7.7-5.2 0-.2.1-.3.2-.2 1.2 3.3 4.6 4.6 7.6 5 .1.1 0 .4 0 .4Z"/><path class="cls-2" d="M86.6 100.8c-2.2-.3-4-2-5.5-3.5a42.5 42.5 0 0 1-1.5-2h.2l.7.9c1.4 1.5 2.9 3 4.7 3.9l1.4.4c.2 0 .2.3 0 .4Z"/><path class="cls-2" d="M86.6 100a6.9 6.9 0 0 1-5.3-3.4v-.3h.2c1.1 2 3 3.3 5 3.5.2 0 .2.3.1.3Z"/><path class="cls-2" d="M83 97.7a12.2 12.2 0 0 1-6.1-7c-.1-.2.1-.3.2-.2a12 12 0 0 0 6 7v.2h-.2Z"/><path class="cls-2" d="M81.7 96.8c-2.6-1.4-5-4-5-7.3l.2-.1c.2 0 0 .4 0 .6.2 3 2.5 5.2 4.9 6.5v.3h-.1Z"/><path class="cls-2" d="M81.7 96.6c-3.1-.8-5.5-4.4-5.5-7.8 0-.2.2-.2.2 0 0 3.2 2.3 6.7 5.3 7.4.2 0 .2.3 0 .4Z"/><path class="cls-2" d="M81 96.1c-3.2-1.6-5.3-5.7-5.1-9.5 0-.2.2-.2.2 0-.2 3.7 1.8 7.7 5 9.2v.3Z"/><path class="cls-2" d="M80.3 96.9c-2.8-1.2-6-7.8-5.2-10.8.2-.3.3 0 .1.2-.4 3.2 2.4 9 5.2 10.3v.3Z"/><path class="cls-2" d="M78.4 94.5c-2.7-3.1-4-7.4-3.8-11.5 0-.2.2-.2.2 0-.1 3.6.9 7.2 2.9 10.1.1.3 1.1 1.3.8 1.4h-.1Z"/><path class="cls-2" d="M81 96.5c-3.1-2.2-5.3-6-5.4-10 0-.2.2-.2.2 0 .2 3.6 2 7 4.7 9.2.2.2.8.4.7.7H81Z"/><path class="cls-2" d="M82.7 98.3c-2.7-1.3-6-3.6-5.9-7.2 0-.2.3-.2.3 0-.1 3.1 2.6 5.2 5 6.5.2.2.8.3.8.6l-.1.1Z"/><path class="cls-2" d="M83.3 99.8c-3-1-5-4-5.8-7.1-.1-.2.1-.3.2-.2.8 3 2.7 6 5.6 7v.3Z"/><path class="cls-2" d="M84.7 99.3c-3-.5-5.7-2.7-7-5.7-.2-.4.3-.5.2-.1a9.5 9.5 0 0 0 6.8 5.5c.2 0 .1.3 0 .3ZM56.3 63.2c-1.8-1.2-3.8-2-6-2.7 0 0 0-.3.2-.2l3.3 1.2c.2.1 3.5 1.7 2.5 1.7Z"/><path class="cls-2" d="M60.2 65.5C58 62.5 54 62 50.5 61c-.2 0 0-.3 0-.3 3.5 1 7.6 1.6 10 4.6 0 .1-.2.4-.3.2Z"/><path class="cls-2" d="M61.5 66c-.7-.7-1.5-1.4-2.4-1.6l-.1-.2.2-.1c1 .3 1.7 1 2.5 1.6.1 0 0 .3-.2.2ZM89 77.3l.1-.2 3.2.6c3 .5 6 1 9 1.3.9.6-3.7-.2-4-.2L89 77.4v-.1Z"/><path class="cls-2" d="m87 76.7-3.4-1.6V75a34.8 34.8 0 0 1 2.9 1.2c1.3.6 2.8 1 4.3 1.3 2.7.7 5.5 1 8.3 1.4.1 0 .2.3 0 .3-.5 0-1 0-1.4-.2-3.6-.5-7.2-1-10.6-2.3Z"/><path class="cls-2" d="m85.3 76-6.1-2.4c-.2-.1-.8-.2-.7-.4l.2-.1 6.6 2.7 4.5 1.4c.2.1 0 .4 0 .3l-4.5-1.4Z"/><path class="cls-2" d="M84.8 76.2c-1.8-1.4-4.1-1.9-6-3.1l-1.4-.9v-.1a30 30 0 0 0 4.6 2.3c.2 0 3.8 1.6 2.8 1.8Z"/><path class="cls-2" d="m79.5 73.7-3.9-2c-.1-.2-.5-.2-.5-.4 0-.3.2-.5.5-.5h.3c0 .3-.4.2-.6.4l4.4 2.2c.1 0 0 .3-.2.3Z"/><path class="cls-2" d="M76.4 71.6c-.7-.8.9-1.4 1.5-1.4h.1c0 .3-.4.3-.6.4-.3 0-1.4.5-.7.8.2 0 0 .3 0 .3h-.3Z"/><path class="cls-2" d="M76.4 70.8c-.3-.1-.4-.5 0-.8 1.7-.8 4-.3 5.8-.1l.9.1c.2 0 0 .3 0 .3-2-.3-4.1-.7-6.1-.3-.2.1-.5.1-.6.4l.2.1c.2.1 0 .4-.2.3Z"/><path class="cls-2" d="M76.6 70.7c.4-.5 1.2-.5 1.8-.7 3.6-.6 7.2.2 10.7 1.2l-.1.3a25 25 0 0 0-9.6-1.3c-.9.1-1.9.1-2.6.6 0 .2-.3.1-.2 0Z"/><path class="cls-2" d="M79 70.2c7-.2 14.1 2.2 21 4l-.1.3c-5.3-1.5-10.7-3-16.2-3.8l-4.7-.4c-.1 0-.1 0 0-.1ZM105.9 78.7v-.3c.2-.2.2-.4.3-.7-.4-1.2-1.9-1.6-3-1.9l-.8-.1c-.2 0-.1-.3 0-.3 1.4.2 3.8.7 4 2.4 0 .2-.2 1-.6.9ZM95.6 78.3l.1-.1 2.5.2c2.3.2 4.7.7 6.8-.1 0-.2.3-.1.2 0-.2.4-.6.4-1 .5-2.2.4-4.4 0-6.6-.2a32.4 32.4 0 0 0-2-.3Z"/><path class="cls-2" d="M97.7 78s0-.1.1 0l6.6.9c.2 0 0 .3 0 .3a91.8 91.8 0 0 1-6.8-1.2ZM41.8 63.2c-.2-.1-.6-.1-.6-.4 0-.2.5-.2.7-.2l1 .2s.1.1 0 .2c0 0 0 .1 0 0l-1.2-.1c2.7 1 5.4 1.6 8 2.6a91.2 91.2 0 0 1 1.6.7l-.1.1-3-1c-2-.8-4.3-1.3-6.4-2.1Z"/><path class="cls-2" d="M38.2 61c2.4.9 4.8 1.6 7.3 2.4a634.8 634.8 0 0 0 4.1 1.4s0 .1-.2 0L41 62.4l-2.9-1 .1-.3Z"/><path class="cls-2" d="M40 61.8s0-.1 0 0c2.3.5 4.5 1 6.6 1.7l.1.1c0 .1 0 .2-.2.1L40 62s-.1-.1 0-.2ZM38.5 60.6a107 107 0 0 0 7.1 2v.2s0 .1-.1 0l-3.8-1a92.2 92.2 0 0 1-3.2-1.2Z"/><path class="cls-2" d="M36.6 60c0-.1 0-.2.2-.2a72.3 72.3 0 0 0 9.5 2.7v.2h-.1a485.6 485.6 0 0 1-9.5-2.6l-.1-.2ZM36.8 59.2c.2-.3.7 0 1 0 .1 0 .1.1 0 .2l7.8 1.9v.1l-.1.1-5.3-1.2-3.4-1ZM36.7 58.5h.2c.7 0 1.3.2 2 .3.2.1 1.1.1.7.5l3 .8.1.1c0 .1 0 .2-.1.1l-3.3-.8-2.5-.8v-.1ZM39 58.6l.3-.2 4.2 1c.5.6-1.5-.1-1.9-.1h-.1l-1.1-.2-1.3-.4v-.1ZM40 58.5l.2-.2 2.8.5c.3 0 3.9.7 2.8 1-1.8-.6-3.7-.9-5.6-1.2l-.1-.1ZM80.8 70.9c0-.1 0-.2.1-.1l6.4 1.8c.1.1 0 .4-.1.3L80.8 71V71Z"/><path class="cls-2" d="m77.4 70.5.2-.1 3 .7 7.8 2-.1.3-3-.8c-2-.4-3.8-1-5.8-1.5l-2-.4v-.2ZM78.9 69.7s0-.2.1-.1l6.3 2.1c.3.1 2.7.7 1.9 1L79.4 70c-.2-.1-.6 0-.5-.3Z"/><path class="cls-2" d="M82.2 70.7c0-.1 0-.2.1-.1l2.8.6 1.8.5c.2 0 0 .3 0 .3l-4.7-1.2v-.1ZM87 72.4c.1-.1.3-.3.4-.2l.2.4c0 .1-.2.3-.4.2s-.2-.2-.1-.4ZM78.8 70.5l.2-.1 1.5.5 2.6.7c.2.1 0 .4-.1.3l-4.2-1.2v-.2Z"/><path class="cls-2" d="m76.8 70.7-.2-.1c-.1-.1 0-.4.1-.3l7.8 2 2 .5c.1 0 .2.1.1.2-.1.2-.5-.1-.8-.1a241.5 241.5 0 0 1-9-2.2ZM77.5 72c0-.4.4-.4.6-.3l4.7 1.3 2.9.9c.2 0 0 .4-.1.3-2.7-.7-5.4-1.7-8-2.3Z"/><path class="cls-2" d="m79.4 73 .2-.1c.7 0 1.3.2 2 .3l6.2 1.5c.2 0 .1.3 0 .3-2.8-.6-5.5-1.4-8.3-1.9V73ZM82.2 74.5h.2l3.2.6 5 1 .1.1-.2.1-5-.9a76.4 76.4 0 0 1-3.3-.9Z"/><path class="cls-2" d="M83.9 75.2c-.5-.7 2 .2 2.2.2l3.4.8v.2h-.1l-3-.7 1.8.6V76.6l-4.3-1.4ZM91.8 77.6c-.3 0-.5-.2-.8-.3V77h.2c.4 0 .9.2 1.4.4v.1a206.2 206.2 0 0 0 4.9 1.8h-.2c-1.8-.5-3.7-1.1-5.5-1.8Z"/><path class="cls-2" d="M87.4 75.9s.1-.2.2-.1l3.8 1.3a482.4 482.4 0 0 1 5 2h-.2l-4.3-1.5-4.4-1.6V76Z"/><path class="cls-2" d="M18.2 33.9c-6-1.1-11.8-3-17.2-5.9-.8-.4-1.4.7-.7 1.1a63 63 0 0 0 17.6 6c.8.1 1.1-1 .3-1.2ZM30.8 23.3 22.5 6.6c-.4-.7-1.5 0-1.1.7L29.7 24c.4.7 1.5 0 1.1-.7ZM48.5 23 53.8.8c.2-.8-1-1.1-1.2-.4l-5.3 22.2c-.2.8 1 1.1 1.2.4Z"/><path style="fill:none;" d="M0 0h112v146H0z"/></svg>