<svg id="_イヤー_2" xmlns="http://www.w3.org/2000/svg" viewBox="0 0 105 126"><path class="cls-2" d="M0 125.1c7-2.2 12.7-6.7 18.4-10.8A161 161 0 0 0 39 96.4c16.2-16 31-33.2 41-53.6C82.3 38 85.3 33 86 27.6c-.3 5.2-3 10.1-5 14.9a161.3 161.3 0 0 1-30 44.8c-9.3 10-18.3 20.3-29.9 28A54.8 54.8 0 0 1 0 125Z"/><path class="cls-2" d="M80 36.3c0-1.2-1-2.3-1.8-3.3-2.3-2.6-5.8-3.6-7.8-6.4-3.6-4.2-4.2-9.9-3.7-14.8.8-5.8 6-9.6 11.7-11.3C84-.9 90.7.6 95.9 3.7c3.3 2.4 5.7 6 6.9 9.7 1.5 4.7.8 10.2-2.3 13.8-3.2 2.6-7.4 3.9-11 5.7-1.7.6-3.2 1.7-5 2-1.3-.2-1.3-1.7-1.2-2.6a48.7 48.7 0 0 0-.2-8l.1-.5c.7-.3 1 .8 1.2 1.2 1 2.4.7 5.2 0 7.4.5-2.4.6-5.3-.7-7.7.8 3 .2 6.1.7 9.1 2.2-.5 4-2.1 6.2-3 3.2-1.9 7.4-3 9.5-6 4.3-7.6.2-19-9.4-22C83 .1 75.5 1.7 70.4 7.4c-3.2 4.6-2.8 11-.7 16.4 1 1.8 2 3.5 3.6 4.9 2.6 1.9 5.4 3.8 6.6 6.8 0 .2.3.7.1.8ZM73.5 58.9c0-1.8 3-3.8 4.9-3.8 1.6-.2 2.8 1 3.7 2.1 1 1.2 2.4 2.3 3.9 3 6.4 3 15.5.1 17-6.3.3-2.7-1.4-5.6-3.1-7.8-1.2-1.2-2.6-2-4-3a20 20 0 0 0-5.4-2.3c-1.6-.3-3.3 0-4.8 0 3.8-1.2 7.8-.3 11.4 1.8 4.4 2 7.5 6.4 8 10.9-.8 8.5-14 12.2-21.1 6.7-1.6-1.1-2.6-2.8-4-4.1-.2-.2-.4-.4-.7-.4-2.2-.7-4.3.7-5.5 2.3-.2.2-.4.6-.3 1v-.1Z"/><path class="cls-2" d="M72 59.5c1.9-5 7.8-9.4 13.6-9-3.5-.2-6.7 1.8-9.2 3.8A19 19 0 0 1 86.7 52c-.5.2-1.3.2-1.9.3-2.8.4-5.7 1-7.9 2.7-1.7 1.4-2.8 3.2-4 5-.3.3-1 0-1-.4Z"/><path class="cls-2" d="M75.6 54.3c3.6-4 5.7-11 12.2-11.2 1.3.1 3.1.1 4 1.2.3.5-.4.8-.7 1l-.2.2.8-.8v-.5l-.6-.4c-8.2-2.9-11 6.6-15.5 10.4ZM54.5 81c4.4-6.3 6.9-11 4.6-18.9 2.7 7.8.1 13.1-4.6 19Z"/><path class="cls-2" d="m54.3 80.5 1.3-2.3c3-5 3-11 1.9-16.8-.3-1.5-1.2-2.9-1.3-4.3h.3c.6.9 1.6 1.5 2.1 2.5-.6-.8-1.6-1.7-2.3-2.5s0 .1 0 .1c3.3 7.8 3 16.9-2 23.3Z"/><path class="cls-2" d="M54.7 81.5c2.9-6 4.6-12.6 2.8-19.3 0-.3-.1-1-.6-1 0 0 0-.1.1 0 .2 0 .3.1.4.3 2.4 6.8.6 14-2.7 20Z"/><path class="cls-2" d="M56.7 70.3V70c-1.2-2.2-4.2-3-6.7-3.4-2.4-.1-5.3-.3-6.8-2.5-4.2-4-4.4-8.9-2.4-13.6 2.2-5.3 9.2-7 14.9-5 5.4 1.4 8.7 6.7 9.7 11.6.1 4.4-1.8 9.1-6 11 3.9-2.2 5.4-6.6 5.3-10.8-1.2-6.4-6.5-12-13.8-11.7-6 .1-9.3 3.8-10 9.1-1 3.5 1 7 3.5 9.6 2 2.2 5.2 1.5 7.8 2.4 1.8.7 4.2 1.7 4.7 3.6 0 .1 0 .3-.2.3v-.3Zm0 .3c.2-.1.1-.3 0-.5v.5ZM42.3 95.3c.3-2.3 2.7-3.7 4.4-5-1.1.6-2 1.6-3.1 2.4-.3.2-.6.3-.9 0-.7-1 2.2-2.4 2.9-3 1.6-1 3-2.1 4.8-2.9 4.7-1.6 9.3-3.7 14.3-4.6.5 0 .7.6.3.8-1.2.5-2.4.7-3.6 1.1h2.2c.2 0 .4.2.5.4 0 .2-.2.4-.4.5-2.7-.1-5.4.3-7.8 1.4a35 35 0 0 1 6.7-.6c-2.6.2-5.2.4-7.7 1-4.4 2.3-8 5.6-11.6 8.7-.3.3-1 .3-1-.2Zm1-.8c2.4-2 4.6-4.1 7.2-5.9a18.2 18.2 0 0 0-7.1 5.9Z"/><path class="cls-2" d="M59.8 98.4c-2.6-1-3-3.6-4.3-5.5-1-1.7-3.5-2.7-5.4-2s0 .1 0 .2v.1c-.3-.2.2-.4.4-.4 3.5-1 6 2.3 7 5.2 1.3 2 4 3 6.4 3.2h3.4c-2.4.4-5.1.4-7.5-.8Z"/><path class="cls-2" d="M61.6 98.4a27 27 0 0 1-5.1-3.3c-1.3-1-3-2-3.7-3.3 1.5 1.8 4 2.8 5.9 4.2 9.6 5.8 18.3 3.7 21.4-6.2.6-2 1.4-4.2.2-6.2-2.5-3.8-7.7-5.6-12.2-5.8-6.5.3-9.7 6.3-15 8.9 0 0 .4.1.3.2-.1-.1-.6-.2-.2-.3 4.3-2.3 6.7-6.6 11.1-8.5 5.1-2.7 14.5.5 17.3 5.5 1.7 3.5-.4 7.3-2 10.3-3.3 6.4-11 7.6-18 4.4ZM27.4 106.2c-.3-.2-.2-.5 0-.6L31 100c2.5-4.3 3.9-10 2.1-14.8h.1c.3.3.3.7.4 1a21 21 0 0 1-3.5 16.2c2.3-3.3 4.1-7 4.5-11 .4-2.7.6-5.5-.4-8.1 0-.5.5-.7.8-.2 2.3 6.3.4 12.8-3 18-1.3 1.8-2.5 3.7-4.2 5.1h-.5Z"/><path class="cls-2" d="M32 97.6c.6-3.2-2.9-5.2-5.4-6.8a19.6 19.6 0 0 1-5.6-6c-2.4-4.7-2.7-11.5 2.4-14.4C28 68.1 33.8 69 38.1 72c6.8 4.5 5.5 13.6 1.7 19a18.6 18.6 0 0 1-5.6 4.1c4.7-2.6 7.2-6.6 7.8-11.9 1-7-4.4-12.5-12-13-10.2-.3-11.5 8.5-7.5 15.9 1.4 1.8 3 3.6 5 5 2.3 1.5 5.2 3.7 4.6 6.6 0 0 0-.1 0 0 0 0 0 .1 0 0ZM22.3 111.3c.6-1 1.7-1.5 2.5-2.4 1.2-1 1.8-2.6 2.4-4 .2-.5.4-1.6-.5-1 1.9-1-.4 3.5-.7 4 2.2-2 3.4-4.8 4.8-7.4.8-.2 0 1 0 1.3-1 2-2 3.9-3.2 5.5l.8-1.5c-1 1.6-2.6 2.8-4 4.2-.2.3-1.8 2.3-2.1 1.3ZM23.9 112c-.2 0 0-.3.1-.3 1.4-1 2.9-1.7 4.4-2.5 4.5-2.3 9.8-3.2 15-2.2-2.8 0-6-.3-8.9.6-3.7 1-7.4 2.7-10.6 4.5Z"/><path class="cls-2" d="M45 117c-3.5-1.6-5-4.9-6.8-7.8-.7-1-1.9-1.7-3.1-2 0-.1-.5-.2-.3-.3 2.7.6 4.3 2.8 5.6 5 1.9 2.8 5.2 4.8 8.7 5.1 4.2 0 7-3.7 8.9-6.7.4-1-.1-2.3-.6-3.2-1.8-2.9-5.2-5-8.6-5.8-4.3-.2-9.4 1-11.5 4.5v.4-.3c1-3.2 5-4.7 8.2-5.4 5.6-1.5 14.8 4 14.2 9.8-2.2 5.3-8.3 10.4-14.8 6.6Z"/><path class="cls-2" d="M57 114.8c.8-.7 1.4-1.5 1.8-2.4.4-.9 1-1.9.7-2.8-.2 0-.3 0-.4.2 0 0 .4-.6.5-.1.1 2-1.2 3.8-2.5 5.1ZM41.3 106.6c.8-.6 2-.4 3-.5a34.4 34.4 0 0 1-.8.1c-.7 0-1.6 0-2.2.4v.1ZM48.7 109.9l-.6-.4c-.8-.6-1.8-1-2.8-1.4-.2-.1-.8-.3-.7-.4 1.4.5 3 1.2 4.1 2.2ZM83.1 28.7c.3-1.2-.1-2.4-.2-3.6-.3-3.7.1-7.5-1.7-11 1.4 2.2 1.8 5.5 1.8 8.2 0 2.1.7 4.5.1 6.4Z"/><path class="cls-2" d="M84 28.4c1.5-2.9 2.7-5.9 3.6-9a46.9 46.9 0 0 1-4.3 7.6c1.8-2.9 3.2-6.3 4.5-9.5l1-2.4c0-.2.3-.3.4-.2.2 0 .3.2.3.4a45.5 45.5 0 0 1-5.5 13ZM75.2 56c1-1.8 3.5-2.4 5.5-3 3-1.8 6.7-2.3 10.4-1.9.3 0 .7 0 1 .3.4.3.1.6-.3.6-1.8-.2-3.7-.4-5.4.1 1 0 2.3 0 3.3.3h-4.5c-2.8.9-5.6 2-8.2 3.4-.5.2-1.7 1.2-1.8.2Z"/><path class="cls-2" d="M83 53.2a30.5 30.5 0 0 1 .1 0ZM83.2 26.8c-.3-.1-.7-.5-.6-.8l.1.4c.2.4 1 .6 1.2.1.3-2-1.2-4.1-2.2-6l-1.1-2 1.7 2.7c.6.9 3.3 6 .9 5.6ZM57.5 65c.2-3-6-4.3-8.4-4.8l-1.5-.3c2.8.2 10.3 1.8 10 5.1Z"/><path class="cls-2" d="M58.7 67.6c-.6-3-1.2-5.8-2.3-8.6-.5-1-.8-2.4-1.9-3v.1l.4.3-.4-.3c0-.2.3 0 .4 0 2.7 3.3 3.3 7.7 3.8 11.5ZM70.6 92.7c-3.4-3.2-9.1-5.3-12.6-7 4.5 1.8 9.3 3.5 12.6 7ZM61.4 84.8c2.6-.5 5.6-.3 8.4.1-2.7-.1-5.6-.3-8.4-.1h.2-.2ZM35.6 93.3c1.5-5.6-.6-10.6-4.7-15-.4-.4-.8.1-1 .2.9-1 1.5 0 2 .8 3.7 4.2 5.6 9 3.7 14Z"/><path class="cls-2" d="M36.2 93.9c1.2-3.7 2.2-7.5 2.7-11.3 0-.5 0-1-.6-1.3-1.4 1.8-2 3.9-2.9 5.9h-.3c-.2 0-.3-.1-.2-.3 1-2.3 1.9-4.6 2-7.1-.5 1.5-1.4 2.8-2 4.3-.5.4-3 7-3.5 5.3 1-4 2.6-7.8 2.8-12-5 9.8-6.2 14.4-3-.1l-3.4 7.8c-.2.3-.7 0-.7-.3.8-3.2 1.3-6.4 1.8-9.7-.6 2.5-1.6 4.8-2 7.3-.1.4-.2 2.6-.9 1.7-.1-.8.1-1.4.3-2.1.6-2.4.8-5 1-7.4-.7 2-2 11.2-2.6 3.5-.2 2-.4 4-1.5 5.8-.1.2-.8.8-1 .5-.3-.3-.6-.6-.6-1l-.3-7.6c0-1.3 0-3 1-4-.5.5-.7 1.2-.8 1.8v4c.7-1.2.5.8.6 1.2 0 .3 0 .7-.2 1h-.2c.2 1.4-.2 3 .6 4.3.8-.3 1-1.2 1.2-1.9.7-2.3 1-4.7 1-7-1 1.6-.7 3.6-1.3 5.4-1 .6-.2-2-.2-2.4.1-1.2.5-2.4.7-3.6.2-.4.3-1.6 1-.7.6 1.8.4 4.2.8 6 .3-2 .9-3.9 1.3-5.8.1-.3.3-.8.7-.8.2 0 .2.1.2.2.1 1.5 0 3-.2 4.5.5-1.5.8-3 1.5-4.5 0-.1.2-.2.3-.1.4.1.3.8.3 1.2L28 83.3C32.2 73 33 73 30.3 84l3.4-6.8c3-2.7-1 9.5-1.2 10.3 1.3-2.7 2.8-5.4 4-8.1.2-.3.6-.3.8-.2.2 0 .2.2.2.3 0 1-.2 1.9-.4 2.8l1-1.4h.2c1 .5 1.2 1.1 1 2-.6 3.7-1.6 7.2-2.8 10.7 0 .1 0 .4-.2.4l-.1-.1ZM21.8 79.5v-1.9c-.2.6-.1 1.3 0 1.9Z"/><path class="cls-2" d="M31.4 90.6c-3.3-3.7-7.2-8-6.6-13 0-.2 0-.5.3-.5-1.2 5 3.3 9.6 6.3 13.5Z"/><path class="cls-2" d="M31.4 90.9c-3.4-2.7-8-6.2-7.4-10.7l.2-.2c0 .2 0 .1-.2.3-.4 4.3 4.3 7.8 7.4 10.6Z"/><path class="cls-2" d="M34.2 94.7c.9-3.6 2.8-6.9 3.4-10.6-5.2 13.7-3.4 7.6-3.7-2.1-.3 2.3-.8 4.6-1 7 .1 1.4-.7 2.3-1 .6-1.1-2.4-1.6-5.2-3.3-7.3-.7 2.7 1.4 5.2 2.9 7.6.2.5 2.3 2.7 1 2.6-1-.5-2-1.7-3-2.4 0 .2-.4.3-.5 0-1-1.6-2.9-2.8-4-4.4-1.5-1.5-4-8.1-.5-3-.2-.9-.5-1.8-.3-2.6 0 0 .2 0 0 0-.4 2.2 1.4 4 2.7 5.7-.2-.6-.4-1.3.2-1.6.3-.5.7.2 1 .4 0-1-.4-2 .1-2.9.3-.4.8.4 1 .6 1.5 2.2 2.2 4.8 3.1 7.1 1.6-14.6 2.7-8.3 2 1.6.7-1.7 5.3-14.3 3.6-5.6.3-.2.4-1.2 1-1 .8.4.6 1.4.4 2 6.2-12.3-.6 5.3-3 7.5 0 .2-.3.5-.4.5l.4-.5c-1-.4 1.4-4.2 1.7-5l.9-3c0-.4.1-.7-.1-1-1.1 2-2 4-2.6 6-.3.5-1.4 5.3-2 3.9Zm-3.6-4.2 1.4 1-3.1-4.9c.1.8 0 1.7.7 2.3.1.2-.1.2-.3 0v.4l.1.2 1.2 1Zm-2-2v.2-.4l-.2-.1.2.3Zm-1.7-1.3.7.7.2.1c-.5-1.3-2-2.2-2.6-3.5-.4-1.1-1.3-2-2-3 .5 2.2 2.1 4 3.7 5.7Zm11.6 2-1 2.8c1.5-2.7 2.7-5.6 3.8-8.6-1 2-2.1 3.8-2.8 5.8Zm-10-1.5c-.3-1.1 0-2.4-1.1-3.1-.2 0-.2.3-.2.4.2 1 .5 2 1.3 2.7Zm-1.3-1c-.6-.9-1.3-1.6-2-2.4.5.9 1.2 1.6 2 2.4Z"/><path class="cls-2" d="M33.7 93.9c-4.2-2-9.1-4.8-10.7-9.3 0-.2 0-.5.2-.6 0 0 .5-.1.4 0-1.3.1.1 2 .5 2.6 2.7 3.5 6.7 6 10.9 7.7-.4 0-.9-.3-1.3-.4Z"/><path class="cls-2" d="M31.2 94c-2.5-2.7-4.5-6.3-7.6-8.3 1.2.5 2.1 1.5 3 2.5l4.6 5.8Z"/><path class="cls-2" d="M32 93.1a32 32 0 0 1-10-8.5v-.3s.1 0 0 0v.1c2.7 4 7 6.8 11.3 9.4-.4-.1-.9-.5-1.3-.7Z"/><path class="cls-2" d="M31.2 91.3c-2.8-1.9-6-3.6-8-6.2v-.4c0 .2 0 .4.3.7 3 3 6.9 5.2 10.4 7.6-.9-.4-1.8-1.1-2.7-1.6ZM21.8 80c-.2-3.5 2.1-6.7 4.9-8.7.7-.4 1.8-.6 2.4.2.1.2.3.7.2.9l-.3-.9c-1-1.2-2.7.1-3.5 1-2 2-3.8 4.6-3.8 7.5Z"/><path class="cls-2" d="M40 87.6c-1.7-1.4-2.2-3.7-3-5.6l-.4-.2-.2-.2c-.4.7-.8.2-.6-.5a8 8 0 0 1-1-1.2c-.1.3-.5.2-.7 0-.1-.3 0-.6.1-.9 0-.2-.2-.4-.3-.5l-.2-.7c-.4.7-.8 1.3-1 2 0 .2-.2.2-.4.2l-.2-.4c.5-1 .7-2.2 1-3.3l-.2-.2-.3-.3c-3.7 7.5-2.2 1.8-1.4-2l-.4-.6c-.3.3-1.3 2.7-1.8 1.8 0-.8.3-1.5.2-2.2-.4.5-.6 1-.8 1.5 0 .1-.2.2-.3.1-.3-.1 0-.5 0-.7 0-.9.6-2.2.1-3-.6.5-.7 1.3-1 2-.1.1-.4.4-.5 0 0-.8-.5-2.4-1.7-2.2-1 .4-1.3 1.6-1.8 2.5l.3.4-.3-.4c-.2.3-1 2.7-1.4 2-.1-.5.7-3.2 1.3-2.2.4-.8.7-1.8 1.5-2.4 1.3-.7 2.1 1 2.4 1.9.2-.5 1-2.8 1.7-1.5.2.7 0 1.4 0 2 .2-.4.7-.8 1 0l-.2 1.6 1-1.8c0-.2.1-.5.4-.6.3-.2.4-1 1-.8.3.1.3.5.2.8 1.1.4 2 1.2 3 1.8.4-.1 1 .2 1.4.5 1.5.8 1.9 2.7 3.4 3.4.8.4 2.2 1.2 1.3 2 .2.6.5 1.3.1 1.7.6 1.6 2.3 7.6-1.2 6.2Zm.6-.3h.1c.3 0 .5 0 .7-.3.9-1.6-.1-3.7-.6-5.4-.4 0-.8-.2-1.1-.4-.4.6-1.2 1-2 1 .7 1.7 1.2 3.9 2.9 5Zm-3.1-5.7h.8c.4 0 .7-.4 1-.7l-.9-.7c0 .4-.2 1-.7.6-.2-.2.1-.6.1-.9l-.7-.3-.1.5.5 1.5Zm-.7-.3V81l-.2.2h.1v.1ZM21.9 75c.7-.5.8-1.5 1.2-2.1l-.1-.2h-.1l-.4.1c-.3.7-.7 1.4-.6 2.2Zm14 5.6.2-.6.2-.4-.2-.5-.9-.7-.2.9 1 1.3Zm-4.4-5.7a121 121 0 0 1-.6 3l1.3-2.6-.6-1-.1.6Zm9 6.1-.3-.8H40l-.1.5.5.3h.1Zm-6-2.5.2-.6c-.2 0-.3-.2-.4-.3l-.3-.2.5 1Zm3 .9-.2-.3v.1l.2.2Zm1.1.3h.6l.3.1c0-.4-.2-.8-.3-1.1-.3.3-.4.6-.6 1Zm-2.2-1.3.2.4.1-.3-.2-.3h-.1v.2Zm-.5.1-.2-.9-.2.4v.1l.4.4Zm2 .6c0-.4.2-.8 0-1.2l-.3.2-.2.3v.2l.5.5Zm-3.6-2 .4.4.2-1.1-.3-.4-.5 1 .2.1Zm6.2 2.5c0-.4-.2-1-.7-1.2l.7 1.2Zm-4.4-2.5.4.5.4.5.3-1.2-.8-.4h-.1l-.3.4.1.1Zm-2.4-.6.4-.8h-.3l-.1.7Zm4.5 1c.3.3.4.6.4 1v-.1l.4-.3c-.2-.5-.8-.7-1.3-1v.3c.1-.1.4-.2.5 0ZM33 75.7l.1-.3.2-.2c0-.2.1-.5 0-.8l-.5 1 .2.3Zm-.6-.8c.2-.4.4-.8.8-1.1-.2-.8 1.2 0 1.5.1h.1c-.8-.7-1.7-1.4-2.8-1.7l-.3 1.7c0 .2.2.3.3.5l.4.5Zm4.6 1.3h.2v-.1l-.4-.4-.2.2.3.3Zm-1.4-.6.4.1.2-.2.1-.1-.3-.2-.6-.4.1.5v.3h.1Zm-1-.4.3-.1V75l-.2-.4-.8-.4c.1.4.5.7.7 1Zm-3.3-1.8.2-1.3-.6.8.4.5Zm5.4 1.7c-.3-.4-.6-.6-1-.8l1 .8Zm-1-.6-.2-.2-.2-.1.4.3Z"/><path class="cls-2" d="M38.2 79.2c-.4-.3-.9-.5-1-.7 1 .6 2.3 1.6 3.6 1.3.6-.2 1-.8 1-1.4 0-2.5-2-5-4.7-5.7-.8-.3-1.6-.5-2.4-.5.2.2 0 .1 0 0 2.5-.1 5 1.2 6.4 3.2 1.8 2.7.9 6.3-3 3.8Z"/><path class="cls-2" d="M39 78.8c-.5-1.1-1.6-2-2.4-2.9-1.8-.2-6-2.3-6-4.2-1 0-2.3-.3-2.8.5-.2.7 1.4.7 1.8 1-.6-.2-1.4-.2-1.9-.7-.4-1.1 2-1 2.9-1 .5-.5 1.3.2 1.8.5 1.8.6 3.6 1.4 5 2.4.9.8.4 1.5-.6 1.5.7 1 2 1.8 2.1 2.9Zm-3.5-3.5.7.2c-1.6-1.4-3.1-3.4-5.4-3.7l.2.6a12 12 0 0 0 4.5 3ZM33.7 73c1 .8 1.9 1.7 2.7 2.6.5.2 1.4 0 1.1-.5 0-.2-.2-.4-.3-.5a25 25 0 0 0-4.2-2.1l.7.5ZM31 71.6l.5.1h-.2c-.1-.1-.2-.2-.3 0Z"/><path class="cls-2" d="M40 82.2c2-2.7-1.2-6-3-8.5 2 2.2 5.2 6 3 8.5ZM40.4 82 39 76.8l1.4 5.2ZM35 106.3c0-.1 0-.2.2-.3l2-1c2.7-1.4 5.7-2.4 8.3-4-1.2.2-2.3.6-3.5.7-.1 0-.1-.2 0-.2a9.2 9.2 0 0 1 4.1-1.4c.4 0 0 .7-.1.8.2 0 .3.2.4.4l-.3.4c.7-.2 1.6-.6 2.3-.3.6.5.1 1-.4 1.3.3 0 .7-.3.9 0v.2c-1.1 1-2.5 1.4-3.7 2 1.7-.5 3.3-1.1 5-1.5.5 0 .5.7.2.9-1.5 1-3.3 1.6-5 2.4L51 105h.7s.1.1 0 .2l-1 .9c-1 .7-2.6 1-3.4 2v.1c0-.3.3-.5.5-.7 1.3-.7 2.8-1.3 3.8-2.3-1.2-.1-2.3.6-3.4.8-1.4.3-2.6 1-4 1.2-.2 0-.4-.2-.2-.3 2.1-1 4.5-1.8 6.3-3.2-2.6.7-5.1 1.7-7.7 2.6-.5 0-1.2.7-1.7.3l.1-.3 5.2-2.5-5.7 2.3h-.3c-.1-.2 0-.3 0-.4 1.8-.8 3.6-1.5 5.3-2.4 0-.3 0-.7.2-1-3.1 1-6.4 2-9.3 3.6-.4.1-1 .6-1.2.2Zm10.4-2.8 2.4-1.3c.1 0 .4-.2.3-.4-.8 0-1.6.3-2.4.5-.2.4-.4.8-.3 1.2Zm-1.7-1 2.3-.8c0-.2.2-.3.3-.4 0-.2-.2-.2-.4-.3-.6.7-1.5 1-2.3 1.4v.1Zm-1.4-1 3.3-.6c.2-.1.3-.3.3-.5-1.2.1-2.5.5-3.6 1Z"/><path class="cls-2" d="M35 108.6c.3-.6 1.3-.7 2-1-1.4-1.1 3.6-1.3 4.2-1.4 1.7-.1 3.5.3 4.9-.7a8.2 8.2 0 0 0-5.4.2c-2.3.7-1.6-.3-.1-1-.6 0-1.2-.1-1.7-.3-1.3.5-2.5 1-3.7 1.8l-.5.2c-.2 0-.3-.4-.2-.6.6-1.1 2.1-1.4 3.3-1.8-1.6-2.8 11.2-2.3 12.8-1.6 1.6.8-.5 1.6-1.4 1.7 1 .1 2.3-.1 3 .5l.7.1c.2 0 0 .3 0 .5 0 .5-.6.8-1 1 0 .4-.3.6-.7.7 1.2.8 3 .4 4 1.5 0 .8-1.1.2-1.5 0 0 .2-.2.3-.4.2l-4.8-.9c-1 .3-2 .8-3 .9 1-.2 2-.6 2.8-1-3.7-.6-7.4-.4-11 0-.8.3-1.9.4-2.4 1Zm6.4-3.8-.6.4.9-.3h.2-.5Zm-3-1h.2c1.7-.3 3.3-1.2 5-1.4.3 0 .6 0 .8.2.3.4-.3.7-.5 1 1.2 0 2.4.4 3.6 0h1c.7-.1 1.6-.1 2.1-.6-3.5-1-7.7-1-11.2-.1-.3 0-1.7.5-1 .9Zm1.5.3 1.4.2.8-.4h-.4l-1.8.2Zm6 2-.3.1h1a2 2 0 0 1 1-.3l-.3-.1c-.5 0-1 .2-1.4.4Zm-3.6-1.7c.9.2 1.7 0 2.6-.3l-1.1-.1H43l-.8.4Zm2.5.2a31.2 31.2 0 0 1 2 .5l.5-.2c-.6-.4-1-.4-1.7-.3l-.3-.1-.5.1Zm-3.2-1.2H43l.8-.5c-.8 0-1.4.4-2.2.5Zm7.6 3.2h.4-.4Zm-1.6-1.5-.2.2h.8l-.4-.3-.2.1Zm3 1.4.6-.2h-.9l.2.2Zm-2.3-1 .5.2-.3-.2h-.2Zm1.5.2c.8.1 1.6-.3 2.1-.7 0-.1 0-.2-.2-.2l-2.5.5.6.4Zm-1.5-1 .6.4 2.2-.4-2.7-.2-.2.2h.1Zm3.5 1.4c.5-.3 1-.6 1-1.2h-.4c.3.5-.5.8-1 1 .2 0 .4 0 .4.2Z"/><path class="cls-2" d="M48.1 115.7c1.6-2 4.4-2.9 5.8-4.8-1.8.4-3.2 1.6-4.9 2.1-.1 0-.2-.2-.1-.3l3.6-2.2c-7.3 3.6-5 1.3-.4-1.7-.6.1-6.3 3.5-5.8 2 1.4-1.1 3-2.1 4.4-3.3-1.4.5-10.4 4.6-4.7 1.2.9-.7 2-1.2 2.7-2.1-1.2 0-2.2.7-3.3 1-1.8.6-3.9 1.7-5.6 1.9 2.8-.7 5.4-2.2 8.1-3.2 3.2-.5-1.3 2.4-2 2.8 1.7-.7 3.3-1.5 5-2.1h.3c.1.2.2.4 0 .6-1 1-2.3 1.9-3.5 2.8 1.6-.8 3.3-1.7 5-2.4.2 0 .4 0 .4.2 0 .3-.1.5-.3.7-1.2 1-2.6 1.8-3.9 2.8 1.5-.6 2.8-1.4 4.2-1.9h.5v.3c-.7.6-1.4 1-2.2 1.5.6-.2 3.6-1.8 2.5-.2-1.8 1.5-4.1 2.7-5.8 4.2Z"/><path class="cls-2" d="M40 111c-.9-.4 2.7-2 3.1-2.1.3-.1.8-.3 1 0-.3-.2-.6-.1-.8 0-1.2.4-2.3 1.1-3.3 2 2.5-.6 4.7-2.1 7.2-2.7 0 0 .2 0 .2.2.1.4-.3.7-.6 1 2-.5 3.8-1.7 5.8-2.3.2 0 1.2 0 1.1.4-.5 2-2.3 3.1-3.8 4.5 1.1-.5 2.1-1.3 3.3-1.5.2 0 .7 0 .6.3-.3 1.2-1.6 2-2.2 3 1.7-.4 3.5-1.4 5.2-1.9-.6.1-6 3-5.4 1.7.7-1 1.8-1.7 2.1-2.8H53c-1.2.5-2.2 1.1-3.3 1.7l-1.8 1h-.2v-.3c2-1.6 4.5-3.3 5.5-5.6-.3 0-.6-.1-.8 0l-4.8 2c-2 .7-1.2 0-.5-1-2.2.5-4.1 1.5-6.2 2.2-.3.1-.6.4-1 .2Z"/><path class="cls-2" d="M54.4 111.1c-.4-2.4-3.3-4.5-4-6.7 1 2.3 3.6 4.3 4 6.7ZM56.7 109.9c-.4-2.2-1.2-6.8-4.4-6.3.2-.2.5-.1.8-.1 2.8.7 3.4 4.2 3.6 6.4Z"/><path class="cls-2" d="M53.7 109.2c-1-1.2-2-2.3-2.7-3.7 0-.2 0-.5.2-.7-.7-.7-2.3-2-2.8-.9.4-1.2 2.3.2 2.9.8.2-.2.6-.2 1 0 1.4-.8 4.3 1.6 4.4 3 .2 1.3-1.3 1-2 .3h-.3a1 1 0 0 1-.6-.1c.2.4 1.2 1.2.6 1.5l-.3-.1-.4-.1Zm.3-1.5h.5l-.3-.3h-.8l.6.3Zm1.7.3c.6.3.7-.2.5-.6-.6-1.3-2-2.4-3.4-2.6.8.4 1.5 1 2.1 1.6.1.1.3.3.2.5v.7l.6.4Zm-2.3-1.3-.1-.2a17 17 0 0 1-.6-.6l.2.6.5.1Zm.3-.5.6.6h.2l-.9-.7.1.1Zm-2.1-.5.2-.2-.3-.4c-.2.1 0 .4 0 .6Zm.7.1-.3-.8h-.4l.7.8ZM51.3 114.8c1-.5 1.9-1.2 2.8-1.8-1 .2-2 1-3 1.5-.1 0-.3-.1-.1-.2 1-1 2.8-2 3-3.3-.6 0-1.2.4-1.8.6.2 0 1-.1 1 .2-.4-.5-1.6 0-2.1.3l-1.3.4c-.1 0-.1-.1 0-.1 1.3-.5 3.1-1.5 4.4-1.6.3 0 0 .4 0 .6-.3.9-1.1 1.5-1.8 2.1.4-.1 2.4-1.6 2.1-.5-.9.8-2 1.3-3.1 2l-.1-.2Zm2.6-1.8h.4v-.2l-.4.2ZM45 109.6c1.1-.2 2.3-.5 3.3-.5l-3.2.5ZM62.5 84.5l4.7-1.6-3.8 1.4c2.7-.6 5.4-.7 8.1-.9-2.5.4-6 .4-8.6 1.2-.1 0-.6.1-.4 0Z"/><path class="cls-2" d="M44.4 114.8v-.3c1-1 2.2-1.9 3-3-1 .3-2 .9-3 1.1-.4 0-.9-.2-.5-.5 1.1-1 2.7-1.6 3.4-3-1.8.5-3.6 1.4-5.3 2.2-.5.2-1.2.8-1.9.3-.6-.5 0-1.2.1-1.8.2-.3.4-.8.8-1h.5-.5c-.6.6-.9 1.5-1 2.2.3 1.3 1.9.1 2.6-.2v-.3l1.4-.9c.6-.2 1.5-1 2-1v.2l-1 .7c.9-.2 1.7-1 2.6-.7.2 0 .3.2.2.3-.2 1.1-1.4 1.7-2.2 2.4.7-.2 1.4-.9 2.3-.6 1 .4-1.6 2.4-2 3 .7-.3 3.2-2.1 3.5-1.3 2.6-1.4 3-.7 1 1.1 1.7-.3 3-1.3 4.7-1.8 0 0 .2 0 .1.1l-3.1 3c.8-1 1.9-1.9 2.7-2.8-.7.2-4.8 2.7-5 1.6.4-.6 1-1 1.3-1.5-.9.3-1.7 1-2.6 1.2-.2 0-.3 0-.4-.2-1.1.5-2.1 1.3-3.4 1.6l-.3-.1ZM55.6 87.3c.1-.6.7-1 1-1.3l-.1-.2v-.3c-3.3-.3 4.7-4.6 5.5-4.8.6-.2 5.8-2.8 4.7-1 .4.1.3.5 0 .7 1.8-.5 3.8-1.2 5.7-.4 1 .8-.6 1-1.2 1.2l-.2.2c1-.1 2-.6 3.2-.5 1.3 1-2 1.5-2.6 1.8s0 0 .1 0c1 0 1.3.8.2 1l.3.1.2.2H74h-1.7c.2.2 0 .6-.2.4l-.5-.4c-.3 0-3 .4-1.7-.2-3.3-.1-6.5 1-9.3 2.4-.3.3-1 .6-.9 1.1-.9-.6 3.5-2.6 5.2-3-.7-.4.3-.9.7-1-3 .4-5.5 2-8.2 3-.5.4-.8 1.5-1.6 1.4-.2 0-.3-.2-.3-.4Zm.9-2.4c1.1 0 1.7-.8 2.4-1.5 1-.9 2.1-1.6 3.4-2.2-2.1 1-4.2 2-5.8 3.7ZM67.7 82l-1.8.7 1.2-.1h.5c0-.2 0-.3.2-.4l1.4-.6-1.5.5Zm2.2 1.9h1.7l-.4-.3c-.5 0-1 0-1.4.3Zm-1.2-1.3c1.6.2 3-.7 4.5-1.1l-4.5 1Zm-2.4-1.4 4.2-1c-1.5.1-2.9.6-4.2 1Zm5-.8h.3-.5.2Z"/><path class="cls-2" d="M67.8 95.3c1.7-.7 3.4-1.3 5-2.2-1 .1-1.8.7-2.8 1-1 .2-1.8.8-2.8.5 0 0-.1-.2 0-.2 2.4-1.8 5-3.2 7-5.4h-.6c-1.5.8-3.1 1.4-4.7 2-3.9 1.6-5.4 1.3-.8-1-1.5.7-3 1.5-4.7 2h-.6c-.1-.2-.2-.4 0-.5 2.5-1.8 5.4-3.2 8-5L62 90c-.5 0-.4-.6 0-.7 2.8-1.4 5.5-3 8.2-4.7L64.8 87c-1.5.6-2.9 1.3-4.4 1.7h-.3c-.2-.5.4-.6.6-.8l6.6-3.7c-2.1.9-4.4 1.6-6.5 2.6-.3.2-.8.5-1.2.3-.1-.1-.1-.3 0-.4l5.2-2.3c-2.7 1.1-5.5 2-8.2 3.2-.3.2-.7.3-1 .2l-.2-.2 3.1-1.7c.4-.1 1-.5 1.4-.4-1.6.3-3 1.5-4.3 2.2.3.3 15.5-6.8 11.1-3.9l1.9-.7c.2 0 .5 0 .6.2 0 .2-.2.3-.4.5-1.7 1.2-3.7 2.2-5.6 3.3 9-4 15-6.2 2.1 1 2.2-.7 4.2-2 6.5-2.4 1.7.4-7 5-7.7 5.5 2.5-1 5-2 7.4-3.2a109.6 109.6 0 0 1 2.3-.8v.3c-2.1 1.4-4.4 2.5-6.6 3.6 2.3-.7 4.5-1.8 6.8-2.5 3.3.2-5.8 5.2-6.4 5.8 1.6-.2 3.2-1 4.7-1.4 3-.3-4.1 2.2-4.5 2.3Z"/><path class="cls-2" d="M64.5 97.2V97c1-1.7 2.3-3.3 2.9-5.2-1.1.8-2.1 1.7-3.3 2.3-.2 0-.4.2-.6 0v-.3l2.5-2.5c-.5.2-5 4.3-4.8 2.6 1-1.3 2.2-2.5 3.1-4-1.3.9-2.5 1.7-3.9 2.4h-.3v-.4l1.5-1.4c-.4.2-3.7 2.8-3 1 .5-.9 1.2-1.6 1.3-2.6-1.1.6-2 1.6-2.9 2.3-.1.1-.3.3-.5.2.4-1.2 1.5-2.4 2-3.6.4-.7.8-1.3.6-2.1-.6 0-1 .2-1.5.5-1.2.6-2.5 1.1-3.5 1.9l2.4-.9-2.4 1-.1-.1.2-.2 3.1-1.8c4.2-2.5 1 3 .1 4.3.9-.6 1.5-1.7 2.6-2l.3.2c0 1.1-.7 2-1.2 3 1.1-.6 2-1.4 3-2.1 1.5-.4.3.9 0 1.3 5.4-3.7 2.3.1.4 2.4l5.2-4h.4c0 .1.1.3 0 .4-.7 1.1-1.8 2-2.7 3 .7-.3 1.2-1.3 2-1.3 1.5 0-.8 3.2-1 3.8.6-.5 3.7-4.6 3.3-2.2l.8-.8c0-2.1 1.2-4 1.9-6-.5.3-1 .7-1.6.4l-.2-.3c.2-.6.7-1.1 1.3-1.4-.2-.2-.6-.5-.3-.6.4-.4 1-.3 1.6-.2 0-.5.5-.6 1-.6 0-.3.1-1 .6-.9.5.2.6.7.5 1 1 .4 2 1 2.1 2 .3 1.3-1.1 1.5-2 .8 0 3-2.7 5.2-4.1 7.7L69.8 96c-.1 0-.2.1-.4 0s-.2-.2-.1-.3c.6-1 1.2-2.2 1.6-3.4-1.2 1-2.2 2.4-3.5 3.4h-.3a90.3 90.3 0 0 0 1.4-2.2l-3.6 3.6c0 .1-.3.1-.4 0Zm6.8-4.5v.1c1.3-2.2 3.9-4.2 3.4-7-.8 2.3-1.7 4.6-3.3 6.5v.4Zm-.3-1h.2c1.3-2 2.4-4 3-6.3l-.2-.1-.7-.2c-.9 2.2-1.9 4.3-2.3 6.6Zm.1-5.6c.7-.1 1.2-.7 1.7-1.1l-.4-.1c-.5.3-1 .6-1.3 1.2Zm1-1.5.2-.2.7-.4c-.5 0-1-.1-1.3.3l.3.3Zm4 1.6c1.1.4 1.1-.8.5-1.4h-.2c-.1.4-.7.5-1.2.6v.4l.9.5Zm-3.5-1.4h.2c.2-.2.6-.2.6.1l.4.1-.6-.6-.6.3Zm1.7.3c.2-.3 0-.6 0-.9h-.7c.1.4.5.7.7 1Zm.8 0c.4 0 1 0 1.1-.4l-1.1-.3v.7Zm-1.6-1.3.4-.1h.3v-.1c-.3 0-.6 0-.7.2Zm1.6.5c.4 0 .8.2 1.1.3v-.2a2 2 0 0 0-1-.4v.3Zm-.4-1h.1v-.2.2Z"/><path class="cls-2" d="M75.6 92.1c.5-2.1 1.1-4.3 1.3-6.5-1.3-.5-2.2-1.8 0-1 .2 0 .4.2.4.5l-.1.4c.7.2.9-.4.6-1-1.4-1.9-4.2-3-6.6-3h-.6c.3-.2 1-.2 1.5-.1 2 .3 5.4 1.5 6 3.6.2.5-.4.9-1 .7-.2 2.1-.8 4.4-1.5 6.4Zm1-7 .3.3.1-.4c0-.4-.9-.5-1.2-.5.1.3.5.5.7.7Z"/><path class="cls-2" d="M74 95.7c2.4-2.3 4.6-5.6 4.1-9.1-.2-.7-.5-1.4-1.3-1.5 1 0 1.5 1.4 1.6 2.2.2 3.3-1.9 6.4-4.4 8.4Z"/><path class="cls-2" d="M68.5 100.6A14 14 0 0 0 76 93c-.6.7-7 6.3-5.7 2.7 1.3-1.7 2.8-3.1 4.2-4.7l-3 2.4H71c-.2-.3 0-.5.1-.7 1.7-1.5 2.9-3.5 4.2-5.2.2-.2.7-.5 1-.3.6.8.8 1.7.7 2.6l.2-.3.4-.6h-.3.4c.7-1 1.5-2 2-3l.6-.3c.2 0 .3.2.3.4a18 18 0 0 1-4.2 6.5 13.7 13.7 0 0 1-7.9 8.1Zm2.6-4.8c1.1-.2 1.9-1 2.7-1.6 1-1 2.6-1.8 2.7-3.2-1.5 1.9-3.8 3-5.4 4.8Zm5.4-6-3 3.4 2.3-2.1.8-1v-.5l-.1.3Zm-1.4-1.4-2.5 3.5c1.4-.9 2.5-2.4 4-3 0-.5-.2-1-.6-1.4-.5 0-.7.5-.9.9Zm1.8 2.3-.1.7c.4-.6.9-1.1 1-1.8l-.4.4-.5.6v.1Zm1-1-.2.5a18.8 18.8 0 0 0 1.7-2.8c-.5.8-1.3 1.4-1.6 2.3Z"/><path class="cls-2" d="M57.5 96c-.7-.2-2.2-2.6-.7-2.1 1.7 1.2 3.6 2.3 5.7 3 1.5-.9 3.2-1.6 4.6-2.6a75 75 0 0 1-5.2 1.1l.1-.3c2.4-1.1 5.2-2 7.2-3.7-3 .7-5.9 2-8.8 3-.4 0-.8.4-1.1 0v-.3c2.1-1.2 4.5-2.2 6.3-3.7-2 .6-4 1.2-5.9 2-.4 0-2.6 1.2-2.1.2 2.6-1.5 5.4-2.7 7.6-4.6-2.7.7-5.3 1.9-8 2.5-.2 0-.3-.2-.1-.3 1.9-1.3 4.2-2.2 5.8-4-1.1.2-2 .7-3 1h.8c-1-.3-2.2.5-2.5.3l.2-.1c1.5-.3 2.8-.8 4.1-1.2 2.5-.4-4.2 3.6-4.6 3.8 6.1-2.3 13.1-4.6 2.8 1.5l5-1.6c2.5.3-3 3-3.6 3.3 2.5-.7 5-2.2 7.6-2.3.2.4-.1.9-.4 1.2-1.2.9-2.7 1.5-4.1 2.2 5-1.6 2.2.7-.2 1.8 1.7-.4 3.4-1.2 5.2-1.3l.3.1c.3.5-.4.8-.8 1 .7-.2 2.9-.9 2 .5l3.3-.8c1-.8 1.7-1.7 2.5-2.6-.7.6-1.4 1.3-2.2 1.7h-.4c-.2-.5.9-.9 1.1-1.2a11 11 0 0 0 3-4c2-3.5-1-5.9-4.7-6.8-.4-.2-1.4-.3-1.4-.9l.3-.1c1.6.3 3 1.2 4.6 1.5-1.3-.7-2.5-1.8-4-2.4-3.1-1-6.3 0-9.3.5-1.2.7-2.3 2-3.6 2.4-.5-.2-.3-.8-.1-1-.4-.4-.2-.8.2-1-.2 0-.3-.2-.2-.3 1.8-1.8 4.2-3 7-3.1.7.1 7-.4 5.7.7-1 .3-2.3-.1-3.5-.2-2 .2-3.9.6-5.6 1.4 2.5-.9 5.2-1.5 8-1 .5.3 1.6.2 2 .7 2.4.6 4.8 2.1 6.3 4.1 0 .3-.6.2-.9.1l-.6-.2c.5.1 1 .4 1.4.2-1.3-1.9-4-3.5-6.4-4-.3.2-.8 0-1.3 0 2 .2 3.6 1.8 5.3 2.8.8.3.8 1.2-.2.9 2.9 1.6 2.4 4.7 1 6.9.7-.9 1.1-1.8 1.6-2.8.2-.3.6-.5.7 0-1.1 3-3.3 5.7-5.6 8-2.4 1.9-5.9 2.6-9.1 2.5-3-.5-6.3-1-9.2-2.3Zm2.4.4c-1-.5-2.1-1.2-3-1.9.4 1.2 1.8 1.6 3 1.9Zm6.7-.3c-1 .4-2.2.8-3.2 1 1.4.5 2.9.6 4.3.7 1.3-.5 2.6-.9 3.6-1.7-1.8.3-3.5.9-5.2 1.5-.1 0-.3 0-.3-.2l.1-.3c1.3-.5 2.7-1.1 4-1.8-1.2.1-2.2.5-3.3.9Zm-5.4-13 .5-.4a1 1 0 0 1-.4 0v.1l-.1.3Zm.9-2.2c1.4-.9 3-1.7 4.7-2a9 9 0 0 0-4.7 2Zm3.7-.4a31 31 0 0 1 5-.6c-1.8 0-3.6-.2-5 .6ZM58.7 68.1c.7-6.6-.7-11.4-5.2-17a19 19 0 0 1 5.2 17Z"/><path class="cls-2" d="m59.3 64.6-.3-.3c.1 0 .2.4.5.3.2-1.5-.5-3.1-1-4.6a25.7 25.7 0 0 0-4.8-8c3.2 3.2 5.6 8 6 12.4 0 .2-.2.3-.4.2Z"/><path class="cls-2" d="M59.7 67.7c-.3-.9.4-1.7.6-2.5-.6.3-.6-.7-.4-1 .6-1.8 1.6-3.4 1.7-5.3-1.3 1.8-1.3 4.1-2.4 6-.4.3-.6-.4-.5-.7-.5-2.6-.4-5.4-1-8-.3-.7-.3-1.5-.7-2.2l-1.7-1.9c-.4-.4-.1-1 .5-.8 1.5.5 1.4 2.3 2.3 3.3 0-.4-.1-.9.2-1.1v-.6c.2 0 .3.2.4.3.4 1.2.6 2.5.8 3.8.2-.5.2-1 .8-1.2.6-.2.3.7.4 1 1.1-.2.5 1 .5 1.6.6-1.1 1.1.4 1 1 .8-.4.8.3.7.9.9-.1.6.6.6 1.2 3.2-4.5 0 4.2-1 5-.2 0-.4 0-.5-.2 0 0-.1-.4 0-.4l.1.5h.2c.8-.6 1-1.9 1.5-2.8.4-1 1-2 .8-3.2-1.1 1-1.4 2.4-2 3.6 0 .2-.1.5-.4.4l-.2-.1c.3-1.3 1.3-2.3 1.1-3.6-.6-.2-2.4 8.6-3.4 7Zm1.7-5.4-.4 1.2v.2c.4-1.2 1.2-2.3 1.3-3.6l-.9 2.2Zm-2.5-.9v-1.3h-.2l.2 1.3Zm1-.4c.5-1 .7-2.1.9-3.2-.5 1-.7 2.2-.9 3.2Zm-.6-1c.3-.5.3-1 .2-1.5-.2.4-.1 1-.2 1.5Zm.4-1.1.2-.3v-.7l.2-.8v-.4c-.1.7-.6 1.4-.3 2.2ZM58 55.2l.4 2.4c0-.9.2-1.8-.5-2.5v.1Zm1 .6h.1c0-.5 0-1-.2-1.6v1.4l.2.2Zm-2.4-3 .1.2c-.2-.5-.5-1-1-1.2.2.4.6.7.9 1Zm1.7.3v.3h.4c0-.2-.2-.4-.4-.4v.1ZM46 64.8c-1-.6-2.3-1.3-3.2-2 4.1 3.2 9.5 2.9 14.3 4.4-3.5-1-7.5-1-11-2.4ZM49.9 63a69 69 0 0 1-8-5.4c2.8 1.9 5.7 4 8.7 5.7L50 63Z"/><path class="cls-2" d="M47.5 63.7c-1.7-.8-3.3-1.9-4.6-3.2l1.3 1c1.8 1.5 4.1 2.4 6 3.6l-2.7-1.4Z"/><path class="cls-2" d="M47 64c-2.4-1-4.4-2.7-5.5-5 1.5 2.8 4.5 4.8 7.6 5.5-2.3-1.2-5.6-2.7-6.6-5.2.3-.2.9.4 1.2.6 2.7 1.9 5.2 4.2 8.4 5.4-2-1.2-3.5-3-5.4-4.3-.8-.5-2.1-1-2.2-2 .2-.2.5.1.8.2 1.2.8 2 2 3.5 2.6l-1.3-1.1c1.5 1.4 3.7 1.9 5.1 3.3.1.2-.2.3-.4.3l-.3-.1c-1.2-.7-2.1-1.9-3.5-2.3l4.1 3.2c.4.2 1 1 .3 1l-3.2-1.3c-.8.1-1.8-.5-2.6-.8Zm1-.5.8.4c-1.9-1.2-3.7-2.6-5.6-4 1.3 1.6 3.1 2.7 4.9 3.6Zm4 .6h.4c-.7-.7-1.7-1.1-2.5-1.6l2 1.6Zm-6-3.8-1-.9 1 1Z"/><path class="cls-2" d="m51.7 63.9 1.3.3h.1c-1.8-2.3-4.4-4-6.6-6-1.4-1-3-2-3.8-3.6 2.7 3.2 6.9 5.4 9.8 8.6 1.5 1.4.3 1.2-.8.7Z"/><path class="cls-2" d="M55.8 67.9c-4.4-4.4-8.4-9.4-13.4-13.2 4.8 3.2 9.4 8.9 13.4 13.2Z"/><path class="cls-2" d="M52.6 66c-2.3-1.7-3.5-4.4-5-6.6-1.3-2.4-3-4.7-4.5-7l2.7 3.7c-.3-.7-1.2-2.3.4-1.1 1.2 1.3 2 3 3.2 4.5-1-2.2-2.6-4.4-3.2-6.6 1.1-.5 2.1 2.4 2.8 3.1-5.1-10.9 5.7 6.6 5.5 8.8.2.3.6 1.4-.1 1-1-1.1-1.6-2.4-2.3-3.7-1.4-2.8-3.4-5.3-5-8 2 4 4.1 7.9 6.7 11.6.2.2-.2.4-.4.2L46 55.4c1.1 2.8 3.2 5.1 5 7.5.3.5 3 3.3 1.6 3Zm.1-.4c-1.3-2-2.9-3.8-4.3-5.7 1.2 2 2.3 4.2 4.3 5.7Zm-.5-4.6 2 3.2c-1.4-3.7-3.8-7.2-6-10.7 1 2.2 2.1 4.4 3.4 6.5l-1-2.3c.6 1 1 2.3 1.6 3.3Z"/><path class="cls-2" d="M56.1 66c-1.2-3-1.8-6.5-3.6-9.4.5 2.9 2.4 5.6 2.6 8.5 0 .5-.7.4-.7 0-2-4.5-3.6-9.1-5.8-13.5.9 1.6 1.7 3.5 2.5 5.3-.3-1.2-1-2.2-1.1-3.3.5-1.4 1.6 2.3 2 2.7-.4-1.5.6-.6 1 .1-.1-1-.8-1.8-.7-2.7.6-1.2 1.3.6 1.6 1.1-.1-.6-.7-2.8.7-1.8.8 1.2 1.1 2.6 1.6 3.9 0-.4-1.3-6-.3-4.6 1.7 4 2.2 8 3.2 12.1-1.1-3.7-1.7-8-3.3-11.6.6 2.9 1 5.9 1.8 8.8 0 .5 1 3.7.2 3.3-.3-.1-.4-.4-.4-.6a31 31 0 0 0-3.2-11c.4 4 2.6 7.8 2.7 11.8 0 .2-.1.3-.3.3.2.3 0 1.3-.5.7Zm-1-5.2.6 1.7c-.7-2.9-1.1-6-3-8.6.9 2.3 1.4 4.7 2.3 7Z"/><path class="cls-2" d="M44.7 62c-2.2-1.9-3.7-4.3-5.2-6.6 1.5 2 3.1 4.5 5.1 6.3.3-.4-4.4-7.6-2.2-5.4 0-.4-.5-1.1-.1-1.4.6-.2 1 .4 1.3.9-.2-.6-1.8-4.6-.7-4 .7.4 1 1.1 1.4 1.8l-1.5-4.5c0-.2.1-.3.3-.3.5.2.8.8 1 1.2 1.1 2.4 2.4 4.6 3.6 7 0-.7-3.5-11-1.5-9 .6-1.3 2.5 3.2 2.8 3.6-.3-1.2-.7-2.4-.8-3.6 0-.2.3-.3.4-.2 1 .7 1.2 2 1.7 3l-1.5-5.2c.4-1.6 2.1 4.1 2.4 4.5l-.9-3.4c0-.1.2-.3.4-.2.4.1.6.6.7 1l1.7 4.3c-.1-.8-.4-1.7-.4-2.5l.2-.2.3.1c.4.8.5 1.6.8 2.4-.1-.8-.7-2.4.6-2.4l.2.1c1 1.9 1.7 3.8 2.4 5.7L56 49.2s0-.2.2-.2c.7 0 .7.8.8 1.2 0-.5-.3-1.4.6-1 .3.3.4.6.5.9l1.3 4-.4-3c0-.2.1-.3.3-.3 1 0 1 1.3 1.2 1.9h.2c0-.5-.4-1.6.3-1.8.1 0 .2 0 .3.2.6 1 .8 2 1 3.1.5-3.2 1.8 3.1 1.7 3.7 0-.5 0-1 .2-1.5h.1c.3 1.2.4 2.4.4 3.6v-.2l-.4-3c-.2 1.1.1 2.3-.1 3.4H64c0-2-.3-4.2-1.1-6.1.2 2.2.7 4.5.7 6.8 0 .1-.1.2-.3.2-.1 0-.2 0-.2-.2l-.2-2c-.3-2-.8-4-1.4-6l.8 6.9c0 .1 0 .2-.2.3-.2 0-.3-.1-.4-.3-.2-.6-.2-1.3-.3-2-.2-2-1.1-4-1.7-6.1L61 59c0 .1 0 .3-.2.3s-.4-.1-.4-.3c-.5-3-1.8-6-2.7-9l.6 6.4-.1.3c0 .6.3 1.3.2 1.9l-.2.2c-.2 0-.3-.1-.3-.2-.8-3-1.8-6.1-3.3-9-.2 1.4.4 3 .5 4.3 0 .5.6 1.5 0 1.7 0 0-.2 0-.2-.2l-1-3.2.5 2.9-.2.2c-.2 0-.3 0-.3-.2-.6-2-1.5-3.9-2.2-5.8l1.9 6.8.5 1.6c0 .1 0 .2-.2.3-.1 0-.3 0-.3-.2-.8-2.5-1.6-5-2.7-7.4l1.6 5.5c0 .1-.1.3-.3.3-.4 0-.3-.6-.4-.8a60 60 0 0 0-2.8-6.8l1.3 6c.1.3-.4.4-.5 0-.7-2-1.6-4.1-2.9-6 .2.5 3.5 7.8 1.3 5.6-.8-1.8-1.2-3.8-1.9-5.6.7 3.7 1.9 7.4 2.9 11.1 0 .3-.4.4-.5.1-1.4-3.3-3.4-6.4-4.8-9.6.9 2.7 1.6 5.5 2.9 8.2 0 .2.2.5 0 .6-.5 0-.5-.5-.7-.8-.8-1.9-1.8-3.8-2.8-5.6a29 29 0 0 0 2.7 7c0 .2 0 .5-.2.5-.7-.4-.8-1.4-1.2-2L43 55.5s-.1-.2-.3-.2c.2 1.5 1 2.8 1.7 4.2l-.2.2c.3.7 1 1.5.8 2.2 0 .1-.1.1-.2 0ZM87.6 59.7l.1-.3 2.3-.7c3.4-1 7-2 10.2-3.6l-8.7 1.6c-1.7.4-3.3 1.3-5 1.4-1-.5.8-.7 1.2-1 4-1 8.3-2 12.1-3.8-3.5.4-6.9 1.5-10.3 2.5a46.8 46.8 0 0 1-3.6.7c-.1-.5.7-.5 1-.7 3.3-1.2 7-1.5 10.2-3-2.6.2-5.1.7-7.6 1.4-.7.3-1.5.5-2.3.6l-.3-.1.1-.3c.6-.3 1.2-.5 1.9-.6 3.3-.8 6.4-1.8 9.6-2.8-5.1.8-10 2-15 3-.5 0-1.6.5-1.5-.2-1.1-.4 1.4-1 1.8-1.2l11.4-3-8.5 1.5c-.7.1-5.6 2-4 .4-.3-.4.3-.6.6-.7 2.8-1 5.6-2.1 8.4-3.4-3 .9-5.8 1.7-8.6 2.8-.4 0-3.4 1.7-2.5.4-3 0 6-3.3 6.3-3.7-1.6.5-3 1.4-4.7 1.7-1.2-.2 3-2.2 3.3-2.5-2.5-.1 3-1.8 3.6-1.9.4-.2 3-1.4 2.7-.4l.6.1c0 .1-.1 0-.2 0h-.4c-2.6 1.4-5.6 2-8 3.7 2.2-.8 4.4-2.1 6.7-2.6.5.5-.6.8-.9 1a166 166 0 0 1 6.7-2c0 .5-.8.6-1 .8l-6.8 3 5.1-1.4c1.6.4-2.5 1.8-3 2l4.7-1.1 1.1.1c1.1.7-4.6 2-5.2 2.3 1.7-.1 3.8-.9 5.5-.6.1.2-.1.5-.3.6-1 .6-2.1.6-3.2 1 .5 0 10.2-2 8.3-.7 1.5.7-5.3 2-5.9 2.4.8-.1 3.8-.5 2 .7 1.2-.3 5.1-1 2.1.8-1.2.6-2.6 1-4 1.5 11.2-2.3 3.3 1-1.3 2.5l3-.6c2 .4-2.9 2-3.4 2.2 1-.2 2-.6 2.9-.6 0 0 .4.2.3.3-1.3 1-2.9 1.8-4.4 2.7 1.4-1 3-1.7 4.3-2.7-.2-.3-.6-.2-.8-.1l-5.1 1.3c-.2 0-.3-.2-.1-.2 2-.8 4.3-1.5 6.3-2.6a166 166 0 0 0-9.8 2Zm-.5-7.3-1.2.4-.5.1 11.4-2.3c-3.3.5-6.6 1-9.7 1.8Zm-2-4-2.3 1-1.3.7c3.7-1.3 7.2-3 10.8-4.5-2.4.9-4.9 1.7-7.3 2.8Zm-.2 2.4-.8.3c3.9-.7 7.6-2 11.3-3.3-3.5.9-7.2 1.6-10.5 3Zm.2-5c1.3.3 2.3-1 3.5-1.4-1.2.4-2.6.8-3.5 1.5Zm2.4-.4h-.1c1.2-.3 2.4-.9 3.5-1.4-1.2.2-2.3.9-3.4 1.4Zm3.3-1.5h.3l.1-.1-.5.1ZM76.6 29.7l-.3-2h-.2c0 .2 0 .8-.4.8-.4-.2-.3-1-.5-1.5-1-.6-1.8-1.4-2.9-2-1-1.4-2.5-2.7-3-4.4-.6-1.4-1-2.9-.3-4.1.3-.5.8.2 1.2.3-.1-1.6-.3-3.4.3-5-.3-.6.2-.9.5-.2l.1-.2v.3l.6 1.8c0-.4-.5-3 .4-2.1.7 1.4 1 2.8 1.4 4.3-.2-2.1-.8-4.5-.4-6.5.3 0 .4.2.6.4.7 1 .7 2.2 1 3.3l-.1-3.4c.1-.5 1 .2 1.2.5.7 1.6.7 3.3 1 5v-4.3c-.1-1-.2-2 .3-2.7 1.4-.7 1.9 6.7 2.1 7.7V8.8c.3-.8 1 .7 1 1l.5-4.2c.2-.8 1.2.7 1.3 1 .7 3 .6 6 1 9 .2-1 .5-12.3 1.7-11.1 1 1.2.9 2.8 1.1 4.2.3-.6 0-2.6 1.2-1.7.5.8.4 1.7.4 2.5.1 2.6 0 5.2-.3 7.7a55 55 0 0 1 2.1-8c0-.1.3-.2.4 0 .7.3 1 .9 1 1.5-.1 1.5-.5 2.9-.6 4.4 2.4-6.1 3.6-3.5 2.1 1.3.5-.6 3-5.6 3.8-4.5.5 1.1 0 2.3-.3 3.3.2-.4 2.3-1.9 2.4-.8.5 1.5-.7 2.8-1.4 4 1.2-.5 2.2-1.3 1.8.6l1.8-1.4c.6-.3.7.3.5.7-.7 1.4-2 2.4-3 3.6 1.2-.9 4.3-2.5 2.5.4-1.9 2.4-4.2 4.4-6.4 6.6a81 81 0 0 1 4.6-2.4l-3.1 2 2-1.4c-2 1.2-4.2 2.3-5.7 4-.3.3-.6.5-1 .6-.4 0-.3-.3 0-.4 2.5-2.1 4.8-4.6 7.1-7 .9-1 2-1.8 2.4-3-5 1.9-7.4 6.7-11.2 10-.3.3-.7-.1-.4-.4h-.2l-.4-.1c-.4.5-1.2 1.9-1.4.4 0-.8.4-1.5.8-2.1l-.2-.2c-2.7 3.9.7-4.8 1.3-5.5C90 20 92.6 16.3 92 12.2c-3.2 4.5-3.4 10.4-5.8 15.4-.1.2-.5.1-.5-.1.5-4.7 3.4-8.8 3.8-13.5 0-1.3 1-3 0-4.3-1.8 5.5-2.7 11.3-3.9 17-.2.4-.1 2.2-.8 1.8l-.3 1.6-.3.2c-.8-.3-.6-1.3-.5-1.9.7-4.7.8-9.5 1.3-14.2.4-3 .6-6.1-.5-9A136.7 136.7 0 0 0 83 29.7c-.2.6 0 1.9-.4 2.2-.4 0-.4-.4-.4-.7.3-6.6.7-13.3-.2-20-.3-1.7 0-3.6-1-5.1-.7 4-.3 8.2.5 12.4.6 3.8.4 7.6.4 11.4 0 .4-.6 1-.9.5-1-6.7-.3-13.5-1.3-20.2a17.4 17.4 0 0 0-.1-.7A326.3 326.3 0 0 0 80 30s-.1.2-.3.2l-.2-.3c0-2.2 0-4.4-.2-6.6-.4-4.8-.6-9.8-2-14.5-.3 4.4 0 9 .6 13.6.2 2.4.4 4.8.4 7.2 0 .2 0 .5-.3.5a212 212 0 0 1-1-10.6c-.3-2.6-.9-5-1.3-7.6-.1-.6-.2-1.3-.7-1.8-.2 6.5 1.8 13.1 2 19.7 0 .3-.5.3-.5 0Zm4.3-12.1c.1 3.9.2 7.7.5 11.6a61.6 61.6 0 0 0-.5-11.6Zm-4.7 9.3c-.7-5.5-1.2-11-2.7-16.5.2 5.5 1.5 11 2.6 16.4l.1.1Zm-1.5-.9a20 20 0 0 1-.4-.5l-.9-1.1v.7l1.3 1Zm-1.9-1.4c.4-1.4-1-2.5-1.5-3.8.5 1.3.6 2.8 1.6 3.8Zm14.5 6c2-3.3 4.7-6 6.7-9.3a28 28 0 0 0-6.7 9.3Zm-15.7-7.2c-.7-2-1.2-3.8-1.4-5.8l-.8-.7c-.9 2 .8 4.8 2.2 6.5Zm16.7 7 .5-.5c1.8-2.5 4-4.6 6-7a34.5 34.5 0 0 0-6.5 7.4ZM74 24.2v-.1l-.5-.7.5.8Zm.7 0 .1.2v-.1l-.2-.2.2.2Zm0-.8c-.3-1.4-.8-2.7-1.3-4 .4 1.3.6 2.8 1.3 4Zm10.8-8-1 11.8a76.5 76.5 0 0 0 1-11.8ZM87.8 28c1.9-3.1 4-6 5.6-9.4-2.1 3-4.5 6-5.6 9.5Zm-14.7-6.2c-1-2.7-1.6-5.4-2.3-8.2 0 2.8.7 5.7 2.3 8.2Zm13-10.5a69 69 0 0 1-.7 13.8 63.4 63.4 0 0 0 1.3-17.5v-.2l-.7 3.9ZM73.3 18a84.4 84.4 0 0 1 .7 1.8l-2-6.9c.3 1.7.6 3.5 1.3 5.1Zm-2.4-.2.4.8c-.7-1.9-.6-3.8-.7-5.8-.2 1.6-.3 3.5.3 5Zm23.6 3.7-1.4 2c1.3-1.2 2.6-2.4 4-3.4.3-.5.6-1 .6-1.6-1.6.5-2.4 1.8-3.2 3Zm-3.4-2-1 2.6c1.8-3.1 5.6-5.9 5.3-9.7-1.8 2-3.2 4.5-4.3 7Zm5.7 1.9-1.2 1.4-.8 1c1.5-1.4 2.6-3 4-4.4-.8.6-1.5 1.2-2 2Zm-2.4-3.7a72 72 0 0 1-2.5 4.6c1.5-1.6 3.4-2.7 4.4-4.6.5-1 1.4-2 1-3.1-1.4.4-2.3 1.8-3 3.1Z"/><path class="cls-2" d="M69.5 18c-.8-4.3 1-8.3 3-11.9a20.7 20.7 0 0 0-3 11.8Z"/><path class="cls-2" d="M69.6 19.5c-1.5-4.8 0-9.9 2-14a22.4 22.4 0 0 0-2 14ZM87 33.5c2.2-1.5 4.4-3 6.7-4.3 1.6-1 6.8-3.5 6.2-5.5-.4.5-4.7 5.6-4.8 3.4.5-1 1.4-1.6 2.2-2.3.7-.6 1.3-1.3 2.2-1.5.3-.5 1.7-2.5.6-2.7-1.5.9-2 2.6-3 3.9l-3.2 3.7c-.1.2-.4 0-.5-.1v-.7c.9-1.5 2-2.7 3-4a13 13 0 0 0 4.2-8c-2.2 3.1-4.4 6.2-6.4 9.4-.2.3-.4 1-1 .9-.1-.1-.1-.3 0-.4l1.3-2c2-3.6 3.9-7.3 4.5-11.4-2 3.1-3.9 6.4-5.6 9.6-.6 1-1 2-1.7 2.8-.1 0-.3.1-.4 0-.1 0-.2-.2 0-.3.7-1.6 1.8-3.2 2.6-4.8 1.5-3.3 2.5-6.8 3.3-10.3-1.8 3-2.3 6.5-4 9.6-.3.5-5 9.6-4.8 6.1l3.8-7c1.1-3 3.8-5.8 3.5-9A56.2 56.2 0 0 0 90 19.9c-.7 1.5-1.4 3-2.3 4.4-.1.2-.4.5-.7.4-.3-.4.2-1 .3-1.4.9-2.2 2-4.3 3.2-6.4a27 27 0 0 0 2.5-9.2c-1.6 2.7-2.5 5.7-3.5 8.7 0 .7-3.2 8.2-3 4.6 1.5-4.6 4.6-8.8 4.8-13.8-2.5 5-4.2 10.3-6.4 15.5-.2.3-.2 1-.7 1-.2-.1-.2-.3-.2-.5 2.2-5 3.8-10.3 5-15.8-1.3 3-2.5 6-3.4 9-.6 1.7-1 3.5-1.8 5.1l-.3.1c-.3-.1-.1-.5-.1-.8 1.6-4.8 3.5-9.7 4-14.9-1.8 3.8-3 8-4.6 11.8 0 .3-.6.2-.5-.1 1.1-4.3 1.7-8.8 2.4-13.1l-3.3 9.8c-.2.4-.6 0-.6-.2.6-3.3 1-6.7 1.3-10a974.2 974.2 0 0 0-4.6 9.5l-.2-.3c.6-2 1.1-4 1.5-6.1-.7 2-1.4 3.9-1.9 5.9 0 .3-.5.4-.6 0 .5-2.1 1-4.3 1-6.5-1 2.1-1.7 4.3-2.5 6.4 0 .1-.2.2-.3.1-.2 0-.3-.2-.2-.3l1-3.7-1.7 4c0 .2-.1.2-.3.2L73 13c.5-2.2 1.2-4.4 1.6-6.6-.7 1.4-1.1 3.3-2.2 4.4-.2 0-.2-.3-.2-.5l.9-3c-.6 1.2-1 2.7-1.7 3.9-.1 0-.3.2-.4 0 0-1.8.6-3.8 1-5.5-.3 1.8-.8 3.6-.8 5.4.9-1.3 1.2-3 1.9-4.5.2-.4.2-1.2.6-1.4.1 0 .2.1.1.2L73 9c2.4-6 2.8-5 1.3.7L76 5.9h.3l.2.2-.5 2c1.2-3.5 2.2-3 1.7.6.2-.4 1.5-5.2 1.9-3-.1 1.5-.6 3-.9 4.5 4.5-10.2 4.4-9 3 1.1 1-2.7 1.9-5.5 3-8.2 1.6-1.5-1 10-1 10.9.4-.8 3.3-10.2 4-8.8.7 1.9-.4 3.8-.7 5.6.4-.5 1.7-5.5 2.3-4.4.4.9.1 1.8-.1 2.6-.5 1.5-.8 3-1.2 4.6.6-.9 2.6-8 3.6-7 .6.9 0 1.9 0 2.8.4-.8.6-1.9 1.5-2.4.2-.2.5 0 .4.2.2 2.2-.6 4.2-1.2 6.2 1-1.8 2-3.7 3.3-5.4.6-.4 1 1 .9 1.3.3-.5.7-2.2 1.3-.8-.2 2.7-1.3 5.3-2 7.9 1-1.6 1.7-3.6 3.1-5 2.4-1.1-1.5 7.6-1.8 8.3 1.1-1.5 2-3.3 3.3-4.7 2.2-1.5-.3 4.7-.7 5.3.4-.4 1-.2 1.3.2.5 1-.4 2-.8 2.9 1.6 2.2-5.6 5.5-7.2 6.5-2 1-4 2.5-5.9 3.6Zm8.5-6.3c1.5-.9 2.6-2.1 3.6-3.4-1.3 1-2.7 2.1-3.6 3.4Zm-1.3-12.4a331.3 331.3 0 0 1 .1-.3l-.1.3Z"/><path class="cls-2" d="M82.7 36.3v-.6c-.2-.1-.3-.4-.2-.6.6-1.3-.5-3.2.5-4.3 1-5.8.6-11.8 1-17.7 0-.3 0-.6.4-.5.6.2.2 1.3.3 1.9.1-.8-.1-1.9.7-2.3.2-.1.4 0 .5.1 1.4-1.6.2 5.3.4 5.9v.1c.7 2.5.4 5.3.5 7.8h.7c.8-1.3 1.7-2.8 2.6-4l-2.3 4.1.4.4c1.6-2 2.8-4.3 4-6.7 1.9-1.2-2.5 6.2-2.7 6.7 1-.8 5.2-6 6.3-4.6.6-.4 1.3-1.9 2.1-1.5.3.2.3.5.2.7l-2.3 2.6c-.8.9-1.2 2-2 3h.4l.1.1c.8-.2 1 .8.4 1.1-1.8 1.3-4.3 4.5-6.6 6.4-.5.8-1.9.7-1.7-.3.2-.8.8-1.3 1.3-1.9l-3 2.5c0 .6.3 1.7-.7 1.5.2.9-1.2 1-1.3.1Zm1.9-2.7.2-.2c-.1-.1-.2-.3-.1-.5l.2-.6-.3.1v1.1Zm3-3 .5-.5-.3.2-.1.3Zm-1-1.6v.3l.8-.7v-.8s-.2 0-.3-.2v-.3c-.4.4-.4 1-.4 1.7Zm3-.1-.4.2h.3l.5-.5c-.2 0-.3.2-.4.3Zm-2.2-1.4.1-.1v-.3s-.2.2-.1.4ZM77.1 54.7c-.2-.3 0-.6.3-.7 1.3-.9 2.8-1.4 4-2.3-1 .3-2 .6-2.7 1.2 0 0 0 .1 0 0 .7-.7 1.8-1 2.8-1.4.9-1 1.8-1.7 2.8-2.5 2.4-1.5 4.8-3.9 8-3.5.2 0 .5.1.5.4-.2.5-1 .3-1.3.5-2.9.7-5.6 1.9-7.2 4.3 2.5-.7 5-1.6 7.8-1.3.2 0 .5 0 .6.3.2.2-.1.3-.3.3-2.9.4-6 .3-8.6 1.4-.2.4-.7 1-.6 1.5.4.2.8-.2 1-.3-1.5 1-1.3-.1-.7-1.1-1.9.5-2.7 2.4-4.6 3-.5.1-1.2.6-1.8.2Zm6.2-3.7h.4l.2-.2.8-1-1 .8-.5.4Zm4.2-.7 4.4-.5c-1.5-.2-3 .2-4.4.5Z"/><path class="cls-2" d="M79.5 52.6c-.6-2.8.6-5.2 2.4-7.3 1.6-3.1 5-5 8.9-5.1.4 0 .8.4.4.6.3 0 .7.2 1 .4-1.3-.7-3.5 0-4.8.6-3.2 1.2-4.4 3.7-5.4 6.6-.2.4-.2 1.4-.9 1.4a.5.5 0 0 1-.4-.4c-.2-.8.2-1.7.4-2.5a7.7 7.7 0 0 0-1.6 5.7Z"/><path class="cls-2" d="M78.1 55c-.4-.4 0-.9 0-1.3l-.2.4 1.2-2.7-2.3 2.4c-.2.2-.5 0-.3-.2 1.5-1.7 3.2-3.2 4.3-5.2.5-1 .8-3 1.8-3.5-1 .6-1 2-1.4 3 .1-.4.6-.7.7-.1-.1.6-.7 1-1 1.5-.7.8-1.7 6.3-2.8 5.7ZM89.1 57.5c-.8-1-1.5-2-2.4-2.8-1.5-1-3.4-1.2-5.1-1.4l.3.6-.1-.1c0-.2-.3-.4-.3-.5l2 .2c1.2.1 2.4.3 3.4 1 .9.8 1.6 2 2.2 3ZM56.5 77.8c.5-2.7 1.6-5.2 1.8-7.9-.8-1.1-.6-2.6-.8-3.9-1-3.3-1.4-6.9-3.2-9.9-.7-1.1-2.2-2.2-2.3-3.5.3-.2.5.2.6.3.6-2 2.8.8 3.6 1.5 1.5 1.6 2.3 3.7 2.7 5.8.5 2.7 0 5.6.8 8.3.6 1 .1 2.2-1.2 1.6-.3 2.6-1.4 5.2-2 7.6Zm-2.3-22.2c-.4-.9-1.3-1.6-1.6-2.5 0-.2-.2-.4-.4-.5 0 1.2 1.3 2 2 3Z"/><path class="cls-2" d="M56.2 79c1.7-4.2 2.1-8.7 3.2-13 0-.2.3-.3.4-.2.2.1.4.3.4.5l-.1 2c.3-1.9 1.4-3.5 1.7-5.4.1 0 0 .1 0 0l-.2 1.3c2.4-1-3 11.4-3.3 12.4-.3 1-.6 2-1 2.8-.1.3-.5.4-.7.3-.3-.2-.5-.5-.4-.8ZM71.8 62.4C74.1 58.8 76 55 77.4 51a69.7 69.7 0 0 1-5.1 7.5c-.5.6-1.6-.2-1.1-.8a105 105 0 0 0 9.4-14.7.4.4 0 0 1-.2-.4c.4-1.5 1.3-2.8 2.2-4.1a10 10 0 0 0 2.3-5.2c0 .6-.2 1-.1 1.5.8-1.5 1.3-3.4 2.9-4.4 1.6-.4.3 1.6-.3 2.5.7-.7 1.4-1.5 2.2-2.1h.5c.2.2.2.4.1.6-1 1.3-2.2 2.4-3.1 3.6-3.2 4.4-6 9-8.1 13.9-2 4.6-4 9.4-7.2 13.4Zm12.6-26.7c.2-.4.4-.7.3-1.1l-.1.4-.2.7ZM82.7 53.3a15 15 0 0 1 9.5 3.9 18.4 18.4 0 0 0-9-3.8H83s-.4-.1-.2-.2Z"/><path class="cls-2" d="M93.1 60.3c.4-1.5-1.6-2.4-2.5-3.4-2.2-1.7-4.8-3.6-7.6-3.7 2.8-.3 6.3 2 8.5 4.1.8.8 2.2 2 1.6 3Z"/><path class="cls-2" d="M85.6 57v-.3c2.1-1.2 4.2-2.4 6-3.9a73.9 73.9 0 0 1-7 3.4c-.3 0-.7.2-.8 0V56c1.5-.9 3-1.6 4.4-2.7-2 .7-3.9 1.8-6 2.2v-.2c.8-.7 1.9-1.2 2.6-2-.9.2-1.8.7-2.5 1.2s.2 0 .1 0h-.2c.6-.6 1.5-.8 2.2-1.2.1 0 .6-.2.5 0-.6.8-1.6 1.3-2.4 2 2.1-.6 4-1.7 6-2.3 1 .2-2 1.8-2.2 2l5.8-2.9c1.3 0 .4.6 0 1l2.3-1.5h.3c.1.1.1.3 0 .4l-2.5 2 5.5-3.8h.4c.1.1 0 .3 0 .4l-3.6 3 4.6-3c.2-.2 1.4-.9 1.3-.2-.5 1.1-1.4 2-2.2 2.8 4.4-3.4.4 1.8-.8 3 1.2-.6 2-1.5 3.2-2 0 0 .2 0 .2.2l-.1.7a39 39 0 0 0-.4.3c.2-.2.3-.5.2-.9-1.1.5-2 1.4-3.1 2l-.3-.1V56c1-1.1 2-2.2 2.7-3.5-.4.2-2.5 2.3-2.6 1.2.7-1 1.8-1.8 2.5-3-1 1-12.6 8.3-6.4 3.2a120 120 0 0 1-5.8 3.2v-.3l2.3-1.7a38 38 0 0 1-3.9 2h-.3Z"/><path class="cls-2" d="M98.7 56.9c-.4-.9.6-1.5 1-2.2 0-.3.6-.6.2-1-.5.1-2.5 1.5-2.7.7.5-1 1.9-1.7 2-2.9-1.3.4-2.6 1.1-4 1.6h-.5v-.3c1.2-.8 2.6-1.5 3.7-2.5-.6.1-5.8 2.8-5.2 1.3 1.4-1.3 3.2-2.2 4.6-3.5-.4 0-6 3.2-5.2 2 1.4-1 2.9-1.7 4-2.8-.3 0-4.5 2.5-3.5 1.1.7-.5 1.3-1 1.9-1.7-.5.2-1 .6-1.6.7v-.2l.1-.1 1.4-1c.5 0 .5 0 .4.4.3-.2 1.4-.5 1.3.2 0-.7-1-.3-1.3-.1-.5.7-1.2 1.3-1.8 1.9.5-.1 3.7-2.2 3.7-1.4-.3.8-1.3 1.2-2 1.7 1.2-.4 2.2-1 3.4-1.5 1.5.4-3.8 3.5-4.3 4 1.4-.4 2.7-1 4-1.5 2.4 0-1.2 2-1.7 2.3.6 0 3.4-1.7 3-.3-.3 1-1.5 1.7-2.1 2.6.8 0 1.6-.6 2.4-.8.3 0 .4.5.2.6-.4 1-1.7 1.7-1.4 2.7Zm-5.2-9.6.9-.4.6-.3v-.1l.1-.2c-.6.1-1.1.6-1.6 1ZM37.2 92c0-1.2.6-2.3 1.1-3.3l-.2-1.6c-.7 0-.2-1-.2-1.4v-.9.8c1-3 2.6-6.2.9-9.3-.8 1.7-.5 4.1-1.2 6-.2.5-.2 1.8-1 1.2-.3-.6.1-1.2.1-1.8.4-2.4 1.7-4.8.5-7.3-.2-.7-.8-1.2-1.1-.4a7.4 7.4 0 0 0-.5 4.3c.2 1.4.7 3.4-.2 4.7-1.3.3-.8-4.1-.7-5 .4-1.7-.6-3.4-1.2-5.1-.3 0-.7 0-.9.2-.7 2.5-.1 5.7-1.7 8-.7.4-.9-.5-.8-1l-1.5 4.2c-.1.4-.7.5-.7 0 1.3-4.1 3-8.3 3-12.7-.3.3-3 6.4-3.3 4.8.3-1.4.8-2.9.4-4.3l-.2.1c-.3 2 0 4.3-.7 6.3-.2.9-.8.7-1-.2-.1-1.9.5-3.6 1-5.4.3-.5.2-1 0-1.6-.2 0-.3 0-.4.2a126 126 0 0 0-2 3.6l.3-1.7c-.2 0-.2-.2-.2-.4 0-1.5.4-.6.3.3l.3-.1-.3.1v.5l-.2.8c.6-1.1 1-2.4 1.8-3.4.1-.1.5-.2.6 0l.2.7c1.5-1 1 2.5.9 3.1l2.2-3.7c2-1.4.3 4.3.3 5 .4-1 .5-2.4 1.2-3.3.2-.6.9-.6 1.5-.6l.3.1 1.2 3c.5-3.8 2.8-2.9 3.1.6 1.5-1.5 1.9 2.8 2 3.7.4-.8.4-2.4 1.7-2.1.1 0 .3 0 .3.2.7 2 .2 4.2-.4 6.2 1 1 .4 2.2 0 3.3-.4.8-1.5 3.7-2.8 2.8-.2.3-1.5 2.6-1.8 1.7Zm.4-.6 1-1.6v-.2l-.1-.3-.9 2Zm1.7-1.2c1.2 0 1.6-1.7 2.2-2.6.3-1 1-2.2.2-3.2-.7 2-1.6 3.9-2.7 5.7l.3.1Zm-.6-.5c.9-1.6 1.7-3.1 2.3-4.8-1 1.3-1.7 2.8-2.5 4.3l.2.5Zm-.3-1.2c.8-1.4 1.4-3 2.8-4 .5-2 1.2-4.2.5-6.3-.6 0-.6.7-.8 1.1-1.4 2.4-1 5.7-2.7 7.8l.2 1.4Zm-7.8-7.9c.8-1.4.9-3.2 1.1-4.8-.4 1.6-1 3.2-1 4.8Zm-4-1.9c.6-1.7.8-3.5.8-5.3-.4 1.7-1.2 3.5-.8 5.3Zm8.7 3.5c.1-1 0-2-.1-3.1 0 1-.2 2 0 3.1Zm-10.4-8.9h.1v-1c-.2.3-.2.6-.2 1h.1Z"/><path class="cls-2" d="m35.7 93.5-.3-.5v-.2c-.1 0-.3 0-.3-.2h-.6c-1.5-.1-.8-1.8-.9-2.7 0-2.5.2-5-.4-7.3-.4-1.3-1-2.7-.5-3.9 0-.5-.3-1.4.4-1.5v-.9l-.7-1c.3-.1.5 0 .6.2-.1-.8-.3-1.6-.3-2.5 0-.2.1-.4.4-.4.2 0 .4.2.5.4.2 3.6 1.5 7 2.7 10.4.6-1.8.7-4 2-5.4 1.2.3 1 1.8.8 2.7.2-.5 1.2-2.2 1.7-1 .2 1.2-.4 2.5-.7 3.7.4-.6 1.2-1.4 1.5-.1.5-2 .4-4 0-6.1 0-.2-.2-.4-.4-.4-.3.2-.3.7-.5.8.2-.3.2-.8.6-.8.5 0 .5.6.6 1 1 5.1-1 10.2-4.2 14.2-.5.4-1.1 2.2-2 1.5Zm.9-1.5 1.5-2.3c-.7.7-1.2 1.4-1.5 2.3Zm3-6-.6 1-.9 1.4 1-.5 1.3-3.3-.9 1.5Zm-1-1.8-1 3c1-1.7 1.6-3.6 2-5.5l-1 2.5Zm-2.8 1.3c1-2.2-.7-4.5-1.3-6.8.6 2.3.6 4.6 1.3 6.8Zm1.1-.1c1-2 1.7-4 1.5-6.2-.7 2-1.3 4-1.5 6.2ZM33 76l.2.2c0-.3 0-.7-.4-.9h-.2c0 .3.2.4.4.7ZM38.1 105.5l.1-.3c1.9-1.7 4.9-1.7 7.4-1.7-.3-.8.7-1 1.4-1 0-.7 1.1-.3 1.4 0 .6 0 1.1 0 1.6.3.6.3-.1.6-.5.6l.3.3.1.1c1.9.2 3.7.2 5.6.5.3 0 .5.3.8.5v.3c-.3.3-.6.6-1 .7.5.3 1 .7 1.3 1.2.1.2.2.4 0 .6-.3.3-.6 0-.9 0h-.1c.1-.1.3-.1.4 0l.6-.1c.1-.8-1-1.3-1.6-1.6-1 .2-2 .3-3 .2.3.5 2.3 1.9 1.4 2-.9 0-2-1-2-1.8l-.1-.3c-2-.4-4-1-5.6-2.2-2.5-.1-5.6-.2-7.5 1.4v.3Zm12-.3.6.2-.9-.9a10 10 0 0 0-.4-.4l-2.7-.2c1 .5 2.2 1 3.4 1.3Zm-3.9-1.6H48l1.1.2-.3-.3-.1-.1c-.4 0-.8-.2-1.1-.4-.4 0-1.8 0-1.2.6Zm4.6 1 .6.8.2.2h.2c.7-.6 2-.4 2.8 0 .5-.1 1-.3 1.3-.7l-.6-.3-5-.4.5.5Zm1.5 1H54c-.6-.1-1.3-.2-1.8 0ZM51.5 90.3V90c-1 .2-1.5-.7-.7-1.2 1.7-.7 3.8-.8 5.3-2-.6 0-1.4-.4-1.1-1 1.1-1.4 3.7-1.2 5.5-1.4 1.5.2 14.3-.4 12.7 1.9.6 0 .6.7 0 .6.9.7-.2 1.2-.9 1l-6-.3c.7 1 2.6 2 3 2.8l-.3-.1-3.2-2.7c-2.6-.2-5.1-.5-7.4.7h3.8l-3.6.1c-2.1.5-4.1 1.6-6.2 2.3-.3.1-.7 0-.8-.4ZM58 86h.6-.6Zm2.1.2h.5a8 8 0 0 0-.5 0Z"/><path class="cls-2" d="M44.3 93.1c-.8-1.8 7.7-5 9.4-4.7l3 .2c.3.1.4.6 0 .7.5 1.4-2.2.5-3 .4 2.8 1.3 4 4 5.7 6.1-1.2-1-2-2.5-3.1-3.7-1-1-2.3-1.6-3.5-2.3-1.3.3-2.6.6-3.6 1.4.2-.1.4-.2.7 0h.1c-.8-.4-1.4.5-2 .8-.2.1-.4.4-.7.3-.8.4-2.3 2-3 .8ZM54 67c-.3-.2-.2-.8.2-.8l1.4.1v-.2c-3.6-1.5-1.4-1.2.6-2.2l.3-.2c0 .3-.7.4-1 .5l-1.7.8c.4.5 1.3.6 2 1 0-.2.3-.3.6-.4 0 0-.5.2-.6.4.6.2 1.1.4 1.7.4.1 0 .2.1.1.2.4.2 2.5.3 1.7 1 .6.2 2.3.5 2 1.3 0 .2-.2.3-.4.2-2.2-.8-4.6-1.4-6.8-2.1Zm1.7-.7h.5c-.1 0-.3 0-.5-.2v.2Z"/><path style="fill:none;" d="M0 0h105v126H0z"/></svg>