<svg id="_イヤー_2" xmlns="http://www.w3.org/2000/svg" viewBox="0 0 409 43"><path style="opacity:.11;" d="M2.8 41a900 900 0 0 1 55.3-14.5 655.4 655.4 0 0 1 107.5-14.4 512.5 512.5 0 0 1 65 1.5l-2.2-2.3a73 73 0 0 0-16.4 3.2 88.6 88.6 0 0 1-15 8 58.5 58.5 0 0 1-11.8 3.5c-1.4.3 1.8 1.3 2.3 1.2 10.3-1.7 20.6-3.6 30.8-5.8l28-6.9 14.5-2c10.2-1.4 20.4-2.8 30.6-4a680.5 680.5 0 0 1 79.7-4.6c11.3 0 22.7.5 34 1.3.7 0-.2-.9-.2-.9-.4-.4-1.2-1.3-1.9-1.3a552.1 552.1 0 0 0-66.6-.5 738 738 0 0 0-69.7 7L246.6 12a478.9 478.9 0 0 0-30.1 8.6c-10.4 2-20.9 3.7-31.3 5.5l2.6 1.2c2.1-.4 4.2-1 6.2-1.8l9.4-4.6c4.6-2.4 9.4-4.1 14.4-5.3 4.3-1 8.5-1.5 12.8-1.9.7 0-.1-.8-.2-1-.5-.4-1.3-1.2-2-1.3a479.8 479.8 0 0 0-65.2-1.2c-18.5.8-36.9 2.6-55.2 5.2C90.4 17.8 73 21 55.6 25 37 29 18.7 34 .4 39.3c-.6.2.3.8.4.9.4.3 1.5 1 2 .8Z"/><path style="opacity:.11;" d="M3.4 39.5A776 776 0 0 1 88.2 19c31-5.3 62.3-8.9 93.7-9l16.3.1c10.9.2 21.8.9 32.7 1.9l-1.3-1.7c-4 .3-7.8 1-11.7 2-2.7.2-5.2 1-7.4 2.4a99.5 99.5 0 0 1-13.2 6.2 64 64 0 0 1-11.7 3.3c-1.4.4 1.6 1.4 2.1 1.3 10.2-1.7 20.4-3.6 30.5-5.7l15-3.5c14.3-3.3 28.7-5.8 43.2-7.5 7.7-1 15.4-2 23-2.8a636.2 636.2 0 0 1 72-3.8c11.3.1 22.7.6 34 1.4 1.2 0-.4-1.6-1-1.6a553.2 553.2 0 0 0-66.7-.6c-15.7.8-31.4 2.2-47 4l-23 3-20.7 2.7a169.1 169.1 0 0 0-30.1 7.7c-10.5 2-20.9 3.8-31.3 5.5l2.4 1.2c2-.6 4.2-1 6-1.7 4.2-1.5 8.1-3.8 12.1-5.6 3.2-1.4 6.2-2.7 9.5-3.6 5.2-1.3 10.2-2 15.5-2.6.8-.1-.9-1.6-1.2-1.7-11-.8-22-1.6-32.9-1.8a508.6 508.6 0 0 0-72.3 3.5 642.4 642.4 0 0 0-60.7 10C42.9 26.5 22 32 1.4 38c-.7.2 1.4 1.6 2 1.4Z"/><path style="opacity:.11;" d="M4 40.8a878.8 878.8 0 0 1 55.2-14.5 658.8 658.8 0 0 1 107.4-14.5 512.2 512.2 0 0 1 65 1.6l-2.7-2.7a65 65 0 0 0-16.1 3.4 84.9 84.9 0 0 1-14.9 8 55.2 55.2 0 0 1-11.7 3.6c-.5 0-.3.3-.1.6.2.4 1.7.6 2 .6a906 906 0 0 0 31.1-5.7l14.8-3.6c21.8-5.1 44-7.9 66.2-10.3a642.9 642.9 0 0 1 72-3.7c11.3.1 22.6.6 34 1.4.7 0-.4-1-.4-1-.5-.5-1.5-1.6-2.2-1.6a553 553 0 0 0-66.7-.5 723 723 0 0 0-47 4.3c-7.5 1-15 2-22.6 2.8L248 11.3c-10.4 2-20.6 5-30.5 9-10.4 1.8-20.8 3.7-31.3 5.4l2 1.2a22 22 0 0 0 6.4-1.8l13.9-6.6c3.3-1.5 6.7-2.6 10.3-3.3 4.2-.9 8.5-1.5 12.9-1.8.7 0-.3-1-.4-1-.6-.6-1.6-1.6-2.4-1.7a475 475 0 0 0-65.3-1.3A672.3 672.3 0 0 0 55.9 24.2 1031 1031 0 0 0 .7 38.7c-.8.3.5 1 .6 1 .5.4 2 1.4 2.6 1.2Z"/><path style="opacity:.11;" d="M5.7 42.5A856.2 856.2 0 0 1 61 28a654.7 654.7 0 0 1 107.4-14.4 512 512 0 0 1 65 1.6l-3.2-3c-3 .6-5.6 1-8.3 2.2l-7.7 3-10.5 4.5c-5.6 2.2-11.6 3.5-17.4 4.9-.3 0-.5.9 0 .8 10.4-1.6 20.7-3.5 30.9-5.8a1000.6 1000.6 0 0 1 76.7-12 671.3 671.3 0 0 1 79.9-4.4c11.3 0 22.7.6 34 1.4.8 0-.5-1.2-.4-1.1-.6-.6-1.7-1.8-2.5-1.8a543.4 543.4 0 0 0-66.6-.4 765 765 0 0 0-91.7 11.6c-9.7 1.8-19.3 4-28.8 6.4l-31.5 5.3v.8c7-1.6 13.8-3.3 20.3-6a59.4 59.4 0 0 1 26.8-6.3c.8-.1-.5-1.2-.5-1.2-.6-.6-1.8-2-2.7-2a474.7 474.7 0 0 0-65.4-1.3A671 671 0 0 0 57.1 25.6C38.7 30 20.4 35 2 40.2c-.8.2.6 1 .7 1 .6.4 2.2 1.6 3 1.4Z"/><path style="opacity:.11;" d="M5.5 41a870.6 870.6 0 0 1 55.3-14.5c17.4-3.8 34.8-7 52.4-9.4a569.3 569.3 0 0 1 87.3-5.3c10.9.2 21.8.9 32.7 1.9l-3-2.8c-2 0-4 .5-5.8 1-3.4 1.1-6.8 2.3-10.1 3.6a254 254 0 0 1-10 5c-5.7 2.2-11.5 3.9-17.5 5-.7.2.3 1 .8 1 10.2-1.8 20.4-3.6 30.5-5.7 9.8-2.5 19.7-4.5 29.7-5.9 15.3-2.4 30.6-4.7 46-6.5a681.4 681.4 0 0 1 79.8-4.5c11.3 0 22.7.5 34 1.3.8 0-.4-1-.4-1-.5-.5-1.5-1.6-2.3-1.6a545 545 0 0 0-66.6-.4 790.2 790.2 0 0 0-92 11.2c-9.5 1.8-19 4-28.3 6.6-10.4 2-20.8 4-31.2 5.5l.8 1c5.8-1.5 11.6-3.1 17.2-5.3 4.8-2.7 9.9-4.6 15.2-5.8 4.3-1 8.7-1.5 13.1-1.7.8-.1-.4-1-.4-1.1-.6-.6-1.6-1.7-2.5-1.7A475.6 475.6 0 0 0 165 9.5 672.7 672.7 0 0 0 57 24.3 1073 1073 0 0 0 2 38.7c-.8.2.6 1 .7 1 .6.4 2.2 1.6 3 1.4Z"/><path style="opacity:.11;" d="M2.8 39.6a659 659 0 0 1 107.6-24 566 566 0 0 1 87.3-5.3c10.9.3 21.8 1 32.6 2l.2-.9c-4.6.5-9 1.2-13.5 2.4a40 40 0 0 0-10.7 3.1l-10.6 3.8a96 96 0 0 1-11.8 3.1c-.5.1-.4.3-.2.6.3.4 1.8.7 2.2.6 14.6-2.8 29.1-6.2 43.8-8.8C245 13.4 260.4 11 275.8 9l46.6-5c10.7-.8 21.4-1.3 32-1.5H371c11.3.1 22.7.6 34 1.4.3 0 .7-.8.1-.8a559.3 559.3 0 0 0-66.6-.8c-15.7.8-31.3 2.1-47 4-15.3 1.8-30.7 4.1-46 6.6-20.6 3.3-41 7.4-61.5 11l2 1.1c3.9-.8 7.6-2 11.3-3.5l9.7-3.9a65.9 65.9 0 0 1 23.5-5.3c.3 0 .6-.8 0-.8a471.2 471.2 0 0 0-65-1.7 660.2 660.2 0 0 0-162.7 29c-.4 0-.5 1 0 .8Z"/><path style="opacity:.11;" d="M2 40.8a923.6 923.6 0 0 1 55.2-14.4c17.4-3.9 34.8-7 52.4-9.5a569.7 569.7 0 0 1 87.3-5.3c11 .2 21.9.8 32.7 1.8l-.9-1.4c-4 .3-8 1-11.9 1.8a15 15 0 0 0-7.5 2.3 106 106 0 0 1-13.4 6.1c-4 1.5-8 2.6-12.1 3.4-.6.1.3.6.4.7.5.3 1.7.7 2.3.5a738.6 738.6 0 0 0 58.6-12.4l14.7-2c10.2-1.5 20.5-2.9 30.7-4.1a673 673 0 0 1 79.7-4.6c11.3 0 22.6.5 34 1.3 1 0-.2-1.4-.7-1.4a559.2 559.2 0 0 0-66.6-.6 732.4 732.4 0 0 0-70 7l-22.2 3a299 299 0 0 1-29.3 7 1284 1284 0 0 1-31.3 5.6l2.7 1.2c2-.6 4.2-1 6.1-1.7 4-1.5 8-3.8 11.9-5.5a64.3 64.3 0 0 1 25-6.2c.9 0-.6-1.4-.9-1.4a477.9 477.9 0 0 0-65.1-1.4c-18.4.8-36.8 2.5-55 5.1-17.7 2.5-35.1 5.6-52.5 9.5A991 991 0 0 0 1.1 39.6c-1 .3.4 1.4.9 1.3Z"/><path style="opacity:.11;" d="M3.4 42.7a884.3 884.3 0 0 1 55.3-14.5c17.4-3.8 34.8-7 52.4-9.4a570.2 570.2 0 0 1 87.4-5.3c11 .3 21.8.9 32.7 2L229 13c-3.9.4-7.6 1.3-11.2 2.7-3.5 1-6.9 2.3-10.1 4.1a111 111 0 0 1-22.6 7.5c-.3 0-.3.5-.1.7.1.2.8.3 1.1.2 10.1-1.7 20.2-3.6 30.2-5.7l14.6-3.3a1411.2 1411.2 0 0 1 69-9.9 642 642 0 0 1 71.9-3.7c11.4.1 22.7.6 34 1.4.7 0-.2-1-.2-1-.4-.4-1.3-1.3-2-1.3a558 558 0 0 0-113.2 3.9c-15.1 1.9-30.3 4.2-45.3 6.9-9.7 1.6-19.3 3.7-28.9 6.1-10.3 2.1-20.7 4-31 5.7l1 .9a119.8 119.8 0 0 0 22-7.4 43 43 0 0 1 10.1-3.6 78 78 0 0 1 13-1.8c.7 0-.2-1-.3-1-.4-.5-1.3-1.4-2-1.5a472.3 472.3 0 0 0-65.2-1.2c-18.4.8-36.8 2.6-55 5.2a670 670 0 0 0-52.5 9.6C37.7 30.7 19.4 35.8 1.1 41c-.8.3 1.7 2 2.3 1.8Z"/><path style="opacity:.11;" d="M5 39.3a657.6 657.6 0 0 1 138.8-27.4 469.9 469.9 0 0 1 88.6 0l-1.4-1.7c-3.9.5-7.7 1.4-11.4 2.8a85 85 0 0 0-10.6 3.8 121.9 121.9 0 0 1-22.4 7.1c-.9.2.4 1 .9 1 20-3.7 39.9-8.1 59.9-11.4 15.3-2.6 30.5-4.9 45.9-6.7a666.3 666.3 0 0 1 79.6-4.6c11.4 0 22.7.5 34 1.3 1.2 0-.5-1.6-1-1.6a553.2 553.2 0 0 0-113.6 3.6 850.6 850.6 0 0 0-74.8 12.9c-10.3 2-20.6 3.8-31 5.5l1 1a127.6 127.6 0 0 0 21.8-7.3 74.7 74.7 0 0 1 23.3-5.7c.9-.1-1-1.7-1.3-1.7a645.1 645.1 0 0 0-49.5-2c-18.6.3-37.3 1.5-55.9 3.6a640.2 640.2 0 0 0-60.7 10C44 26.1 23.4 31.7 2.6 37.6c-.6.1.3.7.4.8.4.3 1.4 1 2 .8Z"/><path style="opacity:.11;" d="M2.4 42c13.6-4 27.2-7.8 41-11.1A587.8 587.8 0 0 1 230 14.6l-1.7-1.9c-3.9.4-7.7 1.2-11.4 2.3-3.6.7-7 2-10.2 4-3.4 1.8-7 3.3-10.7 4.5a75.3 75.3 0 0 1-11.8 3.3c-.5 0-.3.3-.1.6.2.3 1.6.5 2 .5a796 796 0 0 0 37.4-7.6c12.1-2.8 24.2-4.8 36.5-6.6 10.2-1.5 20.4-3 30.7-4.2 38-4.6 75.3-5.4 113.9-3.2.6 0 0-.8-.1-.9-.4-.4-1-1-1.5-1a553.4 553.4 0 0 0-82.2.6 838.1 838.1 0 0 0-69 8.5c-4.8.5-9.6 1.3-14.3 2.6l-22.2 4.7a419.8 419.8 0 0 1-31 6l1.8 1c4-.7 8-2 11.7-3.7l8.9-4c3.4-1.6 6.9-2.8 10.6-3.6a81 81 0 0 1 12.7-1.8c.9-.1-1.1-1.9-1.7-2-16.3-1-32.6-2-49-1.7a551.5 551.5 0 0 0-94 9.3A705.9 705.9 0 0 0 .9 40.7c-.7.2 1 1.5 1.6 1.3Z"/><path style="opacity:.11;" d="M4.2 38.7a892.5 892.5 0 0 1 55.3-14.5A655.5 655.5 0 0 1 166.9 9.8a505.4 505.4 0 0 1 65.1 1.7l-.3-1.1c-8 1.4-15.9 3.2-23.5 6l-8 2.8c-4.7 1.6-9.4 2.9-14.3 4-.4 0-.3.5-.2.7.2.2 1 .3 1.3.3 20-3.8 39.9-8 60-11.2 15.3-2.5 30.6-4.8 46-6.7a660.3 660.3 0 0 1 79.6-4.6c11.3.2 22.7.6 34 1.4.7 0 .3-1-.3-1a553 553 0 0 0-66.7-.8c-15.7.9-31.3 2.2-47 4.1a993.2 993.2 0 0 0-45.7 6.8c-20.4 3.4-40.7 7.5-61 11l1 1a156 156 0 0 0 16.4-5.2l5.2-2c7.5-3 15.4-4.8 23.5-5.5.8-.1.2-1-.3-1.1a474.4 474.4 0 0 0-65.3-1.7A658.4 658.4 0 0 0 58.6 23.1c-18.6 4.1-37 9.2-55.2 14.5-1 .2.3 1.3.8 1.1Z"/><path style="opacity:.11;" d="M2.2 40.4a659 659 0 0 1 107.5-24 566 566 0 0 1 87.4-5.3c10.9.3 21.8 1 32.7 2v-.9a119.6 119.6 0 0 0-24 5.5c-3.5 1.3-7 2.6-10.7 3.8a94.8 94.8 0 0 1-11.8 3.1c-.5.1-.4.3-.2.7.3.3 2 .6 2.4.5 9.7-1.7 19.4-3.7 29-6a1104.1 1104.1 0 0 1 76.2-12 667 667 0 0 1 79.6-4.5c11.4.1 22.7.6 34 1.4.4 0 .7-.8.1-.8a551 551 0 0 0-66.6-.8 704 704 0 0 0-47 4c-15.4 1.8-30.7 4.1-46 6.6-20.6 3.2-41 7.5-61.5 11l2.2 1.1c3.9-.8 7.7-2 11.3-3.5a1612.8 1612.8 0 0 0 14.5-5.8c6-1.9 12.2-3 18.5-3.4.4 0 .6-.8 0-.9a477.2 477.2 0 0 0-65-1.6c-18.4.8-36.8 2.5-55 5-36.6 5-72.4 13.4-107.6 24-.4.1-.5 1 0 .8Z"/><path style="fill:none;" d="M0 0h409v43H0z"/></svg>