<svg id="_イヤー_2" xmlns="http://www.w3.org/2000/svg" viewBox="0 0 43 69"><path d="M41.7 42.2c-1 4.1-2.2 8.1-3.9 12-1.7 4-3.8 7.4-6.4 10.3a11.4 11.4 0 0 1-8.6 4.3c-2.8 0-5.4-.6-7.7-1.7a31.8 31.8 0 0 1-6.7-4.2 19 19 0 0 1-6.8-10.1c-1-4-1.6-8.1-1.6-12.3 0-3.3.4-7.4 1-12 .8-4.7 2-9.1 3.8-13.4C6.6 11 9 7.3 12 4.4c3-3 6.7-4.4 11.2-4.4 2.6 0 5 .6 7.2 1.8a23.3 23.3 0 0 1 9.5 10.1 44.3 44.3 0 0 1 3 13.4l.2 6.8c0 2.6-.5 6-1.3 10Zm-5.7-13c-.5-4.2-1.3-8.3-2.6-12.3-1.2-4-3-7.5-5-10.4-2-3-4.7-4.5-7.8-4.5-2.4 0-4.3.7-5.8 2.3A19 19 0 0 0 11 9.8c-1 2.2-1.6 4.5-2 6.9-.3 2.3-.5 4.4-.5 6.2A112.3 112.3 0 0 0 12 47.4a42 42 0 0 0 5.4 12c2.3 3.4 5.1 5.1 8.6 5.1 2.7 0 4.9-1 6.4-3 1.4-2 2.5-4.5 3.2-7.2.6-2.8 1-5.6 1-8.6l.1-7.2c0-2.1-.2-5.3-.7-9.4Z"/><path style="fill:none;" d="M0 0h43v69H0z"/></svg>