<svg id="_イヤー_2" xmlns="http://www.w3.org/2000/svg" viewBox="0 0 47 70"><path d="M45.1 61.8a31 31 0 0 1-9.9 6.4 13 13 0 0 1-4.5 1c-2.5 0-4.5-.7-6-2.1-1.5-1.5-2.9-3.1-4-5a40.6 40.6 0 0 0-3.6-4.8 6.3 6.3 0 0 0-5-2.2c-2.4 0-4 .7-4.5 2.2-.6 1.4-1 3-1 4.9L6 67c-.3 1.4-1.2 2.1-2.7 2.1-1.8 0-3-.7-3.3-2.1 2-4.1 4.7-8.5 8.3-13L19 40.2c3.5-4.6 6.6-9 9.2-13.5 2.7-4.4 4-8.5 4-12.3 0-3.4-1.2-6.4-3.4-9A11.2 11.2 0 0 0 20 1.9c-3 0-5.7 1.1-8 3.4a11 11 0 0 0-3.6 8.2c0 3.3 1 5.6 3 6.8a16 16 0 0 0 7.7 2v1.5a18.4 18.4 0 0 1-8.2 3.6c-2.7 0-5-1-6.6-3.2A11.4 11.4 0 0 1 2 17c0-2.3.7-4.5 2-6.6 1.3-2.1 3-4 5-5.5A24 24 0 0 1 22.6 0 25.7 25.7 0 0 1 36 3.9c2 1.3 3.5 2.8 4.7 4.8 1.2 1.9 1.8 4.2 1.8 6.8 0 4.6-1.3 8.6-4 12a61.5 61.5 0 0 1-9.4 9.7c-3.6 3-7.3 6-11.1 8.7a37.8 37.8 0 0 0-9.1 9.2 18.8 18.8 0 0 1 8.1-1.8c2.9 0 5.3.6 7.3 1.7s3.8 2.4 5.3 3.7l4 3.7a5.5 5.5 0 0 0 3.8 1.7c1.1 0 2.1-.3 3-1 1-.8 1.8-1.6 2.5-2.4l2.1-2.4c.6-.7 1.2-1 1.7-1l.3.6c0 1.3-.6 2.6-1.9 4Z"/><path style="fill:none;" d="M0 0h47v70H0z"/></svg>