<?xml version="1.0" encoding="UTF-8"?><svg id="_イヤー_2" xmlns="http://www.w3.org/2000/svg" viewBox="0 0 407.89 42.16"><defs><style>.cls-1{fill:none;}.cls-2{fill:#ff931e;opacity:.11;}</style></defs><g id="__pub__Home_メインコピー_2ベース_1"><g><g><path class="cls-2" d="M2.64,40.49c18.31-5.31,36.67-10.36,55.29-14.5,17.34-3.85,34.8-7,52.39-9.43,18.27-2.53,36.62-4.29,55.05-5.04,10.77-.44,21.55-.55,32.33-.31,10.93,.24,21.84,.86,32.73,1.87l-2.19-2.3c-3.84,.33-7.64,.96-11.38,1.89-1.73,.27-3.42,.69-5.06,1.28-4.75,3.15-9.77,5.82-15.05,8.01-3.79,1.56-7.7,2.72-11.73,3.46-1.38,.33,1.77,1.34,2.31,1.25,10.29-1.72,20.55-3.64,30.76-5.78,9.34-2.36,18.7-4.67,28.07-6.9l14.42-2.06c10.2-1.42,20.42-2.76,30.64-4.02,15.64-1.83,31.35-3.23,47.08-3.97,10.87-.52,21.74-.72,32.62-.62,11.35,.11,22.69,.57,34.02,1.37,.69,.04-.2-.94-.22-.95-.4-.44-1.23-1.26-1.87-1.29-11.33-.76-22.68-1.16-34.04-1.22-10.87-.06-21.74,.2-32.6,.76-15.7,.88-31.35,2.27-46.96,4.15-7.58,1.03-15.16,1.98-22.76,2.87-6.69,.81-13.39,1.6-20.09,2.38-10.12,2.51-20.15,5.35-30.1,8.52-10.41,1.94-20.84,3.78-31.29,5.52l2.59,1.17c2.12-.39,4.18-.97,6.18-1.74,3.14-1.54,6.28-3.06,9.43-4.57,4.57-2.41,9.39-4.19,14.46-5.34,4.21-.92,8.46-1.54,12.76-1.86,.67-.08-.15-.87-.24-.97-.43-.46-1.27-1.28-1.94-1.33-10.92-.95-21.87-1.53-32.83-1.72-10.81-.19-21.61-.05-32.41,.44-18.47,.82-36.85,2.65-55.15,5.24-17.61,2.49-35.09,5.69-52.45,9.57C36.84,28.47,18.52,33.54,.22,38.73c-.63,.18,.28,.81,.38,.88,.41,.3,1.48,1.04,2.04,.87Z"/><path class="cls-2" d="M3.18,38.89c27.94-8.11,56.1-15.45,84.8-20.38,30.95-5.32,62.35-8.84,93.77-8.98l16.23,.1c10.93,.24,21.84,.86,32.73,1.86l-1.25-1.67c-3.97,.35-7.88,1.01-11.75,1.98-2.71,.18-5.18,.99-7.4,2.43-4.22,2.37-8.6,4.42-13.14,6.16-3.81,1.5-7.73,2.63-11.76,3.38-1.35,.32,1.63,1.36,2.16,1.26,10.18-1.73,20.32-3.63,30.44-5.68l15.08-3.48c14.23-3.32,28.59-5.83,43.09-7.53,7.69-1.08,15.4-2.01,23.13-2.8,15.76-1.71,31.54-2.89,47.38-3.42,8.17-.35,16.35-.47,24.53-.36,11.35,.11,22.69,.56,34.01,1.36,1.18,.07-.44-1.6-.96-1.62-11.34-.79-22.7-1.22-34.07-1.31-10.89-.08-21.77,.15-32.64,.69-15.72,.84-31.4,2.2-47.04,4.08-7.66,.99-15.32,1.98-22.99,2.96-6.92,.88-13.83,1.78-20.74,2.7-10.23,1.64-20.27,4.21-30.11,7.72-10.41,1.92-20.83,3.74-31.27,5.46l2.42,1.19c1.94-.53,4.19-1,6.08-1.69,4.15-1.52,8.03-3.8,12.05-5.6,3.13-1.4,6.2-2.71,9.51-3.57,5.13-1.34,10.2-2,15.47-2.61,.83-.1-.92-1.64-1.25-1.67-10.95-.8-21.88-1.59-32.85-1.82-10.8-.23-21.64-.1-32.44,.36-13.34,.56-26.64,1.68-39.9,3.18-20.39,2.31-40.63,5.67-60.71,9.92C42.7,25.93,21.95,31.54,1.23,37.44c-.74,.21,1.35,1.62,1.94,1.45Z"/><path class="cls-2" d="M3.75,40.26c18.31-5.34,36.66-10.38,55.28-14.52,17.33-3.85,34.79-6.99,52.38-9.43,18.26-2.53,36.61-4.29,55.04-5.04,10.77-.44,21.54-.55,32.32-.31,10.93,.24,21.84,.86,32.72,1.87l-2.75-2.73c-3.78,.36-7.5,1.04-11.16,2.05-1.73,.25-3.38,.71-4.97,1.38-4.67,3.18-9.62,5.88-14.84,8.08-3.78,1.6-7.69,2.77-11.73,3.5-.48,.11-.37,.34-.16,.65,.24,.34,1.73,.6,2.12,.53,10.39-1.7,20.74-3.59,31.06-5.65l14.73-3.62c21.78-5.13,43.98-7.87,66.19-10.25,15.78-1.69,31.57-2.86,47.43-3.38,8.18-.35,16.36-.46,24.55-.34,11.35,.11,22.69,.57,34.02,1.38,.77,.04-.37-1.08-.35-1.05-.51-.48-1.48-1.54-2.25-1.58-11.34-.75-22.7-1.16-34.06-1.21-10.88-.05-21.75,.21-32.61,.78-15.69,.89-31.33,2.3-46.93,4.21-7.53,1.07-15.07,2.01-22.63,2.82-6.47,.7-12.92,1.48-19.37,2.36-10.39,2.01-20.54,4.97-30.47,8.87-10.4,1.92-20.83,3.76-31.26,5.5l1.96,1.18c2.27-.27,4.42-.86,6.45-1.77,4.61-2.19,9.22-4.39,13.83-6.6,3.29-1.54,6.73-2.65,10.31-3.32,4.26-.89,8.56-1.49,12.9-1.78,.74-.08-.32-1.02-.39-1.08-.55-.51-1.55-1.59-2.36-1.65-10.94-.95-21.9-1.53-32.88-1.72-10.82-.19-21.64-.04-32.46,.45-18.49,.82-36.89,2.66-55.22,5.25-17.62,2.5-35.12,5.7-52.49,9.59C37.12,27.84,18.8,32.92,.49,38.08c-.73,.21,.54,.96,.6,.99,.53,.33,1.97,1.39,2.66,1.19Z"/><path class="cls-2" d="M5.47,41.95c18.31-5.36,36.67-10.4,55.31-14.53,17.33-3.84,34.79-6.97,52.37-9.39,18.26-2.51,36.6-4.26,55.02-4.99,10.77-.43,21.54-.53,32.31-.28,10.92,.25,21.82,.89,32.7,1.9l-3.21-3.1c-2.9,.62-5.52,1.16-8.27,2.22-2.59,1-5.16,2.04-7.73,3.11-3.5,1.46-6.96,3.06-10.49,4.45-5.56,2.18-11.53,3.53-17.33,4.85-.29,.07-.5,.91-.03,.83,10.36-1.59,20.66-3.53,30.89-5.83,10.14-1.84,20.29-3.63,30.45-5.37,15.37-2.51,30.77-4.81,46.24-6.6s31.43-3.17,47.19-3.88c10.89-.49,21.78-.68,32.68-.56,11.36,.13,22.71,.61,34.05,1.43,.82,.05-.49-1.17-.44-1.12-.56-.52-1.67-1.74-2.51-1.78-11.32-.75-22.66-1.14-34.01-1.18-10.85-.04-21.69,.24-32.52,.83-18.17,.99-36.25,2.89-54.26,5.43-12.53,1.76-25.03,3.76-37.46,6.14-9.68,1.78-19.29,3.91-28.82,6.37-10.48,1.79-20.97,3.55-31.46,5.29l-.03,.83c6.91-1.57,13.76-3.25,20.3-6.03,2.62-1.15,5.28-2.21,7.97-3.17,6.12-2.07,12.38-3.12,18.8-3.16,.82-.06-.49-1.16-.51-1.18-.61-.56-1.8-1.87-2.71-1.93-10.94-.95-21.89-1.53-32.87-1.72-10.82-.19-21.63-.04-32.44,.45-18.48,.82-36.88,2.66-55.19,5.25s-35.11,5.7-52.47,9.59c-18.57,4.16-36.88,9.25-55.2,14.4-.77,.22,.65,1.02,.7,1.05,.57,.35,2.22,1.59,2.96,1.37Z"/><path class="cls-2" d="M5.34,40.52c18.31-5.35,36.66-10.39,55.29-14.53,17.33-3.84,34.78-6.99,52.35-9.42,18.25-2.53,36.59-4.28,55-5.03,10.76-.44,21.53-.54,32.3-.3,10.92,.24,21.82,.87,32.69,1.87l-2.92-2.8c-2.01,.12-3.95,.49-5.82,1.11-3.42,1.07-6.79,2.25-10.14,3.53-3.32,1.73-6.68,3.39-10.07,4.97-5.65,2.2-11.45,3.89-17.38,5.07-.72,.17,.24,.95,.74,.86,10.21-1.66,20.38-3.52,30.52-5.58,9.79-2.57,19.69-4.53,29.71-5.9,15.3-2.44,30.64-4.73,46.03-6.54,15.65-1.83,31.39-3.2,47.13-3.93,10.87-.51,21.75-.71,32.64-.6,11.35,.12,22.69,.58,34.02,1.39,.79,.04-.42-1.09-.38-1.06-.54-.49-1.53-1.54-2.32-1.58-11.34-.76-22.69-1.16-34.05-1.21-10.87-.05-21.72,.22-32.57,.8-15.64,.9-31.24,2.32-46.79,4.3-15.06,1.92-30.25,4.15-45.17,6.94-9.56,1.73-19.02,3.92-28.37,6.58-10.35,2.05-20.73,3.89-31.15,5.53l.74,.86c5.89-1.39,11.61-3.02,17.25-5.21,4.8-2.7,9.86-4.64,15.2-5.84,4.33-.94,8.71-1.5,13.14-1.69,.77-.07-.4-1.06-.44-1.1-.58-.52-1.64-1.64-2.48-1.7-10.95-.96-21.91-1.55-32.9-1.75-10.83-.2-21.65-.06-32.47,.43-18.5,.81-36.91,2.64-55.24,5.23s-35.13,5.69-52.51,9.57c-18.57,4.16-36.89,9.24-55.21,14.38-.77,.22,.65,1.01,.69,1.04,.57,.35,2.18,1.53,2.92,1.31Z"/><path class="cls-2" d="M2.57,39.01c18.27-5.42,36.61-10.45,55.23-14.57,17.33-3.84,34.78-6.97,52.36-9.4,18.25-2.52,36.59-4.26,55.01-4.99,10.76-.43,21.53-.53,32.3-.28,10.92,.25,21.82,.89,32.69,1.9l.11-.79c-4.56,.41-9.04,1.2-13.46,2.38-3.7,.53-7.25,1.55-10.66,3.07-3.53,1.31-7.08,2.57-10.64,3.79-3.86,1.29-7.8,2.33-11.79,3.12-.49,.11-.38,.34-.16,.64,.23,.34,1.78,.63,2.17,.56,14.61-2.83,29.12-6.21,43.77-8.84s30.73-5.2,46.11-7.17l46.64-4.97c10.66-.78,21.34-1.28,32.02-1.48l16.45-.07c11.34,.12,22.67,.58,33.98,1.39,.33,.02,.7-.74,.15-.77-11.32-.81-22.66-1.27-34-1.39-10.87-.11-21.74,.1-32.6,.61-15.7,.74-31.36,2.13-46.96,3.98-15.42,1.83-30.79,4.13-46.12,6.58-20.55,3.28-40.92,7.46-61.44,10.94l2,1.2c3.85-.85,7.61-2.01,11.28-3.47,3.23-1.31,6.46-2.61,9.68-3.92,3.49-1.5,7.09-2.68,10.79-3.56,4.19-.9,8.42-1.5,12.69-1.82,.39-.04,.65-.75,.11-.79-10.89-1.02-21.81-1.65-32.74-1.91-10.78-.25-21.56-.16-32.34,.27-18.44,.73-36.8,2.47-55.07,4.99-17.6,2.42-35.06,5.56-52.41,9.39-18.62,4.12-36.96,9.15-55.24,14.58-.37,.11-.43,.97,.1,.81Z"/><path class="cls-2" d="M1.77,40.28c18.32-5.28,36.66-10.34,55.28-14.48,17.33-3.85,34.78-7,52.36-9.44,18.26-2.53,36.6-4.3,55.02-5.05,10.77-.45,21.54-.55,32.31-.32,10.92,.24,21.83,.86,32.71,1.85l-.93-1.44c-4.01,.35-7.97,.98-11.89,1.87-2.73,.12-5.23,.89-7.48,2.31-4.34,2.34-8.84,4.37-13.48,6.09-3.94,1.48-7.97,2.6-12.1,3.38-.55,.13,.32,.64,.4,.68,.56,.27,1.75,.67,2.38,.55,10.11-1.75,20.18-3.71,30.21-5.88,9.44-2.31,18.9-4.5,28.4-6.56l14.66-2c10.22-1.5,20.46-2.87,30.72-4.11,15.62-1.84,31.33-3.24,47.05-3.98,10.86-.52,21.72-.73,32.6-.64,11.34,.1,22.67,.56,33.99,1.35,1.05,.06-.16-1.4-.69-1.43-11.32-.78-22.66-1.2-34-1.29-10.87-.08-21.74,.15-32.59,.7-15.72,.84-31.39,2.2-47.02,4.05-7.68,.93-15.35,1.94-23.01,3.03-7.38,1.06-14.78,2.01-22.19,2.87-9.63,2.86-19.38,5.22-29.26,7.1-10.43,1.96-20.88,3.8-31.35,5.5l2.78,1.23c1.95-.55,4.17-1.01,6.07-1.71,4.09-1.5,7.91-3.73,11.88-5.49,3.14-1.39,6.24-2.68,9.56-3.56,5.14-1.36,10.21-2.01,15.5-2.61,.81-.09-.61-1.42-.93-1.44-10.9-.97-21.82-1.57-32.76-1.79-10.79-.21-21.57-.09-32.35,.38-18.44,.79-36.8,2.58-55.07,5.14-17.59,2.46-35.06,5.63-52.4,9.5C37.54,28.75,19.22,33.83,.9,39.05c-.99,.28,.37,1.37,.87,1.23Z"/><path class="cls-2" d="M3.25,42.14c18.31-5.32,36.67-10.37,55.3-14.5,17.34-3.84,34.8-6.98,52.39-9.41s36.62-4.27,55.05-5.01c10.77-.44,21.55-.53,32.33-.28,10.93,.25,21.84,.88,32.73,1.9l-2.37-2.46c-3.82,.45-7.53,1.36-11.14,2.71-3.54,.98-6.92,2.36-10.13,4.15-7.31,3.43-14.74,5.7-22.59,7.51-.28,.06-.26,.48-.14,.65,.18,.25,.88,.29,1.15,.25,10.11-1.73,20.19-3.63,30.23-5.72l14.6-3.26c15.21-2.62,30.46-4.99,45.75-7.11,7.69-1.08,15.41-2.02,23.14-2.8,15.77-1.7,31.55-2.86,47.41-3.39,8.18-.35,16.36-.46,24.55-.34,11.36,.12,22.7,.58,34.02,1.4,.71,.04-.24-.97-.24-.98-.42-.45-1.28-1.33-1.95-1.36-11.31-.74-22.64-1.14-33.97-1.19-10.85-.04-21.68,.23-32.51,.81-15.63,.91-31.22,2.32-46.76,4.28-15.12,1.91-30.28,4.2-45.28,6.89-9.71,1.67-19.33,3.73-28.86,6.19-10.34,2.1-20.72,3.98-31.13,5.66l1.01,.9c4.06-.78,8.02-1.91,11.88-3.38,3.42-1.19,6.77-2.54,10.06-4.03,3.27-1.64,6.69-2.84,10.26-3.61,4.28-.96,8.62-1.56,13.01-1.79,.69-.07-.2-.93-.29-1.01-.49-.47-1.34-1.4-2.08-1.45-10.91-.95-21.84-1.51-32.79-1.7-10.79-.19-21.58-.04-32.37,.45-18.45,.83-36.81,2.66-55.08,5.25-17.59,2.5-35.06,5.69-52.4,9.58C37.49,30.12,19.19,35.2,.9,40.38c-.74,.21,1.71,1.95,2.35,1.76Z"/><path class="cls-2" d="M4.75,38.7c13.59-3.95,27.21-7.77,40.95-11.17,16.99-4.2,34.16-7.63,51.42-10.46,15.42-2.52,30.88-4.47,46.45-5.78,18.58-1.73,37.22-2.34,55.92-1.85,10.93,.24,21.84,.86,32.72,1.87l-1.35-1.69c-3.94,.47-7.75,1.42-11.46,2.84-3.63,1.03-7.17,2.3-10.63,3.8-3.49,1.49-7.05,2.81-10.67,3.97-3.85,1.28-7.76,2.32-11.73,3.11-.86,.2,.44,1.02,.94,.93,20-3.62,39.85-8.06,59.9-11.37,15.25-2.52,30.54-4.84,45.89-6.67s31.31-3.26,47.02-4.01c10.86-.52,21.73-.73,32.6-.63,11.35,.11,22.68,.56,34,1.36,1.18,.07-.47-1.58-1-1.61-11.34-.79-22.7-1.23-34.07-1.32-10.88-.08-21.75,.15-32.61,.7-15.68,.86-31.31,2.24-46.89,4.17s-30.42,4.22-45.5,6.93c-9.82,1.73-19.6,3.72-29.31,5.98-10.29,2.02-20.62,3.87-30.97,5.54l.94,.93c3.94-.84,7.8-1.93,11.59-3.27,3.46-1.18,6.87-2.51,10.21-3.98,3.42-1.48,6.93-2.71,10.53-3.7,4.2-1.04,8.47-1.7,12.79-2,.83-.1-1.01-1.67-1.35-1.69-10.96-.81-21.9-1.61-32.89-1.86-5.19-.12-11.36-.14-16.55-.09-18.68,.21-37.33,1.47-55.89,3.57-20.41,2.3-40.66,5.65-60.76,9.9-21.09,4.46-41.83,10.07-62.56,15.95-.61,.17,.27,.78,.36,.85,.41,.29,1.39,.91,1.93,.76Z"/><path class="cls-2" d="M2.24,41.47c13.58-3.95,27.17-7.86,40.93-11.16C104.52,15.57,163.47,9.11,229.95,14.07l-1.7-1.9c-3.89,.38-7.7,1.14-11.44,2.27-3.65,.68-7.07,1.99-10.24,3.93-3.4,1.88-6.96,3.4-10.67,4.57-3.84,1.4-7.77,2.49-11.78,3.25-.46,.11-.34,.38-.14,.65,.24,.32,1.62,.51,1.99,.44,12.54-2.29,25.05-4.65,37.47-7.54s24.2-4.8,36.5-6.59c10.21-1.48,20.42-2.93,30.67-4.18,37.91-4.62,75.27-5.41,113.86-3.27,.6,.03-.04-.79-.09-.85-.34-.39-.96-.96-1.51-.99-16.73-.85-33.42-1.45-50.17-1.06-10.68,.25-21.43,.77-32.07,1.64-18.02,1.47-35.95,3.65-53.83,6.28-5.02,.75-10.05,1.48-15.08,2.19-4.84,.49-9.61,1.36-14.32,2.59-7.39,1.68-14.79,3.27-22.22,4.77-10.28,2.37-20.63,4.34-31.06,5.93l1.85,1.09c4.06-.78,7.98-2.04,11.74-3.75,2.99-1.26,5.96-2.59,8.89-3.99,3.39-1.59,6.91-2.78,10.57-3.57,4.21-.97,8.47-1.6,12.78-1.89,.86-.09-1.19-1.86-1.7-1.9-16.33-1.14-32.6-1.98-48.98-1.76-15.94,.22-31.89,1.19-47.74,2.79-15.49,1.57-30.95,3.71-46.26,6.5-14.7,2.68-29.34,5.7-43.85,9.31-13.69,3.4-27.25,7.21-40.81,11.09-.75,.22,1.08,1.51,1.63,1.35Z"/><path class="cls-2" d="M4,38.17c18.31-5.31,36.66-10.36,55.28-14.49,17.34-3.84,34.81-6.98,52.4-9.4,18.27-2.52,36.63-4.26,55.07-5,10.78-.43,21.56-.53,32.34-.27,10.94,.26,21.85,.89,32.74,1.91l-.34-1.09c-7.97,1.42-15.88,3.22-23.5,5.94-2.64,.94-5.27,1.91-7.92,2.83-4.76,1.66-9.5,2.91-14.41,4.06-.31,.07-.3,.44-.17,.64,.17,.26,1,.39,1.27,.34,20.02-3.81,39.95-7.96,60.07-11.23,15.27-2.49,30.56-4.81,45.93-6.64,15.61-1.85,31.31-3.25,47.02-3.98,10.86-.52,21.73-.72,32.6-.61,11.35,.12,22.68,.58,34,1.39,.7,.04,.29-1.02-.28-1.05-11.34-.81-22.69-1.27-34.05-1.38-10.88-.1-21.75,.11-32.62,.64-15.7,.83-31.35,2.17-46.96,4.06-15.29,1.85-30.53,4.21-45.72,6.77-20.41,3.45-40.7,7.53-61.1,11.05l1.1,.98c5.66-1.44,10.94-3.14,16.4-5.18l5.16-1.93c7.51-3.03,15.35-4.9,23.52-5.61,.81-.09,.18-1.05-.34-1.09-10.93-1.02-21.88-1.67-32.85-1.93-10.82-.26-21.63-.17-32.45,.26-18.49,.73-36.9,2.47-55.23,4.99-17.63,2.42-35.14,5.56-52.52,9.41-18.61,4.12-36.94,9.17-55.25,14.44-.94,.27,.32,1.31,.82,1.16Z"/><path class="cls-2" d="M2.04,39.84c18.25-5.47,36.57-10.48,55.18-14.6,17.33-3.84,34.78-6.97,52.36-9.4,18.25-2.52,36.59-4.26,55-4.99,10.76-.43,21.53-.53,32.3-.28,10.92,.25,21.82,.89,32.69,1.9l.1-.81c-4.47,.49-8.9,1.24-13.29,2.23-3.73,.59-7.32,1.66-10.76,3.21-3.54,1.32-7.1,2.59-10.68,3.81-3.87,1.3-7.82,2.34-11.82,3.13-.52,.12-.39,.32-.16,.65,.26,.35,1.93,.66,2.35,.58,9.71-1.74,19.38-3.73,28.99-5.97,9.93-2.18,19.92-4,29.98-5.44,15.36-2.47,30.74-4.78,46.2-6.6,15.62-1.84,31.33-3.22,47.05-3.95,10.86-.51,21.72-.71,32.59-.6,11.34,.12,22.67,.58,33.98,1.39,.36,.02,.69-.76,.14-.79-11.32-.81-22.65-1.27-34-1.38-10.87-.11-21.73,.1-32.59,.62-15.71,.81-31.38,2.13-47,3.99-15.4,1.83-30.77,4.12-46.09,6.56-20.55,3.27-40.92,7.49-61.44,10.95l2.19,1.22c3.88-.85,7.66-2.02,11.34-3.51,2.45-1,4.91-2.01,7.35-3.02,2.34-.99,4.71-1.93,7.1-2.8,6.01-1.88,12.17-3.03,18.48-3.45,.41-.04,.65-.77,.1-.81-10.89-1.01-21.8-1.64-32.73-1.9-10.78-.25-21.56-.16-32.33,.28-18.43,.73-36.79,2.48-55.06,5C73.03,20.07,37.26,28.45,1.98,39.06c-.33,.1-.47,.94,.06,.79Z"/></g><rect class="cls-1" x=".81" y="1.13" width="403" height="38"/></g></g></svg>